# Rhino

g object_1
v 44 22 -18
v 52 22 -18
v 52 22 -26
v 48 22 -26
v 48 22 -22
v 44 22 -22
v 52 25 -18
v 44 25 -18
v 52 25 -26
v 48 25 -26
v 48 25 -22
v 44 25 -22
f 6 5 4 3 2 1
f 12 8 7 9 10 11
f 7 8 1 2
f 9 7 2 3
f 10 9 3 4
f 11 10 4 5
f 12 11 5 6
f 8 12 6 1
g object_2
v 49 22 -46
v 49 25 -46
v 49 22 -30
v 49 25 -30
v 51 22 -30
v 51 25 -30
v 51 22 -46
v 51 25 -46
f 15 13 19 17
f 20 14 16 18
f 13 15 16 14
f 15 17 18 16
f 17 19 20 18
f 19 13 14 20
g object_3
v 49 19 -46
v 49 22 -46
v 49 19 -30
v 49 22 -30
v 51 19 -30
v 51 22 -30
v 51 19 -46
v 51 22 -46
f 23 21 27 25
f 28 22 24 26
f 21 23 24 22
f 23 25 26 24
f 25 27 28 26
f 27 21 22 28
g object_4
v 49 16 -46
v 49 19 -46
v 49 16 -30
v 49 19 -30
v 51 16 -30
v 51 19 -30
v 51 16 -46
v 51 19 -46
f 31 29 35 33
f 36 30 32 34
f 29 31 32 30
f 31 33 34 32
f 33 35 36 34
f 35 29 30 36
g object_5
v 24 22 -19
v 24 25 -19
v 40 22 -19
v 40 25 -19
v 40 22 -21
v 40 25 -21
v 24 22 -21
v 24 25 -21
f 39 37 43 41
f 44 38 40 42
f 37 39 40 38
f 39 41 42 40
f 41 43 44 42
f 43 37 38 44
g object_6
v 44 19 -18
v 52 19 -18
v 52 19 -26
v 48 19 -26
v 48 19 -22
v 44 19 -22
v 52 22 -18
v 44 22 -18
v 52 22 -26
v 48 22 -26
v 48 22 -22
v 44 22 -22
f 50 49 48 47 46 45
f 56 52 51 53 54 55
f 51 52 45 46
f 53 51 46 47
f 54 53 47 48
f 55 54 48 49
f 56 55 49 50
f 52 56 50 45
g object_7
v 40 1 -18
v 40 25 -18
v 44 1 -18
v 44 25 -18
v 44 1 -22
v 44 25 -22
v 40 1 -22
v 40 25 -22
f 58 57 59 60
f 60 59 61 62
f 62 61 63 64
f 64 63 57 58
f 63 61 59 57
f 64 58 60 62
g object_8
v 48 1 -30
v 48 25 -30
v 48 1 -26
v 48 25 -26
v 52 1 -26
v 52 25 -26
v 52 1 -30
v 52 25 -30
f 66 65 67 68
f 68 67 69 70
f 70 69 71 72
f 72 71 65 66
f 71 69 67 65
f 72 66 68 70
g object_9
v 44 16 -18
v 52 16 -18
v 52 16 -26
v 48 16 -26
v 48 16 -22
v 44 16 -22
v 52 19 -18
v 44 19 -18
v 52 19 -26
v 48 19 -26
v 48 19 -22
v 44 19 -22
f 78 77 76 75 74 73
f 84 80 79 81 82 83
f 79 80 73 74
f 81 79 74 75
f 82 81 75 76
f 83 82 76 77
f 84 83 77 78
f 80 84 78 73
g object_10
v 44 13 -18
v 52 13 -18
v 52 13 -26
v 48 13 -26
v 48 13 -22
v 44 13 -22
v 52 16 -18
v 44 16 -18
v 52 16 -26
v 48 16 -26
v 48 16 -22
v 44 16 -22
f 90 89 88 87 86 85
f 96 92 91 93 94 95
f 91 92 85 86
f 93 91 86 87
f 94 93 87 88
f 95 94 88 89
f 96 95 89 90
f 92 96 90 85
g object_11
v 44 7 -18
v 52 7 -18
v 52 7 -26
v 48 7 -26
v 48 7 -22
v 44 7 -22
v 52 10 -18
v 44 10 -18
v 52 10 -26
v 48 10 -26
v 48 10 -22
v 44 10 -22
f 102 101 100 99 98 97
f 108 104 103 105 106 107
f 103 104 97 98
f 105 103 98 99
f 106 105 99 100
f 107 106 100 101
f 108 107 101 102
f 104 108 102 97
g object_12
v 44 10 -18
v 52 10 -18
v 52 10 -26
v 48 10 -26
v 48 10 -22
v 44 10 -22
v 52 13 -18
v 44 13 -18
v 52 13 -26
v 48 13 -26
v 48 13 -22
v 44 13 -22
f 114 113 112 111 110 109
f 120 116 115 117 118 119
f 115 116 109 110
f 117 115 110 111
f 118 117 111 112
f 119 118 112 113
f 120 119 113 114
f 116 120 114 109
g object_13
v 44 4 -18
v 52 4 -18
v 52 4 -26
v 48 4 -26
v 48 4 -22
v 44 4 -22
v 52 7 -18
v 44 7 -18
v 52 7 -26
v 48 7 -26
v 48 7 -22
v 44 7 -22
f 126 125 124 123 122 121
f 132 128 127 129 130 131
f 127 128 121 122
f 129 127 122 123
f 130 129 123 124
f 131 130 124 125
f 132 131 125 126
f 128 132 126 121
g object_14
v 44 1 -18
v 52 1 -18
v 52 1 -26
v 48 1 -26
v 48 1 -22
v 44 1 -22
v 52 4 -18
v 44 4 -18
v 52 4 -26
v 48 4 -26
v 48 4 -22
v 44 4 -22
f 138 137 136 135 134 133
f 144 140 139 141 142 143
f 139 140 133 134
f 141 139 134 135
f 142 141 135 136
f 143 142 136 137
f 144 143 137 138
f 140 144 138 133
g object_15
v 49 1 -46
v 49 4 -46
v 49 1 -30
v 49 4 -30
v 51 1 -30
v 51 4 -30
v 51 1 -46
v 51 4 -46
f 147 145 151 149
f 152 146 148 150
f 145 147 148 146
f 147 149 150 148
f 149 151 152 150
f 151 145 146 152
g object_16
v 49 13 -46
v 49 16 -46
v 49 13 -30
v 49 16 -30
v 51 13 -30
v 51 16 -30
v 51 13 -46
v 51 16 -46
f 155 153 159 157
f 160 154 156 158
f 153 155 156 154
f 155 157 158 156
f 157 159 160 158
f 159 153 154 160
g object_17
v 49 7 -46
v 49 10 -46
v 49 7 -30
v 49 10 -30
v 51 7 -30
v 51 10 -30
v 51 7 -46
v 51 10 -46
f 163 161 167 165
f 168 162 164 166
f 161 163 164 162
f 163 165 166 164
f 165 167 168 166
f 167 161 162 168
g object_18
v 49 10 -46
v 49 13 -46
v 49 10 -30
v 49 13 -30
v 51 10 -30
v 51 13 -30
v 51 10 -46
v 51 13 -46
f 171 169 175 173
f 176 170 172 174
f 169 171 172 170
f 171 173 174 172
f 173 175 176 174
f 175 169 170 176
g object_19
v 49 4 -46
v 49 7 -46
v 49 4 -30
v 49 7 -30
v 51 4 -30
v 51 7 -30
v 51 4 -46
v 51 7 -46
f 179 177 183 181
f 184 178 180 182
f 177 179 180 178
f 179 181 182 180
f 181 183 184 182
f 183 177 178 184
g object_20
v 49 4 -62
v 49 7 -62
v 49 4 -46
v 49 7 -46
v 51 4 -46
v 51 7 -46
v 51 4 -62
v 51 7 -62
f 187 185 191 189
f 192 186 188 190
f 185 187 188 186
f 187 189 190 188
f 189 191 192 190
f 191 185 186 192
g object_21
v 49 10 -62
v 49 13 -62
v 49 10 -46
v 49 13 -46
v 51 10 -46
v 51 13 -46
v 51 10 -62
v 51 13 -62
f 195 193 199 197
f 200 194 196 198
f 193 195 196 194
f 195 197 198 196
f 197 199 200 198
f 199 193 194 200
g object_22
v 49 7 -62
v 49 10 -62
v 49 7 -46
v 49 10 -46
v 51 7 -46
v 51 10 -46
v 51 7 -62
v 51 10 -62
f 203 201 207 205
f 208 202 204 206
f 201 203 204 202
f 203 205 206 204
f 205 207 208 206
f 207 201 202 208
g object_23
v 49 13 -62
v 49 16 -62
v 49 13 -46
v 49 16 -46
v 51 13 -46
v 51 16 -46
v 51 13 -62
v 51 16 -62
f 211 209 215 213
f 216 210 212 214
f 209 211 212 210
f 211 213 214 212
f 213 215 216 214
f 215 209 210 216
g object_24
v 49 16 -62
v 49 19 -62
v 49 16 -46
v 49 19 -46
v 51 16 -46
v 51 19 -46
v 51 16 -62
v 51 19 -62
f 219 217 223 221
f 224 218 220 222
f 217 219 220 218
f 219 221 222 220
f 221 223 224 222
f 223 217 218 224
g object_25
v 49 19 -62
v 49 22 -62
v 49 19 -46
v 49 22 -46
v 51 19 -46
v 51 22 -46
v 51 19 -62
v 51 22 -62
f 227 225 231 229
f 232 226 228 230
f 225 227 228 226
f 227 229 230 228
f 229 231 232 230
f 231 225 226 232
g object_26
v 49 1 -62
v 49 4 -62
v 49 1 -46
v 49 4 -46
v 51 1 -46
v 51 4 -46
v 51 1 -62
v 51 4 -62
f 235 233 239 237
f 240 234 236 238
f 233 235 236 234
f 235 237 238 236
f 237 239 240 238
f 239 233 234 240
g object_27
v 8 1 -19
v 8 4 -19
v 24 1 -19
v 24 4 -19
v 24 1 -21
v 24 4 -21
v 8 1 -21
v 8 4 -21
f 243 241 247 245
f 248 242 244 246
f 241 243 244 242
f 243 245 246 244
f 245 247 248 246
f 247 241 242 248
g object_28
v 8 16 -19
v 8 19 -19
v 24 16 -19
v 24 19 -19
v 24 16 -21
v 24 19 -21
v 8 16 -21
v 8 19 -21
f 251 249 255 253
f 256 250 252 254
f 249 251 252 250
f 251 253 254 252
f 253 255 256 254
f 255 249 250 256
g object_29
v 8 13 -19
v 8 16 -19
v 24 13 -19
v 24 16 -19
v 24 13 -21
v 24 16 -21
v 8 13 -21
v 8 16 -21
f 259 257 263 261
f 264 258 260 262
f 257 259 260 258
f 259 261 262 260
f 261 263 264 262
f 263 257 258 264
g object_30
v 8 7 -19
v 8 10 -19
v 24 7 -19
v 24 10 -19
v 24 7 -21
v 24 10 -21
v 8 7 -21
v 8 10 -21
f 267 265 271 269
f 272 266 268 270
f 265 267 268 266
f 267 269 270 268
f 269 271 272 270
f 271 265 266 272
g object_31
v 8 10 -19
v 8 13 -19
v 24 10 -19
v 24 13 -19
v 24 10 -21
v 24 13 -21
v 8 10 -21
v 8 13 -21
f 275 273 279 277
f 280 274 276 278
f 273 275 276 274
f 275 277 278 276
f 277 279 280 278
f 279 273 274 280
g object_32
v 8 4 -19
v 8 7 -19
v 24 4 -19
v 24 7 -19
v 24 4 -21
v 24 7 -21
v 8 4 -21
v 8 7 -21
f 283 281 287 285
f 288 282 284 286
f 281 283 284 282
f 283 285 286 284
f 285 287 288 286
f 287 281 282 288
