# Rhino

g object_1
v 44 16 -22
v 44 19 -22
v 48 16 -22
v 48 19 -22
v 48 16 -26
v 48 19 -26
v 44 16 -26
v 44 19 -26
f 3 1 7 5
f 8 2 4 6
f 1 3 4 2
f 3 5 6 4
f 5 7 8 6
f 7 1 2 8
g object_2
v 44 19 -22
v 44 22 -22
v 48 19 -22
v 48 22 -22
v 48 19 -26
v 48 22 -26
v 44 19 -26
v 44 22 -26
f 11 9 15 13
f 16 10 12 14
f 9 11 12 10
f 11 13 14 12
f 13 15 16 14
f 15 9 10 16
g object_3
v 44 22 -22
v 44 25 -22
v 48 22 -22
v 48 25 -22
v 48 22 -26
v 48 25 -26
v 44 22 -26
v 44 25 -26
f 19 17 23 21
f 24 18 20 22
f 17 19 20 18
f 19 21 22 20
f 21 23 24 22
f 23 17 18 24
g object_4
v 44 13 -22
v 44 16 -22
v 48 13 -22
v 48 16 -22
v 48 13 -26
v 48 16 -26
v 44 13 -26
v 44 16 -26
f 27 25 31 29
f 32 26 28 30
f 25 27 28 26
f 27 29 30 28
f 29 31 32 30
f 31 25 26 32
g object_5
v 44 10 -22
v 44 13 -22
v 48 10 -22
v 48 13 -22
v 48 10 -26
v 48 13 -26
v 44 10 -26
v 44 13 -26
f 35 33 39 37
f 40 34 36 38
f 33 35 36 34
f 35 37 38 36
f 37 39 40 38
f 39 33 34 40
g object_6
v 44 7 -22
v 44 10 -22
v 48 7 -22
v 48 10 -22
v 48 7 -26
v 48 10 -26
v 44 7 -26
v 44 10 -26
f 43 41 47 45
f 48 42 44 46
f 41 43 44 42
f 43 45 46 44
f 45 47 48 46
f 47 41 42 48
g object_7
v 44 4 -22
v 44 7 -22
v 48 4 -22
v 48 7 -22
v 48 4 -26
v 48 7 -26
v 44 4 -26
v 44 7 -26
f 51 49 55 53
f 56 50 52 54
f 49 51 52 50
f 51 53 54 52
f 53 55 56 54
f 55 49 50 56
g object_8
v 44 1 -22
v 44 4 -22
v 48 1 -22
v 48 4 -22
v 48 1 -26
v 48 4 -26
v 44 1 -26
v 44 4 -26
f 59 57 63 61
f 64 58 60 62
f 57 59 60 58
f 59 61 62 60
f 61 63 64 62
f 63 57 58 64
