# Rhino

g object_1
v 49.200000762939453 1 -30.200000762939453
v 49.200000762939453 25 -30.200000762939453
v 48.799999237060547 1 -30.200000762939453
v 48.799999237060547 25 -30.200000762939453
v 48.799999237060547 1 -29.799999237060547
v 48.799999237060547 25 -29.799999237060547
v 49.200000762939453 1 -29.799999237060547
v 49.200000762939453 25 -29.799999237060547
f 1 7 5 3
f 6 8 2 4
f 1 3 4 2
f 3 5 6 4
f 5 7 8 6
f 7 1 2 8
g object_2
v 49.200000762939453 1 -34.200000762939453
v 49.200000762939453 25 -34.200000762939453
v 48.799999237060547 1 -34.200000762939453
v 48.799999237060547 25 -34.200000762939453
v 48.799999237060547 1 -33.799999237060547
v 48.799999237060547 25 -33.799999237060547
v 49.200000762939453 1 -33.799999237060547
v 49.200000762939453 25 -33.799999237060547
f 9 15 13 11
f 14 16 10 12
f 9 11 12 10
f 11 13 14 12
f 13 15 16 14
f 15 9 10 16
g object_3
v 49.200000762939453 1 -38.200000762939453
v 49.200000762939453 25 -38.200000762939453
v 48.799999237060547 1 -38.200000762939453
v 48.799999237060547 25 -38.200000762939453
v 48.799999237060547 1 -37.799999237060547
v 48.799999237060547 25 -37.799999237060547
v 49.200000762939453 1 -37.799999237060547
v 49.200000762939453 25 -37.799999237060547
f 17 23 21 19
f 22 24 18 20
f 17 19 20 18
f 19 21 22 20
f 21 23 24 22
f 23 17 18 24
g object_4
v 49.200000762939453 1 -42.200000762939453
v 49.200000762939453 25 -42.200000762939453
v 48.799999237060547 1 -42.200000762939453
v 48.799999237060547 25 -42.200000762939453
v 48.799999237060547 1 -41.799999237060547
v 48.799999237060547 25 -41.799999237060547
v 49.200000762939453 1 -41.799999237060547
v 49.200000762939453 25 -41.799999237060547
f 25 31 29 27
f 30 32 26 28
f 25 27 28 26
f 27 29 30 28
f 29 31 32 30
f 31 25 26 32
g object_5
v 49.200000762939453 1 -46.200000762939453
v 49.200000762939453 25 -46.200000762939453
v 48.799999237060547 1 -46.200000762939453
v 48.799999237060547 25 -46.200000762939453
v 48.799999237060547 1 -45.799999237060547
v 48.799999237060547 25 -45.799999237060547
v 49.200000762939453 1 -45.799999237060547
v 49.200000762939453 25 -45.799999237060547
f 33 39 37 35
f 38 40 34 36
f 33 35 36 34
f 35 37 38 36
f 37 39 40 38
f 39 33 34 40
g object_6
v 50.799999237060547 1 -30.200000762939453
v 50.799999237060547 25 -30.200000762939453
v 50.799999237060547 1 -29.799999237060547
v 50.799999237060547 25 -29.799999237060547
v 51.200000762939453 1 -29.799999237060547
v 51.200000762939453 25 -29.799999237060547
v 51.200000762939453 1 -30.200000762939453
v 51.200000762939453 25 -30.200000762939453
f 43 41 47 45
f 48 42 44 46
f 41 43 44 42
f 43 45 46 44
f 45 47 48 46
f 47 41 42 48
g object_7
v 50.799999237060547 1 -34.200000762939453
v 50.799999237060547 25 -34.200000762939453
v 50.799999237060547 1 -33.799999237060547
v 50.799999237060547 25 -33.799999237060547
v 51.200000762939453 1 -33.799999237060547
v 51.200000762939453 25 -33.799999237060547
v 51.200000762939453 1 -34.200000762939453
v 51.200000762939453 25 -34.200000762939453
f 51 49 55 53
f 56 50 52 54
f 49 51 52 50
f 51 53 54 52
f 53 55 56 54
f 55 49 50 56
g object_8
v 50.799999237060547 1 -38.200000762939453
v 50.799999237060547 25 -38.200000762939453
v 50.799999237060547 1 -37.799999237060547
v 50.799999237060547 25 -37.799999237060547
v 51.200000762939453 1 -37.799999237060547
v 51.200000762939453 25 -37.799999237060547
v 51.200000762939453 1 -38.200000762939453
v 51.200000762939453 25 -38.200000762939453
f 59 57 63 61
f 64 58 60 62
f 57 59 60 58
f 59 61 62 60
f 61 63 64 62
f 63 57 58 64
g object_9
v 50.799999237060547 1 -42.200000762939453
v 50.799999237060547 25 -42.200000762939453
v 50.799999237060547 1 -41.799999237060547
v 50.799999237060547 25 -41.799999237060547
v 51.200000762939453 1 -41.799999237060547
v 51.200000762939453 25 -41.799999237060547
v 51.200000762939453 1 -42.200000762939453
v 51.200000762939453 25 -42.200000762939453
f 67 65 71 69
f 72 66 68 70
f 65 67 68 66
f 67 69 70 68
f 69 71 72 70
f 71 65 66 72
g object_10
v 50.799999237060547 1 -46.200000762939453
v 50.799999237060547 25 -46.200000762939453
v 50.799999237060547 1 -45.799999237060547
v 50.799999237060547 25 -45.799999237060547
v 51.200000762939453 1 -45.799999237060547
v 51.200000762939453 25 -45.799999237060547
v 51.200000762939453 1 -46.200000762939453
v 51.200000762939453 25 -46.200000762939453
f 75 73 79 77
f 80 74 76 78
f 73 75 76 74
f 75 77 78 76
f 77 79 80 78
f 79 73 74 80
g object_11
v 55.799999237060547 1 -30.200000762939453
v 55.799999237060547 25 -30.200000762939453
v 55.799999237060547 1 -29.799999237060547
v 55.799999237060547 25 -29.799999237060547
v 56.200000762939453 1 -29.799999237060547
v 56.200000762939453 25 -29.799999237060547
v 56.200000762939453 1 -30.200000762939453
v 56.200000762939453 25 -30.200000762939453
f 83 81 87 85
f 88 82 84 86
f 81 83 84 82
f 83 85 86 84
f 85 87 88 86
f 87 81 82 88
g object_12
v 55.799999237060547 1 -34.200000762939453
v 55.799999237060547 25 -34.200000762939453
v 55.799999237060547 1 -33.799999237060547
v 55.799999237060547 25 -33.799999237060547
v 56.200000762939453 1 -33.799999237060547
v 56.200000762939453 25 -33.799999237060547
v 56.200000762939453 1 -34.200000762939453
v 56.200000762939453 25 -34.200000762939453
f 91 89 95 93
f 96 90 92 94
f 89 91 92 90
f 91 93 94 92
f 93 95 96 94
f 95 89 90 96
g object_13
v 55.799999237060547 1 -38.200000762939453
v 55.799999237060547 25 -38.200000762939453
v 55.799999237060547 1 -37.799999237060547
v 55.799999237060547 25 -37.799999237060547
v 56.200000762939453 1 -37.799999237060547
v 56.200000762939453 25 -37.799999237060547
v 56.200000762939453 1 -38.200000762939453
v 56.200000762939453 25 -38.200000762939453
f 99 97 103 101
f 104 98 100 102
f 97 99 100 98
f 99 101 102 100
f 101 103 104 102
f 103 97 98 104
g object_14
v 55.799999237060547 1 -42.200000762939453
v 55.799999237060547 25 -42.200000762939453
v 55.799999237060547 1 -41.799999237060547
v 55.799999237060547 25 -41.799999237060547
v 56.200000762939453 1 -41.799999237060547
v 56.200000762939453 25 -41.799999237060547
v 56.200000762939453 1 -42.200000762939453
v 56.200000762939453 25 -42.200000762939453
f 107 105 111 109
f 112 106 108 110
f 105 107 108 106
f 107 109 110 108
f 109 111 112 110
f 111 105 106 112
g object_15
v 55.799999237060547 1 -46.200000762939453
v 55.799999237060547 25 -46.200000762939453
v 55.799999237060547 1 -45.799999237060547
v 55.799999237060547 25 -45.799999237060547
v 56.200000762939453 1 -45.799999237060547
v 56.200000762939453 25 -45.799999237060547
v 56.200000762939453 1 -46.200000762939453
v 56.200000762939453 25 -46.200000762939453
f 115 113 119 117
f 120 114 116 118
f 113 115 116 114
f 115 117 118 116
f 117 119 120 118
f 119 113 114 120
g object_16
v 55.799999237060547 1 -62.200000762939453
v 55.799999237060547 25 -62.200000762939453
v 55.799999237060547 1 -61.799999237060547
v 55.799999237060547 25 -61.799999237060547
v 56.200000762939453 1 -61.799999237060547
v 56.200000762939453 25 -61.799999237060547
v 56.200000762939453 1 -62.200000762939453
v 56.200000762939453 25 -62.200000762939453
f 123 121 127 125
f 128 122 124 126
f 121 123 124 122
f 123 125 126 124
f 125 127 128 126
f 127 121 122 128
g object_17
v 55.799999237060547 1 -58.200000762939453
v 55.799999237060547 25 -58.200000762939453
v 55.799999237060547 1 -57.799999237060547
v 55.799999237060547 25 -57.799999237060547
v 56.200000762939453 1 -57.799999237060547
v 56.200000762939453 25 -57.799999237060547
v 56.200000762939453 1 -58.200000762939453
v 56.200000762939453 25 -58.200000762939453
f 131 129 135 133
f 136 130 132 134
f 129 131 132 130
f 131 133 134 132
f 133 135 136 134
f 135 129 130 136
g object_18
v 55.799999237060547 1 -54.200000762939453
v 55.799999237060547 25 -54.200000762939453
v 55.799999237060547 1 -53.799999237060547
v 55.799999237060547 25 -53.799999237060547
v 56.200000762939453 1 -53.799999237060547
v 56.200000762939453 25 -53.799999237060547
v 56.200000762939453 1 -54.200000762939453
v 56.200000762939453 25 -54.200000762939453
f 139 137 143 141
f 144 138 140 142
f 137 139 140 138
f 139 141 142 140
f 141 143 144 142
f 143 137 138 144
g object_19
v 55.799999237060547 1 -50.200000762939453
v 55.799999237060547 25 -50.200000762939453
v 55.799999237060547 1 -49.799999237060547
v 55.799999237060547 25 -49.799999237060547
v 56.200000762939453 1 -49.799999237060547
v 56.200000762939453 25 -49.799999237060547
v 56.200000762939453 1 -50.200000762939453
v 56.200000762939453 25 -50.200000762939453
f 147 145 151 149
f 152 146 148 150
f 145 147 148 146
f 147 149 150 148
f 149 151 152 150
f 151 145 146 152
g object_20
v 50.799999237060547 1 -62.200000762939453
v 50.799999237060547 25 -62.200000762939453
v 50.799999237060547 1 -61.799999237060547
v 50.799999237060547 25 -61.799999237060547
v 51.200000762939453 1 -61.799999237060547
v 51.200000762939453 25 -61.799999237060547
v 51.200000762939453 1 -62.200000762939453
v 51.200000762939453 25 -62.200000762939453
f 155 153 159 157
f 160 154 156 158
f 153 155 156 154
f 155 157 158 156
f 157 159 160 158
f 159 153 154 160
g object_21
v 50.799999237060547 1 -58.200000762939453
v 50.799999237060547 25 -58.200000762939453
v 50.799999237060547 1 -57.799999237060547
v 50.799999237060547 25 -57.799999237060547
v 51.200000762939453 1 -57.799999237060547
v 51.200000762939453 25 -57.799999237060547
v 51.200000762939453 1 -58.200000762939453
v 51.200000762939453 25 -58.200000762939453
f 163 161 167 165
f 168 162 164 166
f 161 163 164 162
f 163 165 166 164
f 165 167 168 166
f 167 161 162 168
g object_22
v 50.799999237060547 1 -54.200000762939453
v 50.799999237060547 25 -54.200000762939453
v 50.799999237060547 1 -53.799999237060547
v 50.799999237060547 25 -53.799999237060547
v 51.200000762939453 1 -53.799999237060547
v 51.200000762939453 25 -53.799999237060547
v 51.200000762939453 1 -54.200000762939453
v 51.200000762939453 25 -54.200000762939453
f 171 169 175 173
f 176 170 172 174
f 169 171 172 170
f 171 173 174 172
f 173 175 176 174
f 175 169 170 176
g object_23
v 50.799999237060547 1 -50.200000762939453
v 50.799999237060547 25 -50.200000762939453
v 50.799999237060547 1 -49.799999237060547
v 50.799999237060547 25 -49.799999237060547
v 51.200000762939453 1 -49.799999237060547
v 51.200000762939453 25 -49.799999237060547
v 51.200000762939453 1 -50.200000762939453
v 51.200000762939453 25 -50.200000762939453
f 179 177 183 181
f 184 178 180 182
f 177 179 180 178
f 179 181 182 180
f 181 183 184 182
f 183 177 178 184
g object_24
v 44.200000762939453 1 -62.200000762939453
v 44.200000762939453 25 -62.200000762939453
v 43.799999237060547 1 -62.200000762939453
v 43.799999237060547 25 -62.200000762939453
v 43.799999237060547 1 -61.799999237060547
v 43.799999237060547 25 -61.799999237060547
v 44.200000762939453 1 -61.799999237060547
v 44.200000762939453 25 -61.799999237060547
f 185 191 189 187
f 190 192 186 188
f 185 187 188 186
f 187 189 190 188
f 189 191 192 190
f 191 185 186 192
g object_25
v 44.200000762939453 1 -58.200000762939453
v 44.200000762939453 25 -58.200000762939453
v 43.799999237060547 1 -58.200000762939453
v 43.799999237060547 25 -58.200000762939453
v 43.799999237060547 1 -57.799999237060547
v 43.799999237060547 25 -57.799999237060547
v 44.200000762939453 1 -57.799999237060547
v 44.200000762939453 25 -57.799999237060547
f 193 199 197 195
f 198 200 194 196
f 193 195 196 194
f 195 197 198 196
f 197 199 200 198
f 199 193 194 200
g object_26
v 44.200000762939453 1 -54.200000762939453
v 44.200000762939453 25 -54.200000762939453
v 43.799999237060547 1 -54.200000762939453
v 43.799999237060547 25 -54.200000762939453
v 43.799999237060547 1 -53.799999237060547
v 43.799999237060547 25 -53.799999237060547
v 44.200000762939453 1 -53.799999237060547
v 44.200000762939453 25 -53.799999237060547
f 201 207 205 203
f 206 208 202 204
f 201 203 204 202
f 203 205 206 204
f 205 207 208 206
f 207 201 202 208
g object_27
v 44.200000762939453 1 -50.200000762939453
v 44.200000762939453 25 -50.200000762939453
v 43.799999237060547 1 -50.200000762939453
v 43.799999237060547 25 -50.200000762939453
v 43.799999237060547 1 -49.799999237060547
v 43.799999237060547 25 -49.799999237060547
v 44.200000762939453 1 -49.799999237060547
v 44.200000762939453 25 -49.799999237060547
f 209 215 213 211
f 214 216 210 212
f 209 211 212 210
f 211 213 214 212
f 213 215 216 214
f 215 209 210 216
g object_28
v 49.200000762939453 1 -62.200000762939453
v 49.200000762939453 25 -62.200000762939453
v 48.799999237060547 1 -62.200000762939453
v 48.799999237060547 25 -62.200000762939453
v 48.799999237060547 1 -61.799999237060547
v 48.799999237060547 25 -61.799999237060547
v 49.200000762939453 1 -61.799999237060547
v 49.200000762939453 25 -61.799999237060547
f 217 223 221 219
f 222 224 218 220
f 217 219 220 218
f 219 221 222 220
f 221 223 224 222
f 223 217 218 224
g object_29
v 49.200000762939453 1 -58.200000762939453
v 49.200000762939453 25 -58.200000762939453
v 48.799999237060547 1 -58.200000762939453
v 48.799999237060547 25 -58.200000762939453
v 48.799999237060547 1 -57.799999237060547
v 48.799999237060547 25 -57.799999237060547
v 49.200000762939453 1 -57.799999237060547
v 49.200000762939453 25 -57.799999237060547
f 225 231 229 227
f 230 232 226 228
f 225 227 228 226
f 227 229 230 228
f 229 231 232 230
f 231 225 226 232
g object_30
v 49.200000762939453 1 -54.200000762939453
v 49.200000762939453 25 -54.200000762939453
v 48.799999237060547 1 -54.200000762939453
v 48.799999237060547 25 -54.200000762939453
v 48.799999237060547 1 -53.799999237060547
v 48.799999237060547 25 -53.799999237060547
v 49.200000762939453 1 -53.799999237060547
v 49.200000762939453 25 -53.799999237060547
f 233 239 237 235
f 238 240 234 236
f 233 235 236 234
f 235 237 238 236
f 237 239 240 238
f 239 233 234 240
g object_31
v 49.200000762939453 1 -50.200000762939453
v 49.200000762939453 25 -50.200000762939453
v 48.799999237060547 1 -50.200000762939453
v 48.799999237060547 25 -50.200000762939453
v 48.799999237060547 1 -49.799999237060547
v 48.799999237060547 25 -49.799999237060547
v 49.200000762939453 1 -49.799999237060547
v 49.200000762939453 25 -49.799999237060547
f 241 247 245 243
f 246 248 242 244
f 241 243 244 242
f 243 245 246 244
f 245 247 248 246
f 247 241 242 248
g object_32
v 44.200000762939453 1 -46.200000762939453
v 44.200000762939453 25 -46.200000762939453
v 43.799999237060547 1 -46.200000762939453
v 43.799999237060547 25 -46.200000762939453
v 43.799999237060547 1 -45.799999237060547
v 43.799999237060547 25 -45.799999237060547
v 44.200000762939453 1 -45.799999237060547
v 44.200000762939453 25 -45.799999237060547
f 249 255 253 251
f 254 256 250 252
f 249 251 252 250
f 251 253 254 252
f 253 255 256 254
f 255 249 250 256
g object_33
v 44.200000762939453 1 -42.200000762939453
v 44.200000762939453 25 -42.200000762939453
v 43.799999237060547 1 -42.200000762939453
v 43.799999237060547 25 -42.200000762939453
v 43.799999237060547 1 -41.799999237060547
v 43.799999237060547 25 -41.799999237060547
v 44.200000762939453 1 -41.799999237060547
v 44.200000762939453 25 -41.799999237060547
f 257 263 261 259
f 262 264 258 260
f 257 259 260 258
f 259 261 262 260
f 261 263 264 262
f 263 257 258 264
g object_34
v 44.200000762939453 1 -38.200000762939453
v 44.200000762939453 25 -38.200000762939453
v 43.799999237060547 1 -38.200000762939453
v 43.799999237060547 25 -38.200000762939453
v 43.799999237060547 1 -37.799999237060547
v 43.799999237060547 25 -37.799999237060547
v 44.200000762939453 1 -37.799999237060547
v 44.200000762939453 25 -37.799999237060547
f 265 271 269 267
f 270 272 266 268
f 265 267 268 266
f 267 269 270 268
f 269 271 272 270
f 271 265 266 272
g object_35
v 44.200000762939453 1 -34.200000762939453
v 44.200000762939453 25 -34.200000762939453
v 43.799999237060547 1 -34.200000762939453
v 43.799999237060547 25 -34.200000762939453
v 43.799999237060547 1 -33.799999237060547
v 43.799999237060547 25 -33.799999237060547
v 44.200000762939453 1 -33.799999237060547
v 44.200000762939453 25 -33.799999237060547
f 273 279 277 275
f 278 280 274 276
f 273 275 276 274
f 275 277 278 276
f 277 279 280 278
f 279 273 274 280
g object_36
v 44.200000762939453 1 -30.200000762939453
v 44.200000762939453 25 -30.200000762939453
v 43.799999237060547 1 -30.200000762939453
v 43.799999237060547 25 -30.200000762939453
v 43.799999237060547 1 -29.799999237060547
v 43.799999237060547 25 -29.799999237060547
v 44.200000762939453 1 -29.799999237060547
v 44.200000762939453 25 -29.799999237060547
f 281 287 285 283
f 286 288 282 284
f 281 283 284 282
f 283 285 286 284
f 285 287 288 286
f 287 281 282 288
g object_37
v 39.799999237060547 1 -14.199999809265137
v 39.799999237060547 25 -14.199999809265137
v 39.799999237060547 1 -13.800000190734863
v 39.799999237060547 25 -13.800000190734863
v 40.200000762939453 1 -13.800000190734863
v 40.200000762939453 25 -13.800000190734863
v 40.200000762939453 1 -14.199999809265137
v 40.200000762939453 25 -14.199999809265137
f 289 295 293 291
f 294 296 290 292
f 289 291 292 290
f 291 293 294 292
f 293 295 296 294
f 295 289 290 296
g object_38
v 35.799999237060547 1 -14.199999809265137
v 35.799999237060547 25 -14.199999809265137
v 35.799999237060547 1 -13.800000190734863
v 35.799999237060547 25 -13.800000190734863
v 36.200000762939453 1 -13.800000190734863
v 36.200000762939453 25 -13.800000190734863
v 36.200000762939453 1 -14.199999809265137
v 36.200000762939453 25 -14.199999809265137
f 297 303 301 299
f 302 304 298 300
f 297 299 300 298
f 299 301 302 300
f 301 303 304 302
f 303 297 298 304
g object_39
v 31.799999237060547 1 -14.199999809265137
v 31.799999237060547 25 -14.199999809265137
v 31.799999237060547 1 -13.800000190734863
v 31.799999237060547 25 -13.800000190734863
v 32.200000762939453 1 -13.800000190734863
v 32.200000762939453 25 -13.800000190734863
v 32.200000762939453 1 -14.199999809265137
v 32.200000762939453 25 -14.199999809265137
f 305 311 309 307
f 310 312 306 308
f 305 307 308 306
f 307 309 310 308
f 309 311 312 310
f 311 305 306 312
g object_40
v 27.799999237060547 1 -14.199999809265137
v 27.799999237060547 25 -14.199999809265137
v 27.799999237060547 1 -13.800000190734863
v 27.799999237060547 25 -13.800000190734863
v 28.200000762939453 1 -13.800000190734863
v 28.200000762939453 25 -13.800000190734863
v 28.200000762939453 1 -14.199999809265137
v 28.200000762939453 25 -14.199999809265137
f 313 319 317 315
f 318 320 314 316
f 313 315 316 314
f 315 317 318 316
f 317 319 320 318
f 319 313 314 320
g object_41
v 23.799999237060547 1 -14.199999809265137
v 23.799999237060547 25 -14.199999809265137
v 23.799999237060547 1 -13.800000190734863
v 23.799999237060547 25 -13.800000190734863
v 24.200000762939453 1 -13.800000190734863
v 24.200000762939453 25 -13.800000190734863
v 24.200000762939453 1 -14.199999809265137
v 24.200000762939453 25 -14.199999809265137
f 321 327 325 323
f 326 328 322 324
f 321 323 324 322
f 323 325 326 324
f 325 327 328 326
f 327 321 322 328
g object_42
v 19.799999237060547 1 -19.200000762939453
v 19.799999237060547 25 -19.200000762939453
v 19.799999237060547 1 -18.799999237060547
v 19.799999237060547 25 -18.799999237060547
v 20.200000762939453 1 -18.799999237060547
v 20.200000762939453 25 -18.799999237060547
v 20.200000762939453 1 -19.200000762939453
v 20.200000762939453 25 -19.200000762939453
f 329 335 333 331
f 334 336 330 332
f 329 331 332 330
f 331 333 334 332
f 333 335 336 334
f 335 329 330 336
g object_43
v 15.800000190734863 1 -19.200000762939453
v 15.800000190734863 25 -19.200000762939453
v 15.800000190734863 1 -18.799999237060547
v 15.800000190734863 25 -18.799999237060547
v 16.200000762939453 1 -18.799999237060547
v 16.200000762939453 25 -18.799999237060547
v 16.200000762939453 1 -19.200000762939453
v 16.200000762939453 25 -19.200000762939453
f 337 343 341 339
f 342 344 338 340
f 337 339 340 338
f 339 341 342 340
f 341 343 344 342
f 343 337 338 344
g object_44
v 11.800000190734863 1 -19.200000762939453
v 11.800000190734863 25 -19.200000762939453
v 11.800000190734863 1 -18.799999237060547
v 11.800000190734863 25 -18.799999237060547
v 12.199999809265137 1 -18.799999237060547
v 12.199999809265137 25 -18.799999237060547
v 12.199999809265137 1 -19.200000762939453
v 12.199999809265137 25 -19.200000762939453
f 345 351 349 347
f 350 352 346 348
f 345 347 348 346
f 347 349 350 348
f 349 351 352 350
f 351 345 346 352
g object_45
v 7.8000001907348633 1 -19.200000762939453
v 7.8000001907348633 25 -19.200000762939453
v 7.8000001907348633 1 -18.799999237060547
v 7.8000001907348633 25 -18.799999237060547
v 8.1999998092651367 1 -18.799999237060547
v 8.1999998092651367 25 -18.799999237060547
v 8.1999998092651367 1 -19.200000762939453
v 8.1999998092651367 25 -19.200000762939453
f 353 359 357 355
f 358 360 354 356
f 353 355 356 354
f 355 357 358 356
f 357 359 360 358
f 359 353 354 360
g object_46
v 19.799999237060547 1 -14.199999809265137
v 19.799999237060547 25 -14.199999809265137
v 19.799999237060547 1 -13.800000190734863
v 19.799999237060547 25 -13.800000190734863
v 20.200000762939453 1 -13.800000190734863
v 20.200000762939453 25 -13.800000190734863
v 20.200000762939453 1 -14.199999809265137
v 20.200000762939453 25 -14.199999809265137
f 361 367 365 363
f 366 368 362 364
f 361 363 364 362
f 363 365 366 364
f 365 367 368 366
f 367 361 362 368
g object_47
v 15.800000190734863 1 -14.199999809265137
v 15.800000190734863 25 -14.199999809265137
v 15.800000190734863 1 -13.800000190734863
v 15.800000190734863 25 -13.800000190734863
v 16.200000762939453 1 -13.800000190734863
v 16.200000762939453 25 -13.800000190734863
v 16.200000762939453 1 -14.199999809265137
v 16.200000762939453 25 -14.199999809265137
f 369 375 373 371
f 374 376 370 372
f 369 371 372 370
f 371 373 374 372
f 373 375 376 374
f 375 369 370 376
g object_48
v 11.800000190734863 1 -14.199999809265137
v 11.800000190734863 25 -14.199999809265137
v 11.800000190734863 1 -13.800000190734863
v 11.800000190734863 25 -13.800000190734863
v 12.199999809265137 1 -13.800000190734863
v 12.199999809265137 25 -13.800000190734863
v 12.199999809265137 1 -14.199999809265137
v 12.199999809265137 25 -14.199999809265137
f 377 383 381 379
f 382 384 378 380
f 377 379 380 378
f 379 381 382 380
f 381 383 384 382
f 383 377 378 384
g object_49
v 7.8000001907348633 1 -14.199999809265137
v 7.8000001907348633 25 -14.199999809265137
v 7.8000001907348633 1 -13.800000190734863
v 7.8000001907348633 25 -13.800000190734863
v 8.1999998092651367 1 -13.800000190734863
v 8.1999998092651367 25 -13.800000190734863
v 8.1999998092651367 1 -14.199999809265137
v 8.1999998092651367 25 -14.199999809265137
f 385 391 389 387
f 390 392 386 388
f 385 387 388 386
f 387 389 390 388
f 389 391 392 390
f 391 385 386 392
g object_50
v 19.799999237060547 1 -20.799999237060547
v 19.799999237060547 25 -20.799999237060547
v 20.200000762939453 1 -20.799999237060547
v 20.200000762939453 25 -20.799999237060547
v 20.200000762939453 1 -21.200000762939453
v 20.200000762939453 25 -21.200000762939453
v 19.799999237060547 1 -21.200000762939453
v 19.799999237060547 25 -21.200000762939453
f 395 393 399 397
f 400 394 396 398
f 393 395 396 394
f 395 397 398 396
f 397 399 400 398
f 399 393 394 400
g object_51
v 15.800000190734863 1 -20.799999237060547
v 15.800000190734863 25 -20.799999237060547
v 16.200000762939453 1 -20.799999237060547
v 16.200000762939453 25 -20.799999237060547
v 16.200000762939453 1 -21.200000762939453
v 16.200000762939453 25 -21.200000762939453
v 15.800000190734863 1 -21.200000762939453
v 15.800000190734863 25 -21.200000762939453
f 403 401 407 405
f 408 402 404 406
f 401 403 404 402
f 403 405 406 404
f 405 407 408 406
f 407 401 402 408
g object_52
v 11.800000190734863 1 -20.799999237060547
v 11.800000190734863 25 -20.799999237060547
v 12.199999809265137 1 -20.799999237060547
v 12.199999809265137 25 -20.799999237060547
v 12.199999809265137 1 -21.200000762939453
v 12.199999809265137 25 -21.200000762939453
v 11.800000190734863 1 -21.200000762939453
v 11.800000190734863 25 -21.200000762939453
f 411 409 415 413
f 416 410 412 414
f 409 411 412 410
f 411 413 414 412
f 413 415 416 414
f 415 409 410 416
g object_53
v 7.8000001907348633 1 -20.799999237060547
v 7.8000001907348633 25 -20.799999237060547
v 8.1999998092651367 1 -20.799999237060547
v 8.1999998092651367 25 -20.799999237060547
v 8.1999998092651367 1 -21.200000762939453
v 8.1999998092651367 25 -21.200000762939453
v 7.8000001907348633 1 -21.200000762939453
v 7.8000001907348633 25 -21.200000762939453
f 419 417 423 421
f 424 418 420 422
f 417 419 420 418
f 419 421 422 420
f 421 423 424 422
f 423 417 418 424
g object_54
v 19.799999237060547 1 -25.799999237060547
v 19.799999237060547 25 -25.799999237060547
v 20.200000762939453 1 -25.799999237060547
v 20.200000762939453 25 -25.799999237060547
v 20.200000762939453 1 -26.200000762939453
v 20.200000762939453 25 -26.200000762939453
v 19.799999237060547 1 -26.200000762939453
v 19.799999237060547 25 -26.200000762939453
f 427 425 431 429
f 432 426 428 430
f 425 427 428 426
f 427 429 430 428
f 429 431 432 430
f 431 425 426 432
g object_55
v 15.800000190734863 1 -25.799999237060547
v 15.800000190734863 25 -25.799999237060547
v 16.200000762939453 1 -25.799999237060547
v 16.200000762939453 25 -25.799999237060547
v 16.200000762939453 1 -26.200000762939453
v 16.200000762939453 25 -26.200000762939453
v 15.800000190734863 1 -26.200000762939453
v 15.800000190734863 25 -26.200000762939453
f 435 433 439 437
f 440 434 436 438
f 433 435 436 434
f 435 437 438 436
f 437 439 440 438
f 439 433 434 440
g object_56
v 11.800000190734863 1 -25.799999237060547
v 11.800000190734863 25 -25.799999237060547
v 12.199999809265137 1 -25.799999237060547
v 12.199999809265137 25 -25.799999237060547
v 12.199999809265137 1 -26.200000762939453
v 12.199999809265137 25 -26.200000762939453
v 11.800000190734863 1 -26.200000762939453
v 11.800000190734863 25 -26.200000762939453
f 443 441 447 445
f 448 442 444 446
f 441 443 444 442
f 443 445 446 444
f 445 447 448 446
f 447 441 442 448
g object_57
v 7.8000001907348633 1 -25.799999237060547
v 7.8000001907348633 25 -25.799999237060547
v 8.1999998092651367 1 -25.799999237060547
v 8.1999998092651367 25 -25.799999237060547
v 8.1999998092651367 1 -26.200000762939453
v 8.1999998092651367 25 -26.200000762939453
v 7.8000001907348633 1 -26.200000762939453
v 7.8000001907348633 25 -26.200000762939453
f 451 449 455 453
f 456 450 452 454
f 449 451 452 450
f 451 453 454 452
f 453 455 456 454
f 455 449 450 456
g object_58
v 23.799999237060547 1 -25.799999237060547
v 23.799999237060547 25 -25.799999237060547
v 24.200000762939453 1 -25.799999237060547
v 24.200000762939453 25 -25.799999237060547
v 24.200000762939453 1 -26.200000762939453
v 24.200000762939453 25 -26.200000762939453
v 23.799999237060547 1 -26.200000762939453
v 23.799999237060547 25 -26.200000762939453
f 459 457 463 461
f 464 458 460 462
f 457 459 460 458
f 459 461 462 460
f 461 463 464 462
f 463 457 458 464
g object_59
v 27.799999237060547 1 -25.799999237060547
v 27.799999237060547 25 -25.799999237060547
v 28.200000762939453 1 -25.799999237060547
v 28.200000762939453 25 -25.799999237060547
v 28.200000762939453 1 -26.200000762939453
v 28.200000762939453 25 -26.200000762939453
v 27.799999237060547 1 -26.200000762939453
v 27.799999237060547 25 -26.200000762939453
f 467 465 471 469
f 472 466 468 470
f 465 467 468 466
f 467 469 470 468
f 469 471 472 470
f 471 465 466 472
g object_60
v 31.799999237060547 1 -25.799999237060547
v 31.799999237060547 25 -25.799999237060547
v 32.200000762939453 1 -25.799999237060547
v 32.200000762939453 25 -25.799999237060547
v 32.200000762939453 1 -26.200000762939453
v 32.200000762939453 25 -26.200000762939453
v 31.799999237060547 1 -26.200000762939453
v 31.799999237060547 25 -26.200000762939453
f 475 473 479 477
f 480 474 476 478
f 473 475 476 474
f 475 477 478 476
f 477 479 480 478
f 479 473 474 480
g object_61
v 35.799999237060547 1 -25.799999237060547
v 35.799999237060547 25 -25.799999237060547
v 36.200000762939453 1 -25.799999237060547
v 36.200000762939453 25 -25.799999237060547
v 36.200000762939453 1 -26.200000762939453
v 36.200000762939453 25 -26.200000762939453
v 35.799999237060547 1 -26.200000762939453
v 35.799999237060547 25 -26.200000762939453
f 483 481 487 485
f 488 482 484 486
f 481 483 484 482
f 483 485 486 484
f 485 487 488 486
f 487 481 482 488
g object_62
v 39.799999237060547 1 -25.799999237060547
v 39.799999237060547 25 -25.799999237060547
v 40.200000762939453 1 -25.799999237060547
v 40.200000762939453 25 -25.799999237060547
v 40.200000762939453 1 -26.200000762939453
v 40.200000762939453 25 -26.200000762939453
v 39.799999237060547 1 -26.200000762939453
v 39.799999237060547 25 -26.200000762939453
f 491 489 495 493
f 496 490 492 494
f 489 491 492 490
f 491 493 494 492
f 493 495 496 494
f 495 489 490 496
g object_63
v 23.799999237060547 1 -20.799999237060547
v 23.799999237060547 25 -20.799999237060547
v 24.200000762939453 1 -20.799999237060547
v 24.200000762939453 25 -20.799999237060547
v 24.200000762939453 1 -21.200000762939453
v 24.200000762939453 25 -21.200000762939453
v 23.799999237060547 1 -21.200000762939453
v 23.799999237060547 25 -21.200000762939453
f 499 497 503 501
f 504 498 500 502
f 497 499 500 498
f 499 501 502 500
f 501 503 504 502
f 503 497 498 504
g object_64
v 27.799999237060547 1 -20.799999237060547
v 27.799999237060547 25 -20.799999237060547
v 28.200000762939453 1 -20.799999237060547
v 28.200000762939453 25 -20.799999237060547
v 28.200000762939453 1 -21.200000762939453
v 28.200000762939453 25 -21.200000762939453
v 27.799999237060547 1 -21.200000762939453
v 27.799999237060547 25 -21.200000762939453
f 507 505 511 509
f 512 506 508 510
f 505 507 508 506
f 507 509 510 508
f 509 511 512 510
f 511 505 506 512
g object_65
v 31.799999237060547 1 -20.799999237060547
v 31.799999237060547 25 -20.799999237060547
v 32.200000762939453 1 -20.799999237060547
v 32.200000762939453 25 -20.799999237060547
v 32.200000762939453 1 -21.200000762939453
v 32.200000762939453 25 -21.200000762939453
v 31.799999237060547 1 -21.200000762939453
v 31.799999237060547 25 -21.200000762939453
f 515 513 519 517
f 520 514 516 518
f 513 515 516 514
f 515 517 518 516
f 517 519 520 518
f 519 513 514 520
g object_66
v 35.799999237060547 1 -20.799999237060547
v 35.799999237060547 25 -20.799999237060547
v 36.200000762939453 1 -20.799999237060547
v 36.200000762939453 25 -20.799999237060547
v 36.200000762939453 1 -21.200000762939453
v 36.200000762939453 25 -21.200000762939453
v 35.799999237060547 1 -21.200000762939453
v 35.799999237060547 25 -21.200000762939453
f 523 521 527 525
f 528 522 524 526
f 521 523 524 522
f 523 525 526 524
f 525 527 528 526
f 527 521 522 528
g object_67
v 39.799999237060547 1 -20.799999237060547
v 39.799999237060547 25 -20.799999237060547
v 40.200000762939453 1 -20.799999237060547
v 40.200000762939453 25 -20.799999237060547
v 40.200000762939453 1 -21.200000762939453
v 40.200000762939453 25 -21.200000762939453
v 39.799999237060547 1 -21.200000762939453
v 39.799999237060547 25 -21.200000762939453
f 531 529 535 533
f 536 530 532 534
f 529 531 532 530
f 531 533 534 532
f 533 535 536 534
f 535 529 530 536
g object_68
v 23.799999237060547 1 -19.200000762939453
v 23.799999237060547 25 -19.200000762939453
v 23.799999237060547 1 -18.799999237060547
v 23.799999237060547 25 -18.799999237060547
v 24.200000762939453 1 -18.799999237060547
v 24.200000762939453 25 -18.799999237060547
v 24.200000762939453 1 -19.200000762939453
v 24.200000762939453 25 -19.200000762939453
f 537 543 541 539
f 542 544 538 540
f 537 539 540 538
f 539 541 542 540
f 541 543 544 542
f 543 537 538 544
g object_69
v 27.799999237060547 1 -19.200000762939453
v 27.799999237060547 25 -19.200000762939453
v 27.799999237060547 1 -18.799999237060547
v 27.799999237060547 25 -18.799999237060547
v 28.200000762939453 1 -18.799999237060547
v 28.200000762939453 25 -18.799999237060547
v 28.200000762939453 1 -19.200000762939453
v 28.200000762939453 25 -19.200000762939453
f 545 551 549 547
f 550 552 546 548
f 545 547 548 546
f 547 549 550 548
f 549 551 552 550
f 551 545 546 552
g object_70
v 31.799999237060547 1 -19.200000762939453
v 31.799999237060547 25 -19.200000762939453
v 31.799999237060547 1 -18.799999237060547
v 31.799999237060547 25 -18.799999237060547
v 32.200000762939453 1 -18.799999237060547
v 32.200000762939453 25 -18.799999237060547
v 32.200000762939453 1 -19.200000762939453
v 32.200000762939453 25 -19.200000762939453
f 553 559 557 555
f 558 560 554 556
f 553 555 556 554
f 555 557 558 556
f 557 559 560 558
f 559 553 554 560
g object_71
v 35.799999237060547 1 -19.200000762939453
v 35.799999237060547 25 -19.200000762939453
v 35.799999237060547 1 -18.799999237060547
v 35.799999237060547 25 -18.799999237060547
v 36.200000762939453 1 -18.799999237060547
v 36.200000762939453 25 -18.799999237060547
v 36.200000762939453 1 -19.200000762939453
v 36.200000762939453 25 -19.200000762939453
f 561 567 565 563
f 566 568 562 564
f 561 563 564 562
f 563 565 566 564
f 565 567 568 566
f 567 561 562 568
g object_72
v 39.799999237060547 1 -19.200000762939453
v 39.799999237060547 25 -19.200000762939453
v 39.799999237060547 1 -18.799999237060547
v 39.799999237060547 25 -18.799999237060547
v 40.200000762939453 1 -18.799999237060547
v 40.200000762939453 25 -18.799999237060547
v 40.200000762939453 1 -19.200000762939453
v 40.200000762939453 25 -19.200000762939453
f 569 575 573 571
f 574 576 570 572
f 569 571 572 570
f 571 573 574 572
f 573 575 576 574
f 575 569 570 576
