# Rhino

g object_1
v 49 1 -42
v 49 4 -42
v 49 1 -34
v 49 4 -34
v 44 1 -34
v 44 4 -34
v 44 1 -42
v 44 4 -42
f 2 4 3 1
f 4 6 5 3
f 6 8 7 5
f 8 2 1 7
f 7 1 3 5
f 8 6 4 2
g object_2
v 51 1 -42
v 51 4 -42
v 51 1 -34
v 51 4 -34
v 56 1 -34
v 56 4 -34
v 56 1 -42
v 56 4 -42
f 10 9 11 12
f 12 11 13 14
f 14 13 15 16
f 16 15 9 10
f 15 13 11 9
f 16 10 12 14
g object_3
v 51 1 -58
v 51 4 -58
v 51 1 -50
v 51 4 -50
v 56 1 -50
v 56 4 -50
v 56 1 -58
v 56 4 -58
f 18 17 19 20
f 20 19 21 22
f 22 21 23 24
f 24 23 17 18
f 23 21 19 17
f 24 18 20 22
g object_4
v 49 1 -58
v 49 4 -58
v 49 1 -50
v 49 4 -50
v 44 1 -50
v 44 4 -50
v 44 1 -58
v 44 4 -58
f 26 28 27 25
f 28 30 29 27
f 30 32 31 29
f 32 26 25 31
f 31 25 27 29
f 32 30 28 26
g object_5
v 12 1 -19
v 12 4 -19
v 20 1 -19
v 20 4 -19
v 20 1 -14
v 20 4 -14
v 12 1 -14
v 12 4 -14
f 34 36 35 33
f 36 38 37 35
f 38 40 39 37
f 40 34 33 39
f 39 33 35 37
f 40 38 36 34
g object_6
v 12 1 -21
v 12 4 -21
v 20 1 -21
v 20 4 -21
v 20 1 -26
v 20 4 -26
v 12 1 -26
v 12 4 -26
f 42 41 43 44
f 44 43 45 46
f 46 45 47 48
f 48 47 41 42
f 47 45 43 41
f 48 42 44 46
g object_7
v 28 1 -21
v 28 4 -21
v 36 1 -21
v 36 4 -21
v 36 1 -26
v 36 4 -26
v 28 1 -26
v 28 4 -26
f 50 49 51 52
f 52 51 53 54
f 54 53 55 56
f 56 55 49 50
f 55 53 51 49
f 56 50 52 54
g object_8
v 28 1 -19
v 28 4 -19
v 36 1 -19
v 36 4 -19
v 36 1 -14
v 36 4 -14
v 28 1 -14
v 28 4 -14
f 58 60 59 57
f 60 62 61 59
f 62 64 63 61
f 64 58 57 63
f 63 57 59 61
f 64 62 60 58
