# Rhino

g object_1
v 49 1 -30
v 49 4 -30
v 49 1 -34
v 49 4 -34
v 44 1 -34
v 44 4 -34
v 44 1 -30
v 44 4 -30
f 2 1 3 4
f 4 3 5 6
f 6 5 7 8
f 8 7 1 2
f 7 5 3 1
f 8 2 4 6
g object_2
v 49 1 -46
v 49 4 -46
v 49 1 -42
v 49 4 -42
v 44 1 -42
v 44 4 -42
v 44 1 -46
v 44 4 -46
f 10 12 11 9
f 12 14 13 11
f 14 16 15 13
f 16 10 9 15
f 15 9 11 13
f 16 14 12 10
g object_3
v 51 1 -30
v 51 4 -30
v 51 1 -34
v 51 4 -34
v 56 1 -34
v 56 4 -34
v 56 1 -30
v 56 4 -30
f 18 20 19 17
f 20 22 21 19
f 22 24 23 21
f 24 18 17 23
f 23 17 19 21
f 24 22 20 18
g object_4
v 51 1 -46
v 51 4 -46
v 51 1 -42
v 51 4 -42
v 56 1 -42
v 56 4 -42
v 56 1 -46
v 56 4 -46
f 26 25 27 28
f 28 27 29 30
f 30 29 31 32
f 32 31 25 26
f 31 29 27 25
f 32 26 28 30
g object_5
v 51 1 -62
v 51 4 -62
v 51 1 -58
v 51 4 -58
v 56 1 -58
v 56 4 -58
v 56 1 -62
v 56 4 -62
f 34 33 35 36
f 36 35 37 38
f 38 37 39 40
f 40 39 33 34
f 39 37 35 33
f 40 34 36 38
g object_6
v 51 1 -46
v 51 4 -46
v 51 1 -50
v 51 4 -50
v 56 1 -50
v 56 4 -50
v 56 1 -46
v 56 4 -46
f 42 44 43 41
f 44 46 45 43
f 46 48 47 45
f 48 42 41 47
f 47 41 43 45
f 48 46 44 42
g object_7
v 49 1 -62
v 49 4 -62
v 49 1 -58
v 49 4 -58
v 44 1 -58
v 44 4 -58
v 44 1 -62
v 44 4 -62
f 50 52 51 49
f 52 54 53 51
f 54 56 55 53
f 56 50 49 55
f 55 49 51 53
f 56 54 52 50
g object_8
v 49 1 -46
v 49 4 -46
v 49 1 -50
v 49 4 -50
v 44 1 -50
v 44 4 -50
v 44 1 -46
v 44 4 -46
f 58 57 59 60
f 60 59 61 62
f 62 61 63 64
f 64 63 57 58
f 63 61 59 57
f 64 58 60 62
g object_9
v 24 1 -19
v 24 4 -19
v 20 1 -19
v 20 4 -19
v 20 1 -14
v 20 4 -14
v 24 1 -14
v 24 4 -14
f 66 65 67 68
f 68 67 69 70
f 70 69 71 72
f 72 71 65 66
f 71 69 67 65
f 72 66 68 70
g object_10
v 8 1 -19
v 8 4 -19
v 12 1 -19
v 12 4 -19
v 12 1 -14
v 12 4 -14
v 8 1 -14
v 8 4 -14
f 74 76 75 73
f 76 78 77 75
f 78 80 79 77
f 80 74 73 79
f 79 73 75 77
f 80 78 76 74
g object_11
v 24 1 -21
v 24 4 -21
v 20 1 -21
v 20 4 -21
v 20 1 -26
v 20 4 -26
v 24 1 -26
v 24 4 -26
f 82 84 83 81
f 84 86 85 83
f 86 88 87 85
f 88 82 81 87
f 87 81 83 85
f 88 86 84 82
g object_12
v 8 1 -21
v 8 4 -21
v 12 1 -21
v 12 4 -21
v 12 1 -26
v 12 4 -26
v 8 1 -26
v 8 4 -26
f 90 89 91 92
f 92 91 93 94
f 94 93 95 96
f 96 95 89 90
f 95 93 91 89
f 96 90 92 94
g object_13
v 24 1 -21
v 24 4 -21
v 28 1 -21
v 28 4 -21
v 28 1 -26
v 28 4 -26
v 24 1 -26
v 24 4 -26
f 98 97 99 100
f 100 99 101 102
f 102 101 103 104
f 104 103 97 98
f 103 101 99 97
f 104 98 100 102
g object_14
v 40 1 -21
v 40 4 -21
v 36 1 -21
v 36 4 -21
v 36 1 -26
v 36 4 -26
v 40 1 -26
v 40 4 -26
f 106 108 107 105
f 108 110 109 107
f 110 112 111 109
f 112 106 105 111
f 111 105 107 109
f 112 110 108 106
g object_15
v 24 1 -19
v 24 4 -19
v 28 1 -19
v 28 4 -19
v 28 1 -14
v 28 4 -14
v 24 1 -14
v 24 4 -14
f 114 116 115 113
f 116 118 117 115
f 118 120 119 117
f 120 114 113 119
f 119 113 115 117
f 120 118 116 114
g object_16
v 40 1 -19
v 40 4 -19
v 36 1 -19
v 36 4 -19
v 36 1 -14
v 36 4 -14
v 40 1 -14
v 40 4 -14
f 122 121 123 124
f 124 123 125 126
f 126 125 127 128
f 128 127 121 122
f 127 125 123 121
f 128 122 124 126
