# Rhino

g object_1
v 49 16 -38
v 49 19 -38
v 49 16 -34
v 49 19 -34
v 42 16 -34
v 42 19 -34
v 42 16 -38
v 42 19 -38
f 2 4 3 1
f 4 6 5 3
f 6 8 7 5
f 8 2 1 7
f 7 1 3 5
f 8 6 4 2
g object_2
v 49 16 -46
v 49 19 -46
v 49 16 -42
v 49 19 -42
v 42 16 -42
v 42 19 -42
v 42 16 -46
v 42 19 -46
f 10 12 11 9
f 12 14 13 11
f 14 16 15 13
f 16 10 9 15
f 15 9 11 13
f 16 14 12 10
g object_3
v 49 4 -38
v 49 7 -38
v 49 4 -34
v 49 7 -34
v 42 4 -34
v 42 7 -34
v 42 4 -38
v 42 7 -38
f 18 20 19 17
f 20 22 21 19
f 22 24 23 21
f 24 18 17 23
f 23 17 19 21
f 24 22 20 18
g object_4
v 49 4 -46
v 49 7 -46
v 49 4 -42
v 49 7 -42
v 42 4 -42
v 42 7 -42
v 42 4 -46
v 42 7 -46
f 26 28 27 25
f 28 30 29 27
f 30 32 31 29
f 32 26 25 31
f 31 25 27 29
f 32 30 28 26
g object_5
v 49 7 -34
v 49 10 -34
v 49 7 -30
v 49 10 -30
v 42 7 -30
v 42 10 -30
v 42 7 -34
v 42 10 -34
f 34 36 35 33
f 36 38 37 35
f 38 40 39 37
f 40 34 33 39
f 39 33 35 37
f 40 38 36 34
g object_6
v 49 7 -42
v 49 10 -42
v 49 7 -38
v 49 10 -38
v 42 7 -38
v 42 10 -38
v 42 7 -42
v 42 10 -42
f 42 44 43 41
f 44 46 45 43
f 46 48 47 45
f 48 42 41 47
f 47 41 43 45
f 48 46 44 42
g object_7
v 49 10 -38
v 49 13 -38
v 49 10 -34
v 49 13 -34
v 42 10 -34
v 42 13 -34
v 42 10 -38
v 42 13 -38
f 50 52 51 49
f 52 54 53 51
f 54 56 55 53
f 56 50 49 55
f 55 49 51 53
f 56 54 52 50
g object_8
v 49 10 -46
v 49 13 -46
v 49 10 -42
v 49 13 -42
v 42 10 -42
v 42 13 -42
v 42 10 -46
v 42 13 -46
f 58 60 59 57
f 60 62 61 59
f 62 64 63 61
f 64 58 57 63
f 63 57 59 61
f 64 62 60 58
g object_9
v 49 13 -42
v 49 16 -42
v 49 13 -38
v 49 16 -38
v 42 13 -38
v 42 16 -38
v 42 13 -42
v 42 16 -42
f 66 68 67 65
f 68 70 69 67
f 70 72 71 69
f 72 66 65 71
f 71 65 67 69
f 72 70 68 66
g object_10
v 49 13 -34
v 49 16 -34
v 49 13 -30
v 49 16 -30
v 42 13 -30
v 42 16 -30
v 42 13 -34
v 42 16 -34
f 74 76 75 73
f 76 78 77 75
f 78 80 79 77
f 80 74 73 79
f 79 73 75 77
f 80 78 76 74
g object_11
v 51 16 -38
v 51 19 -38
v 51 16 -34
v 51 19 -34
v 58 16 -34
v 58 19 -34
v 58 16 -38
v 58 19 -38
f 82 81 83 84
f 84 83 85 86
f 86 85 87 88
f 88 87 81 82
f 87 85 83 81
f 88 82 84 86
g object_12
v 51 16 -46
v 51 19 -46
v 51 16 -42
v 51 19 -42
v 58 16 -42
v 58 19 -42
v 58 16 -46
v 58 19 -46
f 90 89 91 92
f 92 91 93 94
f 94 93 95 96
f 96 95 89 90
f 95 93 91 89
f 96 90 92 94
g object_13
v 51 4 -38
v 51 7 -38
v 51 4 -34
v 51 7 -34
v 58 4 -34
v 58 7 -34
v 58 4 -38
v 58 7 -38
f 98 97 99 100
f 100 99 101 102
f 102 101 103 104
f 104 103 97 98
f 103 101 99 97
f 104 98 100 102
g object_14
v 51 4 -46
v 51 7 -46
v 51 4 -42
v 51 7 -42
v 58 4 -42
v 58 7 -42
v 58 4 -46
v 58 7 -46
f 106 105 107 108
f 108 107 109 110
f 110 109 111 112
f 112 111 105 106
f 111 109 107 105
f 112 106 108 110
g object_15
v 51 7 -34
v 51 10 -34
v 51 7 -30
v 51 10 -30
v 58 7 -30
v 58 10 -30
v 58 7 -34
v 58 10 -34
f 114 113 115 116
f 116 115 117 118
f 118 117 119 120
f 120 119 113 114
f 119 117 115 113
f 120 114 116 118
g object_16
v 51 7 -42
v 51 10 -42
v 51 7 -38
v 51 10 -38
v 58 7 -38
v 58 10 -38
v 58 7 -42
v 58 10 -42
f 122 121 123 124
f 124 123 125 126
f 126 125 127 128
f 128 127 121 122
f 127 125 123 121
f 128 122 124 126
g object_17
v 51 10 -38
v 51 13 -38
v 51 10 -34
v 51 13 -34
v 58 10 -34
v 58 13 -34
v 58 10 -38
v 58 13 -38
f 130 129 131 132
f 132 131 133 134
f 134 133 135 136
f 136 135 129 130
f 135 133 131 129
f 136 130 132 134
g object_18
v 51 10 -46
v 51 13 -46
v 51 10 -42
v 51 13 -42
v 58 10 -42
v 58 13 -42
v 58 10 -46
v 58 13 -46
f 138 137 139 140
f 140 139 141 142
f 142 141 143 144
f 144 143 137 138
f 143 141 139 137
f 144 138 140 142
g object_19
v 51 13 -42
v 51 16 -42
v 51 13 -38
v 51 16 -38
v 58 13 -38
v 58 16 -38
v 58 13 -42
v 58 16 -42
f 146 145 147 148
f 148 147 149 150
f 150 149 151 152
f 152 151 145 146
f 151 149 147 145
f 152 146 148 150
g object_20
v 51 13 -34
v 51 16 -34
v 51 13 -30
v 51 16 -30
v 58 13 -30
v 58 16 -30
v 58 13 -34
v 58 16 -34
f 154 153 155 156
f 156 155 157 158
f 158 157 159 160
f 160 159 153 154
f 159 157 155 153
f 160 154 156 158
g object_21
v 51 13 -50
v 51 16 -50
v 51 13 -46
v 51 16 -46
v 58 13 -46
v 58 16 -46
v 58 13 -50
v 58 16 -50
f 162 161 163 164
f 164 163 165 166
f 166 165 167 168
f 168 167 161 162
f 167 165 163 161
f 168 162 164 166
g object_22
v 51 13 -58
v 51 16 -58
v 51 13 -54
v 51 16 -54
v 58 13 -54
v 58 16 -54
v 58 13 -58
v 58 16 -58
f 170 169 171 172
f 172 171 173 174
f 174 173 175 176
f 176 175 169 170
f 175 173 171 169
f 176 170 172 174
g object_23
v 51 10 -62
v 51 13 -62
v 51 10 -58
v 51 13 -58
v 58 10 -58
v 58 13 -58
v 58 10 -62
v 58 13 -62
f 178 177 179 180
f 180 179 181 182
f 182 181 183 184
f 184 183 177 178
f 183 181 179 177
f 184 178 180 182
g object_24
v 51 10 -54
v 51 13 -54
v 51 10 -50
v 51 13 -50
v 58 10 -50
v 58 13 -50
v 58 10 -54
v 58 13 -54
f 186 185 187 188
f 188 187 189 190
f 190 189 191 192
f 192 191 185 186
f 191 189 187 185
f 192 186 188 190
g object_25
v 51 7 -58
v 51 10 -58
v 51 7 -54
v 51 10 -54
v 58 7 -54
v 58 10 -54
v 58 7 -58
v 58 10 -58
f 194 193 195 196
f 196 195 197 198
f 198 197 199 200
f 200 199 193 194
f 199 197 195 193
f 200 194 196 198
g object_26
v 51 7 -50
v 51 10 -50
v 51 7 -46
v 51 10 -46
v 58 7 -46
v 58 10 -46
v 58 7 -50
v 58 10 -50
f 202 201 203 204
f 204 203 205 206
f 206 205 207 208
f 208 207 201 202
f 207 205 203 201
f 208 202 204 206
g object_27
v 51 4 -62
v 51 7 -62
v 51 4 -58
v 51 7 -58
v 58 4 -58
v 58 7 -58
v 58 4 -62
v 58 7 -62
f 210 209 211 212
f 212 211 213 214
f 214 213 215 216
f 216 215 209 210
f 215 213 211 209
f 216 210 212 214
g object_28
v 51 4 -54
v 51 7 -54
v 51 4 -50
v 51 7 -50
v 58 4 -50
v 58 7 -50
v 58 4 -54
v 58 7 -54
f 218 217 219 220
f 220 219 221 222
f 222 221 223 224
f 224 223 217 218
f 223 221 219 217
f 224 218 220 222
g object_29
v 51 16 -62
v 51 19 -62
v 51 16 -58
v 51 19 -58
v 58 16 -58
v 58 19 -58
v 58 16 -62
v 58 19 -62
f 226 225 227 228
f 228 227 229 230
f 230 229 231 232
f 232 231 225 226
f 231 229 227 225
f 232 226 228 230
g object_30
v 51 16 -54
v 51 19 -54
v 51 16 -50
v 51 19 -50
v 58 16 -50
v 58 19 -50
v 58 16 -54
v 58 19 -54
f 234 233 235 236
f 236 235 237 238
f 238 237 239 240
f 240 239 233 234
f 239 237 235 233
f 240 234 236 238
g object_31
v 49 13 -50
v 49 16 -50
v 49 13 -46
v 49 16 -46
v 42 13 -46
v 42 16 -46
v 42 13 -50
v 42 16 -50
f 242 244 243 241
f 244 246 245 243
f 246 248 247 245
f 248 242 241 247
f 247 241 243 245
f 248 246 244 242
g object_32
v 49 13 -58
v 49 16 -58
v 49 13 -54
v 49 16 -54
v 42 13 -54
v 42 16 -54
v 42 13 -58
v 42 16 -58
f 250 252 251 249
f 252 254 253 251
f 254 256 255 253
f 256 250 249 255
f 255 249 251 253
f 256 254 252 250
g object_33
v 49 10 -62
v 49 13 -62
v 49 10 -58
v 49 13 -58
v 42 10 -58
v 42 13 -58
v 42 10 -62
v 42 13 -62
f 258 260 259 257
f 260 262 261 259
f 262 264 263 261
f 264 258 257 263
f 263 257 259 261
f 264 262 260 258
g object_34
v 49 10 -54
v 49 13 -54
v 49 10 -50
v 49 13 -50
v 42 10 -50
v 42 13 -50
v 42 10 -54
v 42 13 -54
f 266 268 267 265
f 268 270 269 267
f 270 272 271 269
f 272 266 265 271
f 271 265 267 269
f 272 270 268 266
g object_35
v 49 7 -58
v 49 10 -58
v 49 7 -54
v 49 10 -54
v 42 7 -54
v 42 10 -54
v 42 7 -58
v 42 10 -58
f 274 276 275 273
f 276 278 277 275
f 278 280 279 277
f 280 274 273 279
f 279 273 275 277
f 280 278 276 274
g object_36
v 49 7 -50
v 49 10 -50
v 49 7 -46
v 49 10 -46
v 42 7 -46
v 42 10 -46
v 42 7 -50
v 42 10 -50
f 282 284 283 281
f 284 286 285 283
f 286 288 287 285
f 288 282 281 287
f 287 281 283 285
f 288 286 284 282
g object_37
v 49 4 -62
v 49 7 -62
v 49 4 -58
v 49 7 -58
v 42 4 -58
v 42 7 -58
v 42 4 -62
v 42 7 -62
f 290 292 291 289
f 292 294 293 291
f 294 296 295 293
f 296 290 289 295
f 295 289 291 293
f 296 294 292 290
g object_38
v 49 4 -54
v 49 7 -54
v 49 4 -50
v 49 7 -50
v 42 4 -50
v 42 7 -50
v 42 4 -54
v 42 7 -54
f 298 300 299 297
f 300 302 301 299
f 302 304 303 301
f 304 298 297 303
f 303 297 299 301
f 304 302 300 298
g object_39
v 49 16 -62
v 49 19 -62
v 49 16 -58
v 49 19 -58
v 42 16 -58
v 42 19 -58
v 42 16 -62
v 42 19 -62
f 306 308 307 305
f 308 310 309 307
f 310 312 311 309
f 312 306 305 311
f 311 305 307 309
f 312 310 308 306
g object_40
v 49 16 -54
v 49 19 -54
v 49 16 -50
v 49 19 -50
v 42 16 -50
v 42 19 -50
v 42 16 -54
v 42 19 -54
f 314 316 315 313
f 316 318 317 315
f 318 320 319 317
f 320 314 313 319
f 319 313 315 317
f 320 318 316 314
g object_41
v 16 16 -19
v 16 19 -19
v 20 16 -19
v 20 19 -19
v 20 16 -12
v 20 19 -12
v 16 16 -12
v 16 19 -12
f 322 324 323 321
f 324 326 325 323
f 326 328 327 325
f 328 322 321 327
f 327 321 323 325
f 328 326 324 322
g object_42
v 8 16 -19
v 8 19 -19
v 12 16 -19
v 12 19 -19
v 12 16 -12
v 12 19 -12
v 8 16 -12
v 8 19 -12
f 330 332 331 329
f 332 334 333 331
f 334 336 335 333
f 336 330 329 335
f 335 329 331 333
f 336 334 332 330
g object_43
v 16 4 -19
v 16 7 -19
v 20 4 -19
v 20 7 -19
v 20 4 -12
v 20 7 -12
v 16 4 -12
v 16 7 -12
f 338 340 339 337
f 340 342 341 339
f 342 344 343 341
f 344 338 337 343
f 343 337 339 341
f 344 342 340 338
g object_44
v 8 4 -19
v 8 7 -19
v 12 4 -19
v 12 7 -19
v 12 4 -12
v 12 7 -12
v 8 4 -12
v 8 7 -12
f 346 348 347 345
f 348 350 349 347
f 350 352 351 349
f 352 346 345 351
f 351 345 347 349
f 352 350 348 346
g object_45
v 20 7 -19
v 20 10 -19
v 24 7 -19
v 24 10 -19
v 24 7 -12
v 24 10 -12
v 20 7 -12
v 20 10 -12
f 354 356 355 353
f 356 358 357 355
f 358 360 359 357
f 360 354 353 359
f 359 353 355 357
f 360 358 356 354
g object_46
v 12 7 -19
v 12 10 -19
v 16 7 -19
v 16 10 -19
v 16 7 -12
v 16 10 -12
v 12 7 -12
v 12 10 -12
f 362 364 363 361
f 364 366 365 363
f 366 368 367 365
f 368 362 361 367
f 367 361 363 365
f 368 366 364 362
g object_47
v 16 10 -19
v 16 13 -19
v 20 10 -19
v 20 13 -19
v 20 10 -12
v 20 13 -12
v 16 10 -12
v 16 13 -12
f 370 372 371 369
f 372 374 373 371
f 374 376 375 373
f 376 370 369 375
f 375 369 371 373
f 376 374 372 370
g object_48
v 8 10 -19
v 8 13 -19
v 12 10 -19
v 12 13 -19
v 12 10 -12
v 12 13 -12
v 8 10 -12
v 8 13 -12
f 378 380 379 377
f 380 382 381 379
f 382 384 383 381
f 384 378 377 383
f 383 377 379 381
f 384 382 380 378
g object_49
v 12 13 -19
v 12 16 -19
v 16 13 -19
v 16 16 -19
v 16 13 -12
v 16 16 -12
v 12 13 -12
v 12 16 -12
f 386 388 387 385
f 388 390 389 387
f 390 392 391 389
f 392 386 385 391
f 391 385 387 389
f 392 390 388 386
g object_50
v 20 13 -19
v 20 16 -19
v 24 13 -19
v 24 16 -19
v 24 13 -12
v 24 16 -12
v 20 13 -12
v 20 16 -12
f 394 396 395 393
f 396 398 397 395
f 398 400 399 397
f 400 394 393 399
f 399 393 395 397
f 400 398 396 394
g object_51
v 16 16 -21
v 16 19 -21
v 20 16 -21
v 20 19 -21
v 20 16 -28
v 20 19 -28
v 16 16 -28
v 16 19 -28
f 402 401 403 404
f 404 403 405 406
f 406 405 407 408
f 408 407 401 402
f 407 405 403 401
f 408 402 404 406
g object_52
v 8 16 -21
v 8 19 -21
v 12 16 -21
v 12 19 -21
v 12 16 -28
v 12 19 -28
v 8 16 -28
v 8 19 -28
f 410 409 411 412
f 412 411 413 414
f 414 413 415 416
f 416 415 409 410
f 415 413 411 409
f 416 410 412 414
g object_53
v 16 4 -21
v 16 7 -21
v 20 4 -21
v 20 7 -21
v 20 4 -28
v 20 7 -28
v 16 4 -28
v 16 7 -28
f 418 417 419 420
f 420 419 421 422
f 422 421 423 424
f 424 423 417 418
f 423 421 419 417
f 424 418 420 422
g object_54
v 8 4 -21
v 8 7 -21
v 12 4 -21
v 12 7 -21
v 12 4 -28
v 12 7 -28
v 8 4 -28
v 8 7 -28
f 426 425 427 428
f 428 427 429 430
f 430 429 431 432
f 432 431 425 426
f 431 429 427 425
f 432 426 428 430
g object_55
v 20 7 -21
v 20 10 -21
v 24 7 -21
v 24 10 -21
v 24 7 -28
v 24 10 -28
v 20 7 -28
v 20 10 -28
f 434 433 435 436
f 436 435 437 438
f 438 437 439 440
f 440 439 433 434
f 439 437 435 433
f 440 434 436 438
g object_56
v 12 7 -21
v 12 10 -21
v 16 7 -21
v 16 10 -21
v 16 7 -28
v 16 10 -28
v 12 7 -28
v 12 10 -28
f 442 441 443 444
f 444 443 445 446
f 446 445 447 448
f 448 447 441 442
f 447 445 443 441
f 448 442 444 446
g object_57
v 16 10 -21
v 16 13 -21
v 20 10 -21
v 20 13 -21
v 20 10 -28
v 20 13 -28
v 16 10 -28
v 16 13 -28
f 450 449 451 452
f 452 451 453 454
f 454 453 455 456
f 456 455 449 450
f 455 453 451 449
f 456 450 452 454
g object_58
v 8 10 -21
v 8 13 -21
v 12 10 -21
v 12 13 -21
v 12 10 -28
v 12 13 -28
v 8 10 -28
v 8 13 -28
f 458 457 459 460
f 460 459 461 462
f 462 461 463 464
f 464 463 457 458
f 463 461 459 457
f 464 458 460 462
g object_59
v 12 13 -21
v 12 16 -21
v 16 13 -21
v 16 16 -21
v 16 13 -28
v 16 16 -28
v 12 13 -28
v 12 16 -28
f 466 465 467 468
f 468 467 469 470
f 470 469 471 472
f 472 471 465 466
f 471 469 467 465
f 472 466 468 470
g object_60
v 20 13 -21
v 20 16 -21
v 24 13 -21
v 24 16 -21
v 24 13 -28
v 24 16 -28
v 20 13 -28
v 20 16 -28
f 474 473 475 476
f 476 475 477 478
f 478 477 479 480
f 480 479 473 474
f 479 477 475 473
f 480 474 476 478
g object_61
v 36 13 -21
v 36 16 -21
v 40 13 -21
v 40 16 -21
v 40 13 -28
v 40 16 -28
v 36 13 -28
v 36 16 -28
f 482 481 483 484
f 484 483 485 486
f 486 485 487 488
f 488 487 481 482
f 487 485 483 481
f 488 482 484 486
g object_62
v 28 13 -21
v 28 16 -21
v 32 13 -21
v 32 16 -21
v 32 13 -28
v 32 16 -28
v 28 13 -28
v 28 16 -28
f 490 489 491 492
f 492 491 493 494
f 494 493 495 496
f 496 495 489 490
f 495 493 491 489
f 496 490 492 494
g object_63
v 24 10 -21
v 24 13 -21
v 28 10 -21
v 28 13 -21
v 28 10 -28
v 28 13 -28
v 24 10 -28
v 24 13 -28
f 498 497 499 500
f 500 499 501 502
f 502 501 503 504
f 504 503 497 498
f 503 501 499 497
f 504 498 500 502
g object_64
v 32 10 -21
v 32 13 -21
v 36 10 -21
v 36 13 -21
v 36 10 -28
v 36 13 -28
v 32 10 -28
v 32 13 -28
f 506 505 507 508
f 508 507 509 510
f 510 509 511 512
f 512 511 505 506
f 511 509 507 505
f 512 506 508 510
g object_65
v 28 7 -21
v 28 10 -21
v 32 7 -21
v 32 10 -21
v 32 7 -28
v 32 10 -28
v 28 7 -28
v 28 10 -28
f 514 513 515 516
f 516 515 517 518
f 518 517 519 520
f 520 519 513 514
f 519 517 515 513
f 520 514 516 518
g object_66
v 36 7 -21
v 36 10 -21
v 40 7 -21
v 40 10 -21
v 40 7 -28
v 40 10 -28
v 36 7 -28
v 36 10 -28
f 522 521 523 524
f 524 523 525 526
f 526 525 527 528
f 528 527 521 522
f 527 525 523 521
f 528 522 524 526
g object_67
v 24 4 -21
v 24 7 -21
v 28 4 -21
v 28 7 -21
v 28 4 -28
v 28 7 -28
v 24 4 -28
v 24 7 -28
f 530 529 531 532
f 532 531 533 534
f 534 533 535 536
f 536 535 529 530
f 535 533 531 529
f 536 530 532 534
g object_68
v 32 4 -21
v 32 7 -21
v 36 4 -21
v 36 7 -21
v 36 4 -28
v 36 7 -28
v 32 4 -28
v 32 7 -28
f 538 537 539 540
f 540 539 541 542
f 542 541 543 544
f 544 543 537 538
f 543 541 539 537
f 544 538 540 542
g object_69
v 24 16 -21
v 24 19 -21
v 28 16 -21
v 28 19 -21
v 28 16 -28
v 28 19 -28
v 24 16 -28
v 24 19 -28
f 546 545 547 548
f 548 547 549 550
f 550 549 551 552
f 552 551 545 546
f 551 549 547 545
f 552 546 548 550
g object_70
v 32 16 -21
v 32 19 -21
v 36 16 -21
v 36 19 -21
v 36 16 -28
v 36 19 -28
v 32 16 -28
v 32 19 -28
f 554 553 555 556
f 556 555 557 558
f 558 557 559 560
f 560 559 553 554
f 559 557 555 553
f 560 554 556 558
g object_71
v 36 13 -19
v 36 16 -19
v 40 13 -19
v 40 16 -19
v 40 13 -12
v 40 16 -12
v 36 13 -12
v 36 16 -12
f 562 564 563 561
f 564 566 565 563
f 566 568 567 565
f 568 562 561 567
f 567 561 563 565
f 568 566 564 562
g object_72
v 28 13 -19
v 28 16 -19
v 32 13 -19
v 32 16 -19
v 32 13 -12
v 32 16 -12
v 28 13 -12
v 28 16 -12
f 570 572 571 569
f 572 574 573 571
f 574 576 575 573
f 576 570 569 575
f 575 569 571 573
f 576 574 572 570
g object_73
v 24 10 -19
v 24 13 -19
v 28 10 -19
v 28 13 -19
v 28 10 -12
v 28 13 -12
v 24 10 -12
v 24 13 -12
f 578 580 579 577
f 580 582 581 579
f 582 584 583 581
f 584 578 577 583
f 583 577 579 581
f 584 582 580 578
g object_74
v 32 10 -19
v 32 13 -19
v 36 10 -19
v 36 13 -19
v 36 10 -12
v 36 13 -12
v 32 10 -12
v 32 13 -12
f 586 588 587 585
f 588 590 589 587
f 590 592 591 589
f 592 586 585 591
f 591 585 587 589
f 592 590 588 586
g object_75
v 28 7 -19
v 28 10 -19
v 32 7 -19
v 32 10 -19
v 32 7 -12
v 32 10 -12
v 28 7 -12
v 28 10 -12
f 594 596 595 593
f 596 598 597 595
f 598 600 599 597
f 600 594 593 599
f 599 593 595 597
f 600 598 596 594
g object_76
v 36 7 -19
v 36 10 -19
v 40 7 -19
v 40 10 -19
v 40 7 -12
v 40 10 -12
v 36 7 -12
v 36 10 -12
f 602 604 603 601
f 604 606 605 603
f 606 608 607 605
f 608 602 601 607
f 607 601 603 605
f 608 606 604 602
g object_77
v 24 4 -19
v 24 7 -19
v 28 4 -19
v 28 7 -19
v 28 4 -12
v 28 7 -12
v 24 4 -12
v 24 7 -12
f 610 612 611 609
f 612 614 613 611
f 614 616 615 613
f 616 610 609 615
f 615 609 611 613
f 616 614 612 610
g object_78
v 32 4 -19
v 32 7 -19
v 36 4 -19
v 36 7 -19
v 36 4 -12
v 36 7 -12
v 32 4 -12
v 32 7 -12
f 618 620 619 617
f 620 622 621 619
f 622 624 623 621
f 624 618 617 623
f 623 617 619 621
f 624 622 620 618
g object_79
v 24 16 -19
v 24 19 -19
v 28 16 -19
v 28 19 -19
v 28 16 -12
v 28 19 -12
v 24 16 -12
v 24 19 -12
f 626 628 627 625
f 628 630 629 627
f 630 632 631 629
f 632 626 625 631
f 631 625 627 629
f 632 630 628 626
g object_80
v 32 16 -19
v 32 19 -19
v 36 16 -19
v 36 19 -19
v 36 16 -12
v 36 19 -12
v 32 16 -12
v 32 19 -12
f 634 636 635 633
f 636 638 637 635
f 638 640 639 637
f 640 634 633 639
f 639 633 635 637
f 640 638 636 634
