# Rhino

g object_1
v 49 19 -34
v 49 25 -34
v 49 19 -30
v 49 25 -30
v 42 19 -30
v 42 25 -30
v 42 19 -34
v 42 25 -34
f 2 4 3 1
f 4 6 5 3
f 6 8 7 5
f 8 2 1 7
f 7 1 3 5
f 8 6 4 2
g object_2
v 49 19 -42
v 49 25 -42
v 49 19 -38
v 49 25 -38
v 42 19 -38
v 42 25 -38
v 42 19 -42
v 42 25 -42
f 10 12 11 9
f 12 14 13 11
f 14 16 15 13
f 16 10 9 15
f 15 9 11 13
f 16 14 12 10
g object_3
v 51 19 -34
v 51 25 -34
v 51 19 -30
v 51 25 -30
v 58 19 -30
v 58 25 -30
v 58 19 -34
v 58 25 -34
f 18 17 19 20
f 20 19 21 22
f 22 21 23 24
f 24 23 17 18
f 23 21 19 17
f 24 18 20 22
g object_4
v 51 19 -42
v 51 25 -42
v 51 19 -38
v 51 25 -38
v 58 19 -38
v 58 25 -38
v 58 19 -42
v 58 25 -42
f 26 25 27 28
f 28 27 29 30
f 30 29 31 32
f 32 31 25 26
f 31 29 27 25
f 32 26 28 30
g object_5
v 51 19 -58
v 51 25 -58
v 51 19 -54
v 51 25 -54
v 58 19 -54
v 58 25 -54
v 58 19 -58
v 58 25 -58
f 34 33 35 36
f 36 35 37 38
f 38 37 39 40
f 40 39 33 34
f 39 37 35 33
f 40 34 36 38
g object_6
v 51 19 -50
v 51 25 -50
v 51 19 -46
v 51 25 -46
v 58 19 -46
v 58 25 -46
v 58 19 -50
v 58 25 -50
f 42 41 43 44
f 44 43 45 46
f 46 45 47 48
f 48 47 41 42
f 47 45 43 41
f 48 42 44 46
g object_7
v 49 19 -58
v 49 25 -58
v 49 19 -54
v 49 25 -54
v 42 19 -54
v 42 25 -54
v 42 19 -58
v 42 25 -58
f 50 52 51 49
f 52 54 53 51
f 54 56 55 53
f 56 50 49 55
f 55 49 51 53
f 56 54 52 50
g object_8
v 49 19 -50
v 49 25 -50
v 49 19 -46
v 49 25 -46
v 42 19 -46
v 42 25 -46
v 42 19 -50
v 42 25 -50
f 58 60 59 57
f 60 62 61 59
f 62 64 63 61
f 64 58 57 63
f 63 57 59 61
f 64 62 60 58
g object_9
v 20 19 -19
v 20 25 -19
v 24 19 -19
v 24 25 -19
v 24 19 -12
v 24 25 -12
v 20 19 -12
v 20 25 -12
f 66 68 67 65
f 68 70 69 67
f 70 72 71 69
f 72 66 65 71
f 71 65 67 69
f 72 70 68 66
g object_10
v 12 19 -19
v 12 25 -19
v 16 19 -19
v 16 25 -19
v 16 19 -12
v 16 25 -12
v 12 19 -12
v 12 25 -12
f 74 76 75 73
f 76 78 77 75
f 78 80 79 77
f 80 74 73 79
f 79 73 75 77
f 80 78 76 74
g object_11
v 20 19 -21
v 20 25 -21
v 24 19 -21
v 24 25 -21
v 24 19 -28
v 24 25 -28
v 20 19 -28
v 20 25 -28
f 82 81 83 84
f 84 83 85 86
f 86 85 87 88
f 88 87 81 82
f 87 85 83 81
f 88 82 84 86
g object_12
v 12 19 -21
v 12 25 -21
v 16 19 -21
v 16 25 -21
v 16 19 -28
v 16 25 -28
v 12 19 -28
v 12 25 -28
f 90 89 91 92
f 92 91 93 94
f 94 93 95 96
f 96 95 89 90
f 95 93 91 89
f 96 90 92 94
g object_13
v 28 19 -21
v 28 25 -21
v 32 19 -21
v 32 25 -21
v 32 19 -28
v 32 25 -28
v 28 19 -28
v 28 25 -28
f 98 97 99 100
f 100 99 101 102
f 102 101 103 104
f 104 103 97 98
f 103 101 99 97
f 104 98 100 102
g object_14
v 36 19 -21
v 36 25 -21
v 40 19 -21
v 40 25 -21
v 40 19 -28
v 40 25 -28
v 36 19 -28
v 36 25 -28
f 106 105 107 108
f 108 107 109 110
f 110 109 111 112
f 112 111 105 106
f 111 109 107 105
f 112 106 108 110
g object_15
v 28 19 -19
v 28 25 -19
v 32 19 -19
v 32 25 -19
v 32 19 -12
v 32 25 -12
v 28 19 -12
v 28 25 -12
f 114 116 115 113
f 116 118 117 115
f 118 120 119 117
f 120 114 113 119
f 119 113 115 117
f 120 118 116 114
g object_16
v 36 19 -19
v 36 25 -19
v 40 19 -19
v 40 25 -19
v 40 19 -12
v 40 25 -12
v 36 19 -12
v 36 25 -12
f 122 124 123 121
f 124 126 125 123
f 126 128 127 125
f 128 122 121 127
f 127 121 123 125
f 128 126 124 122
