# Rhino

v 5 0 -6
v 7 0 -6
v 5 0 -16
v 7 0 -16
vt 0 0
vt 0 1
vt 1 0
vt 1 1
vn 0 -1 0
vn 0 -1 0
vn 0 -1 0
vn 0 -1 0
f 4/4/4 2/2/2 1/1/1 3/3/3
v 5 3 -6
v 7 3 -6
v 5 3 -16
v 7 3 -16
vt 0 0
vt 0 1
vt 1 0
vt 1 1
vn 0 1 0
vn 0 1 0
vn 0 1 0
vn 0 1 0
f 8/8/8 7/7/7 5/5/5 6/6/6
v 7 3 -6
v 7 0 -6
v 5 3 -6
v 5 0 -6
vt 0 0
vt 0 1
vt 1 0
vt 1 1
vn 0 0 1
vn 0 0 1
vn 0 0 1
vn 0 0 1
f 12/12/12 10/10/10 9/9/9 11/11/11
v 7 3 -16
v 7 0 -16
v 7 3 -6
v 7 0 -6
vt 0 0
vt 0 1
vt 1 0
vt 1 1
vn 1 0 0
vn 1 0 0
vn 1 0 0
vn 1 0 0
f 16/16/16 14/14/14 13/13/13 15/15/15
v 5 3 -16
v 5 0 -16
v 7 3 -16
v 7 0 -16
vt 0 0
vt 0 1
vt 1 0
vt 1 1
vn 0 0 -1
vn 0 0 -1
vn 0 0 -1
vn 0 0 -1
f 20/20/20 18/18/18 17/17/17 19/19/19
v 5 3 -6
v 5 0 -6
v 5 3 -16
v 5 0 -16
vt 0 0
vt 0 1
vt 1 0
vt 1 1
vn -1 0 0
vn -1 0 0
vn -1 0 0
vn -1 0 0
f 24/24/24 22/22/22 21/21/21 23/23/23
v 0 0 -13
v 0 0 -8
v 5 0 -13
v 5 0 -8
vt 0 0
vt 0 1
vt 1 0
vt 1 1
vn 0 -1 0
vn 0 -1 0
vn 0 -1 0
vn 0 -1 0
f 28/28/28 26/26/26 25/25/25 27/27/27
v 0 3 -13
v 0 3 -8
v 5 3 -13
v 5 3 -8
vt 0 0
vt 0 1
vt 1 0
vt 1 1
vn 0 1 0
vn 0 1 0
vn 0 1 0
vn 0 1 0
f 32/32/32 31/31/31 29/29/29 30/30/30
v 0 3 -8
v 0 0 -8
v 0 3 -13
v 0 0 -13
vt 0 0
vt 0 1
vt 1 0
vt 1 1
vn -1 0 0
vn -1 0 0
vn -1 0 0
vn -1 0 0
f 36/36/36 34/34/34 33/33/33 35/35/35
v 5 3 -8
v 5 0 -8
v 0 3 -8
v 0 0 -8
vt 0 0
vt 0 1
vt 1 0
vt 1 1
vn 0 0 1
vn 0 0 1
vn 0 0 1
vn 0 0 1
f 40/40/40 38/38/38 37/37/37 39/39/39
v 5 3 -13
v 5 0 -13
v 5 3 -8
v 5 0 -8
vt 0 0
vt 0 1
vt 1 0
vt 1 1
vn 1 0 0
vn 1 0 0
vn 1 0 0
vn 1 0 0
f 44/44/44 42/42/42 41/41/41 43/43/43
v 0 3 -13
v 0 0 -13
v 5 3 -13
v 5 0 -13
vt 0 0
vt 0 1
vt 1 0
vt 1 1
vn 0 0 -1
vn 0 0 -1
vn 0 0 -1
vn 0 0 -1
f 48/48/48 46/46/46 45/45/45 47/47/47
v 0 0 -6
v 5 0 -6
v 0 0 -8
v 5 0 -8
vt 0 0
vt 0 1
vt 1 0
vt 1 1
vn 0 -1 0
vn 0 -1 0
vn 0 -1 0
vn 0 -1 0
f 52/52/52 50/50/50 49/49/49 51/51/51
v 0 3 -6
v 5 3 -6
v 0 3 -8
v 5 3 -8
vt 0 0
vt 0 1
vt 1 0
vt 1 1
vn 0 1 0
vn 0 1 0
vn 0 1 0
vn 0 1 0
f 56/56/56 55/55/55 53/53/53 54/54/54
v 5 3 -6
v 5 0 -6
v 0 3 -6
v 0 0 -6
vt 0 0
vt 0 1
vt 1 0
vt 1 1
vn 0 0 1
vn 0 0 1
vn 0 0 1
vn 0 0 1
f 60/60/60 58/58/58 57/57/57 59/59/59
v 5 3 -8
v 5 0 -8
v 5 3 -6
v 5 0 -6
vt 0 0
vt 0 1
vt 1 0
vt 1 1
vn 1 0 0
vn 1 0 0
vn 1 0 0
vn 1 0 0
f 64/64/64 62/62/62 61/61/61 63/63/63
v 0 3 -8
v 0 0 -8
v 5 3 -8
v 5 0 -8
vt 0 0
vt 0 1
vt 1 0
vt 1 1
vn 0 0 -1
vn 0 0 -1
vn 0 0 -1
vn 0 0 -1
f 68/68/68 66/66/66 65/65/65 67/67/67
v 0 3 -6
v 0 0 -6
v 0 3 -8
v 0 0 -8
vt 0 0
vt 0 1
vt 1 0
vt 1 1
vn -1 0 0
vn -1 0 0
vn -1 0 0
vn -1 0 0
f 72/72/72 70/70/70 69/69/69 71/71/71
v 7 0 -4
v 12 0 -4
v 7 0 -10
v 12 0 -10
vt 0 0
vt 0 1
vt 1 0
vt 1 1
vn 0 -1 0
vn 0 -1 0
vn 0 -1 0
vn 0 -1 0
f 76/76/76 74/74/74 73/73/73 75/75/75
v 7 3 -4
v 12 3 -4
v 7 3 -10
v 12 3 -10
vt 0 0
vt 0 1
vt 1 0
vt 1 1
vn 0 1 0
vn 0 1 0
vn 0 1 0
vn 0 1 0
f 80/80/80 79/79/79 77/77/77 78/78/78
v 12 3 -4
v 12 0 -4
v 7 3 -4
v 7 0 -4
vt 0 0
vt 0 1
vt 1 0
vt 1 1
vn 0 0 1
vn 0 0 1
vn 0 0 1
vn 0 0 1
f 84/84/84 82/82/82 81/81/81 83/83/83
v 12 3 -10
v 12 0 -10
v 12 3 -4
v 12 0 -4
vt 0 0
vt 0 1
vt 1 0
vt 1 1
vn 1 0 0
vn 1 0 0
vn 1 0 0
vn 1 0 0
f 88/88/88 86/86/86 85/85/85 87/87/87
v 7 3 -10
v 7 0 -10
v 12 3 -10
v 12 0 -10
vt 0 0
vt 0 1
vt 1 0
vt 1 1
vn 0 0 -1
vn 0 0 -1
vn 0 0 -1
vn 0 0 -1
f 92/92/92 90/90/90 89/89/89 91/91/91
v 7 3 -4
v 7 0 -4
v 7 3 -10
v 7 0 -10
vt 0 0
vt 0 1
vt 1 0
vt 1 1
vn -1 0 0
vn -1 0 0
vn -1 0 0
vn -1 0 0
f 96/96/96 94/94/94 93/93/93 95/95/95
v 7 0 -16
v 7 0 -10
v 12 0 -16
v 12 0 -10
vt 0 0
vt 0 1
vt 1 0
vt 1 1
vn 0 -1 0
vn 0 -1 0
vn 0 -1 0
vn 0 -1 0
f 100/100/100 98/98/98 97/97/97 99/99/99
v 7 3 -16
v 7 3 -10
v 12 3 -16
v 12 3 -10
vt 0 0
vt 0 1
vt 1 0
vt 1 1
vn 0 1 0
vn 0 1 0
vn 0 1 0
vn 0 1 0
f 104/104/104 103/103/103 101/101/101 102/102/102
v 7 3 -10
v 7 0 -10
v 7 3 -16
v 7 0 -16
vt 0 0
vt 0 1
vt 1 0
vt 1 1
vn -1 0 0
vn -1 0 0
vn -1 0 0
vn -1 0 0
f 108/108/108 106/106/106 105/105/105 107/107/107
v 12 3 -10
v 12 0 -10
v 7 3 -10
v 7 0 -10
vt 0 0
vt 0 1
vt 1 0
vt 1 1
vn 0 0 1
vn 0 0 1
vn 0 0 1
vn 0 0 1
f 112/112/112 110/110/110 109/109/109 111/111/111
v 12 3 -16
v 12 0 -16
v 12 3 -10
v 12 0 -10
vt 0 0
vt 0 1
vt 1 0
vt 1 1
vn 1 0 0
vn 1 0 0
vn 1 0 0
vn 1 0 0
f 116/116/116 114/114/114 113/113/113 115/115/115
v 7 3 -16
v 7 0 -16
v 12 3 -16
v 12 0 -16
vt 0 0
vt 0 1
vt 1 0
vt 1 1
vn 0 0 -1
vn 0 0 -1
vn 0 0 -1
vn 0 0 -1
f 120/120/120 118/118/118 117/117/117 119/119/119
v 0 0 -13
v 5 0 -13
v 0 0 -16
v 5 0 -16
vt 0 0
vt 0 1
vt 1 0
vt 1 1
vn 0 -1 0
vn 0 -1 0
vn 0 -1 0
vn 0 -1 0
f 124/124/124 122/122/122 121/121/121 123/123/123
v 0 3 -13
v 5 3 -13
v 0 3 -16
v 5 3 -16
vt 0 0
vt 0 1
vt 1 0
vt 1 1
vn 0 1 0
vn 0 1 0
vn 0 1 0
vn 0 1 0
f 128/128/128 127/127/127 125/125/125 126/126/126
v 5 3 -13
v 5 0 -13
v 0 3 -13
v 0 0 -13
vt 0 0
vt 0 1
vt 1 0
vt 1 1
vn 0 0 1
vn 0 0 1
vn 0 0 1
vn 0 0 1
f 132/132/132 130/130/130 129/129/129 131/131/131
v 5 3 -16
v 5 0 -16
v 5 3 -13
v 5 0 -13
vt 0 0
vt 0 1
vt 1 0
vt 1 1
vn 1 0 0
vn 1 0 0
vn 1 0 0
vn 1 0 0
f 136/136/136 134/134/134 133/133/133 135/135/135
v 0 3 -16
v 0 0 -16
v 5 3 -16
v 5 0 -16
vt 0 0
vt 0 1
vt 1 0
vt 1 1
vn 0 0 -1
vn 0 0 -1
vn 0 0 -1
vn 0 0 -1
f 140/140/140 138/138/138 137/137/137 139/139/139
v 0 3 -13
v 0 0 -13
v 0 3 -16
v 0 0 -16
vt 0 0
vt 0 1
vt 1 0
vt 1 1
vn -1 0 0
vn -1 0 0
vn -1 0 0
vn -1 0 0
f 144/144/144 142/142/142 141/141/141 143/143/143
