# Rhino

g object_1
v 49 1 -30
v 49 4 -30
v 49 1 -34
v 49 4 -34
v 44 1 -34
v 44 4 -34
v 44 1 -30
v 44 4 -30
f 2 1 3 4
f 4 3 5 6
f 6 5 7 8
f 8 7 1 2
f 7 5 3 1
f 8 2 4 6
g object_2
v 49 1 -46
v 49 4 -46
v 49 1 -42
v 49 4 -42
v 44 1 -42
v 44 4 -42
v 44 1 -46
v 44 4 -46
f 10 12 11 9
f 12 14 13 11
f 14 16 15 13
f 16 10 9 15
f 15 9 11 13
f 16 14 12 10
g object_3
v 49 1 -42
v 49 4 -42
v 49 1 -34
v 49 4 -34
v 44 1 -34
v 44 4 -34
v 44 1 -42
v 44 4 -42
f 18 20 19 17
f 20 22 21 19
f 22 24 23 21
f 24 18 17 23
f 23 17 19 21
f 24 22 20 18
g object_4
v 51 1 -30
v 51 4 -30
v 51 1 -34
v 51 4 -34
v 56 1 -34
v 56 4 -34
v 56 1 -30
v 56 4 -30
f 26 28 27 25
f 28 30 29 27
f 30 32 31 29
f 32 26 25 31
f 31 25 27 29
f 32 30 28 26
g object_5
v 51 1 -46
v 51 4 -46
v 51 1 -42
v 51 4 -42
v 56 1 -42
v 56 4 -42
v 56 1 -46
v 56 4 -46
f 34 33 35 36
f 36 35 37 38
f 38 37 39 40
f 40 39 33 34
f 39 37 35 33
f 40 34 36 38
g object_6
v 51 1 -42
v 51 4 -42
v 51 1 -34
v 51 4 -34
v 56 1 -34
v 56 4 -34
v 56 1 -42
v 56 4 -42
f 42 41 43 44
f 44 43 45 46
f 46 45 47 48
f 48 47 41 42
f 47 45 43 41
f 48 42 44 46
g object_7
v 49 16 -42
v 49 19 -42
v 49 16 -38
v 49 19 -38
v 44 16 -38
v 44 19 -38
v 44 16 -42
v 44 19 -42
f 50 52 51 49
f 52 54 53 51
f 54 56 55 53
f 56 50 49 55
f 55 49 51 53
f 56 54 52 50
g object_8
v 49 16 -34
v 49 19 -34
v 49 16 -30
v 49 19 -30
v 44 16 -30
v 44 19 -30
v 44 16 -34
v 44 19 -34
f 58 60 59 57
f 60 62 61 59
f 62 64 63 61
f 64 58 57 63
f 63 57 59 61
f 64 62 60 58
g object_9
v 49 16 -38
v 49 19 -38
v 49 16 -34
v 49 19 -34
v 42 16 -34
v 42 19 -34
v 42 16 -38
v 42 19 -38
f 66 68 67 65
f 68 70 69 67
f 70 72 71 69
f 72 66 65 71
f 71 65 67 69
f 72 70 68 66
g object_10
v 49 16 -46
v 49 19 -46
v 49 16 -42
v 49 19 -42
v 42 16 -42
v 42 19 -42
v 42 16 -46
v 42 19 -46
f 74 76 75 73
f 76 78 77 75
f 78 80 79 77
f 80 74 73 79
f 79 73 75 77
f 80 78 76 74
g object_11
v 49 19 -34
v 49 25 -34
v 49 19 -30
v 49 25 -30
v 42 19 -30
v 42 25 -30
v 42 19 -34
v 42 25 -34
f 82 84 83 81
f 84 86 85 83
f 86 88 87 85
f 88 82 81 87
f 87 81 83 85
f 88 86 84 82
g object_12
v 49 19 -42
v 49 25 -42
v 49 19 -38
v 49 25 -38
v 42 19 -38
v 42 25 -38
v 42 19 -42
v 42 25 -42
f 90 92 91 89
f 92 94 93 91
f 94 96 95 93
f 96 90 89 95
f 95 89 91 93
f 96 94 92 90
g object_13
v 49 19 -46
v 49 25 -46
v 49 19 -42
v 49 25 -42
v 44 19 -42
v 44 25 -42
v 44 19 -46
v 44 25 -46
f 98 100 99 97
f 100 102 101 99
f 102 104 103 101
f 104 98 97 103
f 103 97 99 101
f 104 102 100 98
g object_14
v 49 19 -38
v 49 25 -38
v 49 19 -34
v 49 25 -34
v 44 19 -34
v 44 25 -34
v 44 19 -38
v 44 25 -38
f 106 108 107 105
f 108 110 109 107
f 110 112 111 109
f 112 106 105 111
f 111 105 107 109
f 112 110 108 106
g object_15
v 49 4 -38
v 49 7 -38
v 49 4 -34
v 49 7 -34
v 42 4 -34
v 42 7 -34
v 42 4 -38
v 42 7 -38
f 114 116 115 113
f 116 118 117 115
f 118 120 119 117
f 120 114 113 119
f 119 113 115 117
f 120 118 116 114
g object_16
v 49 4 -46
v 49 7 -46
v 49 4 -42
v 49 7 -42
v 42 4 -42
v 42 7 -42
v 42 4 -46
v 42 7 -46
f 122 124 123 121
f 124 126 125 123
f 126 128 127 125
f 128 122 121 127
f 127 121 123 125
f 128 126 124 122
g object_17
v 49 7 -34
v 49 10 -34
v 49 7 -30
v 49 10 -30
v 42 7 -30
v 42 10 -30
v 42 7 -34
v 42 10 -34
f 130 132 131 129
f 132 134 133 131
f 134 136 135 133
f 136 130 129 135
f 135 129 131 133
f 136 134 132 130
g object_18
v 49 7 -42
v 49 10 -42
v 49 7 -38
v 49 10 -38
v 42 7 -38
v 42 10 -38
v 42 7 -42
v 42 10 -42
f 138 140 139 137
f 140 142 141 139
f 142 144 143 141
f 144 138 137 143
f 143 137 139 141
f 144 142 140 138
g object_19
v 49 10 -38
v 49 13 -38
v 49 10 -34
v 49 13 -34
v 42 10 -34
v 42 13 -34
v 42 10 -38
v 42 13 -38
f 146 148 147 145
f 148 150 149 147
f 150 152 151 149
f 152 146 145 151
f 151 145 147 149
f 152 150 148 146
g object_20
v 49 10 -46
v 49 13 -46
v 49 10 -42
v 49 13 -42
v 42 10 -42
v 42 13 -42
v 42 10 -46
v 42 13 -46
f 154 156 155 153
f 156 158 157 155
f 158 160 159 157
f 160 154 153 159
f 159 153 155 157
f 160 158 156 154
g object_21
v 49 13 -42
v 49 16 -42
v 49 13 -38
v 49 16 -38
v 42 13 -38
v 42 16 -38
v 42 13 -42
v 42 16 -42
f 162 164 163 161
f 164 166 165 163
f 166 168 167 165
f 168 162 161 167
f 167 161 163 165
f 168 166 164 162
g object_22
v 49 13 -34
v 49 16 -34
v 49 13 -30
v 49 16 -30
v 42 13 -30
v 42 16 -30
v 42 13 -34
v 42 16 -34
f 170 172 171 169
f 172 174 173 171
f 174 176 175 173
f 176 170 169 175
f 175 169 171 173
f 176 174 172 170
g object_23
v 49 13 -38
v 49 16 -38
v 49 13 -34
v 49 16 -34
v 44 13 -34
v 44 16 -34
v 44 13 -38
v 44 16 -38
f 178 180 179 177
f 180 182 181 179
f 182 184 183 181
f 184 178 177 183
f 183 177 179 181
f 184 182 180 178
g object_24
v 49 13 -46
v 49 16 -46
v 49 13 -42
v 49 16 -42
v 44 13 -42
v 44 16 -42
v 44 13 -46
v 44 16 -46
f 186 188 187 185
f 188 190 189 187
f 190 192 191 189
f 192 186 185 191
f 191 185 187 189
f 192 190 188 186
g object_25
v 49 10 -42
v 49 13 -42
v 49 10 -38
v 49 13 -38
v 44 10 -38
v 44 13 -38
v 44 10 -42
v 44 13 -42
f 194 196 195 193
f 196 198 197 195
f 198 200 199 197
f 200 194 193 199
f 199 193 195 197
f 200 198 196 194
g object_26
v 49 10 -34
v 49 13 -34
v 49 10 -30
v 49 13 -30
v 44 10 -30
v 44 13 -30
v 44 10 -34
v 44 13 -34
f 202 204 203 201
f 204 206 205 203
f 206 208 207 205
f 208 202 201 207
f 207 201 203 205
f 208 206 204 202
g object_27
v 49 7 -46
v 49 10 -46
v 49 7 -42
v 49 10 -42
v 44 7 -42
v 44 10 -42
v 44 7 -46
v 44 10 -46
f 210 212 211 209
f 212 214 213 211
f 214 216 215 213
f 216 210 209 215
f 215 209 211 213
f 216 214 212 210
g object_28
v 49 7 -38
v 49 10 -38
v 49 7 -34
v 49 10 -34
v 44 7 -34
v 44 10 -34
v 44 7 -38
v 44 10 -38
f 218 220 219 217
f 220 222 221 219
f 222 224 223 221
f 224 218 217 223
f 223 217 219 221
f 224 222 220 218
g object_29
v 49 4 -34
v 49 7 -34
v 49 4 -30
v 49 7 -30
v 44 4 -30
v 44 7 -30
v 44 4 -34
v 44 7 -34
f 226 228 227 225
f 228 230 229 227
f 230 232 231 229
f 232 226 225 231
f 231 225 227 229
f 232 230 228 226
g object_30
v 49 4 -42
v 49 7 -42
v 49 4 -38
v 49 7 -38
v 44 4 -38
v 44 7 -38
v 44 4 -42
v 44 7 -42
f 234 236 235 233
f 236 238 237 235
f 238 240 239 237
f 240 234 233 239
f 239 233 235 237
f 240 238 236 234
g object_31
v 51 16 -42
v 51 19 -42
v 51 16 -38
v 51 19 -38
v 56 16 -38
v 56 19 -38
v 56 16 -42
v 56 19 -42
f 242 241 243 244
f 244 243 245 246
f 246 245 247 248
f 248 247 241 242
f 247 245 243 241
f 248 242 244 246
g object_32
v 51 16 -34
v 51 19 -34
v 51 16 -30
v 51 19 -30
v 56 16 -30
v 56 19 -30
v 56 16 -34
v 56 19 -34
f 250 249 251 252
f 252 251 253 254
f 254 253 255 256
f 256 255 249 250
f 255 253 251 249
f 256 250 252 254
g object_33
v 51 16 -38
v 51 19 -38
v 51 16 -34
v 51 19 -34
v 58 16 -34
v 58 19 -34
v 58 16 -38
v 58 19 -38
f 258 257 259 260
f 260 259 261 262
f 262 261 263 264
f 264 263 257 258
f 263 261 259 257
f 264 258 260 262
g object_34
v 51 16 -46
v 51 19 -46
v 51 16 -42
v 51 19 -42
v 58 16 -42
v 58 19 -42
v 58 16 -46
v 58 19 -46
f 266 265 267 268
f 268 267 269 270
f 270 269 271 272
f 272 271 265 266
f 271 269 267 265
f 272 266 268 270
g object_35
v 51 19 -34
v 51 25 -34
v 51 19 -30
v 51 25 -30
v 58 19 -30
v 58 25 -30
v 58 19 -34
v 58 25 -34
f 274 273 275 276
f 276 275 277 278
f 278 277 279 280
f 280 279 273 274
f 279 277 275 273
f 280 274 276 278
g object_36
v 51 19 -42
v 51 25 -42
v 51 19 -38
v 51 25 -38
v 58 19 -38
v 58 25 -38
v 58 19 -42
v 58 25 -42
f 282 281 283 284
f 284 283 285 286
f 286 285 287 288
f 288 287 281 282
f 287 285 283 281
f 288 282 284 286
g object_37
v 51 19 -46
v 51 25 -46
v 51 19 -42
v 51 25 -42
v 56 19 -42
v 56 25 -42
v 56 19 -46
v 56 25 -46
f 290 289 291 292
f 292 291 293 294
f 294 293 295 296
f 296 295 289 290
f 295 293 291 289
f 296 290 292 294
g object_38
v 51 19 -38
v 51 25 -38
v 51 19 -34
v 51 25 -34
v 56 19 -34
v 56 25 -34
v 56 19 -38
v 56 25 -38
f 298 297 299 300
f 300 299 301 302
f 302 301 303 304
f 304 303 297 298
f 303 301 299 297
f 304 298 300 302
g object_39
v 51 4 -38
v 51 7 -38
v 51 4 -34
v 51 7 -34
v 58 4 -34
v 58 7 -34
v 58 4 -38
v 58 7 -38
f 306 305 307 308
f 308 307 309 310
f 310 309 311 312
f 312 311 305 306
f 311 309 307 305
f 312 306 308 310
g object_40
v 51 4 -46
v 51 7 -46
v 51 4 -42
v 51 7 -42
v 58 4 -42
v 58 7 -42
v 58 4 -46
v 58 7 -46
f 314 313 315 316
f 316 315 317 318
f 318 317 319 320
f 320 319 313 314
f 319 317 315 313
f 320 314 316 318
g object_41
v 51 7 -34
v 51 10 -34
v 51 7 -30
v 51 10 -30
v 58 7 -30
v 58 10 -30
v 58 7 -34
v 58 10 -34
f 322 321 323 324
f 324 323 325 326
f 326 325 327 328
f 328 327 321 322
f 327 325 323 321
f 328 322 324 326
g object_42
v 51 7 -42
v 51 10 -42
v 51 7 -38
v 51 10 -38
v 58 7 -38
v 58 10 -38
v 58 7 -42
v 58 10 -42
f 330 329 331 332
f 332 331 333 334
f 334 333 335 336
f 336 335 329 330
f 335 333 331 329
f 336 330 332 334
g object_43
v 51 10 -38
v 51 13 -38
v 51 10 -34
v 51 13 -34
v 58 10 -34
v 58 13 -34
v 58 10 -38
v 58 13 -38
f 338 337 339 340
f 340 339 341 342
f 342 341 343 344
f 344 343 337 338
f 343 341 339 337
f 344 338 340 342
g object_44
v 51 10 -46
v 51 13 -46
v 51 10 -42
v 51 13 -42
v 58 10 -42
v 58 13 -42
v 58 10 -46
v 58 13 -46
f 346 345 347 348
f 348 347 349 350
f 350 349 351 352
f 352 351 345 346
f 351 349 347 345
f 352 346 348 350
g object_45
v 51 13 -42
v 51 16 -42
v 51 13 -38
v 51 16 -38
v 58 13 -38
v 58 16 -38
v 58 13 -42
v 58 16 -42
f 354 353 355 356
f 356 355 357 358
f 358 357 359 360
f 360 359 353 354
f 359 357 355 353
f 360 354 356 358
g object_46
v 51 13 -34
v 51 16 -34
v 51 13 -30
v 51 16 -30
v 58 13 -30
v 58 16 -30
v 58 13 -34
v 58 16 -34
f 362 361 363 364
f 364 363 365 366
f 366 365 367 368
f 368 367 361 362
f 367 365 363 361
f 368 362 364 366
g object_47
v 51 13 -38
v 51 16 -38
v 51 13 -34
v 51 16 -34
v 56 13 -34
v 56 16 -34
v 56 13 -38
v 56 16 -38
f 370 369 371 372
f 372 371 373 374
f 374 373 375 376
f 376 375 369 370
f 375 373 371 369
f 376 370 372 374
g object_48
v 51 13 -46
v 51 16 -46
v 51 13 -42
v 51 16 -42
v 56 13 -42
v 56 16 -42
v 56 13 -46
v 56 16 -46
f 378 377 379 380
f 380 379 381 382
f 382 381 383 384
f 384 383 377 378
f 383 381 379 377
f 384 378 380 382
g object_49
v 51 10 -42
v 51 13 -42
v 51 10 -38
v 51 13 -38
v 56 10 -38
v 56 13 -38
v 56 10 -42
v 56 13 -42
f 386 385 387 388
f 388 387 389 390
f 390 389 391 392
f 392 391 385 386
f 391 389 387 385
f 392 386 388 390
g object_50
v 51 10 -34
v 51 13 -34
v 51 10 -30
v 51 13 -30
v 56 10 -30
v 56 13 -30
v 56 10 -34
v 56 13 -34
f 394 393 395 396
f 396 395 397 398
f 398 397 399 400
f 400 399 393 394
f 399 397 395 393
f 400 394 396 398
g object_51
v 51 7 -46
v 51 10 -46
v 51 7 -42
v 51 10 -42
v 56 7 -42
v 56 10 -42
v 56 7 -46
v 56 10 -46
f 402 401 403 404
f 404 403 405 406
f 406 405 407 408
f 408 407 401 402
f 407 405 403 401
f 408 402 404 406
g object_52
v 51 7 -38
v 51 10 -38
v 51 7 -34
v 51 10 -34
v 56 7 -34
v 56 10 -34
v 56 7 -38
v 56 10 -38
f 410 409 411 412
f 412 411 413 414
f 414 413 415 416
f 416 415 409 410
f 415 413 411 409
f 416 410 412 414
g object_53
v 51 4 -34
v 51 7 -34
v 51 4 -30
v 51 7 -30
v 56 4 -30
v 56 7 -30
v 56 4 -34
v 56 7 -34
f 418 417 419 420
f 420 419 421 422
f 422 421 423 424
f 424 423 417 418
f 423 421 419 417
f 424 418 420 422
g object_54
v 51 4 -42
v 51 7 -42
v 51 4 -38
v 51 7 -38
v 56 4 -38
v 56 7 -38
v 56 4 -42
v 56 7 -42
f 426 425 427 428
f 428 427 429 430
f 430 429 431 432
f 432 431 425 426
f 431 429 427 425
f 432 426 428 430
g object_55
v 51 4 -58
v 51 7 -58
v 51 4 -54
v 51 7 -54
v 56 4 -54
v 56 7 -54
v 56 4 -58
v 56 7 -58
f 434 433 435 436
f 436 435 437 438
f 438 437 439 440
f 440 439 433 434
f 439 437 435 433
f 440 434 436 438
g object_56
v 51 4 -50
v 51 7 -50
v 51 4 -46
v 51 7 -46
v 56 4 -46
v 56 7 -46
v 56 4 -50
v 56 7 -50
f 442 441 443 444
f 444 443 445 446
f 446 445 447 448
f 448 447 441 442
f 447 445 443 441
f 448 442 444 446
g object_57
v 51 7 -54
v 51 10 -54
v 51 7 -50
v 51 10 -50
v 56 7 -50
v 56 10 -50
v 56 7 -54
v 56 10 -54
f 450 449 451 452
f 452 451 453 454
f 454 453 455 456
f 456 455 449 450
f 455 453 451 449
f 456 450 452 454
g object_58
v 51 7 -62
v 51 10 -62
v 51 7 -58
v 51 10 -58
v 56 7 -58
v 56 10 -58
v 56 7 -62
v 56 10 -62
f 458 457 459 460
f 460 459 461 462
f 462 461 463 464
f 464 463 457 458
f 463 461 459 457
f 464 458 460 462
g object_59
v 51 10 -50
v 51 13 -50
v 51 10 -46
v 51 13 -46
v 56 10 -46
v 56 13 -46
v 56 10 -50
v 56 13 -50
f 466 465 467 468
f 468 467 469 470
f 470 469 471 472
f 472 471 465 466
f 471 469 467 465
f 472 466 468 470
g object_60
v 51 10 -58
v 51 13 -58
v 51 10 -54
v 51 13 -54
v 56 10 -54
v 56 13 -54
v 56 10 -58
v 56 13 -58
f 474 473 475 476
f 476 475 477 478
f 478 477 479 480
f 480 479 473 474
f 479 477 475 473
f 480 474 476 478
g object_61
v 51 13 -62
v 51 16 -62
v 51 13 -58
v 51 16 -58
v 56 13 -58
v 56 16 -58
v 56 13 -62
v 56 16 -62
f 482 481 483 484
f 484 483 485 486
f 486 485 487 488
f 488 487 481 482
f 487 485 483 481
f 488 482 484 486
g object_62
v 51 13 -54
v 51 16 -54
v 51 13 -50
v 51 16 -50
v 56 13 -50
v 56 16 -50
v 56 13 -54
v 56 16 -54
f 490 489 491 492
f 492 491 493 494
f 494 493 495 496
f 496 495 489 490
f 495 493 491 489
f 496 490 492 494
g object_63
v 51 13 -50
v 51 16 -50
v 51 13 -46
v 51 16 -46
v 58 13 -46
v 58 16 -46
v 58 13 -50
v 58 16 -50
f 498 497 499 500
f 500 499 501 502
f 502 501 503 504
f 504 503 497 498
f 503 501 499 497
f 504 498 500 502
g object_64
v 51 13 -58
v 51 16 -58
v 51 13 -54
v 51 16 -54
v 58 13 -54
v 58 16 -54
v 58 13 -58
v 58 16 -58
f 506 505 507 508
f 508 507 509 510
f 510 509 511 512
f 512 511 505 506
f 511 509 507 505
f 512 506 508 510
g object_65
v 51 10 -62
v 51 13 -62
v 51 10 -58
v 51 13 -58
v 58 10 -58
v 58 13 -58
v 58 10 -62
v 58 13 -62
f 514 513 515 516
f 516 515 517 518
f 518 517 519 520
f 520 519 513 514
f 519 517 515 513
f 520 514 516 518
g object_66
v 51 10 -54
v 51 13 -54
v 51 10 -50
v 51 13 -50
v 58 10 -50
v 58 13 -50
v 58 10 -54
v 58 13 -54
f 522 521 523 524
f 524 523 525 526
f 526 525 527 528
f 528 527 521 522
f 527 525 523 521
f 528 522 524 526
g object_67
v 51 7 -58
v 51 10 -58
v 51 7 -54
v 51 10 -54
v 58 7 -54
v 58 10 -54
v 58 7 -58
v 58 10 -58
f 530 529 531 532
f 532 531 533 534
f 534 533 535 536
f 536 535 529 530
f 535 533 531 529
f 536 530 532 534
g object_68
v 51 7 -50
v 51 10 -50
v 51 7 -46
v 51 10 -46
v 58 7 -46
v 58 10 -46
v 58 7 -50
v 58 10 -50
f 538 537 539 540
f 540 539 541 542
f 542 541 543 544
f 544 543 537 538
f 543 541 539 537
f 544 538 540 542
g object_69
v 51 4 -62
v 51 7 -62
v 51 4 -58
v 51 7 -58
v 58 4 -58
v 58 7 -58
v 58 4 -62
v 58 7 -62
f 546 545 547 548
f 548 547 549 550
f 550 549 551 552
f 552 551 545 546
f 551 549 547 545
f 552 546 548 550
g object_70
v 51 4 -54
v 51 7 -54
v 51 4 -50
v 51 7 -50
v 58 4 -50
v 58 7 -50
v 58 4 -54
v 58 7 -54
f 554 553 555 556
f 556 555 557 558
f 558 557 559 560
f 560 559 553 554
f 559 557 555 553
f 560 554 556 558
g object_71
v 51 19 -54
v 51 25 -54
v 51 19 -50
v 51 25 -50
v 56 19 -50
v 56 25 -50
v 56 19 -54
v 56 25 -54
f 562 561 563 564
f 564 563 565 566
f 566 565 567 568
f 568 567 561 562
f 567 565 563 561
f 568 562 564 566
g object_72
v 51 19 -62
v 51 25 -62
v 51 19 -58
v 51 25 -58
v 56 19 -58
v 56 25 -58
v 56 19 -62
v 56 25 -62
f 570 569 571 572
f 572 571 573 574
f 574 573 575 576
f 576 575 569 570
f 575 573 571 569
f 576 570 572 574
g object_73
v 51 19 -58
v 51 25 -58
v 51 19 -54
v 51 25 -54
v 58 19 -54
v 58 25 -54
v 58 19 -58
v 58 25 -58
f 578 577 579 580
f 580 579 581 582
f 582 581 583 584
f 584 583 577 578
f 583 581 579 577
f 584 578 580 582
g object_74
v 51 19 -50
v 51 25 -50
v 51 19 -46
v 51 25 -46
v 58 19 -46
v 58 25 -46
v 58 19 -50
v 58 25 -50
f 586 585 587 588
f 588 587 589 590
f 590 589 591 592
f 592 591 585 586
f 591 589 587 585
f 592 586 588 590
g object_75
v 51 16 -62
v 51 19 -62
v 51 16 -58
v 51 19 -58
v 58 16 -58
v 58 19 -58
v 58 16 -62
v 58 19 -62
f 594 593 595 596
f 596 595 597 598
f 598 597 599 600
f 600 599 593 594
f 599 597 595 593
f 600 594 596 598
g object_76
v 51 16 -54
v 51 19 -54
v 51 16 -50
v 51 19 -50
v 58 16 -50
v 58 19 -50
v 58 16 -54
v 58 19 -54
f 602 601 603 604
f 604 603 605 606
f 606 605 607 608
f 608 607 601 602
f 607 605 603 601
f 608 602 604 606
g object_77
v 51 16 -50
v 51 19 -50
v 51 16 -46
v 51 19 -46
v 56 16 -46
v 56 19 -46
v 56 16 -50
v 56 19 -50
f 610 609 611 612
f 612 611 613 614
f 614 613 615 616
f 616 615 609 610
f 615 613 611 609
f 616 610 612 614
g object_78
v 51 16 -58
v 51 19 -58
v 51 16 -54
v 51 19 -54
v 56 16 -54
v 56 19 -54
v 56 16 -58
v 56 19 -58
f 618 617 619 620
f 620 619 621 622
f 622 621 623 624
f 624 623 617 618
f 623 621 619 617
f 624 618 620 622
g object_79
v 49 4 -58
v 49 7 -58
v 49 4 -54
v 49 7 -54
v 44 4 -54
v 44 7 -54
v 44 4 -58
v 44 7 -58
f 626 628 627 625
f 628 630 629 627
f 630 632 631 629
f 632 626 625 631
f 631 625 627 629
f 632 630 628 626
g object_80
v 49 4 -50
v 49 7 -50
v 49 4 -46
v 49 7 -46
v 44 4 -46
v 44 7 -46
v 44 4 -50
v 44 7 -50
f 634 636 635 633
f 636 638 637 635
f 638 640 639 637
f 640 634 633 639
f 639 633 635 637
f 640 638 636 634
g object_81
v 49 7 -54
v 49 10 -54
v 49 7 -50
v 49 10 -50
v 44 7 -50
v 44 10 -50
v 44 7 -54
v 44 10 -54
f 642 644 643 641
f 644 646 645 643
f 646 648 647 645
f 648 642 641 647
f 647 641 643 645
f 648 646 644 642
g object_82
v 49 7 -62
v 49 10 -62
v 49 7 -58
v 49 10 -58
v 44 7 -58
v 44 10 -58
v 44 7 -62
v 44 10 -62
f 650 652 651 649
f 652 654 653 651
f 654 656 655 653
f 656 650 649 655
f 655 649 651 653
f 656 654 652 650
g object_83
v 49 10 -50
v 49 13 -50
v 49 10 -46
v 49 13 -46
v 44 10 -46
v 44 13 -46
v 44 10 -50
v 44 13 -50
f 658 660 659 657
f 660 662 661 659
f 662 664 663 661
f 664 658 657 663
f 663 657 659 661
f 664 662 660 658
g object_84
v 49 10 -58
v 49 13 -58
v 49 10 -54
v 49 13 -54
v 44 10 -54
v 44 13 -54
v 44 10 -58
v 44 13 -58
f 666 668 667 665
f 668 670 669 667
f 670 672 671 669
f 672 666 665 671
f 671 665 667 669
f 672 670 668 666
g object_85
v 49 13 -62
v 49 16 -62
v 49 13 -58
v 49 16 -58
v 44 13 -58
v 44 16 -58
v 44 13 -62
v 44 16 -62
f 674 676 675 673
f 676 678 677 675
f 678 680 679 677
f 680 674 673 679
f 679 673 675 677
f 680 678 676 674
g object_86
v 49 13 -54
v 49 16 -54
v 49 13 -50
v 49 16 -50
v 44 13 -50
v 44 16 -50
v 44 13 -54
v 44 16 -54
f 682 684 683 681
f 684 686 685 683
f 686 688 687 685
f 688 682 681 687
f 687 681 683 685
f 688 686 684 682
g object_87
v 49 13 -50
v 49 16 -50
v 49 13 -46
v 49 16 -46
v 42 13 -46
v 42 16 -46
v 42 13 -50
v 42 16 -50
f 690 692 691 689
f 692 694 693 691
f 694 696 695 693
f 696 690 689 695
f 695 689 691 693
f 696 694 692 690
g object_88
v 49 13 -58
v 49 16 -58
v 49 13 -54
v 49 16 -54
v 42 13 -54
v 42 16 -54
v 42 13 -58
v 42 16 -58
f 698 700 699 697
f 700 702 701 699
f 702 704 703 701
f 704 698 697 703
f 703 697 699 701
f 704 702 700 698
g object_89
v 49 10 -62
v 49 13 -62
v 49 10 -58
v 49 13 -58
v 42 10 -58
v 42 13 -58
v 42 10 -62
v 42 13 -62
f 706 708 707 705
f 708 710 709 707
f 710 712 711 709
f 712 706 705 711
f 711 705 707 709
f 712 710 708 706
g object_90
v 49 10 -54
v 49 13 -54
v 49 10 -50
v 49 13 -50
v 42 10 -50
v 42 13 -50
v 42 10 -54
v 42 13 -54
f 714 716 715 713
f 716 718 717 715
f 718 720 719 717
f 720 714 713 719
f 719 713 715 717
f 720 718 716 714
g object_91
v 49 7 -58
v 49 10 -58
v 49 7 -54
v 49 10 -54
v 42 7 -54
v 42 10 -54
v 42 7 -58
v 42 10 -58
f 722 724 723 721
f 724 726 725 723
f 726 728 727 725
f 728 722 721 727
f 727 721 723 725
f 728 726 724 722
g object_92
v 49 7 -50
v 49 10 -50
v 49 7 -46
v 49 10 -46
v 42 7 -46
v 42 10 -46
v 42 7 -50
v 42 10 -50
f 730 732 731 729
f 732 734 733 731
f 734 736 735 733
f 736 730 729 735
f 735 729 731 733
f 736 734 732 730
g object_93
v 49 4 -62
v 49 7 -62
v 49 4 -58
v 49 7 -58
v 42 4 -58
v 42 7 -58
v 42 4 -62
v 42 7 -62
f 738 740 739 737
f 740 742 741 739
f 742 744 743 741
f 744 738 737 743
f 743 737 739 741
f 744 742 740 738
g object_94
v 49 4 -54
v 49 7 -54
v 49 4 -50
v 49 7 -50
v 42 4 -50
v 42 7 -50
v 42 4 -54
v 42 7 -54
f 746 748 747 745
f 748 750 749 747
f 750 752 751 749
f 752 746 745 751
f 751 745 747 749
f 752 750 748 746
g object_95
v 49 19 -54
v 49 25 -54
v 49 19 -50
v 49 25 -50
v 44 19 -50
v 44 25 -50
v 44 19 -54
v 44 25 -54
f 754 756 755 753
f 756 758 757 755
f 758 760 759 757
f 760 754 753 759
f 759 753 755 757
f 760 758 756 754
g object_96
v 49 19 -62
v 49 25 -62
v 49 19 -58
v 49 25 -58
v 44 19 -58
v 44 25 -58
v 44 19 -62
v 44 25 -62
f 762 764 763 761
f 764 766 765 763
f 766 768 767 765
f 768 762 761 767
f 767 761 763 765
f 768 766 764 762
g object_97
v 49 19 -58
v 49 25 -58
v 49 19 -54
v 49 25 -54
v 42 19 -54
v 42 25 -54
v 42 19 -58
v 42 25 -58
f 770 772 771 769
f 772 774 773 771
f 774 776 775 773
f 776 770 769 775
f 775 769 771 773
f 776 774 772 770
g object_98
v 49 16 -62
v 49 19 -62
v 49 16 -58
v 49 19 -58
v 42 16 -58
v 42 19 -58
v 42 16 -62
v 42 19 -62
f 778 780 779 777
f 780 782 781 779
f 782 784 783 781
f 784 778 777 783
f 783 777 779 781
f 784 782 780 778
g object_99
v 49 16 -54
v 49 19 -54
v 49 16 -50
v 49 19 -50
v 42 16 -50
v 42 19 -50
v 42 16 -54
v 42 19 -54
f 786 788 787 785
f 788 790 789 787
f 790 792 791 789
f 792 786 785 791
f 791 785 787 789
f 792 790 788 786
g object_100
v 49 16 -50
v 49 19 -50
v 49 16 -46
v 49 19 -46
v 44 16 -46
v 44 19 -46
v 44 16 -50
v 44 19 -50
f 794 796 795 793
f 796 798 797 795
f 798 800 799 797
f 800 794 793 799
f 799 793 795 797
f 800 798 796 794
g object_101
v 49 16 -58
v 49 19 -58
v 49 16 -54
v 49 19 -54
v 44 16 -54
v 44 19 -54
v 44 16 -58
v 44 19 -58
f 802 804 803 801
f 804 806 805 803
f 806 808 807 805
f 808 802 801 807
f 807 801 803 805
f 808 806 804 802
g object_102
v 51 1 -58
v 51 4 -58
v 51 1 -50
v 51 4 -50
v 56 1 -50
v 56 4 -50
v 56 1 -58
v 56 4 -58
f 810 809 811 812
f 812 811 813 814
f 814 813 815 816
f 816 815 809 810
f 815 813 811 809
f 816 810 812 814
g object_103
v 51 1 -62
v 51 4 -62
v 51 1 -58
v 51 4 -58
v 56 1 -58
v 56 4 -58
v 56 1 -62
v 56 4 -62
f 818 817 819 820
f 820 819 821 822
f 822 821 823 824
f 824 823 817 818
f 823 821 819 817
f 824 818 820 822
g object_104
v 51 1 -46
v 51 4 -46
v 51 1 -50
v 51 4 -50
v 56 1 -50
v 56 4 -50
v 56 1 -46
v 56 4 -46
f 826 828 827 825
f 828 830 829 827
f 830 832 831 829
f 832 826 825 831
f 831 825 827 829
f 832 830 828 826
g object_105
v 49 1 -58
v 49 4 -58
v 49 1 -50
v 49 4 -50
v 44 1 -50
v 44 4 -50
v 44 1 -58
v 44 4 -58
f 834 836 835 833
f 836 838 837 835
f 838 840 839 837
f 840 834 833 839
f 839 833 835 837
f 840 838 836 834
g object_106
v 49 1 -62
v 49 4 -62
v 49 1 -58
v 49 4 -58
v 44 1 -58
v 44 4 -58
v 44 1 -62
v 44 4 -62
f 842 844 843 841
f 844 846 845 843
f 846 848 847 845
f 848 842 841 847
f 847 841 843 845
f 848 846 844 842
g object_107
v 49 1 -46
v 49 4 -46
v 49 1 -50
v 49 4 -50
v 44 1 -50
v 44 4 -50
v 44 1 -46
v 44 4 -46
f 850 849 851 852
f 852 851 853 854
f 854 853 855 856
f 856 855 849 850
f 855 853 851 849
f 856 850 852 854
g object_108
v 49 19 -50
v 49 25 -50
v 49 19 -46
v 49 25 -46
v 42 19 -46
v 42 25 -46
v 42 19 -50
v 42 25 -50
f 858 860 859 857
f 860 862 861 859
f 862 864 863 861
f 864 858 857 863
f 863 857 859 861
f 864 862 860 858
g object_109
v 20 19 -19
v 20 25 -19
v 24 19 -19
v 24 25 -19
v 24 19 -12
v 24 25 -12
v 20 19 -12
v 20 25 -12
f 866 868 867 865
f 868 870 869 867
f 870 872 871 869
f 872 866 865 871
f 871 865 867 869
f 872 870 868 866
g object_110
v 24 1 -19
v 24 4 -19
v 20 1 -19
v 20 4 -19
v 20 1 -14
v 20 4 -14
v 24 1 -14
v 24 4 -14
f 874 873 875 876
f 876 875 877 878
f 878 877 879 880
f 880 879 873 874
f 879 877 875 873
f 880 874 876 878
g object_111
v 8 1 -19
v 8 4 -19
v 12 1 -19
v 12 4 -19
v 12 1 -14
v 12 4 -14
v 8 1 -14
v 8 4 -14
f 882 884 883 881
f 884 886 885 883
f 886 888 887 885
f 888 882 881 887
f 887 881 883 885
f 888 886 884 882
g object_112
v 12 1 -19
v 12 4 -19
v 20 1 -19
v 20 4 -19
v 20 1 -14
v 20 4 -14
v 12 1 -14
v 12 4 -14
f 890 892 891 889
f 892 894 893 891
f 894 896 895 893
f 896 890 889 895
f 895 889 891 893
f 896 894 892 890
g object_113
v 24 1 -21
v 24 4 -21
v 20 1 -21
v 20 4 -21
v 20 1 -26
v 20 4 -26
v 24 1 -26
v 24 4 -26
f 898 900 899 897
f 900 902 901 899
f 902 904 903 901
f 904 898 897 903
f 903 897 899 901
f 904 902 900 898
g object_114
v 8 1 -21
v 8 4 -21
v 12 1 -21
v 12 4 -21
v 12 1 -26
v 12 4 -26
v 8 1 -26
v 8 4 -26
f 906 905 907 908
f 908 907 909 910
f 910 909 911 912
f 912 911 905 906
f 911 909 907 905
f 912 906 908 910
g object_115
v 12 1 -21
v 12 4 -21
v 20 1 -21
v 20 4 -21
v 20 1 -26
v 20 4 -26
v 12 1 -26
v 12 4 -26
f 914 913 915 916
f 916 915 917 918
f 918 917 919 920
f 920 919 913 914
f 919 917 915 913
f 920 914 916 918
g object_116
v 12 16 -19
v 12 19 -19
v 16 16 -19
v 16 19 -19
v 16 16 -14
v 16 19 -14
v 12 16 -14
v 12 19 -14
f 922 924 923 921
f 924 926 925 923
f 926 928 927 925
f 928 922 921 927
f 927 921 923 925
f 928 926 924 922
g object_117
v 20 16 -19
v 20 19 -19
v 24 16 -19
v 24 19 -19
v 24 16 -14
v 24 19 -14
v 20 16 -14
v 20 19 -14
f 930 932 931 929
f 932 934 933 931
f 934 936 935 933
f 936 930 929 935
f 935 929 931 933
f 936 934 932 930
g object_118
v 16 16 -19
v 16 19 -19
v 20 16 -19
v 20 19 -19
v 20 16 -12
v 20 19 -12
v 16 16 -12
v 16 19 -12
f 938 940 939 937
f 940 942 941 939
f 942 944 943 941
f 944 938 937 943
f 943 937 939 941
f 944 942 940 938
g object_119
v 8 16 -19
v 8 19 -19
v 12 16 -19
v 12 19 -19
v 12 16 -12
v 12 19 -12
v 8 16 -12
v 8 19 -12
f 946 948 947 945
f 948 950 949 947
f 950 952 951 949
f 952 946 945 951
f 951 945 947 949
f 952 950 948 946
g object_120
v 12 19 -19
v 12 25 -19
v 16 19 -19
v 16 25 -19
v 16 19 -12
v 16 25 -12
v 12 19 -12
v 12 25 -12
f 954 956 955 953
f 956 958 957 955
f 958 960 959 957
f 960 954 953 959
f 959 953 955 957
f 960 958 956 954
g object_121
v 8 19 -19
v 8 25 -19
v 12 19 -19
v 12 25 -19
v 12 19 -14
v 12 25 -14
v 8 19 -14
v 8 25 -14
f 962 964 963 961
f 964 966 965 963
f 966 968 967 965
f 968 962 961 967
f 967 961 963 965
f 968 966 964 962
g object_122
v 16 19 -19
v 16 25 -19
v 20 19 -19
v 20 25 -19
v 20 19 -14
v 20 25 -14
v 16 19 -14
v 16 25 -14
f 970 972 971 969
f 972 974 973 971
f 974 976 975 973
f 976 970 969 975
f 975 969 971 973
f 976 974 972 970
g object_123
v 16 4 -19
v 16 7 -19
v 20 4 -19
v 20 7 -19
v 20 4 -12
v 20 7 -12
v 16 4 -12
v 16 7 -12
f 978 980 979 977
f 980 982 981 979
f 982 984 983 981
f 984 978 977 983
f 983 977 979 981
f 984 982 980 978
g object_124
v 8 4 -19
v 8 7 -19
v 12 4 -19
v 12 7 -19
v 12 4 -12
v 12 7 -12
v 8 4 -12
v 8 7 -12
f 986 988 987 985
f 988 990 989 987
f 990 992 991 989
f 992 986 985 991
f 991 985 987 989
f 992 990 988 986
g object_125
v 20 7 -19
v 20 10 -19
v 24 7 -19
v 24 10 -19
v 24 7 -12
v 24 10 -12
v 20 7 -12
v 20 10 -12
f 994 996 995 993
f 996 998 997 995
f 998 1000 999 997
f 1000 994 993 999
f 999 993 995 997
f 1000 998 996 994
g object_126
v 12 7 -19
v 12 10 -19
v 16 7 -19
v 16 10 -19
v 16 7 -12
v 16 10 -12
v 12 7 -12
v 12 10 -12
f 1002 1004 1003 1001
f 1004 1006 1005 1003
f 1006 1008 1007 1005
f 1008 1002 1001 1007
f 1007 1001 1003 1005
f 1008 1006 1004 1002
g object_127
v 16 10 -19
v 16 13 -19
v 20 10 -19
v 20 13 -19
v 20 10 -12
v 20 13 -12
v 16 10 -12
v 16 13 -12
f 1010 1012 1011 1009
f 1012 1014 1013 1011
f 1014 1016 1015 1013
f 1016 1010 1009 1015
f 1015 1009 1011 1013
f 1016 1014 1012 1010
g object_128
v 8 10 -19
v 8 13 -19
v 12 10 -19
v 12 13 -19
v 12 10 -12
v 12 13 -12
v 8 10 -12
v 8 13 -12
f 1018 1020 1019 1017
f 1020 1022 1021 1019
f 1022 1024 1023 1021
f 1024 1018 1017 1023
f 1023 1017 1019 1021
f 1024 1022 1020 1018
g object_129
v 12 13 -19
v 12 16 -19
v 16 13 -19
v 16 16 -19
v 16 13 -12
v 16 16 -12
v 12 13 -12
v 12 16 -12
f 1026 1028 1027 1025
f 1028 1030 1029 1027
f 1030 1032 1031 1029
f 1032 1026 1025 1031
f 1031 1025 1027 1029
f 1032 1030 1028 1026
g object_130
v 20 13 -19
v 20 16 -19
v 24 13 -19
v 24 16 -19
v 24 13 -12
v 24 16 -12
v 20 13 -12
v 20 16 -12
f 1034 1036 1035 1033
f 1036 1038 1037 1035
f 1038 1040 1039 1037
f 1040 1034 1033 1039
f 1039 1033 1035 1037
f 1040 1038 1036 1034
g object_131
v 16 13 -19
v 16 16 -19
v 20 13 -19
v 20 16 -19
v 20 13 -14
v 20 16 -14
v 16 13 -14
v 16 16 -14
f 1042 1044 1043 1041
f 1044 1046 1045 1043
f 1046 1048 1047 1045
f 1048 1042 1041 1047
f 1047 1041 1043 1045
f 1048 1046 1044 1042
g object_132
v 8 13 -19
v 8 16 -19
v 12 13 -19
v 12 16 -19
v 12 13 -14
v 12 16 -14
v 8 13 -14
v 8 16 -14
f 1050 1052 1051 1049
f 1052 1054 1053 1051
f 1054 1056 1055 1053
f 1056 1050 1049 1055
f 1055 1049 1051 1053
f 1056 1054 1052 1050
g object_133
v 12 10 -19
v 12 13 -19
v 16 10 -19
v 16 13 -19
v 16 10 -14
v 16 13 -14
v 12 10 -14
v 12 13 -14
f 1058 1060 1059 1057
f 1060 1062 1061 1059
f 1062 1064 1063 1061
f 1064 1058 1057 1063
f 1063 1057 1059 1061
f 1064 1062 1060 1058
g object_134
v 20 10 -19
v 20 13 -19
v 24 10 -19
v 24 13 -19
v 24 10 -14
v 24 13 -14
v 20 10 -14
v 20 13 -14
f 1066 1068 1067 1065
f 1068 1070 1069 1067
f 1070 1072 1071 1069
f 1072 1066 1065 1071
f 1071 1065 1067 1069
f 1072 1070 1068 1066
g object_135
v 8 7 -19
v 8 10 -19
v 12 7 -19
v 12 10 -19
v 12 7 -14
v 12 10 -14
v 8 7 -14
v 8 10 -14
f 1074 1076 1075 1073
f 1076 1078 1077 1075
f 1078 1080 1079 1077
f 1080 1074 1073 1079
f 1079 1073 1075 1077
f 1080 1078 1076 1074
g object_136
v 16 7 -19
v 16 10 -19
v 20 7 -19
v 20 10 -19
v 20 7 -14
v 20 10 -14
v 16 7 -14
v 16 10 -14
f 1082 1084 1083 1081
f 1084 1086 1085 1083
f 1086 1088 1087 1085
f 1088 1082 1081 1087
f 1087 1081 1083 1085
f 1088 1086 1084 1082
g object_137
v 20 4 -19
v 20 7 -19
v 24 4 -19
v 24 7 -19
v 24 4 -14
v 24 7 -14
v 20 4 -14
v 20 7 -14
f 1090 1092 1091 1089
f 1092 1094 1093 1091
f 1094 1096 1095 1093
f 1096 1090 1089 1095
f 1095 1089 1091 1093
f 1096 1094 1092 1090
g object_138
v 12 4 -19
v 12 7 -19
v 16 4 -19
v 16 7 -19
v 16 4 -14
v 16 7 -14
v 12 4 -14
v 12 7 -14
f 1098 1100 1099 1097
f 1100 1102 1101 1099
f 1102 1104 1103 1101
f 1104 1098 1097 1103
f 1103 1097 1099 1101
f 1104 1102 1100 1098
g object_139
v 12 16 -21
v 12 19 -21
v 16 16 -21
v 16 19 -21
v 16 16 -26
v 16 19 -26
v 12 16 -26
v 12 19 -26
f 1106 1105 1107 1108
f 1108 1107 1109 1110
f 1110 1109 1111 1112
f 1112 1111 1105 1106
f 1111 1109 1107 1105
f 1112 1106 1108 1110
g object_140
v 20 16 -21
v 20 19 -21
v 24 16 -21
v 24 19 -21
v 24 16 -26
v 24 19 -26
v 20 16 -26
v 20 19 -26
f 1114 1113 1115 1116
f 1116 1115 1117 1118
f 1118 1117 1119 1120
f 1120 1119 1113 1114
f 1119 1117 1115 1113
f 1120 1114 1116 1118
g object_141
v 16 16 -21
v 16 19 -21
v 20 16 -21
v 20 19 -21
v 20 16 -28
v 20 19 -28
v 16 16 -28
v 16 19 -28
f 1122 1121 1123 1124
f 1124 1123 1125 1126
f 1126 1125 1127 1128
f 1128 1127 1121 1122
f 1127 1125 1123 1121
f 1128 1122 1124 1126
g object_142
v 8 16 -21
v 8 19 -21
v 12 16 -21
v 12 19 -21
v 12 16 -28
v 12 19 -28
v 8 16 -28
v 8 19 -28
f 1130 1129 1131 1132
f 1132 1131 1133 1134
f 1134 1133 1135 1136
f 1136 1135 1129 1130
f 1135 1133 1131 1129
f 1136 1130 1132 1134
g object_143
v 20 19 -21
v 20 25 -21
v 24 19 -21
v 24 25 -21
v 24 19 -28
v 24 25 -28
v 20 19 -28
v 20 25 -28
f 1138 1137 1139 1140
f 1140 1139 1141 1142
f 1142 1141 1143 1144
f 1144 1143 1137 1138
f 1143 1141 1139 1137
f 1144 1138 1140 1142
g object_144
v 12 19 -21
v 12 25 -21
v 16 19 -21
v 16 25 -21
v 16 19 -28
v 16 25 -28
v 12 19 -28
v 12 25 -28
f 1146 1145 1147 1148
f 1148 1147 1149 1150
f 1150 1149 1151 1152
f 1152 1151 1145 1146
f 1151 1149 1147 1145
f 1152 1146 1148 1150
g object_145
v 8 19 -21
v 8 25 -21
v 12 19 -21
v 12 25 -21
v 12 19 -26
v 12 25 -26
v 8 19 -26
v 8 25 -26
f 1154 1153 1155 1156
f 1156 1155 1157 1158
f 1158 1157 1159 1160
f 1160 1159 1153 1154
f 1159 1157 1155 1153
f 1160 1154 1156 1158
g object_146
v 16 19 -21
v 16 25 -21
v 20 19 -21
v 20 25 -21
v 20 19 -26
v 20 25 -26
v 16 19 -26
v 16 25 -26
f 1162 1161 1163 1164
f 1164 1163 1165 1166
f 1166 1165 1167 1168
f 1168 1167 1161 1162
f 1167 1165 1163 1161
f 1168 1162 1164 1166
g object_147
v 16 4 -21
v 16 7 -21
v 20 4 -21
v 20 7 -21
v 20 4 -28
v 20 7 -28
v 16 4 -28
v 16 7 -28
f 1170 1169 1171 1172
f 1172 1171 1173 1174
f 1174 1173 1175 1176
f 1176 1175 1169 1170
f 1175 1173 1171 1169
f 1176 1170 1172 1174
g object_148
v 8 4 -21
v 8 7 -21
v 12 4 -21
v 12 7 -21
v 12 4 -28
v 12 7 -28
v 8 4 -28
v 8 7 -28
f 1178 1177 1179 1180
f 1180 1179 1181 1182
f 1182 1181 1183 1184
f 1184 1183 1177 1178
f 1183 1181 1179 1177
f 1184 1178 1180 1182
g object_149
v 20 7 -21
v 20 10 -21
v 24 7 -21
v 24 10 -21
v 24 7 -28
v 24 10 -28
v 20 7 -28
v 20 10 -28
f 1186 1185 1187 1188
f 1188 1187 1189 1190
f 1190 1189 1191 1192
f 1192 1191 1185 1186
f 1191 1189 1187 1185
f 1192 1186 1188 1190
g object_150
v 12 7 -21
v 12 10 -21
v 16 7 -21
v 16 10 -21
v 16 7 -28
v 16 10 -28
v 12 7 -28
v 12 10 -28
f 1194 1193 1195 1196
f 1196 1195 1197 1198
f 1198 1197 1199 1200
f 1200 1199 1193 1194
f 1199 1197 1195 1193
f 1200 1194 1196 1198
g object_151
v 16 10 -21
v 16 13 -21
v 20 10 -21
v 20 13 -21
v 20 10 -28
v 20 13 -28
v 16 10 -28
v 16 13 -28
f 1202 1201 1203 1204
f 1204 1203 1205 1206
f 1206 1205 1207 1208
f 1208 1207 1201 1202
f 1207 1205 1203 1201
f 1208 1202 1204 1206
g object_152
v 8 10 -21
v 8 13 -21
v 12 10 -21
v 12 13 -21
v 12 10 -28
v 12 13 -28
v 8 10 -28
v 8 13 -28
f 1210 1209 1211 1212
f 1212 1211 1213 1214
f 1214 1213 1215 1216
f 1216 1215 1209 1210
f 1215 1213 1211 1209
f 1216 1210 1212 1214
g object_153
v 12 13 -21
v 12 16 -21
v 16 13 -21
v 16 16 -21
v 16 13 -28
v 16 16 -28
v 12 13 -28
v 12 16 -28
f 1218 1217 1219 1220
f 1220 1219 1221 1222
f 1222 1221 1223 1224
f 1224 1223 1217 1218
f 1223 1221 1219 1217
f 1224 1218 1220 1222
g object_154
v 20 13 -21
v 20 16 -21
v 24 13 -21
v 24 16 -21
v 24 13 -28
v 24 16 -28
v 20 13 -28
v 20 16 -28
f 1226 1225 1227 1228
f 1228 1227 1229 1230
f 1230 1229 1231 1232
f 1232 1231 1225 1226
f 1231 1229 1227 1225
f 1232 1226 1228 1230
g object_155
v 16 13 -21
v 16 16 -21
v 20 13 -21
v 20 16 -21
v 20 13 -26
v 20 16 -26
v 16 13 -26
v 16 16 -26
f 1234 1233 1235 1236
f 1236 1235 1237 1238
f 1238 1237 1239 1240
f 1240 1239 1233 1234
f 1239 1237 1235 1233
f 1240 1234 1236 1238
g object_156
v 8 13 -21
v 8 16 -21
v 12 13 -21
v 12 16 -21
v 12 13 -26
v 12 16 -26
v 8 13 -26
v 8 16 -26
f 1242 1241 1243 1244
f 1244 1243 1245 1246
f 1246 1245 1247 1248
f 1248 1247 1241 1242
f 1247 1245 1243 1241
f 1248 1242 1244 1246
g object_157
v 12 10 -21
v 12 13 -21
v 16 10 -21
v 16 13 -21
v 16 10 -26
v 16 13 -26
v 12 10 -26
v 12 13 -26
f 1250 1249 1251 1252
f 1252 1251 1253 1254
f 1254 1253 1255 1256
f 1256 1255 1249 1250
f 1255 1253 1251 1249
f 1256 1250 1252 1254
g object_158
v 20 10 -21
v 20 13 -21
v 24 10 -21
v 24 13 -21
v 24 10 -26
v 24 13 -26
v 20 10 -26
v 20 13 -26
f 1258 1257 1259 1260
f 1260 1259 1261 1262
f 1262 1261 1263 1264
f 1264 1263 1257 1258
f 1263 1261 1259 1257
f 1264 1258 1260 1262
g object_159
v 8 7 -21
v 8 10 -21
v 12 7 -21
v 12 10 -21
v 12 7 -26
v 12 10 -26
v 8 7 -26
v 8 10 -26
f 1266 1265 1267 1268
f 1268 1267 1269 1270
f 1270 1269 1271 1272
f 1272 1271 1265 1266
f 1271 1269 1267 1265
f 1272 1266 1268 1270
g object_160
v 16 7 -21
v 16 10 -21
v 20 7 -21
v 20 10 -21
v 20 7 -26
v 20 10 -26
v 16 7 -26
v 16 10 -26
f 1274 1273 1275 1276
f 1276 1275 1277 1278
f 1278 1277 1279 1280
f 1280 1279 1273 1274
f 1279 1277 1275 1273
f 1280 1274 1276 1278
g object_161
v 20 4 -21
v 20 7 -21
v 24 4 -21
v 24 7 -21
v 24 4 -26
v 24 7 -26
v 20 4 -26
v 20 7 -26
f 1282 1281 1283 1284
f 1284 1283 1285 1286
f 1286 1285 1287 1288
f 1288 1287 1281 1282
f 1287 1285 1283 1281
f 1288 1282 1284 1286
g object_162
v 12 4 -21
v 12 7 -21
v 16 4 -21
v 16 7 -21
v 16 4 -26
v 16 7 -26
v 12 4 -26
v 12 7 -26
f 1290 1289 1291 1292
f 1292 1291 1293 1294
f 1294 1293 1295 1296
f 1296 1295 1289 1290
f 1295 1293 1291 1289
f 1296 1290 1292 1294
g object_163
v 28 4 -21
v 28 7 -21
v 32 4 -21
v 32 7 -21
v 32 4 -26
v 32 7 -26
v 28 4 -26
v 28 7 -26
f 1298 1297 1299 1300
f 1300 1299 1301 1302
f 1302 1301 1303 1304
f 1304 1303 1297 1298
f 1303 1301 1299 1297
f 1304 1298 1300 1302
g object_164
v 36 4 -21
v 36 7 -21
v 40 4 -21
v 40 7 -21
v 40 4 -26
v 40 7 -26
v 36 4 -26
v 36 7 -26
f 1306 1305 1307 1308
f 1308 1307 1309 1310
f 1310 1309 1311 1312
f 1312 1311 1305 1306
f 1311 1309 1307 1305
f 1312 1306 1308 1310
g object_165
v 32 7 -21
v 32 10 -21
v 36 7 -21
v 36 10 -21
v 36 7 -26
v 36 10 -26
v 32 7 -26
v 32 10 -26
f 1314 1313 1315 1316
f 1316 1315 1317 1318
f 1318 1317 1319 1320
f 1320 1319 1313 1314
f 1319 1317 1315 1313
f 1320 1314 1316 1318
g object_166
v 24 7 -21
v 24 10 -21
v 28 7 -21
v 28 10 -21
v 28 7 -26
v 28 10 -26
v 24 7 -26
v 24 10 -26
f 1322 1321 1323 1324
f 1324 1323 1325 1326
f 1326 1325 1327 1328
f 1328 1327 1321 1322
f 1327 1325 1323 1321
f 1328 1322 1324 1326
g object_167
v 36 10 -21
v 36 13 -21
v 40 10 -21
v 40 13 -21
v 40 10 -26
v 40 13 -26
v 36 10 -26
v 36 13 -26
f 1330 1329 1331 1332
f 1332 1331 1333 1334
f 1334 1333 1335 1336
f 1336 1335 1329 1330
f 1335 1333 1331 1329
f 1336 1330 1332 1334
g object_168
v 28 10 -21
v 28 13 -21
v 32 10 -21
v 32 13 -21
v 32 10 -26
v 32 13 -26
v 28 10 -26
v 28 13 -26
f 1338 1337 1339 1340
f 1340 1339 1341 1342
f 1342 1341 1343 1344
f 1344 1343 1337 1338
f 1343 1341 1339 1337
f 1344 1338 1340 1342
g object_169
v 24 13 -21
v 24 16 -21
v 28 13 -21
v 28 16 -21
v 28 13 -26
v 28 16 -26
v 24 13 -26
v 24 16 -26
f 1346 1345 1347 1348
f 1348 1347 1349 1350
f 1350 1349 1351 1352
f 1352 1351 1345 1346
f 1351 1349 1347 1345
f 1352 1346 1348 1350
g object_170
v 32 13 -21
v 32 16 -21
v 36 13 -21
v 36 16 -21
v 36 13 -26
v 36 16 -26
v 32 13 -26
v 32 16 -26
f 1354 1353 1355 1356
f 1356 1355 1357 1358
f 1358 1357 1359 1360
f 1360 1359 1353 1354
f 1359 1357 1355 1353
f 1360 1354 1356 1358
g object_171
v 36 13 -21
v 36 16 -21
v 40 13 -21
v 40 16 -21
v 40 13 -28
v 40 16 -28
v 36 13 -28
v 36 16 -28
f 1362 1361 1363 1364
f 1364 1363 1365 1366
f 1366 1365 1367 1368
f 1368 1367 1361 1362
f 1367 1365 1363 1361
f 1368 1362 1364 1366
g object_172
v 28 13 -21
v 28 16 -21
v 32 13 -21
v 32 16 -21
v 32 13 -28
v 32 16 -28
v 28 13 -28
v 28 16 -28
f 1370 1369 1371 1372
f 1372 1371 1373 1374
f 1374 1373 1375 1376
f 1376 1375 1369 1370
f 1375 1373 1371 1369
f 1376 1370 1372 1374
g object_173
v 24 10 -21
v 24 13 -21
v 28 10 -21
v 28 13 -21
v 28 10 -28
v 28 13 -28
v 24 10 -28
v 24 13 -28
f 1378 1377 1379 1380
f 1380 1379 1381 1382
f 1382 1381 1383 1384
f 1384 1383 1377 1378
f 1383 1381 1379 1377
f 1384 1378 1380 1382
g object_174
v 32 10 -21
v 32 13 -21
v 36 10 -21
v 36 13 -21
v 36 10 -28
v 36 13 -28
v 32 10 -28
v 32 13 -28
f 1386 1385 1387 1388
f 1388 1387 1389 1390
f 1390 1389 1391 1392
f 1392 1391 1385 1386
f 1391 1389 1387 1385
f 1392 1386 1388 1390
g object_175
v 28 7 -21
v 28 10 -21
v 32 7 -21
v 32 10 -21
v 32 7 -28
v 32 10 -28
v 28 7 -28
v 28 10 -28
f 1394 1393 1395 1396
f 1396 1395 1397 1398
f 1398 1397 1399 1400
f 1400 1399 1393 1394
f 1399 1397 1395 1393
f 1400 1394 1396 1398
g object_176
v 36 7 -21
v 36 10 -21
v 40 7 -21
v 40 10 -21
v 40 7 -28
v 40 10 -28
v 36 7 -28
v 36 10 -28
f 1402 1401 1403 1404
f 1404 1403 1405 1406
f 1406 1405 1407 1408
f 1408 1407 1401 1402
f 1407 1405 1403 1401
f 1408 1402 1404 1406
g object_177
v 24 4 -21
v 24 7 -21
v 28 4 -21
v 28 7 -21
v 28 4 -28
v 28 7 -28
v 24 4 -28
v 24 7 -28
f 1410 1409 1411 1412
f 1412 1411 1413 1414
f 1414 1413 1415 1416
f 1416 1415 1409 1410
f 1415 1413 1411 1409
f 1416 1410 1412 1414
g object_178
v 32 4 -21
v 32 7 -21
v 36 4 -21
v 36 7 -21
v 36 4 -28
v 36 7 -28
v 32 4 -28
v 32 7 -28
f 1418 1417 1419 1420
f 1420 1419 1421 1422
f 1422 1421 1423 1424
f 1424 1423 1417 1418
f 1423 1421 1419 1417
f 1424 1418 1420 1422
g object_179
v 32 19 -21
v 32 25 -21
v 36 19 -21
v 36 25 -21
v 36 19 -26
v 36 25 -26
v 32 19 -26
v 32 25 -26
f 1426 1425 1427 1428
f 1428 1427 1429 1430
f 1430 1429 1431 1432
f 1432 1431 1425 1426
f 1431 1429 1427 1425
f 1432 1426 1428 1430
g object_180
v 24 19 -21
v 24 25 -21
v 28 19 -21
v 28 25 -21
v 28 19 -26
v 28 25 -26
v 24 19 -26
v 24 25 -26
f 1434 1433 1435 1436
f 1436 1435 1437 1438
f 1438 1437 1439 1440
f 1440 1439 1433 1434
f 1439 1437 1435 1433
f 1440 1434 1436 1438
g object_181
v 28 19 -21
v 28 25 -21
v 32 19 -21
v 32 25 -21
v 32 19 -28
v 32 25 -28
v 28 19 -28
v 28 25 -28
f 1442 1441 1443 1444
f 1444 1443 1445 1446
f 1446 1445 1447 1448
f 1448 1447 1441 1442
f 1447 1445 1443 1441
f 1448 1442 1444 1446
g object_182
v 36 19 -21
v 36 25 -21
v 40 19 -21
v 40 25 -21
v 40 19 -28
v 40 25 -28
v 36 19 -28
v 36 25 -28
f 1450 1449 1451 1452
f 1452 1451 1453 1454
f 1454 1453 1455 1456
f 1456 1455 1449 1450
f 1455 1453 1451 1449
f 1456 1450 1452 1454
g object_183
v 24 16 -21
v 24 19 -21
v 28 16 -21
v 28 19 -21
v 28 16 -28
v 28 19 -28
v 24 16 -28
v 24 19 -28
f 1458 1457 1459 1460
f 1460 1459 1461 1462
f 1462 1461 1463 1464
f 1464 1463 1457 1458
f 1463 1461 1459 1457
f 1464 1458 1460 1462
g object_184
v 32 16 -21
v 32 19 -21
v 36 16 -21
v 36 19 -21
v 36 16 -28
v 36 19 -28
v 32 16 -28
v 32 19 -28
f 1466 1465 1467 1468
f 1468 1467 1469 1470
f 1470 1469 1471 1472
f 1472 1471 1465 1466
f 1471 1469 1467 1465
f 1472 1466 1468 1470
g object_185
v 36 16 -21
v 36 19 -21
v 40 16 -21
v 40 19 -21
v 40 16 -26
v 40 19 -26
v 36 16 -26
v 36 19 -26
f 1474 1473 1475 1476
f 1476 1475 1477 1478
f 1478 1477 1479 1480
f 1480 1479 1473 1474
f 1479 1477 1475 1473
f 1480 1474 1476 1478
g object_186
v 28 16 -21
v 28 19 -21
v 32 16 -21
v 32 19 -21
v 32 16 -26
v 32 19 -26
v 28 16 -26
v 28 19 -26
f 1482 1481 1483 1484
f 1484 1483 1485 1486
f 1486 1485 1487 1488
f 1488 1487 1481 1482
f 1487 1485 1483 1481
f 1488 1482 1484 1486
g object_187
v 28 4 -19
v 28 7 -19
v 32 4 -19
v 32 7 -19
v 32 4 -14
v 32 7 -14
v 28 4 -14
v 28 7 -14
f 1490 1492 1491 1489
f 1492 1494 1493 1491
f 1494 1496 1495 1493
f 1496 1490 1489 1495
f 1495 1489 1491 1493
f 1496 1494 1492 1490
g object_188
v 36 4 -19
v 36 7 -19
v 40 4 -19
v 40 7 -19
v 40 4 -14
v 40 7 -14
v 36 4 -14
v 36 7 -14
f 1498 1500 1499 1497
f 1500 1502 1501 1499
f 1502 1504 1503 1501
f 1504 1498 1497 1503
f 1503 1497 1499 1501
f 1504 1502 1500 1498
g object_189
v 32 7 -19
v 32 10 -19
v 36 7 -19
v 36 10 -19
v 36 7 -14
v 36 10 -14
v 32 7 -14
v 32 10 -14
f 1506 1508 1507 1505
f 1508 1510 1509 1507
f 1510 1512 1511 1509
f 1512 1506 1505 1511
f 1511 1505 1507 1509
f 1512 1510 1508 1506
g object_190
v 24 7 -19
v 24 10 -19
v 28 7 -19
v 28 10 -19
v 28 7 -14
v 28 10 -14
v 24 7 -14
v 24 10 -14
f 1514 1516 1515 1513
f 1516 1518 1517 1515
f 1518 1520 1519 1517
f 1520 1514 1513 1519
f 1519 1513 1515 1517
f 1520 1518 1516 1514
g object_191
v 36 10 -19
v 36 13 -19
v 40 10 -19
v 40 13 -19
v 40 10 -14
v 40 13 -14
v 36 10 -14
v 36 13 -14
f 1522 1524 1523 1521
f 1524 1526 1525 1523
f 1526 1528 1527 1525
f 1528 1522 1521 1527
f 1527 1521 1523 1525
f 1528 1526 1524 1522
g object_192
v 28 10 -19
v 28 13 -19
v 32 10 -19
v 32 13 -19
v 32 10 -14
v 32 13 -14
v 28 10 -14
v 28 13 -14
f 1530 1532 1531 1529
f 1532 1534 1533 1531
f 1534 1536 1535 1533
f 1536 1530 1529 1535
f 1535 1529 1531 1533
f 1536 1534 1532 1530
g object_193
v 24 13 -19
v 24 16 -19
v 28 13 -19
v 28 16 -19
v 28 13 -14
v 28 16 -14
v 24 13 -14
v 24 16 -14
f 1538 1540 1539 1537
f 1540 1542 1541 1539
f 1542 1544 1543 1541
f 1544 1538 1537 1543
f 1543 1537 1539 1541
f 1544 1542 1540 1538
g object_194
v 32 13 -19
v 32 16 -19
v 36 13 -19
v 36 16 -19
v 36 13 -14
v 36 16 -14
v 32 13 -14
v 32 16 -14
f 1546 1548 1547 1545
f 1548 1550 1549 1547
f 1550 1552 1551 1549
f 1552 1546 1545 1551
f 1551 1545 1547 1549
f 1552 1550 1548 1546
g object_195
v 36 13 -19
v 36 16 -19
v 40 13 -19
v 40 16 -19
v 40 13 -12
v 40 16 -12
v 36 13 -12
v 36 16 -12
f 1554 1556 1555 1553
f 1556 1558 1557 1555
f 1558 1560 1559 1557
f 1560 1554 1553 1559
f 1559 1553 1555 1557
f 1560 1558 1556 1554
g object_196
v 28 13 -19
v 28 16 -19
v 32 13 -19
v 32 16 -19
v 32 13 -12
v 32 16 -12
v 28 13 -12
v 28 16 -12
f 1562 1564 1563 1561
f 1564 1566 1565 1563
f 1566 1568 1567 1565
f 1568 1562 1561 1567
f 1567 1561 1563 1565
f 1568 1566 1564 1562
g object_197
v 24 10 -19
v 24 13 -19
v 28 10 -19
v 28 13 -19
v 28 10 -12
v 28 13 -12
v 24 10 -12
v 24 13 -12
f 1570 1572 1571 1569
f 1572 1574 1573 1571
f 1574 1576 1575 1573
f 1576 1570 1569 1575
f 1575 1569 1571 1573
f 1576 1574 1572 1570
g object_198
v 32 10 -19
v 32 13 -19
v 36 10 -19
v 36 13 -19
v 36 10 -12
v 36 13 -12
v 32 10 -12
v 32 13 -12
f 1578 1580 1579 1577
f 1580 1582 1581 1579
f 1582 1584 1583 1581
f 1584 1578 1577 1583
f 1583 1577 1579 1581
f 1584 1582 1580 1578
g object_199
v 28 7 -19
v 28 10 -19
v 32 7 -19
v 32 10 -19
v 32 7 -12
v 32 10 -12
v 28 7 -12
v 28 10 -12
f 1586 1588 1587 1585
f 1588 1590 1589 1587
f 1590 1592 1591 1589
f 1592 1586 1585 1591
f 1591 1585 1587 1589
f 1592 1590 1588 1586
g object_200
v 36 7 -19
v 36 10 -19
v 40 7 -19
v 40 10 -19
v 40 7 -12
v 40 10 -12
v 36 7 -12
v 36 10 -12
f 1594 1596 1595 1593
f 1596 1598 1597 1595
f 1598 1600 1599 1597
f 1600 1594 1593 1599
f 1599 1593 1595 1597
f 1600 1598 1596 1594
g object_201
v 24 4 -19
v 24 7 -19
v 28 4 -19
v 28 7 -19
v 28 4 -12
v 28 7 -12
v 24 4 -12
v 24 7 -12
f 1602 1604 1603 1601
f 1604 1606 1605 1603
f 1606 1608 1607 1605
f 1608 1602 1601 1607
f 1607 1601 1603 1605
f 1608 1606 1604 1602
g object_202
v 32 4 -19
v 32 7 -19
v 36 4 -19
v 36 7 -19
v 36 4 -12
v 36 7 -12
v 32 4 -12
v 32 7 -12
f 1610 1612 1611 1609
f 1612 1614 1613 1611
f 1614 1616 1615 1613
f 1616 1610 1609 1615
f 1615 1609 1611 1613
f 1616 1614 1612 1610
g object_203
v 32 19 -19
v 32 25 -19
v 36 19 -19
v 36 25 -19
v 36 19 -14
v 36 25 -14
v 32 19 -14
v 32 25 -14
f 1618 1620 1619 1617
f 1620 1622 1621 1619
f 1622 1624 1623 1621
f 1624 1618 1617 1623
f 1623 1617 1619 1621
f 1624 1622 1620 1618
g object_204
v 24 19 -19
v 24 25 -19
v 28 19 -19
v 28 25 -19
v 28 19 -14
v 28 25 -14
v 24 19 -14
v 24 25 -14
f 1626 1628 1627 1625
f 1628 1630 1629 1627
f 1630 1632 1631 1629
f 1632 1626 1625 1631
f 1631 1625 1627 1629
f 1632 1630 1628 1626
g object_205
v 28 19 -19
v 28 25 -19
v 32 19 -19
v 32 25 -19
v 32 19 -12
v 32 25 -12
v 28 19 -12
v 28 25 -12
f 1634 1636 1635 1633
f 1636 1638 1637 1635
f 1638 1640 1639 1637
f 1640 1634 1633 1639
f 1639 1633 1635 1637
f 1640 1638 1636 1634
g object_206
v 36 19 -19
v 36 25 -19
v 40 19 -19
v 40 25 -19
v 40 19 -12
v 40 25 -12
v 36 19 -12
v 36 25 -12
f 1642 1644 1643 1641
f 1644 1646 1645 1643
f 1646 1648 1647 1645
f 1648 1642 1641 1647
f 1647 1641 1643 1645
f 1648 1646 1644 1642
g object_207
v 24 16 -19
v 24 19 -19
v 28 16 -19
v 28 19 -19
v 28 16 -12
v 28 19 -12
v 24 16 -12
v 24 19 -12
f 1650 1652 1651 1649
f 1652 1654 1653 1651
f 1654 1656 1655 1653
f 1656 1650 1649 1655
f 1655 1649 1651 1653
f 1656 1654 1652 1650
g object_208
v 32 16 -19
v 32 19 -19
v 36 16 -19
v 36 19 -19
v 36 16 -12
v 36 19 -12
v 32 16 -12
v 32 19 -12
f 1658 1660 1659 1657
f 1660 1662 1661 1659
f 1662 1664 1663 1661
f 1664 1658 1657 1663
f 1663 1657 1659 1661
f 1664 1662 1660 1658
g object_209
v 36 16 -19
v 36 19 -19
v 40 16 -19
v 40 19 -19
v 40 16 -14
v 40 19 -14
v 36 16 -14
v 36 19 -14
f 1666 1668 1667 1665
f 1668 1670 1669 1667
f 1670 1672 1671 1669
f 1672 1666 1665 1671
f 1671 1665 1667 1669
f 1672 1670 1668 1666
g object_210
v 28 16 -19
v 28 19 -19
v 32 16 -19
v 32 19 -19
v 32 16 -14
v 32 19 -14
v 28 16 -14
v 28 19 -14
f 1674 1676 1675 1673
f 1676 1678 1677 1675
f 1678 1680 1679 1677
f 1680 1674 1673 1679
f 1679 1673 1675 1677
f 1680 1678 1676 1674
g object_211
v 28 1 -21
v 28 4 -21
v 36 1 -21
v 36 4 -21
v 36 1 -26
v 36 4 -26
v 28 1 -26
v 28 4 -26
f 1682 1681 1683 1684
f 1684 1683 1685 1686
f 1686 1685 1687 1688
f 1688 1687 1681 1682
f 1687 1685 1683 1681
f 1688 1682 1684 1686
g object_212
v 24 1 -21
v 24 4 -21
v 28 1 -21
v 28 4 -21
v 28 1 -26
v 28 4 -26
v 24 1 -26
v 24 4 -26
f 1690 1689 1691 1692
f 1692 1691 1693 1694
f 1694 1693 1695 1696
f 1696 1695 1689 1690
f 1695 1693 1691 1689
f 1696 1690 1692 1694
g object_213
v 40 1 -21
v 40 4 -21
v 36 1 -21
v 36 4 -21
v 36 1 -26
v 36 4 -26
v 40 1 -26
v 40 4 -26
f 1698 1700 1699 1697
f 1700 1702 1701 1699
f 1702 1704 1703 1701
f 1704 1698 1697 1703
f 1703 1697 1699 1701
f 1704 1702 1700 1698
g object_214
v 28 1 -19
v 28 4 -19
v 36 1 -19
v 36 4 -19
v 36 1 -14
v 36 4 -14
v 28 1 -14
v 28 4 -14
f 1706 1708 1707 1705
f 1708 1710 1709 1707
f 1710 1712 1711 1709
f 1712 1706 1705 1711
f 1711 1705 1707 1709
f 1712 1710 1708 1706
g object_215
v 24 1 -19
v 24 4 -19
v 28 1 -19
v 28 4 -19
v 28 1 -14
v 28 4 -14
v 24 1 -14
v 24 4 -14
f 1714 1716 1715 1713
f 1716 1718 1717 1715
f 1718 1720 1719 1717
f 1720 1714 1713 1719
f 1719 1713 1715 1717
f 1720 1718 1716 1714
g object_216
v 40 1 -19
v 40 4 -19
v 36 1 -19
v 36 4 -19
v 36 1 -14
v 36 4 -14
v 40 1 -14
v 40 4 -14
f 1722 1721 1723 1724
f 1724 1723 1725 1726
f 1726 1725 1727 1728
f 1728 1727 1721 1722
f 1727 1725 1723 1721
f 1728 1722 1724 1726
