# Rhino

g object_1
v 7.8000001907348633 1 -18.700000762939453
v 7.8000001907348633 4 -18.700000762939453
v 7.8000001907348633 1 -18.299999237060547
v 7.8000001907348633 4 -18.299999237060547
v 8.1999998092651367 1 -18.299999237060547
v 8.1999998092651367 4 -18.299999237060547
v 8.1999998092651367 1 -18.700000762939453
v 8.1999998092651367 4 -18.700000762939453
f 2 1 3 4
f 4 3 5 6
f 6 5 7 8
f 8 7 1 2
f 5 3 1 7
f 6 8 2 4
g object_2
v 11.800000190734863 1 -18.700000762939453
v 11.800000190734863 4 -18.700000762939453
v 11.800000190734863 1 -18.299999237060547
v 11.800000190734863 4 -18.299999237060547
v 12.199999809265137 1 -18.299999237060547
v 12.199999809265137 4 -18.299999237060547
v 12.199999809265137 1 -18.700000762939453
v 12.199999809265137 4 -18.700000762939453
f 10 9 11 12
f 12 11 13 14
f 14 13 15 16
f 16 15 9 10
f 13 11 9 15
f 14 16 10 12
g object_3
v 15.800000190734863 1 -18.700000762939453
v 15.800000190734863 4 -18.700000762939453
v 15.800000190734863 1 -18.299999237060547
v 15.800000190734863 4 -18.299999237060547
v 16.200000762939453 1 -18.299999237060547
v 16.200000762939453 4 -18.299999237060547
v 16.200000762939453 1 -18.700000762939453
v 16.200000762939453 4 -18.700000762939453
f 18 17 19 20
f 20 19 21 22
f 22 21 23 24
f 24 23 17 18
f 21 19 17 23
f 22 24 18 20
g object_4
v 19.799999237060547 1 -18.700000762939453
v 19.799999237060547 4 -18.700000762939453
v 19.799999237060547 1 -18.299999237060547
v 19.799999237060547 4 -18.299999237060547
v 20.200000762939453 1 -18.299999237060547
v 20.200000762939453 4 -18.299999237060547
v 20.200000762939453 1 -18.700000762939453
v 20.200000762939453 4 -18.700000762939453
f 26 25 27 28
f 28 27 29 30
f 30 29 31 32
f 32 31 25 26
f 29 27 25 31
f 30 32 26 28
g object_5
v 7.8000001907348633 1 -21.299999237060547
v 7.8000001907348633 4 -21.299999237060547
v 8.1999998092651367 1 -21.299999237060547
v 8.1999998092651367 4 -21.299999237060547
v 8.1999998092651367 1 -21.700000762939453
v 8.1999998092651367 4 -21.700000762939453
v 7.8000001907348633 1 -21.700000762939453
v 7.8000001907348633 4 -21.700000762939453
f 34 33 35 36
f 36 35 37 38
f 38 37 39 40
f 40 39 33 34
f 39 37 35 33
f 40 34 36 38
g object_6
v 11.800000190734863 1 -21.299999237060547
v 11.800000190734863 4 -21.299999237060547
v 12.199999809265137 1 -21.299999237060547
v 12.199999809265137 4 -21.299999237060547
v 12.199999809265137 1 -21.700000762939453
v 12.199999809265137 4 -21.700000762939453
v 11.800000190734863 1 -21.700000762939453
v 11.800000190734863 4 -21.700000762939453
f 42 41 43 44
f 44 43 45 46
f 46 45 47 48
f 48 47 41 42
f 47 45 43 41
f 48 42 44 46
g object_7
v 15.800000190734863 1 -21.299999237060547
v 15.800000190734863 4 -21.299999237060547
v 16.200000762939453 1 -21.299999237060547
v 16.200000762939453 4 -21.299999237060547
v 16.200000762939453 1 -21.700000762939453
v 16.200000762939453 4 -21.700000762939453
v 15.800000190734863 1 -21.700000762939453
v 15.800000190734863 4 -21.700000762939453
f 50 49 51 52
f 52 51 53 54
f 54 53 55 56
f 56 55 49 50
f 55 53 51 49
f 56 50 52 54
g object_8
v 19.799999237060547 1 -21.299999237060547
v 19.799999237060547 4 -21.299999237060547
v 20.200000762939453 1 -21.299999237060547
v 20.200000762939453 4 -21.299999237060547
v 20.200000762939453 1 -21.700000762939453
v 20.200000762939453 4 -21.700000762939453
v 19.799999237060547 1 -21.700000762939453
v 19.799999237060547 4 -21.700000762939453
f 58 57 59 60
f 60 59 61 62
f 62 61 63 64
f 64 63 57 58
f 63 61 59 57
f 64 58 60 62
g object_9
v 48.700000762939453 1 -50.200000762939453
v 48.700000762939453 4 -50.200000762939453
v 48.299999237060547 1 -50.200000762939453
v 48.299999237060547 4 -50.200000762939453
v 48.299999237060547 1 -49.799999237060547
v 48.299999237060547 4 -49.799999237060547
v 48.700000762939453 1 -49.799999237060547
v 48.700000762939453 4 -49.799999237060547
f 66 65 67 68
f 68 67 69 70
f 70 69 71 72
f 72 71 65 66
f 69 67 65 71
f 70 72 66 68
g object_10
v 48.700000762939453 1 -54.200000762939453
v 48.700000762939453 4 -54.200000762939453
v 48.299999237060547 1 -54.200000762939453
v 48.299999237060547 4 -54.200000762939453
v 48.299999237060547 1 -53.799999237060547
v 48.299999237060547 4 -53.799999237060547
v 48.700000762939453 1 -53.799999237060547
v 48.700000762939453 4 -53.799999237060547
f 74 73 75 76
f 76 75 77 78
f 78 77 79 80
f 80 79 73 74
f 77 75 73 79
f 78 80 74 76
g object_11
v 48.700000762939453 1 -58.200000762939453
v 48.700000762939453 4 -58.200000762939453
v 48.299999237060547 1 -58.200000762939453
v 48.299999237060547 4 -58.200000762939453
v 48.299999237060547 1 -57.799999237060547
v 48.299999237060547 4 -57.799999237060547
v 48.700000762939453 1 -57.799999237060547
v 48.700000762939453 4 -57.799999237060547
f 82 81 83 84
f 84 83 85 86
f 86 85 87 88
f 88 87 81 82
f 85 83 81 87
f 86 88 82 84
g object_12
v 48.700000762939453 1 -62.200000762939453
v 48.700000762939453 4 -62.200000762939453
v 48.299999237060547 1 -62.200000762939453
v 48.299999237060547 4 -62.200000762939453
v 48.299999237060547 1 -61.799999237060547
v 48.299999237060547 4 -61.799999237060547
v 48.700000762939453 1 -61.799999237060547
v 48.700000762939453 4 -61.799999237060547
f 90 89 91 92
f 92 91 93 94
f 94 93 95 96
f 96 95 89 90
f 93 91 89 95
f 94 96 90 92
g object_13
v 51.299999237060547 1 -50.200000762939453
v 51.299999237060547 4 -50.200000762939453
v 51.299999237060547 1 -49.799999237060547
v 51.299999237060547 4 -49.799999237060547
v 51.700000762939453 1 -49.799999237060547
v 51.700000762939453 4 -49.799999237060547
v 51.700000762939453 1 -50.200000762939453
v 51.700000762939453 4 -50.200000762939453
f 98 97 99 100
f 100 99 101 102
f 102 101 103 104
f 104 103 97 98
f 103 101 99 97
f 104 98 100 102
g object_14
v 51.299999237060547 1 -54.200000762939453
v 51.299999237060547 4 -54.200000762939453
v 51.299999237060547 1 -53.799999237060547
v 51.299999237060547 4 -53.799999237060547
v 51.700000762939453 1 -53.799999237060547
v 51.700000762939453 4 -53.799999237060547
v 51.700000762939453 1 -54.200000762939453
v 51.700000762939453 4 -54.200000762939453
f 106 105 107 108
f 108 107 109 110
f 110 109 111 112
f 112 111 105 106
f 111 109 107 105
f 112 106 108 110
g object_15
v 51.299999237060547 1 -58.200000762939453
v 51.299999237060547 4 -58.200000762939453
v 51.299999237060547 1 -57.799999237060547
v 51.299999237060547 4 -57.799999237060547
v 51.700000762939453 1 -57.799999237060547
v 51.700000762939453 4 -57.799999237060547
v 51.700000762939453 1 -58.200000762939453
v 51.700000762939453 4 -58.200000762939453
f 114 113 115 116
f 116 115 117 118
f 118 117 119 120
f 120 119 113 114
f 119 117 115 113
f 120 114 116 118
g object_16
v 51.299999237060547 1 -62.200000762939453
v 51.299999237060547 4 -62.200000762939453
v 51.299999237060547 1 -61.799999237060547
v 51.299999237060547 4 -61.799999237060547
v 51.700000762939453 1 -61.799999237060547
v 51.700000762939453 4 -61.799999237060547
v 51.700000762939453 1 -62.200000762939453
v 51.700000762939453 4 -62.200000762939453
f 122 121 123 124
f 124 123 125 126
f 126 125 127 128
f 128 127 121 122
f 127 125 123 121
f 128 122 124 126
g object_17
v 51.299999237060547 1 -46.200000762939453
v 51.299999237060547 4 -46.200000762939453
v 51.299999237060547 1 -45.799999237060547
v 51.299999237060547 4 -45.799999237060547
v 51.700000762939453 1 -45.799999237060547
v 51.700000762939453 4 -45.799999237060547
v 51.700000762939453 1 -46.200000762939453
v 51.700000762939453 4 -46.200000762939453
f 130 129 131 132
f 132 131 133 134
f 134 133 135 136
f 136 135 129 130
f 135 133 131 129
f 136 130 132 134
g object_18
v 51.299999237060547 1 -42.200000762939453
v 51.299999237060547 4 -42.200000762939453
v 51.299999237060547 1 -41.799999237060547
v 51.299999237060547 4 -41.799999237060547
v 51.700000762939453 1 -41.799999237060547
v 51.700000762939453 4 -41.799999237060547
v 51.700000762939453 1 -42.200000762939453
v 51.700000762939453 4 -42.200000762939453
f 138 137 139 140
f 140 139 141 142
f 142 141 143 144
f 144 143 137 138
f 143 141 139 137
f 144 138 140 142
g object_19
v 51.299999237060547 1 -38.200000762939453
v 51.299999237060547 4 -38.200000762939453
v 51.299999237060547 1 -37.799999237060547
v 51.299999237060547 4 -37.799999237060547
v 51.700000762939453 1 -37.799999237060547
v 51.700000762939453 4 -37.799999237060547
v 51.700000762939453 1 -38.200000762939453
v 51.700000762939453 4 -38.200000762939453
f 146 145 147 148
f 148 147 149 150
f 150 149 151 152
f 152 151 145 146
f 151 149 147 145
f 152 146 148 150
g object_20
v 51.299999237060547 1 -34.200000762939453
v 51.299999237060547 4 -34.200000762939453
v 51.299999237060547 1 -33.799999237060547
v 51.299999237060547 4 -33.799999237060547
v 51.700000762939453 1 -33.799999237060547
v 51.700000762939453 4 -33.799999237060547
v 51.700000762939453 1 -34.200000762939453
v 51.700000762939453 4 -34.200000762939453
f 154 153 155 156
f 156 155 157 158
f 158 157 159 160
f 160 159 153 154
f 159 157 155 153
f 160 154 156 158
g object_21
v 51.299999237060547 1 -30.200000762939453
v 51.299999237060547 4 -30.200000762939453
v 51.299999237060547 1 -29.799999237060547
v 51.299999237060547 4 -29.799999237060547
v 51.700000762939453 1 -29.799999237060547
v 51.700000762939453 4 -29.799999237060547
v 51.700000762939453 1 -30.200000762939453
v 51.700000762939453 4 -30.200000762939453
f 162 161 163 164
f 164 163 165 166
f 166 165 167 168
f 168 167 161 162
f 167 165 163 161
f 168 162 164 166
g object_22
v 49.200000762939453 1 -30.200000762939453
v 49.200000762939453 4 -30.200000762939453
v 48.799999237060547 1 -30.200000762939453
v 48.799999237060547 4 -30.200000762939453
v 48.799999237060547 1 -29.799999237060547
v 48.799999237060547 4 -29.799999237060547
v 49.200000762939453 1 -29.799999237060547
v 49.200000762939453 4 -29.799999237060547
f 170 169 171 172
f 172 171 173 174
f 174 173 175 176
f 176 175 169 170
f 173 171 169 175
f 174 176 170 172
g object_23
v 49.200000762939453 1 -34.200000762939453
v 49.200000762939453 4 -34.200000762939453
v 48.799999237060547 1 -34.200000762939453
v 48.799999237060547 4 -34.200000762939453
v 48.799999237060547 1 -33.799999237060547
v 48.799999237060547 4 -33.799999237060547
v 49.200000762939453 1 -33.799999237060547
v 49.200000762939453 4 -33.799999237060547
f 178 177 179 180
f 180 179 181 182
f 182 181 183 184
f 184 183 177 178
f 181 179 177 183
f 182 184 178 180
g object_24
v 49.200000762939453 1 -38.200000762939453
v 49.200000762939453 4 -38.200000762939453
v 48.799999237060547 1 -38.200000762939453
v 48.799999237060547 4 -38.200000762939453
v 48.799999237060547 1 -37.799999237060547
v 48.799999237060547 4 -37.799999237060547
v 49.200000762939453 1 -37.799999237060547
v 49.200000762939453 4 -37.799999237060547
f 186 185 187 188
f 188 187 189 190
f 190 189 191 192
f 192 191 185 186
f 189 187 185 191
f 190 192 186 188
g object_25
v 49.200000762939453 1 -42.200000762939453
v 49.200000762939453 4 -42.200000762939453
v 48.799999237060547 1 -42.200000762939453
v 48.799999237060547 4 -42.200000762939453
v 48.799999237060547 1 -41.799999237060547
v 48.799999237060547 4 -41.799999237060547
v 49.200000762939453 1 -41.799999237060547
v 49.200000762939453 4 -41.799999237060547
f 194 193 195 196
f 196 195 197 198
f 198 197 199 200
f 200 199 193 194
f 197 195 193 199
f 198 200 194 196
g object_26
v 49.200000762939453 1 -46.200000762939453
v 49.200000762939453 4 -46.200000762939453
v 48.799999237060547 1 -46.200000762939453
v 48.799999237060547 4 -46.200000762939453
v 48.799999237060547 1 -45.799999237060547
v 48.799999237060547 4 -45.799999237060547
v 49.200000762939453 1 -45.799999237060547
v 49.200000762939453 4 -45.799999237060547
f 202 201 203 204
f 204 203 205 206
f 206 205 207 208
f 208 207 201 202
f 205 203 201 207
f 206 208 202 204
g object_27
v 55.799999237060547 1 -30.200000762939453
v 55.799999237060547 4 -30.200000762939453
v 55.799999237060547 1 -29.799999237060547
v 55.799999237060547 4 -29.799999237060547
v 56.200000762939453 1 -29.799999237060547
v 56.200000762939453 4 -29.799999237060547
v 56.200000762939453 1 -30.200000762939453
v 56.200000762939453 4 -30.200000762939453
f 210 209 211 212
f 212 211 213 214
f 214 213 215 216
f 216 215 209 210
f 215 213 211 209
f 216 210 212 214
g object_28
v 55.799999237060547 1 -34.200000762939453
v 55.799999237060547 4 -34.200000762939453
v 55.799999237060547 1 -33.799999237060547
v 55.799999237060547 4 -33.799999237060547
v 56.200000762939453 1 -33.799999237060547
v 56.200000762939453 4 -33.799999237060547
v 56.200000762939453 1 -34.200000762939453
v 56.200000762939453 4 -34.200000762939453
f 218 217 219 220
f 220 219 221 222
f 222 221 223 224
f 224 223 217 218
f 223 221 219 217
f 224 218 220 222
g object_29
v 55.799999237060547 1 -38.200000762939453
v 55.799999237060547 4 -38.200000762939453
v 55.799999237060547 1 -37.799999237060547
v 55.799999237060547 4 -37.799999237060547
v 56.200000762939453 1 -37.799999237060547
v 56.200000762939453 4 -37.799999237060547
v 56.200000762939453 1 -38.200000762939453
v 56.200000762939453 4 -38.200000762939453
f 226 225 227 228
f 228 227 229 230
f 230 229 231 232
f 232 231 225 226
f 231 229 227 225
f 232 226 228 230
g object_30
v 55.799999237060547 1 -42.200000762939453
v 55.799999237060547 4 -42.200000762939453
v 55.799999237060547 1 -41.799999237060547
v 55.799999237060547 4 -41.799999237060547
v 56.200000762939453 1 -41.799999237060547
v 56.200000762939453 4 -41.799999237060547
v 56.200000762939453 1 -42.200000762939453
v 56.200000762939453 4 -42.200000762939453
f 234 233 235 236
f 236 235 237 238
f 238 237 239 240
f 240 239 233 234
f 239 237 235 233
f 240 234 236 238
g object_31
v 55.799999237060547 1 -46.200000762939453
v 55.799999237060547 4 -46.200000762939453
v 55.799999237060547 1 -45.799999237060547
v 55.799999237060547 4 -45.799999237060547
v 56.200000762939453 1 -45.799999237060547
v 56.200000762939453 4 -45.799999237060547
v 56.200000762939453 1 -46.200000762939453
v 56.200000762939453 4 -46.200000762939453
f 242 241 243 244
f 244 243 245 246
f 246 245 247 248
f 248 247 241 242
f 247 245 243 241
f 248 242 244 246
g object_32
v 55.799999237060547 1 -62.200000762939453
v 55.799999237060547 4 -62.200000762939453
v 55.799999237060547 1 -61.799999237060547
v 55.799999237060547 4 -61.799999237060547
v 56.200000762939453 1 -61.799999237060547
v 56.200000762939453 4 -61.799999237060547
v 56.200000762939453 1 -62.200000762939453
v 56.200000762939453 4 -62.200000762939453
f 250 249 251 252
f 252 251 253 254
f 254 253 255 256
f 256 255 249 250
f 255 253 251 249
f 256 250 252 254
g object_33
v 55.799999237060547 1 -58.200000762939453
v 55.799999237060547 4 -58.200000762939453
v 55.799999237060547 1 -57.799999237060547
v 55.799999237060547 4 -57.799999237060547
v 56.200000762939453 1 -57.799999237060547
v 56.200000762939453 4 -57.799999237060547
v 56.200000762939453 1 -58.200000762939453
v 56.200000762939453 4 -58.200000762939453
f 258 257 259 260
f 260 259 261 262
f 262 261 263 264
f 264 263 257 258
f 263 261 259 257
f 264 258 260 262
g object_34
v 55.799999237060547 1 -54.200000762939453
v 55.799999237060547 4 -54.200000762939453
v 55.799999237060547 1 -53.799999237060547
v 55.799999237060547 4 -53.799999237060547
v 56.200000762939453 1 -53.799999237060547
v 56.200000762939453 4 -53.799999237060547
v 56.200000762939453 1 -54.200000762939453
v 56.200000762939453 4 -54.200000762939453
f 266 265 267 268
f 268 267 269 270
f 270 269 271 272
f 272 271 265 266
f 271 269 267 265
f 272 266 268 270
g object_35
v 55.799999237060547 1 -50.200000762939453
v 55.799999237060547 4 -50.200000762939453
v 55.799999237060547 1 -49.799999237060547
v 55.799999237060547 4 -49.799999237060547
v 56.200000762939453 1 -49.799999237060547
v 56.200000762939453 4 -49.799999237060547
v 56.200000762939453 1 -50.200000762939453
v 56.200000762939453 4 -50.200000762939453
f 274 273 275 276
f 276 275 277 278
f 278 277 279 280
f 280 279 273 274
f 279 277 275 273
f 280 274 276 278
g object_36
v 44.200000762939453 1 -62.200000762939453
v 44.200000762939453 4 -62.200000762939453
v 43.799999237060547 1 -62.200000762939453
v 43.799999237060547 4 -62.200000762939453
v 43.799999237060547 1 -61.799999237060547
v 43.799999237060547 4 -61.799999237060547
v 44.200000762939453 1 -61.799999237060547
v 44.200000762939453 4 -61.799999237060547
f 282 281 283 284
f 284 283 285 286
f 286 285 287 288
f 288 287 281 282
f 285 283 281 287
f 286 288 282 284
g object_37
v 44.200000762939453 1 -58.200000762939453
v 44.200000762939453 4 -58.200000762939453
v 43.799999237060547 1 -58.200000762939453
v 43.799999237060547 4 -58.200000762939453
v 43.799999237060547 1 -57.799999237060547
v 43.799999237060547 4 -57.799999237060547
v 44.200000762939453 1 -57.799999237060547
v 44.200000762939453 4 -57.799999237060547
f 290 289 291 292
f 292 291 293 294
f 294 293 295 296
f 296 295 289 290
f 293 291 289 295
f 294 296 290 292
g object_38
v 44.200000762939453 1 -54.200000762939453
v 44.200000762939453 4 -54.200000762939453
v 43.799999237060547 1 -54.200000762939453
v 43.799999237060547 4 -54.200000762939453
v 43.799999237060547 1 -53.799999237060547
v 43.799999237060547 4 -53.799999237060547
v 44.200000762939453 1 -53.799999237060547
v 44.200000762939453 4 -53.799999237060547
f 298 297 299 300
f 300 299 301 302
f 302 301 303 304
f 304 303 297 298
f 301 299 297 303
f 302 304 298 300
g object_39
v 44.200000762939453 1 -50.200000762939453
v 44.200000762939453 4 -50.200000762939453
v 43.799999237060547 1 -50.200000762939453
v 43.799999237060547 4 -50.200000762939453
v 43.799999237060547 1 -49.799999237060547
v 43.799999237060547 4 -49.799999237060547
v 44.200000762939453 1 -49.799999237060547
v 44.200000762939453 4 -49.799999237060547
f 306 305 307 308
f 308 307 309 310
f 310 309 311 312
f 312 311 305 306
f 309 307 305 311
f 310 312 306 308
g object_40
v 44.200000762939453 1 -46.200000762939453
v 44.200000762939453 4 -46.200000762939453
v 43.799999237060547 1 -46.200000762939453
v 43.799999237060547 4 -46.200000762939453
v 43.799999237060547 1 -45.799999237060547
v 43.799999237060547 4 -45.799999237060547
v 44.200000762939453 1 -45.799999237060547
v 44.200000762939453 4 -45.799999237060547
f 314 313 315 316
f 316 315 317 318
f 318 317 319 320
f 320 319 313 314
f 317 315 313 319
f 318 320 314 316
g object_41
v 44.200000762939453 1 -42.200000762939453
v 44.200000762939453 4 -42.200000762939453
v 43.799999237060547 1 -42.200000762939453
v 43.799999237060547 4 -42.200000762939453
v 43.799999237060547 1 -41.799999237060547
v 43.799999237060547 4 -41.799999237060547
v 44.200000762939453 1 -41.799999237060547
v 44.200000762939453 4 -41.799999237060547
f 322 321 323 324
f 324 323 325 326
f 326 325 327 328
f 328 327 321 322
f 325 323 321 327
f 326 328 322 324
g object_42
v 44.200000762939453 1 -38.200000762939453
v 44.200000762939453 4 -38.200000762939453
v 43.799999237060547 1 -38.200000762939453
v 43.799999237060547 4 -38.200000762939453
v 43.799999237060547 1 -37.799999237060547
v 43.799999237060547 4 -37.799999237060547
v 44.200000762939453 1 -37.799999237060547
v 44.200000762939453 4 -37.799999237060547
f 330 329 331 332
f 332 331 333 334
f 334 333 335 336
f 336 335 329 330
f 333 331 329 335
f 334 336 330 332
g object_43
v 44.200000762939453 1 -34.200000762939453
v 44.200000762939453 4 -34.200000762939453
v 43.799999237060547 1 -34.200000762939453
v 43.799999237060547 4 -34.200000762939453
v 43.799999237060547 1 -33.799999237060547
v 43.799999237060547 4 -33.799999237060547
v 44.200000762939453 1 -33.799999237060547
v 44.200000762939453 4 -33.799999237060547
f 338 337 339 340
f 340 339 341 342
f 342 341 343 344
f 344 343 337 338
f 341 339 337 343
f 342 344 338 340
g object_44
v 44.200000762939453 1 -30.200000762939453
v 44.200000762939453 4 -30.200000762939453
v 43.799999237060547 1 -30.200000762939453
v 43.799999237060547 4 -30.200000762939453
v 43.799999237060547 1 -29.799999237060547
v 43.799999237060547 4 -29.799999237060547
v 44.200000762939453 1 -29.799999237060547
v 44.200000762939453 4 -29.799999237060547
f 346 345 347 348
f 348 347 349 350
f 350 349 351 352
f 352 351 345 346
f 349 347 345 351
f 350 352 346 348
g object_45
v 39.799999237060547 1 -14.199999809265137
v 39.799999237060547 4 -14.199999809265137
v 39.799999237060547 1 -13.800000190734863
v 39.799999237060547 4 -13.800000190734863
v 40.200000762939453 1 -13.800000190734863
v 40.200000762939453 4 -13.800000190734863
v 40.200000762939453 1 -14.199999809265137
v 40.200000762939453 4 -14.199999809265137
f 354 353 355 356
f 356 355 357 358
f 358 357 359 360
f 360 359 353 354
f 357 355 353 359
f 358 360 354 356
g object_46
v 35.799999237060547 1 -14.199999809265137
v 35.799999237060547 4 -14.199999809265137
v 35.799999237060547 1 -13.800000190734863
v 35.799999237060547 4 -13.800000190734863
v 36.200000762939453 1 -13.800000190734863
v 36.200000762939453 4 -13.800000190734863
v 36.200000762939453 1 -14.199999809265137
v 36.200000762939453 4 -14.199999809265137
f 362 361 363 364
f 364 363 365 366
f 366 365 367 368
f 368 367 361 362
f 365 363 361 367
f 366 368 362 364
g object_47
v 31.799999237060547 1 -14.199999809265137
v 31.799999237060547 4 -14.199999809265137
v 31.799999237060547 1 -13.800000190734863
v 31.799999237060547 4 -13.800000190734863
v 32.200000762939453 1 -13.800000190734863
v 32.200000762939453 4 -13.800000190734863
v 32.200000762939453 1 -14.199999809265137
v 32.200000762939453 4 -14.199999809265137
f 370 369 371 372
f 372 371 373 374
f 374 373 375 376
f 376 375 369 370
f 373 371 369 375
f 374 376 370 372
g object_48
v 27.799999237060547 1 -14.199999809265137
v 27.799999237060547 4 -14.199999809265137
v 27.799999237060547 1 -13.800000190734863
v 27.799999237060547 4 -13.800000190734863
v 28.200000762939453 1 -13.800000190734863
v 28.200000762939453 4 -13.800000190734863
v 28.200000762939453 1 -14.199999809265137
v 28.200000762939453 4 -14.199999809265137
f 378 377 379 380
f 380 379 381 382
f 382 381 383 384
f 384 383 377 378
f 381 379 377 383
f 382 384 378 380
g object_49
v 23.799999237060547 1 -14.199999809265137
v 23.799999237060547 4 -14.199999809265137
v 23.799999237060547 1 -13.800000190734863
v 23.799999237060547 4 -13.800000190734863
v 24.200000762939453 1 -13.800000190734863
v 24.200000762939453 4 -13.800000190734863
v 24.200000762939453 1 -14.199999809265137
v 24.200000762939453 4 -14.199999809265137
f 386 385 387 388
f 388 387 389 390
f 390 389 391 392
f 392 391 385 386
f 389 387 385 391
f 390 392 386 388
g object_50
v 19.799999237060547 1 -14.199999809265137
v 19.799999237060547 4 -14.199999809265137
v 19.799999237060547 1 -13.800000190734863
v 19.799999237060547 4 -13.800000190734863
v 20.200000762939453 1 -13.800000190734863
v 20.200000762939453 4 -13.800000190734863
v 20.200000762939453 1 -14.199999809265137
v 20.200000762939453 4 -14.199999809265137
f 394 393 395 396
f 396 395 397 398
f 398 397 399 400
f 400 399 393 394
f 397 395 393 399
f 398 400 394 396
g object_51
v 15.800000190734863 1 -14.199999809265137
v 15.800000190734863 4 -14.199999809265137
v 15.800000190734863 1 -13.800000190734863
v 15.800000190734863 4 -13.800000190734863
v 16.200000762939453 1 -13.800000190734863
v 16.200000762939453 4 -13.800000190734863
v 16.200000762939453 1 -14.199999809265137
v 16.200000762939453 4 -14.199999809265137
f 402 401 403 404
f 404 403 405 406
f 406 405 407 408
f 408 407 401 402
f 405 403 401 407
f 406 408 402 404
g object_52
v 11.800000190734863 1 -14.199999809265137
v 11.800000190734863 4 -14.199999809265137
v 11.800000190734863 1 -13.800000190734863
v 11.800000190734863 4 -13.800000190734863
v 12.199999809265137 1 -13.800000190734863
v 12.199999809265137 4 -13.800000190734863
v 12.199999809265137 1 -14.199999809265137
v 12.199999809265137 4 -14.199999809265137
f 410 409 411 412
f 412 411 413 414
f 414 413 415 416
f 416 415 409 410
f 413 411 409 415
f 414 416 410 412
g object_53
v 7.8000001907348633 1 -14.199999809265137
v 7.8000001907348633 4 -14.199999809265137
v 7.8000001907348633 1 -13.800000190734863
v 7.8000001907348633 4 -13.800000190734863
v 8.1999998092651367 1 -13.800000190734863
v 8.1999998092651367 4 -13.800000190734863
v 8.1999998092651367 1 -14.199999809265137
v 8.1999998092651367 4 -14.199999809265137
f 418 417 419 420
f 420 419 421 422
f 422 421 423 424
f 424 423 417 418
f 421 419 417 423
f 422 424 418 420
g object_54
v 19.799999237060547 1 -25.799999237060547
v 19.799999237060547 4 -25.799999237060547
v 20.200000762939453 1 -25.799999237060547
v 20.200000762939453 4 -25.799999237060547
v 20.200000762939453 1 -26.200000762939453
v 20.200000762939453 4 -26.200000762939453
v 19.799999237060547 1 -26.200000762939453
v 19.799999237060547 4 -26.200000762939453
f 426 425 427 428
f 428 427 429 430
f 430 429 431 432
f 432 431 425 426
f 431 429 427 425
f 432 426 428 430
g object_55
v 15.800000190734863 1 -25.799999237060547
v 15.800000190734863 4 -25.799999237060547
v 16.200000762939453 1 -25.799999237060547
v 16.200000762939453 4 -25.799999237060547
v 16.200000762939453 1 -26.200000762939453
v 16.200000762939453 4 -26.200000762939453
v 15.800000190734863 1 -26.200000762939453
v 15.800000190734863 4 -26.200000762939453
f 434 433 435 436
f 436 435 437 438
f 438 437 439 440
f 440 439 433 434
f 439 437 435 433
f 440 434 436 438
g object_56
v 11.800000190734863 1 -25.799999237060547
v 11.800000190734863 4 -25.799999237060547
v 12.199999809265137 1 -25.799999237060547
v 12.199999809265137 4 -25.799999237060547
v 12.199999809265137 1 -26.200000762939453
v 12.199999809265137 4 -26.200000762939453
v 11.800000190734863 1 -26.200000762939453
v 11.800000190734863 4 -26.200000762939453
f 442 441 443 444
f 444 443 445 446
f 446 445 447 448
f 448 447 441 442
f 447 445 443 441
f 448 442 444 446
g object_57
v 7.8000001907348633 1 -25.799999237060547
v 7.8000001907348633 4 -25.799999237060547
v 8.1999998092651367 1 -25.799999237060547
v 8.1999998092651367 4 -25.799999237060547
v 8.1999998092651367 1 -26.200000762939453
v 8.1999998092651367 4 -26.200000762939453
v 7.8000001907348633 1 -26.200000762939453
v 7.8000001907348633 4 -26.200000762939453
f 450 449 451 452
f 452 451 453 454
f 454 453 455 456
f 456 455 449 450
f 455 453 451 449
f 456 450 452 454
g object_58
v 23.799999237060547 1 -25.799999237060547
v 23.799999237060547 4 -25.799999237060547
v 24.200000762939453 1 -25.799999237060547
v 24.200000762939453 4 -25.799999237060547
v 24.200000762939453 1 -26.200000762939453
v 24.200000762939453 4 -26.200000762939453
v 23.799999237060547 1 -26.200000762939453
v 23.799999237060547 4 -26.200000762939453
f 458 457 459 460
f 460 459 461 462
f 462 461 463 464
f 464 463 457 458
f 463 461 459 457
f 464 458 460 462
g object_59
v 27.799999237060547 1 -25.799999237060547
v 27.799999237060547 4 -25.799999237060547
v 28.200000762939453 1 -25.799999237060547
v 28.200000762939453 4 -25.799999237060547
v 28.200000762939453 1 -26.200000762939453
v 28.200000762939453 4 -26.200000762939453
v 27.799999237060547 1 -26.200000762939453
v 27.799999237060547 4 -26.200000762939453
f 466 465 467 468
f 468 467 469 470
f 470 469 471 472
f 472 471 465 466
f 471 469 467 465
f 472 466 468 470
g object_60
v 31.799999237060547 1 -25.799999237060547
v 31.799999237060547 4 -25.799999237060547
v 32.200000762939453 1 -25.799999237060547
v 32.200000762939453 4 -25.799999237060547
v 32.200000762939453 1 -26.200000762939453
v 32.200000762939453 4 -26.200000762939453
v 31.799999237060547 1 -26.200000762939453
v 31.799999237060547 4 -26.200000762939453
f 474 473 475 476
f 476 475 477 478
f 478 477 479 480
f 480 479 473 474
f 479 477 475 473
f 480 474 476 478
g object_61
v 35.799999237060547 1 -25.799999237060547
v 35.799999237060547 4 -25.799999237060547
v 36.200000762939453 1 -25.799999237060547
v 36.200000762939453 4 -25.799999237060547
v 36.200000762939453 1 -26.200000762939453
v 36.200000762939453 4 -26.200000762939453
v 35.799999237060547 1 -26.200000762939453
v 35.799999237060547 4 -26.200000762939453
f 482 481 483 484
f 484 483 485 486
f 486 485 487 488
f 488 487 481 482
f 487 485 483 481
f 488 482 484 486
g object_62
v 39.799999237060547 1 -25.799999237060547
v 39.799999237060547 4 -25.799999237060547
v 40.200000762939453 1 -25.799999237060547
v 40.200000762939453 4 -25.799999237060547
v 40.200000762939453 1 -26.200000762939453
v 40.200000762939453 4 -26.200000762939453
v 39.799999237060547 1 -26.200000762939453
v 39.799999237060547 4 -26.200000762939453
f 490 489 491 492
f 492 491 493 494
f 494 493 495 496
f 496 495 489 490
f 495 493 491 489
f 496 490 492 494
g object_63
v 23.799999237060547 1 -20.799999237060547
v 23.799999237060547 4 -20.799999237060547
v 24.200000762939453 1 -20.799999237060547
v 24.200000762939453 4 -20.799999237060547
v 24.200000762939453 1 -21.200000762939453
v 24.200000762939453 4 -21.200000762939453
v 23.799999237060547 1 -21.200000762939453
v 23.799999237060547 4 -21.200000762939453
f 498 497 499 500
f 500 499 501 502
f 502 501 503 504
f 504 503 497 498
f 503 501 499 497
f 504 498 500 502
g object_64
v 27.799999237060547 1 -20.799999237060547
v 27.799999237060547 4 -20.799999237060547
v 28.200000762939453 1 -20.799999237060547
v 28.200000762939453 4 -20.799999237060547
v 28.200000762939453 1 -21.200000762939453
v 28.200000762939453 4 -21.200000762939453
v 27.799999237060547 1 -21.200000762939453
v 27.799999237060547 4 -21.200000762939453
f 506 505 507 508
f 508 507 509 510
f 510 509 511 512
f 512 511 505 506
f 511 509 507 505
f 512 506 508 510
g object_65
v 31.799999237060547 1 -20.799999237060547
v 31.799999237060547 4 -20.799999237060547
v 32.200000762939453 1 -20.799999237060547
v 32.200000762939453 4 -20.799999237060547
v 32.200000762939453 1 -21.200000762939453
v 32.200000762939453 4 -21.200000762939453
v 31.799999237060547 1 -21.200000762939453
v 31.799999237060547 4 -21.200000762939453
f 514 513 515 516
f 516 515 517 518
f 518 517 519 520
f 520 519 513 514
f 519 517 515 513
f 520 514 516 518
g object_66
v 35.799999237060547 1 -20.799999237060547
v 35.799999237060547 4 -20.799999237060547
v 36.200000762939453 1 -20.799999237060547
v 36.200000762939453 4 -20.799999237060547
v 36.200000762939453 1 -21.200000762939453
v 36.200000762939453 4 -21.200000762939453
v 35.799999237060547 1 -21.200000762939453
v 35.799999237060547 4 -21.200000762939453
f 522 521 523 524
f 524 523 525 526
f 526 525 527 528
f 528 527 521 522
f 527 525 523 521
f 528 522 524 526
g object_67
v 39.799999237060547 1 -20.799999237060547
v 39.799999237060547 4 -20.799999237060547
v 40.200000762939453 1 -20.799999237060547
v 40.200000762939453 4 -20.799999237060547
v 40.200000762939453 1 -21.200000762939453
v 40.200000762939453 4 -21.200000762939453
v 39.799999237060547 1 -21.200000762939453
v 39.799999237060547 4 -21.200000762939453
f 530 529 531 532
f 532 531 533 534
f 534 533 535 536
f 536 535 529 530
f 535 533 531 529
f 536 530 532 534
g object_68
v 23.799999237060547 1 -19.200000762939453
v 23.799999237060547 4 -19.200000762939453
v 23.799999237060547 1 -18.799999237060547
v 23.799999237060547 4 -18.799999237060547
v 24.200000762939453 1 -18.799999237060547
v 24.200000762939453 4 -18.799999237060547
v 24.200000762939453 1 -19.200000762939453
v 24.200000762939453 4 -19.200000762939453
f 538 537 539 540
f 540 539 541 542
f 542 541 543 544
f 544 543 537 538
f 541 539 537 543
f 542 544 538 540
g object_69
v 27.799999237060547 1 -19.200000762939453
v 27.799999237060547 4 -19.200000762939453
v 27.799999237060547 1 -18.799999237060547
v 27.799999237060547 4 -18.799999237060547
v 28.200000762939453 1 -18.799999237060547
v 28.200000762939453 4 -18.799999237060547
v 28.200000762939453 1 -19.200000762939453
v 28.200000762939453 4 -19.200000762939453
f 546 545 547 548
f 548 547 549 550
f 550 549 551 552
f 552 551 545 546
f 549 547 545 551
f 550 552 546 548
g object_70
v 31.799999237060547 1 -19.200000762939453
v 31.799999237060547 4 -19.200000762939453
v 31.799999237060547 1 -18.799999237060547
v 31.799999237060547 4 -18.799999237060547
v 32.200000762939453 1 -18.799999237060547
v 32.200000762939453 4 -18.799999237060547
v 32.200000762939453 1 -19.200000762939453
v 32.200000762939453 4 -19.200000762939453
f 554 553 555 556
f 556 555 557 558
f 558 557 559 560
f 560 559 553 554
f 557 555 553 559
f 558 560 554 556
g object_71
v 35.799999237060547 1 -19.200000762939453
v 35.799999237060547 4 -19.200000762939453
v 35.799999237060547 1 -18.799999237060547
v 35.799999237060547 4 -18.799999237060547
v 36.200000762939453 1 -18.799999237060547
v 36.200000762939453 4 -18.799999237060547
v 36.200000762939453 1 -19.200000762939453
v 36.200000762939453 4 -19.200000762939453
f 562 561 563 564
f 564 563 565 566
f 566 565 567 568
f 568 567 561 562
f 565 563 561 567
f 566 568 562 564
g object_72
v 39.799999237060547 1 -19.200000762939453
v 39.799999237060547 4 -19.200000762939453
v 39.799999237060547 1 -18.799999237060547
v 39.799999237060547 4 -18.799999237060547
v 40.200000762939453 1 -18.799999237060547
v 40.200000762939453 4 -18.799999237060547
v 40.200000762939453 1 -19.200000762939453
v 40.200000762939453 4 -19.200000762939453
f 570 569 571 572
f 572 571 573 574
f 574 573 575 576
f 576 575 569 570
f 573 571 569 575
f 574 576 570 572
