# Rhino

g object_1
v 111.51625823974609 0 -349.05364990234375
v 110.80617523193359 0 -349.05364990234375
v 110.80617523193359 0 -357.47830200195312
v 114.8721923828125 0 -357.47830200195312
v 114.8721923828125 0 -351.54876708984375
v 114.78413391113281 0 -351.54876708984375
v 114.78413391113281 0 -349.05364990234375
v 114.12144470214844 0 -349.05364990234375
v 114.12144470214844 0 -349.5233154296875
v 113.98934936523438 0 -349.5233154296875
v 113.98934936523438 0 -349.05364990234375
v 113.79854583740234 0 -349.05364990234375
v 113.79854583740234 0 -349.5233154296875
v 113.66645050048828 0 -349.5233154296875
v 113.66645050048828 0 -348.90689086914062
v 114.78413391113281 0 -348.90689086914062
v 114.78413391113281 0 -347.46853637695312
v 113.71781921386719 0 -347.46853637695312
v 113.71781921386719 0 -347.35110473632812
v 114.78413391113281 0 -347.35110473632812
v 114.78413391113281 0 -347.17498779296875
v 114.8721923828125 0 -347.17498779296875
v 114.8721923828125 0 -345.96621704101562
v 113.82955932617188 0 -345.96621704101562
v 113.82955932617188 0 -346.82760620117188
v 113.69746398925781 0 -346.82760620117188
v 113.69746398925781 0 -345.83413696289062
v 114.8721923828125 0 -345.83413696289062
v 114.8721923828125 0 -345.17889404296875
v 112.66107177734375 0 -345.17889404296875
v 112.66107177734375 0 -345.06149291992188
v 112.92526245117188 0 -345.06149291992188
v 112.92526245117188 0 -344.41567993164062
v 112.66107177734375 0 -344.41567993164062
v 112.66107177734375 0 -344.29827880859375
v 112.92526245117188 0 -344.29827880859375
v 112.92526245117188 0 -343.65249633789062
v 112.66107177734375 0 -343.65249633789062
v 112.66107177734375 0 -343.03604125976562
v 112.77848815917969 0 -343.03604125976562
v 112.77848815917969 0 -343.53506469726562
v 113.57839202880859 0 -343.53506469726562
v 113.57839202880859 0 -342.47830200195312
v 112.66107177734375 0 -342.47830200195312
v 112.66107177734375 0 -341.8912353515625
v 112.77848815917969 0 -341.8912353515625
v 112.77848815917969 0 -342.36090087890625
v 113.57839202880859 0 -342.36090087890625
v 113.57839202880859 0 -341.8912353515625
v 113.83524322509766 0 -341.8912353515625
v 113.83524322509766 0 -342.00863647460938
v 113.71048736572266 0 -342.00863647460938
v 113.71048736572266 0 -343.65249633789062
v 113.04267883300781 0 -343.65249633789062
v 113.04267883300781 0 -345.06149291992188
v 114.8721923828125 0 -345.06253051757812
v 114.8721923828125 0 -343.65249633789062
v 114.78413391113281 0 -343.65249633789062
v 114.78413391113281 0 -339.27871704101562
v 114.8721923828125 0 -339.27871704101562
v 114.8721923828125 0 -333.37850952148438
v 110.80709075927734 0 -333.37850952148438
v 110.80617523193359 0 -344.47439575195312
v 111.45755004882812 0 -344.47439575195312
v 111.45755004882812 0 -343.94601440429688
v 111.57496643066406 0 -343.94601440429688
v 111.57496643066406 0 -344.56246948242188
v 110.80617523193359 0 -344.56246948242188
v 110.80617523193359 0 -345.09085083007812
v 111.54560852050781 0 -345.09085083007812
v 111.54560852050781 0 -345.208251953125
v 110.80617523193359 0 -345.208251953125
v 110.80617523193359 0 -346.18429565429688
v 111.54560852050781 0 -346.18429565429688
v 111.54560852050781 0 -346.31637573242188
v 110.80617523193359 0 -346.31637573242188
v 110.80617523193359 0 -347.35110473632812
v 111.95657348632812 0 -347.35110473632812
v 111.95657348632812 0 -347.46853637695312
v 110.80617523193359 0 -347.46853637695312
v 110.80617523193359 0 -348.90689086914062
v 111.95657348632812 0 -348.90689086914062
v 111.95657348632812 0 -349.5233154296875
v 111.83915710449219 0 -349.5233154296875
v 111.83915710449219 0 -349.05364990234375
v 111.63367462158203 0 -349.05364990234375
v 111.63367462158203 0 -349.5233154296875
v 111.51625823974609 0 -349.5233154296875
v 112.7564697265625 0 -355.65835571289062
v 112.7564697265625 0 -353.8970947265625
v 112.88856506347656 0 -353.8970947265625
v 112.88856506347656 0 -355.65835571289062
v 112.88856506347656 0 -352.09710693359375
v 112.7564697265625 0 -352.09710693359375
v 112.7564697265625 0 -347.35110473632812
v 112.88856506347656 0 -347.35110473632812
v 111.82064056396484 0 -341.0179443359375
v 113.81672668457031 0 -341.0179443359375
v 113.81672668457031 0 -341.1500244140625
v 111.82064056396484 0 -341.1500244140625
f 88 2 3
f 2 88 1
f 3 87 88
f 87 3 84
f 80 81 82 79
f 75 76 77
f 75 78 74
f 74 71 72 73
f 84 90 83
f 86 87 84 85
f 89 90 84
f 94 83 90
f 13 91 92
f 93 94 90
f 92 89 3
f 95 79 82
f 71 74 78
f 79 95 78
f 95 82 83
f 78 75 77
f 95 83 94
f 96 30 95
f 89 84 3
f 92 3 4
f 95 30 78
f 68 69 70
f 70 71 67
f 66 67 35 38
f 67 68 70
f 63 97 62
f 64 65 63
f 100 65 66
f 66 38 100
f 97 63 65
f 65 100 97
f 67 71 78
f 35 78 34
f 34 31 32 33
f 35 67 78
f 38 35 36 37
f 38 39 100
f 100 44 45
f 44 100 39
f 40 44 39
f 45 46 100
f 42 40 41
f 43 44 40
f 99 100 46 49
f 34 78 31
f 78 30 31
f 97 98 62
f 90 91 93
f 14 96 93
f 14 93 91
f 15 96 14
f 12 13 10 11
f 92 10 13
f 14 91 13
f 26 96 18
f 15 18 96
f 19 26 18
f 96 26 27
f 17 18 15 16
f 19 25 26
f 9 7 8
f 24 25 21
f 5 6 4
f 9 4 6
f 6 7 9
f 9 10 4
f 21 25 20
f 21 22 23
f 21 23 24
f 25 19 20
f 92 4 10
f 55 56 53
f 29 30 27 28
f 42 43 40
f 54 55 53
f 48 49 46 47
f 51 52 53
f 53 58 51
f 56 58 53
f 58 56 57
f 50 98 99
f 99 49 50
f 98 59 61
f 50 51 58
f 59 60 61
f 58 59 50
f 50 59 98
f 62 98 61
f 30 96 27
g object_2
v 110.64728546142578 0 -333.37850952148438
v 106.54232788085938 0 -333.37850952148438
v 106.54232788085938 0 -339.27871704101562
v 106.63038635253906 0 -339.27871704101562
v 106.63038635253906 0 -343.65249633789062
v 106.54232788085938 0 -343.65249633789062
v 106.54232788085938 0 -345.06253051757812
v 108.37184143066406 0 -345.06149291992188
v 108.37184143066406 0 -343.65249633789062
v 107.70403289794922 0 -343.65249633789062
v 107.70403289794922 0 -342.00863647460938
v 107.57927703857422 0 -342.00863647460938
v 107.57927703857422 0 -341.8912353515625
v 107.83612823486328 0 -341.8912353515625
v 107.83612823486328 0 -342.36090087890625
v 108.63603210449219 0 -342.36090087890625
v 108.63603210449219 0 -341.8912353515625
v 108.75344848632812 0 -341.8912353515625
v 108.75344848632812 0 -342.47830200195312
v 107.83612823486328 0 -342.47830200195312
v 107.83612823486328 0 -343.53506469726562
v 108.63603210449219 0 -343.53506469726562
v 108.63603210449219 0 -343.03604125976562
v 108.75344848632812 0 -343.03604125976562
v 108.75344848632812 0 -343.65249633789062
v 108.4892578125 0 -343.65249633789062
v 108.4892578125 0 -344.29827880859375
v 108.75344848632812 0 -344.29827880859375
v 108.75344848632812 0 -344.41567993164062
v 108.4892578125 0 -344.41567993164062
v 108.4892578125 0 -345.06149291992188
v 108.75344848632812 0 -345.06149291992188
v 108.75344848632812 0 -345.17889404296875
v 106.54232788085938 0 -345.17889404296875
v 106.54232788085938 0 -345.83413696289062
v 107.71705627441406 0 -345.83413696289062
v 107.71705627441406 0 -346.82760620117188
v 107.5849609375 0 -346.82760620117188
v 107.5849609375 0 -345.96621704101562
v 106.54232788085938 0 -345.96621704101562
v 106.54232788085938 0 -347.17498779296875
v 106.63038635253906 0 -347.17498779296875
v 106.63038635253906 0 -347.35110473632812
v 107.69669342041016 0 -347.35110473632812
v 107.69669342041016 0 -347.46853637695312
v 106.63038635253906 0 -347.46853637695312
v 106.63038635253906 0 -348.90689086914062
v 107.74806976318359 0 -348.90689086914062
v 107.74806976318359 0 -349.5233154296875
v 107.61597442626953 0 -349.5233154296875
v 107.61597442626953 0 -349.05364990234375
v 107.4251708984375 0 -349.05364990234375
v 107.4251708984375 0 -349.5233154296875
v 107.29307556152344 0 -349.5233154296875
v 107.29307556152344 0 -349.05364990234375
v 106.63038635253906 0 -349.05364990234375
v 106.63038635253906 0 -351.54876708984375
v 106.54232788085938 0 -351.54876708984375
v 106.54232788085938 0 -357.47830200195312
v 110.64633941650391 0 -357.47830200195312
v 110.64823150634766 0 -349.05364990234375
v 109.93785858154297 0 -349.05364990234375
v 109.93785858154297 0 -349.5233154296875
v 109.82044219970703 0 -349.5233154296875
v 109.82044219970703 0 -349.05364990234375
v 109.61495971679688 0 -349.05364990234375
v 109.61495971679688 0 -349.5233154296875
v 109.46819305419922 0 -349.5233154296875
v 109.46819305419922 0 -348.90689086914062
v 110.64823150634766 0 -348.90689086914062
v 110.64823150634766 0 -347.46853637695312
v 109.46819305419922 0 -347.46853637695312
v 109.46819305419922 0 -347.35110473632812
v 110.64823150634766 0 -347.35110473632812
v 110.64823150634766 0 -346.31637573242188
v 109.879150390625 0 -346.31637573242188
v 109.879150390625 0 -346.18429565429688
v 110.64823150634766 0 -346.18429565429688
v 110.64823150634766 0 -345.208251953125
v 109.879150390625 0 -345.208251953125
v 109.879150390625 0 -345.09085083007812
v 110.64823150634766 0 -345.09085083007812
v 110.64823150634766 0 -344.56246948242188
v 109.879150390625 0 -344.56246948242188
v 109.879150390625 0 -343.94601440429688
v 109.99656677246094 0 -343.94601440429688
v 109.99656677246094 0 -344.47439575195312
v 110.64823150634766 0 -344.47439575195312
v 108.66764831542969 0 -352.09710693359375
v 108.53555297851562 0 -352.09710693359375
v 108.53555297851562 0 -347.35110473632812
v 108.66764831542969 0 -347.35110473632812
v 108.53555297851562 0 -355.65835571289062
v 108.53555297851562 0 -353.8970947265625
v 108.66764831542969 0 -353.8970947265625
v 108.66764831542969 0 -355.65835571289062
v 107.57927703857422 0 -341.1500244140625
v 107.57927703857422 0 -341.0179443359375
v 109.57536315917969 0 -341.0179443359375
v 109.57536315917969 0 -341.1500244140625
f 157 158 159
f 154 157 159
f 155 156 154
f 157 154 156
f 154 159 153
f 142 140 141
f 145 146 147 148
f 142 139 140
f 142 143 138
f 152 153 150 151
f 193 150 153
f 194 190 149
f 149 150 194
f 150 193 194
f 191 148 149
f 193 153 159
f 138 139 142
f 191 137 145
f 138 144 137
f 145 137 144
f 136 191 133
f 143 144 138
f 191 145 148
f 193 159 160
f 133 134 135 136
f 107 105 106
f 105 107 110
f 112 113 105
f 102 103 104
f 198 102 104
f 198 104 197
f 197 104 105
f 197 113 114
f 105 113 197
f 117 118 200
f 110 107 108
f 105 110 112
f 137 191 136
f 110 108 109
f 129 130 131 132
f 115 116 117 114
f 200 197 114 117
f 120 121 123
f 126 127 128 125
f 112 110 111
f 149 190 191
f 167 195 196
f 189 194 195
f 189 195 168
f 167 168 195
f 192 189 168
f 167 196 160
f 169 192 168
f 172 192 169
f 192 172 173
f 192 173 133
f 165 166 167 164
f 194 189 190
f 160 163 164
f 162 163 161
f 160 161 163
f 160 164 167
f 170 171 172 169
f 176 177 173
f 173 174 176
f 176 174 175
f 178 179 180 177
f 160 196 193
f 173 177 180
f 129 173 128
f 173 129 132
f 200 125 128
f 133 173 132
f 119 120 123
f 123 124 119
f 200 119 124
f 200 118 119
f 124 125 200
f 121 122 123
f 185 173 184
f 173 185 128
f 183 184 181
f 181 182 183
f 186 199 200
f 185 200 128
f 185 186 200
f 186 187 188
f 186 188 199
f 101 199 188
f 101 102 199
f 173 181 184
f 181 173 180
f 199 102 198
f 133 191 192
g object_3
v 111.61222076416016 8 -341.78695678710938
v 110.90129852294922 8 -341.78695678710938
v 110.90129852294922 8 -333.37850952148438
v 114.96816253662109 8 -333.37850952148438
v 114.96816253662109 8 -339.29183959960938
v 114.88009643554688 8 -339.29183959960938
v 114.88009643554688 8 -341.78695678710938
v 114.2174072265625 8 -341.78695678710938
v 114.2174072265625 8 -341.31729125976562
v 114.08531951904297 8 -341.31729125976562
v 114.08531951904297 8 -341.78695678710938
v 113.88676452636719 8 -341.78695678710938
v 113.88676452636719 8 -341.31729125976562
v 113.75466918945312 8 -341.31729125976562
v 113.75466918945312 8 -341.93374633789062
v 114.88009643554688 8 -341.93374633789062
v 114.88009643554688 8 -343.37210083007812
v 113.81378936767578 8 -343.37210083007812
v 113.81378936767578 8 -343.489501953125
v 114.88009643554688 8 -343.489501953125
v 114.88009643554688 8 -343.66561889648438
v 114.96816253662109 8 -343.66561889648438
v 114.96816253662109 8 -344.89642333984375
v 113.93327331542969 8 -344.89642333984375
v 113.93327331542969 8 -344.01300048828125
v 113.80117797851562 8 -344.01300048828125
v 113.80117797851562 8 -344.98446655273438
v 114.96816253662109 8 -344.98446655273438
v 114.96816253662109 8 -345.66171264648438
v 112.75703430175781 8 -345.66171264648438
v 112.75703430175781 8 -345.77914428710938
v 113.02122497558594 8 -345.77914428710938
v 113.02122497558594 8 -346.4249267578125
v 112.75703430175781 8 -346.4249267578125
v 112.75703430175781 8 -346.5423583984375
v 113.02122497558594 8 -346.5423583984375
v 113.02122497558594 8 -347.18814086914062
v 112.75703430175781 8 -347.18814086914062
v 112.75703430175781 8 -347.8045654296875
v 112.87445831298828 8 -347.8045654296875
v 112.87445831298828 8 -347.3055419921875
v 113.67435455322266 8 -347.3055419921875
v 113.67435455322266 8 -348.3623046875
v 112.75703430175781 8 -348.3623046875
v 112.75703430175781 8 -348.94940185546875
v 112.87445831298828 8 -348.94940185546875
v 112.87445831298828 8 -348.479736328125
v 113.67435455322266 8 -348.479736328125
v 113.67435455322266 8 -348.94940185546875
v 113.93120574951172 8 -348.94940185546875
v 113.93120574951172 8 -348.83197021484375
v 113.80644989013672 8 -348.83197021484375
v 113.80644989013672 8 -347.18814086914062
v 113.13864135742188 8 -347.18814086914062
v 113.13864135742188 8 -345.77914428710938
v 114.96816253662109 8 -345.778076171875
v 114.96816253662109 8 -347.18814086914062
v 114.88009643554688 8 -347.18814086914062
v 114.88009643554688 8 -351.56192016601562
v 114.96816253662109 8 -351.56192016601562
v 114.96635437011719 8 -352.47967529296875
v 110.90013885498047 8 -352.47967529296875
v 110.90129852294922 8 -346.38824462890625
v 111.55351257324219 8 -346.38824462890625
v 111.55351257324219 8 -346.89459228515625
v 111.67092895507812 8 -346.89459228515625
v 111.67092895507812 8 -346.25613403320312
v 110.90129852294922 8 -346.25613403320312
v 110.90129852294922 8 -345.74978637695312
v 111.64157867431641 8 -345.74978637695312
v 111.64157867431641 8 -345.63235473632812
v 110.90129852294922 8 -345.63235473632812
v 110.90129852294922 8 -344.65634155273438
v 111.64157867431641 8 -344.65634155273438
v 111.64157867431641 8 -344.52423095703125
v 110.90129852294922 8 -344.52423095703125
v 110.90129852294922 8 -343.489501953125
v 112.05253601074219 8 -343.489501953125
v 112.05253601074219 8 -343.37210083007812
v 110.90129852294922 8 -343.37210083007812
v 110.90129852294922 8 -341.93374633789062
v 112.05253601074219 8 -341.93374633789062
v 112.05253601074219 8 -341.31729125976562
v 111.93511962890625 8 -341.31729125976562
v 111.93511962890625 8 -341.78695678710938
v 111.72963714599609 8 -341.78695678710938
v 111.72963714599609 8 -341.31729125976562
v 111.61222076416016 8 -341.31729125976562
v 111.88383483886719 8 -348.60726928710938
v 111.03703308105469 8 -348.60726928710938
v 111.03703308105469 8 -351.59075927734375
v 111.88383483886719 8 -351.59075927734375
v 112.85243988037109 8 -335.1822509765625
v 112.85243988037109 8 -336.94351196289062
v 112.98453521728516 8 -336.94351196289062
v 112.98453521728516 8 -335.1822509765625
v 112.98453521728516 8 -338.7435302734375
v 112.85243988037109 8 -338.7435302734375
v 112.85243988037109 8 -343.489501953125
v 112.98453521728516 8 -343.489501953125
f 288 202 203
f 288 201 202
f 288 203 287
f 275 276 277
f 272 273 274 271
f 278 274 275
f 280 281 282 279
f 284 285 286 287
f 294 284 287
f 294 283 284
f 283 294 298
f 294 297 298
f 299 300 230
f 294 287 203
f 294 203 293
f 299 283 298
f 278 271 274
f 299 279 282
f 267 271 278
f 279 299 278
f 299 282 283
f 278 275 277
f 299 230 278
f 293 203 296
f 269 270 268
f 235 289 267
f 270 267 268
f 265 263 264
f 291 262 290
f 263 290 262
f 291 292 262
f 289 265 266
f 267 289 266
f 290 265 289
f 265 290 263
f 267 270 271
f 231 234 267
f 234 231 232 233
f 234 235 267
f 238 235 236 237
f 238 239 289
f 235 238 289
f 289 244 245
f 244 289 239
f 240 244 239
f 292 289 245
f 240 241 242
f 292 245 246
f 243 244 240
f 249 292 246
f 231 267 278
f 230 231 278
f 261 262 292
f 210 213 295
f 214 297 295
f 294 295 297
f 295 213 214
f 300 297 214
f 206 295 296
f 219 226 300
f 214 215 300
f 215 218 300
f 226 227 300
f 226 219 225
f 300 218 219
f 215 216 217 218
f 212 213 210 211
f 206 209 210
f 205 206 204
f 295 206 210
f 207 209 206
f 206 296 204
f 209 207 208
f 225 219 220
f 224 225 221
f 221 225 220
f 204 296 203
f 222 223 221
f 229 230 227 228
f 242 243 240
f 254 255 253
f 248 249 246 247
f 292 249 261
f 253 255 256
f 224 221 223
f 253 258 251
f 253 256 258
f 257 258 256
f 252 253 251
f 250 251 258
f 249 250 261
f 258 259 250
f 259 260 261
f 250 259 261
f 230 300 227
g object_4
v 110.74219512939453 8 -352.47967529296875
v 106.63648986816406 8 -352.47967529296875
v 106.63829040527344 8 -351.56192016601562
v 106.72635650634766 8 -351.56192016601562
v 106.72635650634766 8 -347.18814086914062
v 106.63829040527344 8 -347.18814086914062
v 106.63829040527344 8 -345.778076171875
v 108.46781158447266 8 -345.77914428710938
v 108.46781158447266 8 -347.18814086914062
v 107.80000305175781 8 -347.18814086914062
v 107.80000305175781 8 -348.83197021484375
v 107.67524719238281 8 -348.83197021484375
v 107.67524719238281 8 -348.94940185546875
v 107.93209838867188 8 -348.94940185546875
v 107.93209838867188 8 -348.479736328125
v 108.73199462890625 8 -348.479736328125
v 108.73199462890625 8 -348.94940185546875
v 108.84941101074219 8 -348.94940185546875
v 108.84941101074219 8 -348.3623046875
v 107.93209838867188 8 -348.3623046875
v 107.93209838867188 8 -347.3055419921875
v 108.73199462890625 8 -347.3055419921875
v 108.73199462890625 8 -347.8045654296875
v 108.84941101074219 8 -347.8045654296875
v 108.84941101074219 8 -347.18814086914062
v 108.58522796630859 8 -347.18814086914062
v 108.58522796630859 8 -346.5423583984375
v 108.84941101074219 8 -346.5423583984375
v 108.84941101074219 8 -346.4249267578125
v 108.58522796630859 8 -346.4249267578125
v 108.58522796630859 8 -345.77914428710938
v 108.84941101074219 8 -345.77914428710938
v 108.84941101074219 8 -345.66171264648438
v 106.63829040527344 8 -345.66171264648438
v 106.63829040527344 8 -344.98446655273438
v 107.80527496337891 8 -344.98446655273438
v 107.80527496337891 8 -344.01300048828125
v 107.67317962646484 8 -344.01300048828125
v 107.67317962646484 8 -344.89642333984375
v 106.63829040527344 8 -344.89642333984375
v 106.63829040527344 8 -343.66561889648438
v 106.72635650634766 8 -343.66561889648438
v 106.72635650634766 8 -343.489501953125
v 107.79266357421875 8 -343.489501953125
v 107.79266357421875 8 -343.37210083007812
v 106.72635650634766 8 -343.37210083007812
v 106.72635650634766 8 -341.93374633789062
v 107.85178375244141 8 -341.93374633789062
v 107.85178375244141 8 -341.31729125976562
v 107.71968841552734 8 -341.31729125976562
v 107.71968841552734 8 -341.78695678710938
v 107.52113342285156 8 -341.78695678710938
v 107.52113342285156 8 -341.31729125976562
v 107.38904571533203 8 -341.31729125976562
v 107.38904571533203 8 -341.78695678710938
v 106.72635650634766 8 -341.78695678710938
v 106.72635650634766 8 -339.29183959960938
v 106.63829040527344 8 -339.29183959960938
v 106.63829040527344 8 -333.37850952148438
v 110.74333190917969 8 -333.37850952148438
v 110.74465942382812 8 -341.78695678710938
v 110.03382110595703 8 -341.78695678710938
v 110.03382110595703 8 -341.31729125976562
v 109.91640472412109 8 -341.31729125976562
v 109.91640472412109 8 -341.78695678710938
v 109.71092987060547 8 -341.78695678710938
v 109.71092987060547 8 -341.31729125976562
v 109.56415557861328 8 -341.31729125976562
v 109.56415557861328 8 -341.93374633789062
v 110.74465942382812 8 -341.93374633789062
v 110.74465942382812 8 -343.37210083007812
v 109.56415557861328 8 -343.37210083007812
v 109.56415557861328 8 -343.489501953125
v 110.74465942382812 8 -343.489501953125
v 110.74465942382812 8 -344.52423095703125
v 109.97511291503906 8 -344.52423095703125
v 109.97511291503906 8 -344.65634155273438
v 110.74465942382812 8 -344.65634155273438
v 110.74465942382812 8 -345.63235473632812
v 109.97511291503906 8 -345.63235473632812
v 109.97511291503906 8 -345.74978637695312
v 110.74465942382812 8 -345.74978637695312
v 110.74465942382812 8 -346.25613403320312
v 109.97511291503906 8 -346.25613403320312
v 109.97511291503906 8 -346.89459228515625
v 110.09253692626953 8 -346.89459228515625
v 110.09253692626953 8 -346.38824462890625
v 110.74465942382812 8 -346.38824462890625
v 110.61421966552734 8 -351.59075927734375
v 110.61421966552734 8 -348.60726928710938
v 109.76741790771484 8 -348.60726928710938
v 109.76741790771484 8 -351.59075927734375
v 108.76361083984375 8 -338.7435302734375
v 108.63152313232422 8 -338.7435302734375
v 108.63152313232422 8 -343.489501953125
v 108.76361083984375 8 -343.489501953125
v 108.63152313232422 8 -335.1822509765625
v 108.63152313232422 8 -336.94351196289062
v 108.76361083984375 8 -336.94351196289062
v 108.76361083984375 8 -335.1822509765625
f 357 358 359
f 353 354 357
f 355 356 354
f 357 354 356
f 345 346 347 348
f 338 342 343
f 342 340 341
f 359 397 357
f 353 350 351 352
f 398 350 353
f 398 349 350
f 357 398 353
f 394 398 399 393
f 349 398 394
f 398 357 397
f 395 349 394
f 338 343 344
f 345 395 344
f 349 395 348
f 338 344 337
f 395 337 344
f 333 336 395
f 348 395 345
f 397 359 360
f 338 339 342
f 340 342 339
f 305 306 307
f 334 335 336
f 336 333 334
f 304 302 303
f 313 302 304
f 313 305 312
f 305 310 312
f 304 305 313
f 314 302 313
f 305 307 310
f 310 307 308
f 337 395 336
f 310 308 309
f 329 330 331 332
f 315 316 317 314
f 302 314 392
f 320 321 323
f 326 327 328 325
f 312 310 311
f 360 364 399
f 368 393 399
f 399 367 368
f 399 364 367
f 367 364 365 366
f 360 399 400
f 396 393 368
f 372 396 369
f 368 369 396
f 373 396 372
f 372 369 370 371
f 373 333 396
f 396 333 395
f 361 362 363
f 364 360 363
f 360 361 363
f 373 376 377
f 380 377 378
f 373 377 380
f 376 374 375
f 380 378 379
f 376 373 374
f 360 400 397
f 380 381 373
f 328 329 384
f 332 384 329
f 391 325 328
f 333 373 332
f 323 319 320
f 323 324 319
f 391 319 324
f 391 318 319
f 392 317 318
f 324 325 391
f 323 321 322
f 381 382 384
f 328 384 391
f 373 381 384
f 386 387 388
f 384 385 391
f 385 386 391
f 318 391 392
f 388 390 386
f 392 389 301
f 390 301 389
f 301 390 388
f 386 390 391
f 302 392 301
f 384 332 373
f 384 382 383
f 314 317 392
g object_5
v 106.51363372802734 4 -339.25006103515625
v 106.59714508056641 4 -339.25006103515625
v 106.59712219238281 4 -343.92111206054688
v 108.58280944824219 4 -343.92108154296875
v 108.58280944824219 4 -342.6304931640625
v 108.69721221923828 4 -342.6304931640625
v 108.69721221923828 4 -343.921142578125
v 108.76328277587891 4 -343.921142578125
v 108.76328277587891 4 -344.03854370117188
v 106.59712219238281 4 -344.03854370117188
v 106.59712219238281 4 -346.75515747070312
v 108.76355743408203 4 -346.75515747070312
v 108.76355743408203 4 -346.87255859375
v 108.69748687744141 4 -346.87255859375
v 108.69748687744141 4 -348.7493896484375
v 108.58308410644531 4 -348.7493896484375
v 108.58308410644531 4 -346.87261962890625
v 106.59712219238281 4 -346.87289428710938
v 106.59714508056641 4 -351.5455322265625
v 106.51363372802734 4 -351.5455322265625
v 106.51114654541016 4 -357.47421264648438
v 110.64195251464844 4 -357.47506713867188
v 110.64195251464844 4 -349.03012084960938
v 109.44797515869141 4 -349.03012084960938
v 109.44797515869141 4 -348.46527099609375
v 109.57668304443359 4 -348.46527099609375
v 109.57668304443359 4 -348.90142822265625
v 110.64195251464844 4 -348.90142822265625
v 110.64195251464844 4 -346.87445068359375
v 109.46778106689453 4 -346.87445068359375
v 109.45999908447266 4 -346.75701904296875
v 111.93486785888672 4 -346.75701904296875
v 111.93486785888672 4 -346.87445068359375
v 110.76069641113281 4 -346.87445068359375
v 110.76069641113281 4 -348.90142822265625
v 111.82596588134766 4 -348.90142822265625
v 111.82596588134766 4 -348.46527099609375
v 111.95467376708984 4 -348.46527099609375
v 111.95467376708984 4 -349.03012084960938
v 110.76069641113281 4 -349.03012084960938
v 110.76069641113281 4 -357.47506713867188
v 114.85025787353516 4 -357.47320556640625
v 114.85025787353516 4 -351.54367065429688
v 114.76219177246094 4 -351.54367065429688
v 114.76474761962891 4 -346.87258911132812
v 112.78134155273438 4 -346.87261962890625
v 112.78134155273438 4 -348.7493896484375
v 112.66693878173828 4 -348.7493896484375
v 112.66693878173828 4 -346.87255859375
v 112.60086822509766 4 -346.87255859375
v 112.60086822509766 4 -346.75515747070312
v 114.85025787353516 4 -346.75515747070312
v 114.85025787353516 4 -344.03854370117188
v 112.60114288330078 4 -344.03854370117188
v 112.60114288330078 4 -343.921142578125
v 112.66722106933594 4 -343.921142578125
v 112.66722106933594 4 -342.6304931640625
v 112.78162384033203 4 -342.6304931640625
v 112.78162384033203 4 -343.92108154296875
v 114.764892578125 4 -343.92111206054688
v 114.76247406005859 4 -339.25006103515625
v 114.85053253173828 4 -339.25006103515625
v 114.85053253173828 4 -338.35726928710938
v 110.76069641113281 4 -338.35726928710938
v 110.76069641113281 4 -342.35162353515625
v 111.95467376708984 4 -342.35162353515625
v 111.95467376708984 4 -342.91650390625
v 111.82596588134766 4 -342.91650390625
v 111.82596588134766 4 -342.48031616210938
v 110.76069641113281 4 -342.48031616210938
v 110.76069641113281 4 -343.921142578125
v 111.93486785888672 4 -343.921142578125
v 111.93486785888672 4 -344.03854370117188
v 109.46778106689453 4 -344.03854370117188
v 109.46778106689453 4 -343.921142578125
v 110.64195251464844 4 -343.921142578125
v 110.64195251464844 4 -342.48031616210938
v 109.57668304443359 4 -342.48031616210938
v 109.57668304443359 4 -342.91650390625
v 109.44797515869141 4 -342.91650390625
v 109.44797515869141 4 -342.35162353515625
v 110.64195251464844 4 -342.35162353515625
v 110.64195251464844 4 -338.35726928710938
v 106.51294708251953 4 -338.35726928710938
v 110.48992156982422 4 -339.24575805664062
v 110.48992156982422 4 -342.229248046875
v 109.64311981201172 4 -342.229248046875
v 109.64311981201172 4 -339.24575805664062
v 110.91272735595703 4 -339.24575805664062
v 111.75952911376953 4 -339.24575805664062
v 111.75952911376953 4 -342.229248046875
v 110.91272735595703 4 -342.229248046875
f 419 420 421
f 416 419 415
f 419 422 415
f 422 419 421
f 416 418 419
f 416 417 418
f 411 409 410
f 411 412 409
f 414 415 413
f 413 415 425
f 425 430 413
f 424 422 423
f 425 415 424
f 428 426 427
f 412 413 431
f 413 430 431
f 409 431 474
f 426 429 430
f 428 429 426
f 431 432 473 474
f 430 425 426
f 412 431 409
f 422 424 415
f 474 475 408 409
f 408 406 407
f 405 403 404
f 402 484 401
f 402 488 484
f 480 406 408
f 406 488 405
f 405 488 402
f 402 403 405
f 480 481 406
f 480 408 475
f 475 479 480
f 476 479 475
f 478 479 477
f 476 477 479
f 481 482 487
f 481 487 488
f 485 486 482 483
f 488 485 483
f 482 486 487
f 484 488 483
f 406 481 488
f 439 440 441
f 437 435 436
f 439 441 444
f 433 434 437
f 435 437 434
f 438 433 437
f 451 473 432
f 432 433 450 451
f 433 438 450
f 438 439 448
f 444 447 448
f 447 445 446
f 443 444 442
f 439 444 448
f 444 445 447
f 444 441 442
f 473 451 454
f 448 449 450
f 451 452 453 454
f 438 448 450
f 454 455 472 473
f 468 469 470
f 471 472 468
f 466 491 465
f 492 489 465
f 470 471 468
f 465 489 464
f 491 466 490
f 464 489 490
f 465 491 492
f 463 464 490
f 472 467 468
f 455 457 467
f 472 455 467
f 455 456 457
f 460 458 459
f 490 457 458
f 467 457 466
f 490 458 461
f 463 461 462
f 460 461 458
f 461 463 490
f 466 457 490
