# Rhino

mtllib grids.mtl
g object_1
usemtl Default
v 226.63139197529324 20 -55.249999999999915
v 367.23336377581478 20 -55.249999999999915
cstype bspline
deg 1
curv 0 1 1 2
parm u 0 0 1 1
end
g object_2
usemtl Default
v 226.63139197529324 20 -76.749999999999915
v 367.23336377581478 20 -76.749999999999915
cstype bspline
deg 1
curv 0 1 3 4
parm u 0 0 1 1
end
g object_3
usemtl Default
v 226.63139197529324 20 -57.249999999999915
v 367.23336377581478 20 -57.249999999999915
cstype bspline
deg 1
curv 0 1 5 6
parm u 0 0 1 1
end
g object_4
usemtl Default
v 226.63139197529324 20 -58.749999999999915
v 367.23336377581478 20 -58.749999999999915
cstype bspline
deg 1
curv 0 1 7 8
parm u 0 0 1 1
end
g object_5
usemtl Default
v 226.63139197529324 20 -60.749999999999915
v 367.23336377581478 20 -60.749999999999915
cstype bspline
deg 1
curv 0 1 9 10
parm u 0 0 1 1
end
g object_6
usemtl Default
v 226.63139197529324 20 -61.249999999999915
v 367.23336377581478 20 -61.249999999999915
cstype bspline
deg 1
curv 0 1 11 12
parm u 0 0 1 1
end
g object_7
usemtl Default
v 226.63139197529324 20 -74.749999999999915
v 367.23336377581478 20 -74.749999999999915
cstype bspline
deg 1
curv 0 1 13 14
parm u 0 0 1 1
end
g object_8
usemtl Default
v 226.63139197529324 20 -64.249999999999915
v 367.23336377581478 20 -64.249999999999915
cstype bspline
deg 1
curv 0 1 15 16
parm u 0 0 1 1
end
g object_9
usemtl Default
v 226.63139197529324 20 -64.749999999999915
v 367.23336377581478 20 -64.749999999999915
cstype bspline
deg 1
curv 0 1 17 18
parm u 0 0 1 1
end
g object_10
usemtl Default
v 226.63139197529324 20 -65.249999999999915
v 367.23336377581478 20 -65.249999999999915
cstype bspline
deg 1
curv 0 1 19 20
parm u 0 0 1 1
end
g object_11
usemtl Default
v 226.63139197529324 20 -65.749999999999915
v 367.23336377581478 20 -65.749999999999915
cstype bspline
deg 1
curv 0 1 21 22
parm u 0 0 1 1
end
g object_12
usemtl Default
v 226.63139197529324 20 -66.249999999999915
v 367.23336377581478 20 -66.249999999999915
cstype bspline
deg 1
curv 0 1 23 24
parm u 0 0 1 1
end
g object_13
usemtl Default
v 226.63139197529324 20 -67.749999999999915
v 367.23336377581478 20 -67.749999999999915
cstype bspline
deg 1
curv 0 1 25 26
parm u 0 0 1 1
end
g object_14
usemtl Default
v 226.63139197529324 20 -68.249999999999915
v 367.23336377581478 20 -68.249999999999915
cstype bspline
deg 1
curv 0 1 27 28
parm u 0 0 1 1
end
g object_15
usemtl Default
v 226.63139197529324 20 -68.749999999999915
v 367.23336377581478 20 -68.749999999999915
cstype bspline
deg 1
curv 0 1 29 30
parm u 0 0 1 1
end
g object_16
usemtl Default
v 226.63139197529324 20 -69.249999999999915
v 367.23336377581478 20 -69.249999999999915
cstype bspline
deg 1
curv 0 1 31 32
parm u 0 0 1 1
end
g object_17
usemtl Default
v 226.63139197529324 20 -69.749999999999915
v 367.23336377581478 20 -69.749999999999915
cstype bspline
deg 1
curv 0 1 33 34
parm u 0 0 1 1
end
g object_18
usemtl Default
v 226.63139197529324 20 -70.249999999999915
v 367.23336377581478 20 -70.249999999999915
cstype bspline
deg 1
curv 0 1 35 36
parm u 0 0 1 1
end
g object_19
usemtl Default
v 226.63139197529324 20 -72.749999999999915
v 367.23336377581478 20 -72.749999999999915
cstype bspline
deg 1
curv 0 1 37 38
parm u 0 0 1 1
end
g object_20
usemtl Default
v 226.63139197529324 20 -73.249999999999915
v 367.23336377581478 20 -73.249999999999915
cstype bspline
deg 1
curv 0 1 39 40
parm u 0 0 1 1
end
g object_21
usemtl Default
v 226.63139197529324 20 -74.249999999999915
v 367.23336377581478 20 -74.249999999999915
cstype bspline
deg 1
curv 0 1 41 42
parm u 0 0 1 1
end
g object_22
usemtl Default
v 361.25000000000006 20 -81.845742629750902
v 361.25000000000006 20 -50.336382680861362
cstype bspline
deg 1
curv 0 1 43 44
parm u 0 0 1 1
end
g object_23
usemtl Default
v 355.75000000000006 20 -81.845742629750902
v 355.75000000000006 20 -50.336382680861362
cstype bspline
deg 1
curv 0 1 45 46
parm u 0 0 1 1
end
g object_24
usemtl Default
v 350.75000000000006 20 -81.845742629750902
v 350.75000000000006 20 -50.336382680861362
cstype bspline
deg 1
curv 0 1 47 48
parm u 0 0 1 1
end
g object_25
usemtl Default
v 348.75000000000006 20 -81.845742629750902
v 348.75000000000006 20 -50.336382680861362
cstype bspline
deg 1
curv 0 1 49 50
parm u 0 0 1 1
end
g object_26
usemtl Default
v 348.25000000000006 20 -81.845742629750902
v 348.25000000000006 20 -50.336382680861362
cstype bspline
deg 1
curv 0 1 51 52
parm u 0 0 1 1
end
g object_27
usemtl Default
v 344.75000000000006 20 -81.845742629750902
v 344.75000000000006 20 -50.336382680861362
cstype bspline
deg 1
curv 0 1 53 54
parm u 0 0 1 1
end
g object_28
usemtl Default
v 344.25000000000006 20 -81.845742629750902
v 344.25000000000006 20 -50.336382680861362
cstype bspline
deg 1
curv 0 1 55 56
parm u 0 0 1 1
end
g object_29
usemtl Default
v 343.75000000000006 20 -81.845742629750902
v 343.75000000000006 20 -50.336382680861362
cstype bspline
deg 1
curv 0 1 57 58
parm u 0 0 1 1
end
g object_30
usemtl Default
v 341.25000000000006 20 -81.845742629750902
v 341.25000000000006 20 -50.336382680861362
cstype bspline
deg 1
curv 0 1 59 60
parm u 0 0 1 1
end
g object_31
usemtl Default
v 340.75000000000006 20 -81.845742629750902
v 340.75000000000006 20 -50.336382680861362
cstype bspline
deg 1
curv 0 1 61 62
parm u 0 0 1 1
end
g object_32
usemtl Default
v 340.25000000000006 20 -81.845742629750902
v 340.25000000000006 20 -50.336382680861362
cstype bspline
deg 1
curv 0 1 63 64
parm u 0 0 1 1
end
g object_33
usemtl Default
v 339.75000000000006 20 -81.845742629750902
v 339.75000000000006 20 -50.336382680861362
cstype bspline
deg 1
curv 0 1 65 66
parm u 0 0 1 1
end
g object_34
usemtl Default
v 338.75000000000006 20 -81.845742629750902
v 338.75000000000006 20 -50.336382680861362
cstype bspline
deg 1
curv 0 1 67 68
parm u 0 0 1 1
end
g object_35
usemtl Default
v 338.25000000000006 20 -81.845742629750902
v 338.25000000000006 20 -50.336382680861362
cstype bspline
deg 1
curv 0 1 69 70
parm u 0 0 1 1
end
g object_36
usemtl Default
v 337.25000000000006 20 -81.845742629750902
v 337.25000000000006 20 -50.336382680861362
cstype bspline
deg 1
curv 0 1 71 72
parm u 0 0 1 1
end
g object_37
usemtl Default
v 336.75000000000006 20 -81.845742629750902
v 336.75000000000006 20 -50.336382680861362
cstype bspline
deg 1
curv 0 1 73 74
parm u 0 0 1 1
end
g object_38
usemtl Default
v 336.25000000000006 20 -81.845742629750902
v 336.25000000000006 20 -50.336382680861362
cstype bspline
deg 1
curv 0 1 75 76
parm u 0 0 1 1
end
g object_39
usemtl Default
v 335.75000000000006 20 -81.845742629750902
v 335.75000000000006 20 -50.336382680861362
cstype bspline
deg 1
curv 0 1 77 78
parm u 0 0 1 1
end
g object_40
usemtl Default
v 334.75000000000006 20 -81.845742629750902
v 334.75000000000006 20 -50.336382680861362
cstype bspline
deg 1
curv 0 1 79 80
parm u 0 0 1 1
end
g object_41
usemtl Default
v 334.25000000000006 20 -81.845742629750902
v 334.25000000000006 20 -50.336382680861362
cstype bspline
deg 1
curv 0 1 81 82
parm u 0 0 1 1
end
g object_42
usemtl Default
v 333.25000000000006 20 -81.845742629750902
v 333.25000000000006 20 -50.336382680861362
cstype bspline
deg 1
curv 0 1 83 84
parm u 0 0 1 1
end
g object_43
usemtl Default
v 332.75000000000006 20 -81.845742629750902
v 332.75000000000006 20 -50.336382680861362
cstype bspline
deg 1
curv 0 1 85 86
parm u 0 0 1 1
end
g object_44
usemtl Default
v 332.25000000000006 20 -81.845742629750902
v 332.25000000000006 20 -50.336382680861362
cstype bspline
deg 1
curv 0 1 87 88
parm u 0 0 1 1
end
g object_45
usemtl Default
v 331.75000000000006 20 -81.845742629750902
v 331.75000000000006 20 -50.336382680861362
cstype bspline
deg 1
curv 0 1 89 90
parm u 0 0 1 1
end
g object_46
usemtl Default
v 330.75000000000006 20 -81.845742629750902
v 330.75000000000006 20 -50.336382680861362
cstype bspline
deg 1
curv 0 1 91 92
parm u 0 0 1 1
end
g object_47
usemtl Default
v 330.25000000000006 20 -81.845742629750902
v 330.25000000000006 20 -50.336382680861362
cstype bspline
deg 1
curv 0 1 93 94
parm u 0 0 1 1
end
g object_48
usemtl Default
v 329.25000000000006 20 -81.845742629750902
v 329.25000000000006 20 -50.336382680861362
cstype bspline
deg 1
curv 0 1 95 96
parm u 0 0 1 1
end
g object_49
usemtl Default
v 328.75000000000006 20 -81.845742629750902
v 328.75000000000006 20 -50.336382680861362
cstype bspline
deg 1
curv 0 1 97 98
parm u 0 0 1 1
end
g object_50
usemtl Default
v 328.25000000000006 20 -81.845742629750902
v 328.25000000000006 20 -50.336382680861362
cstype bspline
deg 1
curv 0 1 99 100
parm u 0 0 1 1
end
g object_51
usemtl Default
v 327.75000000000006 20 -81.845742629750902
v 327.75000000000006 20 -50.336382680861362
cstype bspline
deg 1
curv 0 1 101 102
parm u 0 0 1 1
end
g object_52
usemtl Default
v 326.75000000000006 20 -81.845742629750902
v 326.75000000000006 20 -50.336382680861362
cstype bspline
deg 1
curv 0 1 103 104
parm u 0 0 1 1
end
g object_53
usemtl Default
v 326.25000000000006 20 -81.845742629750902
v 326.25000000000006 20 -50.336382680861362
cstype bspline
deg 1
curv 0 1 105 106
parm u 0 0 1 1
end
g object_54
usemtl Default
v 325.25000000000006 20 -81.845742629750902
v 325.25000000000006 20 -50.336382680861362
cstype bspline
deg 1
curv 0 1 107 108
parm u 0 0 1 1
end
g object_55
usemtl Default
v 324.75000000000006 20 -81.845742629750902
v 324.75000000000006 20 -50.336382680861362
cstype bspline
deg 1
curv 0 1 109 110
parm u 0 0 1 1
end
g object_56
usemtl Default
v 324.25000000000006 20 -81.845742629750902
v 324.25000000000006 20 -50.336382680861362
cstype bspline
deg 1
curv 0 1 111 112
parm u 0 0 1 1
end
g object_57
usemtl Default
v 323.75000000000006 20 -81.845742629750902
v 323.75000000000006 20 -50.336382680861362
cstype bspline
deg 1
curv 0 1 113 114
parm u 0 0 1 1
end
g object_58
usemtl Default
v 322.75000000000006 20 -81.845742629750902
v 322.75000000000006 20 -50.336382680861362
cstype bspline
deg 1
curv 0 1 115 116
parm u 0 0 1 1
end
g object_59
usemtl Default
v 322.25000000000006 20 -81.845742629750902
v 322.25000000000006 20 -50.336382680861362
cstype bspline
deg 1
curv 0 1 117 118
parm u 0 0 1 1
end
g object_60
usemtl Default
v 321.25000000000006 20 -81.845742629750902
v 321.25000000000006 20 -50.336382680861362
cstype bspline
deg 1
curv 0 1 119 120
parm u 0 0 1 1
end
g object_61
usemtl Default
v 320.75000000000006 20 -81.845742629750902
v 320.75000000000006 20 -50.336382680861362
cstype bspline
deg 1
curv 0 1 121 122
parm u 0 0 1 1
end
g object_62
usemtl Default
v 320.25000000000006 20 -81.845742629750902
v 320.25000000000006 20 -50.336382680861362
cstype bspline
deg 1
curv 0 1 123 124
parm u 0 0 1 1
end
g object_63
usemtl Default
v 319.75000000000006 20 -81.845742629750902
v 319.75000000000006 20 -50.336382680861362
cstype bspline
deg 1
curv 0 1 125 126
parm u 0 0 1 1
end
g object_64
usemtl Default
v 318.75000000000006 20 -81.845742629750902
v 318.75000000000006 20 -50.336382680861362
cstype bspline
deg 1
curv 0 1 127 128
parm u 0 0 1 1
end
g object_65
usemtl Default
v 318.25000000000006 20 -81.845742629750902
v 318.25000000000006 20 -50.336382680861362
cstype bspline
deg 1
curv 0 1 129 130
parm u 0 0 1 1
end
g object_66
usemtl Default
v 317.25000000000006 20 -81.845742629750902
v 317.25000000000006 20 -50.336382680861362
cstype bspline
deg 1
curv 0 1 131 132
parm u 0 0 1 1
end
g object_67
usemtl Default
v 316.75000000000006 20 -81.845742629750902
v 316.75000000000006 20 -50.336382680861362
cstype bspline
deg 1
curv 0 1 133 134
parm u 0 0 1 1
end
g object_68
usemtl Default
v 316.25000000000006 20 -81.845742629750902
v 316.25000000000006 20 -50.336382680861362
cstype bspline
deg 1
curv 0 1 135 136
parm u 0 0 1 1
end
g object_69
usemtl Default
v 315.75000000000006 20 -81.845742629750902
v 315.75000000000006 20 -50.336382680861362
cstype bspline
deg 1
curv 0 1 137 138
parm u 0 0 1 1
end
g object_70
usemtl Default
v 314.75000000000006 20 -81.845742629750902
v 314.75000000000006 20 -50.336382680861362
cstype bspline
deg 1
curv 0 1 139 140
parm u 0 0 1 1
end
g object_71
usemtl Default
v 314.25000000000006 20 -81.845742629750902
v 314.25000000000006 20 -50.336382680861362
cstype bspline
deg 1
curv 0 1 141 142
parm u 0 0 1 1
end
g object_72
usemtl Default
v 313.25000000000006 20 -81.845742629750902
v 313.25000000000006 20 -50.336382680861362
cstype bspline
deg 1
curv 0 1 143 144
parm u 0 0 1 1
end
g object_73
usemtl Default
v 312.75000000000006 20 -81.845742629750902
v 312.75000000000006 20 -50.336382680861362
cstype bspline
deg 1
curv 0 1 145 146
parm u 0 0 1 1
end
g object_74
usemtl Default
v 312.25000000000006 20 -81.845742629750902
v 312.25000000000006 20 -50.336382680861362
cstype bspline
deg 1
curv 0 1 147 148
parm u 0 0 1 1
end
g object_75
usemtl Default
v 311.75000000000006 20 -81.845742629750902
v 311.75000000000006 20 -50.336382680861362
cstype bspline
deg 1
curv 0 1 149 150
parm u 0 0 1 1
end
g object_76
usemtl Default
v 310.75000000000006 20 -81.845742629750902
v 310.75000000000006 20 -50.336382680861362
cstype bspline
deg 1
curv 0 1 151 152
parm u 0 0 1 1
end
g object_77
usemtl Default
v 310.25000000000006 20 -81.845742629750902
v 310.25000000000006 20 -50.336382680861362
cstype bspline
deg 1
curv 0 1 153 154
parm u 0 0 1 1
end
g object_78
usemtl Default
v 309.25000000000006 20 -81.845742629750902
v 309.25000000000006 20 -50.336382680861362
cstype bspline
deg 1
curv 0 1 155 156
parm u 0 0 1 1
end
g object_79
usemtl Default
v 308.75000000000006 20 -81.845742629750902
v 308.75000000000006 20 -50.336382680861362
cstype bspline
deg 1
curv 0 1 157 158
parm u 0 0 1 1
end
g object_80
usemtl Default
v 308.25000000000006 20 -81.845742629750902
v 308.25000000000006 20 -50.336382680861362
cstype bspline
deg 1
curv 0 1 159 160
parm u 0 0 1 1
end
g object_81
usemtl Default
v 306.75000000000006 20 -81.845742629750902
v 306.75000000000006 20 -50.336382680861362
cstype bspline
deg 1
curv 0 1 161 162
parm u 0 0 1 1
end
g object_82
usemtl Default
v 306.25000000000006 20 -81.845742629750902
v 306.25000000000006 20 -50.336382680861362
cstype bspline
deg 1
curv 0 1 163 164
parm u 0 0 1 1
end
g object_83
usemtl Default
v 305.25000000000006 20 -81.845742629750902
v 305.25000000000006 20 -50.336382680861362
cstype bspline
deg 1
curv 0 1 165 166
parm u 0 0 1 1
end
g object_84
usemtl Default
v 304.75000000000006 20 -81.845742629750902
v 304.75000000000006 20 -50.336382680861362
cstype bspline
deg 1
curv 0 1 167 168
parm u 0 0 1 1
end
g object_85
usemtl Default
v 304.25000000000006 20 -81.845742629750902
v 304.25000000000006 20 -50.336382680861362
cstype bspline
deg 1
curv 0 1 169 170
parm u 0 0 1 1
end
g object_86
usemtl Default
v 303.75000000000006 20 -81.845742629750902
v 303.75000000000006 20 -50.336382680861362
cstype bspline
deg 1
curv 0 1 171 172
parm u 0 0 1 1
end
g object_87
usemtl Default
v 302.75000000000006 20 -81.845742629750902
v 302.75000000000006 20 -50.336382680861362
cstype bspline
deg 1
curv 0 1 173 174
parm u 0 0 1 1
end
g object_88
usemtl Default
v 302.25000000000006 20 -81.845742629750902
v 302.25000000000006 20 -50.336382680861362
cstype bspline
deg 1
curv 0 1 175 176
parm u 0 0 1 1
end
g object_89
usemtl Default
v 300.75000000000006 20 -81.845742629750902
v 300.75000000000006 20 -50.336382680861362
cstype bspline
deg 1
curv 0 1 177 178
parm u 0 0 1 1
end
g object_90
usemtl Default
v 300.25000000000006 20 -81.845742629750902
v 300.25000000000006 20 -50.336382680861362
cstype bspline
deg 1
curv 0 1 179 180
parm u 0 0 1 1
end
g object_91
usemtl Default
v 299.75000000000006 20 -81.845742629750902
v 299.75000000000006 20 -50.336382680861362
cstype bspline
deg 1
curv 0 1 181 182
parm u 0 0 1 1
end
g object_92
usemtl Default
v 298.25000000000006 20 -81.845742629750902
v 298.25000000000006 20 -50.336382680861362
cstype bspline
deg 1
curv 0 1 183 184
parm u 0 0 1 1
end
g object_93
usemtl Default
v 297.25000000000006 20 -81.845742629750902
v 297.25000000000006 20 -50.336382680861362
cstype bspline
deg 1
curv 0 1 185 186
parm u 0 0 1 1
end
g object_94
usemtl Default
v 296.75000000000006 20 -81.845742629750902
v 296.75000000000006 20 -50.336382680861362
cstype bspline
deg 1
curv 0 1 187 188
parm u 0 0 1 1
end
g object_95
usemtl Default
v 296.25000000000006 20 -81.845742629750902
v 296.25000000000006 20 -50.336382680861362
cstype bspline
deg 1
curv 0 1 189 190
parm u 0 0 1 1
end
g object_96
usemtl Default
v 292.75000000000006 20 -81.845742629750902
v 292.75000000000006 20 -50.336382680861362
cstype bspline
deg 1
curv 0 1 191 192
parm u 0 0 1 1
end
g object_97
usemtl Default
v 292.25000000000006 20 -81.845742629750902
v 292.25000000000006 20 -50.336382680861362
cstype bspline
deg 1
curv 0 1 193 194
parm u 0 0 1 1
end
g object_98
usemtl Default
v 291.75000000000006 20 -81.845742629750902
v 291.75000000000006 20 -50.336382680861362
cstype bspline
deg 1
curv 0 1 195 196
parm u 0 0 1 1
end
g object_99
usemtl Default
v 290.75000000000006 20 -81.845742629750902
v 290.75000000000006 20 -50.336382680861362
cstype bspline
deg 1
curv 0 1 197 198
parm u 0 0 1 1
end
g object_100
usemtl Default
v 290.25000000000006 20 -81.845742629750902
v 290.25000000000006 20 -50.336382680861362
cstype bspline
deg 1
curv 0 1 199 200
parm u 0 0 1 1
end
g object_101
usemtl Default
v 289.25000000000006 20 -81.845742629750902
v 289.25000000000006 20 -50.336382680861362
cstype bspline
deg 1
curv 0 1 201 202
parm u 0 0 1 1
end
g object_102
usemtl Default
v 288.75000000000006 20 -81.845742629750902
v 288.75000000000006 20 -50.336382680861362
cstype bspline
deg 1
curv 0 1 203 204
parm u 0 0 1 1
end
g object_103
usemtl Default
v 288.25000000000006 20 -81.845742629750902
v 288.25000000000006 20 -50.336382680861362
cstype bspline
deg 1
curv 0 1 205 206
parm u 0 0 1 1
end
g object_104
usemtl Default
v 287.75000000000006 20 -81.845742629750902
v 287.75000000000006 20 -50.336382680861362
cstype bspline
deg 1
curv 0 1 207 208
parm u 0 0 1 1
end
g object_105
usemtl Default
v 286.75000000000006 20 -81.845742629750902
v 286.75000000000006 20 -50.336382680861362
cstype bspline
deg 1
curv 0 1 209 210
parm u 0 0 1 1
end
g object_106
usemtl Default
v 286.25000000000006 20 -81.845742629750902
v 286.25000000000006 20 -50.336382680861362
cstype bspline
deg 1
curv 0 1 211 212
parm u 0 0 1 1
end
g object_107
usemtl Default
v 285.25000000000006 20 -81.845742629750902
v 285.25000000000006 20 -50.336382680861362
cstype bspline
deg 1
curv 0 1 213 214
parm u 0 0 1 1
end
g object_108
usemtl Default
v 284.75000000000006 20 -81.845742629750902
v 284.75000000000006 20 -50.336382680861362
cstype bspline
deg 1
curv 0 1 215 216
parm u 0 0 1 1
end
g object_109
usemtl Default
v 284.25000000000006 20 -81.845742629750902
v 284.25000000000006 20 -50.336382680861362
cstype bspline
deg 1
curv 0 1 217 218
parm u 0 0 1 1
end
g object_110
usemtl Default
v 283.75000000000006 20 -81.845742629750902
v 283.75000000000006 20 -50.336382680861362
cstype bspline
deg 1
curv 0 1 219 220
parm u 0 0 1 1
end
g object_111
usemtl Default
v 282.75000000000006 20 -81.845742629750902
v 282.75000000000006 20 -50.336382680861362
cstype bspline
deg 1
curv 0 1 221 222
parm u 0 0 1 1
end
g object_112
usemtl Default
v 282.25000000000006 20 -81.845742629750902
v 282.25000000000006 20 -50.336382680861362
cstype bspline
deg 1
curv 0 1 223 224
parm u 0 0 1 1
end
g object_113
usemtl Default
v 281.25000000000006 20 -81.845742629750902
v 281.25000000000006 20 -50.336382680861362
cstype bspline
deg 1
curv 0 1 225 226
parm u 0 0 1 1
end
g object_114
usemtl Default
v 280.75000000000006 20 -81.845742629750902
v 280.75000000000006 20 -50.336382680861362
cstype bspline
deg 1
curv 0 1 227 228
parm u 0 0 1 1
end
g object_115
usemtl Default
v 280.25000000000006 20 -81.845742629750902
v 280.25000000000006 20 -50.336382680861362
cstype bspline
deg 1
curv 0 1 229 230
parm u 0 0 1 1
end
g object_116
usemtl Default
v 279.75000000000006 20 -81.845742629750902
v 279.75000000000006 20 -50.336382680861362
cstype bspline
deg 1
curv 0 1 231 232
parm u 0 0 1 1
end
g object_117
usemtl Default
v 278.75000000000006 20 -81.845742629750902
v 278.75000000000006 20 -50.336382680861362
cstype bspline
deg 1
curv 0 1 233 234
parm u 0 0 1 1
end
g object_118
usemtl Default
v 278.25000000000006 20 -81.845742629750902
v 278.25000000000006 20 -50.336382680861362
cstype bspline
deg 1
curv 0 1 235 236
parm u 0 0 1 1
end
g object_119
usemtl Default
v 277.25000000000006 20 -81.845742629750902
v 277.25000000000006 20 -50.336382680861362
cstype bspline
deg 1
curv 0 1 237 238
parm u 0 0 1 1
end
g object_120
usemtl Default
v 276.75000000000006 20 -81.845742629750902
v 276.75000000000006 20 -50.336382680861362
cstype bspline
deg 1
curv 0 1 239 240
parm u 0 0 1 1
end
g object_121
usemtl Default
v 276.25000000000006 20 -81.845742629750902
v 276.25000000000006 20 -50.336382680861362
cstype bspline
deg 1
curv 0 1 241 242
parm u 0 0 1 1
end
g object_122
usemtl Default
v 275.75000000000006 20 -81.845742629750902
v 275.75000000000006 20 -50.336382680861362
cstype bspline
deg 1
curv 0 1 243 244
parm u 0 0 1 1
end
g object_123
usemtl Default
v 274.75000000000006 20 -81.845742629750902
v 274.75000000000006 20 -50.336382680861362
cstype bspline
deg 1
curv 0 1 245 246
parm u 0 0 1 1
end
g object_124
usemtl Default
v 274.25000000000006 20 -81.845742629750902
v 274.25000000000006 20 -50.336382680861362
cstype bspline
deg 1
curv 0 1 247 248
parm u 0 0 1 1
end
g object_125
usemtl Default
v 273.25000000000006 20 -81.845742629750902
v 273.25000000000006 20 -50.336382680861362
cstype bspline
deg 1
curv 0 1 249 250
parm u 0 0 1 1
end
g object_126
usemtl Default
v 272.75000000000006 20 -81.845742629750902
v 272.75000000000006 20 -50.336382680861362
cstype bspline
deg 1
curv 0 1 251 252
parm u 0 0 1 1
end
g object_127
usemtl Default
v 272.25000000000006 20 -81.845742629750902
v 272.25000000000006 20 -50.336382680861362
cstype bspline
deg 1
curv 0 1 253 254
parm u 0 0 1 1
end
g object_128
usemtl Default
v 271.75000000000006 20 -81.845742629750902
v 271.75000000000006 20 -50.336382680861362
cstype bspline
deg 1
curv 0 1 255 256
parm u 0 0 1 1
end
g object_129
usemtl Default
v 270.75000000000006 20 -81.845742629750902
v 270.75000000000006 20 -50.336382680861362
cstype bspline
deg 1
curv 0 1 257 258
parm u 0 0 1 1
end
g object_130
usemtl Default
v 270.25000000000006 20 -81.845742629750902
v 270.25000000000006 20 -50.336382680861362
cstype bspline
deg 1
curv 0 1 259 260
parm u 0 0 1 1
end
g object_131
usemtl Default
v 269.25000000000006 20 -81.845742629750902
v 269.25000000000006 20 -50.336382680861362
cstype bspline
deg 1
curv 0 1 261 262
parm u 0 0 1 1
end
g object_132
usemtl Default
v 268.75000000000006 20 -81.845742629750902
v 268.75000000000006 20 -50.336382680861362
cstype bspline
deg 1
curv 0 1 263 264
parm u 0 0 1 1
end
g object_133
usemtl Default
v 268.25000000000006 20 -81.845742629750902
v 268.25000000000006 20 -50.336382680861362
cstype bspline
deg 1
curv 0 1 265 266
parm u 0 0 1 1
end
g object_134
usemtl Default
v 267.75000000000006 20 -81.845742629750902
v 267.75000000000006 20 -50.336382680861362
cstype bspline
deg 1
curv 0 1 267 268
parm u 0 0 1 1
end
g object_135
usemtl Default
v 266.75000000000006 20 -81.845742629750902
v 266.75000000000006 20 -50.336382680861362
cstype bspline
deg 1
curv 0 1 269 270
parm u 0 0 1 1
end
g object_136
usemtl Default
v 266.25000000000006 20 -81.845742629750902
v 266.25000000000006 20 -50.336382680861362
cstype bspline
deg 1
curv 0 1 271 272
parm u 0 0 1 1
end
g object_137
usemtl Default
v 265.25000000000006 20 -81.845742629750902
v 265.25000000000006 20 -50.336382680861362
cstype bspline
deg 1
curv 0 1 273 274
parm u 0 0 1 1
end
g object_138
usemtl Default
v 264.75000000000006 20 -81.845742629750902
v 264.75000000000006 20 -50.336382680861362
cstype bspline
deg 1
curv 0 1 275 276
parm u 0 0 1 1
end
g object_139
usemtl Default
v 264.25000000000006 20 -81.845742629750902
v 264.25000000000006 20 -50.336382680861362
cstype bspline
deg 1
curv 0 1 277 278
parm u 0 0 1 1
end
g object_140
usemtl Default
v 263.75000000000006 20 -81.845742629750902
v 263.75000000000006 20 -50.336382680861362
cstype bspline
deg 1
curv 0 1 279 280
parm u 0 0 1 1
end
g object_141
usemtl Default
v 262.75000000000006 20 -81.845742629750902
v 262.75000000000006 20 -50.336382680861362
cstype bspline
deg 1
curv 0 1 281 282
parm u 0 0 1 1
end
g object_142
usemtl Default
v 262.25000000000006 20 -81.845742629750902
v 262.25000000000006 20 -50.336382680861362
cstype bspline
deg 1
curv 0 1 283 284
parm u 0 0 1 1
end
g object_143
usemtl Default
v 261.25000000000006 20 -81.845742629750902
v 261.25000000000006 20 -50.336382680861362
cstype bspline
deg 1
curv 0 1 285 286
parm u 0 0 1 1
end
g object_144
usemtl Default
v 260.75000000000006 20 -81.845742629750902
v 260.75000000000006 20 -50.336382680861362
cstype bspline
deg 1
curv 0 1 287 288
parm u 0 0 1 1
end
g object_145
usemtl Default
v 260.25000000000006 20 -81.845742629750902
v 260.25000000000006 20 -50.336382680861362
cstype bspline
deg 1
curv 0 1 289 290
parm u 0 0 1 1
end
g object_146
usemtl Default
v 259.75000000000006 20 -81.845742629750902
v 259.75000000000006 20 -50.336382680861362
cstype bspline
deg 1
curv 0 1 291 292
parm u 0 0 1 1
end
g object_147
usemtl Default
v 258.75000000000006 20 -81.845742629750902
v 258.75000000000006 20 -50.336382680861362
cstype bspline
deg 1
curv 0 1 293 294
parm u 0 0 1 1
end
g object_148
usemtl Default
v 258.25000000000006 20 -81.845742629750902
v 258.25000000000006 20 -50.336382680861362
cstype bspline
deg 1
curv 0 1 295 296
parm u 0 0 1 1
end
g object_149
usemtl Default
v 257.25000000000006 20 -81.845742629750902
v 257.25000000000006 20 -50.336382680861362
cstype bspline
deg 1
curv 0 1 297 298
parm u 0 0 1 1
end
g object_150
usemtl Default
v 256.75000000000006 20 -81.845742629750902
v 256.75000000000006 20 -50.336382680861362
cstype bspline
deg 1
curv 0 1 299 300
parm u 0 0 1 1
end
g object_151
usemtl Default
v 256.25000000000006 20 -81.845742629750902
v 256.25000000000006 20 -50.336382680861362
cstype bspline
deg 1
curv 0 1 301 302
parm u 0 0 1 1
end
g object_152
usemtl Default
v 255.75000000000006 20 -81.845742629750902
v 255.75000000000006 20 -50.336382680861362
cstype bspline
deg 1
curv 0 1 303 304
parm u 0 0 1 1
end
g object_153
usemtl Default
v 254.75000000000006 20 -81.845742629750902
v 254.75000000000006 20 -50.336382680861362
cstype bspline
deg 1
curv 0 1 305 306
parm u 0 0 1 1
end
g object_154
usemtl Default
v 254.25000000000006 20 -81.845742629750902
v 254.25000000000006 20 -50.336382680861362
cstype bspline
deg 1
curv 0 1 307 308
parm u 0 0 1 1
end
g object_155
usemtl Default
v 253.25000000000006 20 -81.845742629750902
v 253.25000000000006 20 -50.336382680861362
cstype bspline
deg 1
curv 0 1 309 310
parm u 0 0 1 1
end
g object_156
usemtl Default
v 252.75000000000006 20 -81.845742629750902
v 252.75000000000006 20 -50.336382680861362
cstype bspline
deg 1
curv 0 1 311 312
parm u 0 0 1 1
end
g object_157
usemtl Default
v 252.25000000000006 20 -81.845742629750902
v 252.25000000000006 20 -50.336382680861362
cstype bspline
deg 1
curv 0 1 313 314
parm u 0 0 1 1
end
g object_158
usemtl Default
v 248.75000000000006 20 -81.845742629750902
v 248.75000000000006 20 -50.336382680861362
cstype bspline
deg 1
curv 0 1 315 316
parm u 0 0 1 1
end
g object_159
usemtl Default
v 248.25000000000006 20 -81.845742629750902
v 248.25000000000006 20 -50.336382680861362
cstype bspline
deg 1
curv 0 1 317 318
parm u 0 0 1 1
end
g object_160
usemtl Default
v 247.75000000000006 20 -81.845742629750902
v 247.75000000000006 20 -50.336382680861362
cstype bspline
deg 1
curv 0 1 319 320
parm u 0 0 1 1
end
g object_161
usemtl Default
v 246.75000000000006 20 -81.845742629750902
v 246.75000000000006 20 -50.336382680861362
cstype bspline
deg 1
curv 0 1 321 322
parm u 0 0 1 1
end
g object_162
usemtl Default
v 245.25000000000006 20 -81.845742629750902
v 245.25000000000006 20 -50.336382680861362
cstype bspline
deg 1
curv 0 1 323 324
parm u 0 0 1 1
end
g object_163
usemtl Default
v 244.75000000000006 20 -81.845742629750902
v 244.75000000000006 20 -50.336382680861362
cstype bspline
deg 1
curv 0 1 325 326
parm u 0 0 1 1
end
g object_164
usemtl Default
v 244.25000000000006 20 -81.845742629750902
v 244.25000000000006 20 -50.336382680861362
cstype bspline
deg 1
curv 0 1 327 328
parm u 0 0 1 1
end
g object_165
usemtl Default
v 243.75000000000006 20 -81.845742629750902
v 243.75000000000006 20 -50.336382680861362
cstype bspline
deg 1
curv 0 1 329 330
parm u 0 0 1 1
end
g object_166
usemtl Default
v 242.75000000000006 20 -81.845742629750902
v 242.75000000000006 20 -50.336382680861362
cstype bspline
deg 1
curv 0 1 331 332
parm u 0 0 1 1
end
g object_167
usemtl Default
v 242.25000000000006 20 -81.845742629750902
v 242.25000000000006 20 -50.336382680861362
cstype bspline
deg 1
curv 0 1 333 334
parm u 0 0 1 1
end
g object_168
usemtl Default
v 241.25000000000006 20 -81.845742629750902
v 241.25000000000006 20 -50.336382680861362
cstype bspline
deg 1
curv 0 1 335 336
parm u 0 0 1 1
end
g object_169
usemtl Default
v 240.75000000000006 20 -81.845742629750902
v 240.75000000000006 20 -50.336382680861362
cstype bspline
deg 1
curv 0 1 337 338
parm u 0 0 1 1
end
g object_170
usemtl Default
v 240.25000000000006 20 -81.845742629750902
v 240.25000000000006 20 -50.336382680861362
cstype bspline
deg 1
curv 0 1 339 340
parm u 0 0 1 1
end
g object_171
usemtl Default
v 239.75000000000006 20 -81.845742629750902
v 239.75000000000006 20 -50.336382680861362
cstype bspline
deg 1
curv 0 1 341 342
parm u 0 0 1 1
end
g object_172
usemtl Default
v 238.75000000000006 20 -81.845742629750902
v 238.75000000000006 20 -50.336382680861362
cstype bspline
deg 1
curv 0 1 343 344
parm u 0 0 1 1
end
g object_173
usemtl Default
v 238.25000000000006 20 -81.845742629750902
v 238.25000000000006 20 -50.336382680861362
cstype bspline
deg 1
curv 0 1 345 346
parm u 0 0 1 1
end
g object_174
usemtl Default
v 237.25000000000006 20 -81.845742629750902
v 237.25000000000006 20 -50.336382680861362
cstype bspline
deg 1
curv 0 1 347 348
parm u 0 0 1 1
end
g object_175
usemtl Default
v 236.75000000000006 20 -81.845742629750902
v 236.75000000000006 20 -50.336382680861362
cstype bspline
deg 1
curv 0 1 349 350
parm u 0 0 1 1
end
g object_176
usemtl Default
v 236.25000000000006 20 -81.845742629750902
v 236.25000000000006 20 -50.336382680861362
cstype bspline
deg 1
curv 0 1 351 352
parm u 0 0 1 1
end
g object_177
usemtl Default
v 235.75000000000006 20 -81.845742629750902
v 235.75000000000006 20 -50.336382680861362
cstype bspline
deg 1
curv 0 1 353 354
parm u 0 0 1 1
end
g object_178
usemtl Default
v 234.75000000000006 20 -81.845742629750902
v 234.75000000000006 20 -50.336382680861362
cstype bspline
deg 1
curv 0 1 355 356
parm u 0 0 1 1
end
g object_179
usemtl Default
v 234.25000000000006 20 -81.845742629750902
v 234.25000000000006 20 -50.336382680861362
cstype bspline
deg 1
curv 0 1 357 358
parm u 0 0 1 1
end
g object_180
usemtl Default
v 233.25000000000006 20 -81.845742629750902
v 233.25000000000006 20 -50.336382680861362
cstype bspline
deg 1
curv 0 1 359 360
parm u 0 0 1 1
end
g object_181
usemtl Default
v 232.75000000000006 20 -81.845742629750902
v 232.75000000000006 20 -50.336382680861362
cstype bspline
deg 1
curv 0 1 361 362
parm u 0 0 1 1
end
g object_182
usemtl Default
v 232.25000000000006 20 -81.845742629750902
v 232.25000000000006 20 -50.336382680861362
cstype bspline
deg 1
curv 0 1 363 364
parm u 0 0 1 1
end
g object_183
usemtl Default
v 231.75000000000006 20 -81.845742629750902
v 231.75000000000006 20 -50.336382680861362
cstype bspline
deg 1
curv 0 1 365 366
parm u 0 0 1 1
end
g object_184
usemtl Default
v 230.75000000000006 20 -81.845742629750902
v 230.75000000000006 20 -50.336382680861362
cstype bspline
deg 1
curv 0 1 367 368
parm u 0 0 1 1
end
g object_185
usemtl Default
v 230.25000000000006 20 -81.845742629750902
v 230.25000000000006 20 -50.336382680861362
cstype bspline
deg 1
curv 0 1 369 370
parm u 0 0 1 1
end
g object_186
usemtl Default
v 229.25000000000006 20 -81.845742629750902
v 229.25000000000006 20 -50.336382680861362
cstype bspline
deg 1
curv 0 1 371 372
parm u 0 0 1 1
end
g object_187
usemtl Default
v 228.75000000000006 20 -81.845742629750902
v 228.75000000000006 20 -50.336382680861362
cstype bspline
deg 1
curv 0 1 373 374
parm u 0 0 1 1
end
