# Rhino

g object_1
v 248.75 8 -15.75
v 244.75 8 -15.75
v 244.75 8 -5.25
v 252.25 8 -5.25
v 252.25 8 -24.75
v 248.75 8 -24.75
v 248.25 8 -9.5
v 248.25 8 -14.25
v 248.75 8 -14.25
v 248.75 8 -9.5
f 2 3 7
f 4 7 3
f 1 2 8
f 7 8 2
f 8 9 1
f 9 10 4
f 7 4 10
f 1 5 6
f 4 5 9
f 9 5 1
g object_2
v 229.25 8 -16.25
v 229.25 8 -15.75
v 228.75 8 -15.75
v 228.75 8 -14.5
v 229.25 8 -14.5
v 229.25 8 -14
v 228.75 8 -14
v 228.75 8 -5.25
v 232.25 8 -5.25
v 232.25 8 -14
v 231.75 8 -14
v 231.75 8 -14.5
v 232.25 8 -14.5
v 232.25 8 -15.75
v 231.75 8 -15.75
v 231.75 8 -16.25
v 232.25 8 -16.25
v 232.25 8 -17.75
v 231.75 8 -17.75
v 231.75 8 -18.25
v 232.25 8 -18.25
v 232.25 8 -24.75
v 228.75 8 -24.75
v 228.75 8 -18.25
v 230.25 8 -18.25
v 230.25 8 -20
v 230.75 8 -20
v 230.75 8 -18.25
v 230.75 8 -17.75
v 228.75 8 -17.75
v 228.75 8 -16.25
v 230.75 8 -16.25
v 230.75 8 -11.25
v 230.25 8 -11.25
v 230.25 8 -16.25
v 230.75 8 -7.25
v 230.25 8 -7.25
v 230.25 8 -9
v 230.75 8 -9
f 17 18 16
f 48 16 18
f 48 44 16
f 44 48 49 43
f 45 12 15
f 16 45 15
f 16 44 45
f 15 12 13 14
f 47 48 18
f 47 18 19
f 40 11 45
f 36 33 34
f 40 41 11
f 45 39 40
f 45 42 39
f 35 36 34
f 12 45 11
f 32 33 36
f 19 21 49
f 42 21 22
f 49 21 43
f 42 22 25
f 19 49 46
f 23 24 25 22
f 19 20 21
f 19 46 47
f 42 25 26
f 39 26 29
f 27 29 26
f 38 39 29 30
f 38 30 37
f 26 39 42
f 32 30 31
f 37 30 32
f 27 28 29
f 36 37 32
f 43 21 42
g object_3
v 237.25 8 -16.25
v 237.25 8 -15.75
v 236.75 8 -15.75
v 236.75 8 -14.5
v 237.25 8 -14.5
v 237.25 8 -14
v 236.75 8 -14
v 236.75 8 -5.25
v 240.25 8 -5.25
v 240.25 8 -14
v 239.75 8 -14
v 239.75 8 -14.5
v 240.25 8 -14.5
v 240.25 8 -15.75
v 239.75 8 -15.75
v 239.75 8 -16.25
v 240.25 8 -16.25
v 240.25 8 -17.75
v 239.75 8 -17.75
v 239.75 8 -18.25
v 240.25 8 -18.25
v 240.25 8 -24.75
v 236.75 8 -24.75
v 236.75 8 -18.25
v 238.25 8 -18.25
v 238.25 8 -20
v 238.75 8 -20
v 238.75 8 -18.25
v 238.75 8 -17.75
v 236.75 8 -17.75
v 236.75 8 -16.25
v 238.75 8 -16.25
v 238.75 8 -11.25
v 238.25 8 -11.25
v 238.25 8 -16.25
v 238.75 8 -7.25
v 238.25 8 -7.25
v 238.25 8 -9
v 238.75 8 -9
f 56 57 55
f 87 55 57
f 87 83 55
f 83 87 88 82
f 84 51 54
f 55 84 54
f 55 83 84
f 54 51 52 53
f 86 87 57
f 86 57 58
f 84 79 50
f 75 72 73
f 50 79 80
f 84 78 79
f 84 81 78
f 74 75 73
f 51 84 50
f 71 72 75
f 58 60 88
f 81 60 61
f 88 60 82
f 81 61 64
f 58 88 85
f 62 63 64 61
f 58 59 60
f 58 85 86
f 81 64 65
f 78 65 68
f 66 68 65
f 77 78 68 69
f 77 69 76
f 65 78 81
f 71 69 70
f 76 69 71
f 66 67 68
f 75 76 71
f 82 60 81
g object_4
v 253.25 8 -16.25
v 253.25 8 -15.75
v 252.75 8 -15.75
v 252.75 8 -14.5
v 253.25 8 -14.5
v 253.25 8 -14
v 252.75 8 -14
v 252.75 8 -5.25
v 256.25 8 -5.25
v 256.25 8 -14
v 255.75 8 -14
v 255.75 8 -14.5
v 256.25 8 -14.5
v 256.25 8 -15.75
v 255.75 8 -15.75
v 255.75 8 -16.25
v 256.25 8 -16.25
v 256.25 8 -17.75
v 255.75 8 -17.75
v 255.75 8 -18.25
v 256.25 8 -18.25
v 256.25 8 -24.75
v 252.75 8 -24.75
v 252.75 8 -18.25
v 254.25 8 -18.25
v 254.25 8 -20
v 254.75 8 -20
v 254.75 8 -18.25
v 254.75 8 -17.75
v 252.75 8 -17.75
v 252.75 8 -16.25
v 254.75 8 -16.25
v 254.75 8 -11.25
v 254.25 8 -11.25
v 254.25 8 -16.25
v 254.75 8 -7.25
v 254.25 8 -7.25
v 254.25 8 -9
v 254.75 8 -9
f 95 96 94
f 126 94 96
f 126 122 94
f 122 126 127 121
f 123 90 93
f 94 123 93
f 94 122 123
f 93 90 91 92
f 125 126 96
f 125 96 97
f 118 89 123
f 114 111 112
f 118 119 89
f 123 117 118
f 123 120 117
f 113 114 112
f 90 123 89
f 110 111 114
f 97 99 127
f 120 99 100
f 127 99 121
f 120 100 103
f 97 127 124
f 101 102 103 100
f 97 98 99
f 97 124 125
f 120 103 104
f 117 104 107
f 105 107 104
f 116 117 107 108
f 116 108 115
f 104 117 120
f 110 108 109
f 115 108 110
f 105 106 107
f 114 115 110
f 121 99 120
g object_5
v 285.25 8 -16.25
v 285.25 8 -15.75
v 284.75 8 -15.75
v 284.75 8 -14.5
v 285.25 8 -14.5
v 285.25 8 -14
v 284.75 8 -14
v 284.75 8 -5.25
v 288.25 8 -5.25
v 288.25 8 -14
v 287.75 8 -14
v 287.75 8 -14.5
v 288.25 8 -14.5
v 288.25 8 -15.75
v 287.75 8 -15.75
v 287.75 8 -16.25
v 288.25 8 -16.25
v 288.25 8 -17.75
v 287.75 8 -17.75
v 287.75 8 -18.25
v 288.25 8 -18.25
v 288.25 8 -24.75
v 284.75 8 -24.75
v 284.75 8 -18.25
v 286.25 8 -18.25
v 286.25 8 -20
v 286.75 8 -20
v 286.75 8 -18.25
v 286.75 8 -17.75
v 284.75 8 -17.75
v 284.75 8 -16.25
v 286.75 8 -16.25
v 286.75 8 -11.25
v 286.25 8 -11.25
v 286.25 8 -16.25
v 286.75 8 -7.25
v 286.25 8 -7.25
v 286.25 8 -9
v 286.75 8 -9
f 134 135 133
f 165 133 135
f 165 161 133
f 161 165 166 160
f 162 129 132
f 133 162 132
f 133 161 162
f 132 129 130 131
f 164 165 135
f 164 135 136
f 162 157 128
f 153 150 151
f 128 157 158
f 162 156 157
f 162 159 156
f 152 153 151
f 129 162 128
f 149 150 153
f 136 138 166
f 159 138 139
f 166 138 160
f 159 139 142
f 136 166 163
f 140 141 142 139
f 136 137 138
f 136 163 164
f 159 142 143
f 156 143 146
f 144 146 143
f 155 156 146 147
f 155 147 154
f 143 156 159
f 149 147 148
f 154 147 149
f 144 145 146
f 153 154 149
f 160 138 159
g object_6
v 277.25 8 -16.25
v 277.25 8 -15.75
v 276.75 8 -15.75
v 276.75 8 -14.5
v 277.25 8 -14.5
v 277.25 8 -14
v 276.75 8 -14
v 276.75 8 -5.25
v 280.25 8 -5.25
v 280.25 8 -14
v 279.75 8 -14
v 279.75 8 -14.5
v 280.25 8 -14.5
v 280.25 8 -15.75
v 279.75 8 -15.75
v 279.75 8 -16.25
v 280.25 8 -16.25
v 280.25 8 -17.75
v 279.75 8 -17.75
v 279.75 8 -18.25
v 280.25 8 -18.25
v 280.25 8 -24.75
v 276.75 8 -24.75
v 276.75 8 -18.25
v 278.25 8 -18.25
v 278.25 8 -20
v 278.75 8 -20
v 278.75 8 -18.25
v 278.75 8 -17.75
v 276.75 8 -17.75
v 276.75 8 -16.25
v 278.75 8 -16.25
v 278.75 8 -11.25
v 278.25 8 -11.25
v 278.25 8 -16.25
v 278.75 8 -7.25
v 278.25 8 -7.25
v 278.25 8 -9
v 278.75 8 -9
f 173 174 172
f 204 172 174
f 204 200 172
f 200 204 205 199
f 201 168 171
f 172 201 171
f 172 200 201
f 171 168 169 170
f 203 204 174
f 203 174 175
f 201 196 167
f 192 189 190
f 167 196 197
f 201 195 196
f 201 198 195
f 191 192 190
f 168 201 167
f 188 189 192
f 175 177 205
f 198 177 178
f 205 177 199
f 198 178 181
f 175 205 202
f 179 180 181 178
f 175 176 177
f 175 202 203
f 198 181 182
f 195 182 185
f 183 185 182
f 194 195 185 186
f 194 186 193
f 182 195 198
f 188 186 187
f 193 186 188
f 183 184 185
f 192 193 188
f 199 177 198
g object_7
v 269.25 8 -16.25
v 269.25 8 -15.75
v 268.75 8 -15.75
v 268.75 8 -14.5
v 269.25 8 -14.5
v 269.25 8 -14
v 268.75 8 -14
v 268.75 8 -5.25
v 272.25 8 -5.25
v 272.25 8 -14
v 271.75 8 -14
v 271.75 8 -14.5
v 272.25 8 -14.5
v 272.25 8 -15.75
v 271.75 8 -15.75
v 271.75 8 -16.25
v 272.25 8 -16.25
v 272.25 8 -17.75
v 271.75 8 -17.75
v 271.75 8 -18.25
v 272.25 8 -18.25
v 272.25 8 -24.75
v 268.75 8 -24.75
v 268.75 8 -18.25
v 270.25 8 -18.25
v 270.25 8 -20
v 270.75 8 -20
v 270.75 8 -18.25
v 270.75 8 -17.75
v 268.75 8 -17.75
v 268.75 8 -16.25
v 270.75 8 -16.25
v 270.75 8 -11.25
v 270.25 8 -11.25
v 270.25 8 -16.25
v 270.75 8 -7.25
v 270.25 8 -7.25
v 270.25 8 -9
v 270.75 8 -9
f 212 213 211
f 243 211 213
f 243 239 211
f 239 243 244 238
f 240 207 210
f 211 240 210
f 211 239 240
f 210 207 208 209
f 242 243 213
f 242 213 214
f 240 235 206
f 231 228 229
f 206 235 236
f 240 234 235
f 240 237 234
f 230 231 229
f 207 240 206
f 227 228 231
f 214 216 244
f 237 216 217
f 244 216 238
f 237 217 220
f 214 244 241
f 218 219 220 217
f 214 215 216
f 214 241 242
f 237 220 221
f 234 221 224
f 222 224 221
f 233 234 224 225
f 233 225 232
f 221 234 237
f 227 225 226
f 232 225 227
f 222 223 224
f 231 232 227
f 238 216 237
g object_8
v 261.25 8 -16.25
v 261.25 8 -15.75
v 260.75 8 -15.75
v 260.75 8 -14.5
v 261.25 8 -14.5
v 261.25 8 -14
v 260.75 8 -14
v 260.75 8 -5.25
v 264.25 8 -5.25
v 264.25 8 -14
v 263.75 8 -14
v 263.75 8 -14.5
v 264.25 8 -14.5
v 264.25 8 -15.75
v 263.75 8 -15.75
v 263.75 8 -16.25
v 264.25 8 -16.25
v 264.25 8 -17.75
v 263.75 8 -17.75
v 263.75 8 -18.25
v 264.25 8 -18.25
v 264.25 8 -24.75
v 260.75 8 -24.75
v 260.75 8 -18.25
v 262.25 8 -18.25
v 262.25 8 -20
v 262.75 8 -20
v 262.75 8 -18.25
v 262.75 8 -17.75
v 260.75 8 -17.75
v 260.75 8 -16.25
v 262.75 8 -16.25
v 262.75 8 -11.25
v 262.25 8 -11.25
v 262.25 8 -16.25
v 262.75 8 -7.25
v 262.25 8 -7.25
v 262.25 8 -9
v 262.75 8 -9
f 251 252 250
f 282 250 252
f 282 278 250
f 278 282 283 277
f 279 246 249
f 250 279 249
f 250 278 279
f 249 246 247 248
f 281 282 252
f 281 252 253
f 274 245 279
f 270 267 268
f 274 275 245
f 279 273 274
f 279 276 273
f 269 270 268
f 246 279 245
f 266 267 270
f 253 255 283
f 276 255 256
f 283 255 277
f 276 256 259
f 253 283 280
f 257 258 259 256
f 253 254 255
f 253 280 281
f 276 259 260
f 273 260 263
f 261 263 260
f 272 273 263 264
f 272 264 271
f 260 273 276
f 266 264 265
f 271 264 266
f 261 262 263
f 270 271 266
f 277 255 276
g object_9
v 309.25 8 -16.25
v 309.25 8 -15.75
v 308.75 8 -15.75
v 308.75 8 -14.5
v 309.25 8 -14.5
v 309.25 8 -14
v 308.75 8 -14
v 308.75 8 -5.25
v 312.25 8 -5.25
v 312.25 8 -14
v 311.75 8 -14
v 311.75 8 -14.5
v 312.25 8 -14.5
v 312.25 8 -15.75
v 311.75 8 -15.75
v 311.75 8 -16.25
v 312.25 8 -16.25
v 312.25 8 -17.75
v 311.75 8 -17.75
v 311.75 8 -18.25
v 312.25 8 -18.25
v 312.25 8 -24.75
v 308.75 8 -24.75
v 308.75 8 -18.25
v 310.25 8 -18.25
v 310.25 8 -20
v 310.75 8 -20
v 310.75 8 -18.25
v 310.75 8 -17.75
v 308.75 8 -17.75
v 308.75 8 -16.25
v 310.75 8 -16.25
v 310.75 8 -11.25
v 310.25 8 -11.25
v 310.25 8 -16.25
v 310.75 8 -7.25
v 310.25 8 -7.25
v 310.25 8 -9
v 310.75 8 -9
f 290 291 289
f 321 289 291
f 321 317 289
f 317 321 322 316
f 318 285 288
f 289 318 288
f 289 317 318
f 288 285 286 287
f 320 321 291
f 320 291 292
f 313 284 318
f 309 306 307
f 313 314 284
f 318 312 313
f 318 315 312
f 308 309 307
f 285 318 284
f 305 306 309
f 292 294 322
f 315 294 295
f 322 294 316
f 315 295 298
f 292 322 319
f 296 297 298 295
f 292 293 294
f 292 319 320
f 315 298 299
f 312 299 302
f 300 302 299
f 311 312 302 303
f 311 303 310
f 299 312 315
f 305 303 304
f 310 303 305
f 300 301 302
f 309 310 305
f 316 294 315
g object_10
v 317.25 8 -16.25
v 317.25 8 -15.75
v 316.75 8 -15.75
v 316.75 8 -14.5
v 317.25 8 -14.5
v 317.25 8 -14
v 316.75 8 -14
v 316.75 8 -5.25
v 320.25 8 -5.25
v 320.25 8 -14
v 319.75 8 -14
v 319.75 8 -14.5
v 320.25 8 -14.5
v 320.25 8 -15.75
v 319.75 8 -15.75
v 319.75 8 -16.25
v 320.25 8 -16.25
v 320.25 8 -17.75
v 319.75 8 -17.75
v 319.75 8 -18.25
v 320.25 8 -18.25
v 320.25 8 -24.75
v 316.75 8 -24.75
v 316.75 8 -18.25
v 318.25 8 -18.25
v 318.25 8 -20
v 318.75 8 -20
v 318.75 8 -18.25
v 318.75 8 -17.75
v 316.75 8 -17.75
v 316.75 8 -16.25
v 318.75 8 -16.25
v 318.75 8 -11.25
v 318.25 8 -11.25
v 318.25 8 -16.25
v 318.75 8 -7.25
v 318.25 8 -7.25
v 318.25 8 -9
v 318.75 8 -9
f 329 330 328
f 360 328 330
f 360 356 328
f 356 360 361 355
f 357 324 327
f 328 357 327
f 328 356 357
f 327 324 325 326
f 359 360 330
f 359 330 331
f 352 323 357
f 348 345 346
f 352 353 323
f 357 351 352
f 357 354 351
f 347 348 346
f 324 357 323
f 344 345 348
f 331 333 361
f 354 333 334
f 361 333 355
f 354 334 337
f 331 361 358
f 335 336 337 334
f 331 332 333
f 331 358 359
f 354 337 338
f 351 338 341
f 339 341 338
f 350 351 341 342
f 350 342 349
f 338 351 354
f 344 342 343
f 349 342 344
f 339 340 341
f 348 349 344
f 355 333 354
g object_11
v 325.25 8 -16.25
v 325.25 8 -15.75
v 324.75 8 -15.75
v 324.75 8 -14.5
v 325.25 8 -14.5
v 325.25 8 -14
v 324.75 8 -14
v 324.75 8 -5.25
v 328.25 8 -5.25
v 328.25 8 -14
v 327.75 8 -14
v 327.75 8 -14.5
v 328.25 8 -14.5
v 328.25 8 -15.75
v 327.75 8 -15.75
v 327.75 8 -16.25
v 328.25 8 -16.25
v 328.25 8 -17.75
v 327.75 8 -17.75
v 327.75 8 -18.25
v 328.25 8 -18.25
v 328.25 8 -24.75
v 324.75 8 -24.75
v 324.75 8 -18.25
v 326.25 8 -18.25
v 326.25 8 -20
v 326.75 8 -20
v 326.75 8 -18.25
v 326.75 8 -17.75
v 324.75 8 -17.75
v 324.75 8 -16.25
v 326.75 8 -16.25
v 326.75 8 -11.25
v 326.25 8 -11.25
v 326.25 8 -16.25
v 326.75 8 -7.25
v 326.25 8 -7.25
v 326.25 8 -9
v 326.75 8 -9
f 368 369 367
f 399 367 369
f 399 395 367
f 395 399 400 394
f 396 363 366
f 367 396 366
f 367 395 396
f 366 363 364 365
f 398 399 369
f 398 369 370
f 391 362 396
f 387 384 385
f 391 392 362
f 396 390 391
f 396 393 390
f 386 387 385
f 363 396 362
f 383 384 387
f 370 372 400
f 393 372 373
f 400 372 394
f 393 373 376
f 370 400 397
f 374 375 376 373
f 370 371 372
f 370 397 398
f 393 376 377
f 390 377 380
f 378 380 377
f 389 390 380 381
f 389 381 388
f 377 390 393
f 383 381 382
f 388 381 383
f 378 379 380
f 387 388 383
f 394 372 393
g object_12
v 333.25 8 -16.25
v 333.25 8 -15.75
v 332.75 8 -15.75
v 332.75 8 -14.5
v 333.25 8 -14.5
v 333.25 8 -14
v 332.75 8 -14
v 332.75 8 -5.25
v 336.25 8 -5.25
v 336.25 8 -14
v 335.75 8 -14
v 335.75 8 -14.5
v 336.25 8 -14.5
v 336.25 8 -15.75
v 335.75 8 -15.75
v 335.75 8 -16.25
v 336.25 8 -16.25
v 336.25 8 -17.75
v 335.75 8 -17.75
v 335.75 8 -18.25
v 336.25 8 -18.25
v 336.25 8 -24.75
v 332.75 8 -24.75
v 332.75 8 -18.25
v 334.25 8 -18.25
v 334.25 8 -20
v 334.75 8 -20
v 334.75 8 -18.25
v 334.75 8 -17.75
v 332.75 8 -17.75
v 332.75 8 -16.25
v 334.75 8 -16.25
v 334.75 8 -11.25
v 334.25 8 -11.25
v 334.25 8 -16.25
v 334.75 8 -7.25
v 334.25 8 -7.25
v 334.25 8 -9
v 334.75 8 -9
f 407 408 406
f 438 406 408
f 438 434 406
f 434 438 439 433
f 435 402 405
f 406 435 405
f 406 434 435
f 405 402 403 404
f 437 438 408
f 437 408 409
f 430 401 435
f 426 423 424
f 430 431 401
f 435 429 430
f 435 432 429
f 425 426 424
f 402 435 401
f 422 423 426
f 409 411 439
f 432 411 412
f 439 411 433
f 432 412 415
f 409 439 436
f 413 414 415 412
f 409 410 411
f 409 436 437
f 432 415 416
f 429 416 419
f 417 419 416
f 428 429 419 420
f 428 420 427
f 416 429 432
f 422 420 421
f 427 420 422
f 417 418 419
f 426 427 422
f 433 411 432
g object_13
v 245.25 8 -19.75
v 244.75 8 -19.75
v 244.75 8 -16.25
v 248.25 8 -16.25
v 248.25 8 -17.75
v 246.25 8 -17.75
v 246.25 8 -20.25
v 248.25 8 -20.25
v 248.25 8 -26.75
v 244.75 8 -26.75
v 244.75 8 -20.25
v 245.25 8 -20.25
f 441 442 443 444 445 446 447 448 449 450 451 440
g object_14
v 246.75 8 -18.25
v 246.75 8 -19.75
v 248.25 8 -18.25
v 248.25 8 -19.75
f 455 453 452 454
g object_15
v 306.25 8 -24.75
v 308.25 8 -24.75
v 308.25 8 -26.75
v 296.75 8 -26.75
v 296.75 8 -18.25
v 297.5 8 -18.25
v 297.5 8 -17.75
v 296.75 8 -17.75
v 296.75 8 -16.25
v 300.25 8 -16.25
v 300.25 8 -17.75
v 299.5 8 -17.75
v 299.5 8 -18.25
v 300.25 8 -18.25
v 300.25 8 -24.75
v 302.75 8 -24.75
v 302.75 8 -17.75
v 300.75 8 -17.75
v 300.75 8 -16.25
v 308.25 8 -16.25
v 308.25 8 -17.75
v 306.25 8 -17.75
f 462 463 464 465 466 467 468 469 470 471 472 473 474 475 476 477 456 457 458 459 460 461
g object_16
v 300.75 8 -21.5
v 300.75 8 -24.25
v 302.25 8 -21.5
v 302.25 8 -24.25
f 481 479 478 480
g object_17
v 300.75 8 -18.25
v 300.75 8 -21
v 302.25 8 -18.25
v 302.25 8 -21
f 485 483 482 484
g object_18
v 296.25 8 -15.75
v 300.25 8 -15.75
v 300.25 8 -5.25
v 292.75 8 -5.25
v 292.75 8 -24.75
v 296.25 8 -24.75
v 296.75 8 -9.5
v 296.75 8 -14.25
v 296.25 8 -14.25
v 296.25 8 -9.5
f 486 494 490
f 495 489 494
f 490 494 489
f 492 489 495
f 486 490 491
f 493 486 487
f 493 487 492
f 488 492 487
f 489 492 488
f 486 493 494
g object_19
v 235.75 8 -16.25
v 235.75 8 -15.75
v 236.25 8 -15.75
v 236.25 8 -14.5
v 235.75 8 -14.5
v 235.75 8 -14
v 236.25 8 -14
v 236.25 8 -5.25
v 232.75 8 -5.25
v 232.75 8 -14
v 233.25 8 -14
v 233.25 8 -14.5
v 232.75 8 -14.5
v 232.75 8 -15.75
v 233.25 8 -15.75
v 233.25 8 -16.25
v 232.75 8 -16.25
v 232.75 8 -17.75
v 233.25 8 -17.75
v 233.25 8 -18.25
v 232.75 8 -18.25
v 232.75 8 -24.75
v 236.25 8 -24.75
v 236.25 8 -18.25
v 234.75 8 -18.25
v 234.75 8 -20
v 234.25 8 -20
v 234.25 8 -18.25
v 234.25 8 -17.75
v 236.25 8 -17.75
v 236.25 8 -16.25
v 234.25 8 -16.25
v 234.25 8 -11.25
v 234.75 8 -11.25
v 234.75 8 -16.25
v 234.25 8 -7.25
v 234.75 8 -7.25
v 234.75 8 -9
v 234.25 8 -9
f 513 514 512
f 517 515 516
f 515 522 523
f 514 515 523 524
f 511 512 514
f 511 524 527
f 517 522 515
f 522 517 521
f 524 511 514
f 508 509 510 507
f 505 506 504
f 507 510 527
f 511 527 510
f 534 506 528
f 506 527 528
f 534 528 529 533
f 504 506 534
f 506 507 527
f 531 504 534
f 520 521 519
f 530 527 524
f 530 524 525
f 530 496 497
f 521 518 519
f 496 525 526
f 525 496 530
f 518 521 517
f 501 533 529
f 497 500 530
f 533 503 532
f 504 532 503
f 501 530 500
f 500 497 498 499
f 503 501 502
f 533 501 503
f 530 501 529
f 531 532 504
g object_20
v 243.75 8 -16.25
v 243.75 8 -15.75
v 244.25 8 -15.75
v 244.25 8 -14.5
v 243.75 8 -14.5
v 243.75 8 -14
v 244.25 8 -14
v 244.25 8 -5.25
v 240.75 8 -5.25
v 240.75 8 -14
v 241.25 8 -14
v 241.25 8 -14.5
v 240.75 8 -14.5
v 240.75 8 -15.75
v 241.25 8 -15.75
v 241.25 8 -16.25
v 240.75 8 -16.25
v 240.75 8 -17.75
v 241.25 8 -17.75
v 241.25 8 -18.25
v 240.75 8 -18.25
v 240.75 8 -24.75
v 244.25 8 -24.75
v 244.25 8 -18.25
v 242.75 8 -18.25
v 242.75 8 -20
v 242.25 8 -20
v 242.25 8 -18.25
v 242.25 8 -17.75
v 244.25 8 -17.75
v 244.25 8 -16.25
v 242.25 8 -16.25
v 242.25 8 -11.25
v 242.75 8 -11.25
v 242.75 8 -16.25
v 242.25 8 -7.25
v 242.75 8 -7.25
v 242.75 8 -9
v 242.25 8 -9
f 552 553 551
f 556 554 555
f 554 561 562
f 553 554 562 563
f 550 551 553
f 550 563 566
f 556 561 554
f 561 556 560
f 563 550 553
f 547 548 549 546
f 544 545 543
f 546 549 566
f 550 566 549
f 573 545 567
f 545 566 567
f 573 567 568 572
f 543 545 573
f 545 546 566
f 570 543 573
f 559 560 558
f 569 566 563
f 569 563 564
f 569 535 536
f 560 557 558
f 564 565 535
f 535 569 564
f 557 560 556
f 540 572 568
f 536 539 569
f 572 542 571
f 543 571 542
f 540 569 539
f 539 536 537 538
f 542 540 541
f 572 540 542
f 569 540 568
f 570 571 543
g object_21
v 259.75 8 -16.25
v 259.75 8 -15.75
v 260.25 8 -15.75
v 260.25 8 -14.5
v 259.75 8 -14.5
v 259.75 8 -14
v 260.25 8 -14
v 260.25 8 -5.25
v 256.75 8 -5.25
v 256.75 8 -14
v 257.25 8 -14
v 257.25 8 -14.5
v 256.75 8 -14.5
v 256.75 8 -15.75
v 257.25 8 -15.75
v 257.25 8 -16.25
v 256.75 8 -16.25
v 256.75 8 -17.75
v 257.25 8 -17.75
v 257.25 8 -18.25
v 256.75 8 -18.25
v 256.75 8 -24.75
v 260.25 8 -24.75
v 260.25 8 -18.25
v 258.75 8 -18.25
v 258.75 8 -20
v 258.25 8 -20
v 258.25 8 -18.25
v 258.25 8 -17.75
v 260.25 8 -17.75
v 260.25 8 -16.25
v 258.25 8 -16.25
v 258.25 8 -11.25
v 258.75 8 -11.25
v 258.75 8 -16.25
v 258.25 8 -7.25
v 258.75 8 -7.25
v 258.75 8 -9
v 258.25 8 -9
f 591 592 590
f 595 593 594
f 593 600 601
f 592 593 601 602
f 589 590 592
f 589 602 605
f 595 600 593
f 600 595 599
f 602 589 592
f 586 587 588 585
f 583 584 582
f 585 588 605
f 589 605 588
f 612 584 606
f 584 605 606
f 612 606 607 611
f 582 584 612
f 584 585 605
f 609 582 612
f 598 599 597
f 608 605 602
f 608 602 603
f 608 574 575
f 599 596 597
f 574 603 604
f 603 574 608
f 596 599 595
f 579 611 607
f 575 578 608
f 611 581 610
f 582 610 581
f 579 608 578
f 578 575 576 577
f 581 579 580
f 611 579 581
f 608 579 607
f 609 610 582
g object_22
v 291.75 8 -16.25
v 291.75 8 -15.75
v 292.25 8 -15.75
v 292.25 8 -14.5
v 291.75 8 -14.5
v 291.75 8 -14
v 292.25 8 -14
v 292.25 8 -5.25
v 288.75 8 -5.25
v 288.75 8 -14
v 289.25 8 -14
v 289.25 8 -14.5
v 288.75 8 -14.5
v 288.75 8 -15.75
v 289.25 8 -15.75
v 289.25 8 -16.25
v 288.75 8 -16.25
v 288.75 8 -17.75
v 289.25 8 -17.75
v 289.25 8 -18.25
v 288.75 8 -18.25
v 288.75 8 -24.75
v 292.25 8 -24.75
v 292.25 8 -18.25
v 290.75 8 -18.25
v 290.75 8 -20
v 290.25 8 -20
v 290.25 8 -18.25
v 290.25 8 -17.75
v 292.25 8 -17.75
v 292.25 8 -16.25
v 290.25 8 -16.25
v 290.25 8 -11.25
v 290.75 8 -11.25
v 290.75 8 -16.25
v 290.25 8 -7.25
v 290.75 8 -7.25
v 290.75 8 -9
v 290.25 8 -9
f 630 631 629
f 634 632 633
f 632 639 640
f 631 632 640 641
f 628 629 631
f 628 641 644
f 634 639 632
f 639 634 638
f 641 628 631
f 625 626 627 624
f 622 623 621
f 624 627 644
f 628 644 627
f 651 623 645
f 623 644 645
f 651 645 646 650
f 621 623 651
f 623 624 644
f 648 621 651
f 637 638 636
f 647 644 641
f 647 641 642
f 647 613 614
f 638 635 636
f 642 643 613
f 613 647 642
f 635 638 634
f 618 650 646
f 614 617 647
f 650 620 649
f 621 649 620
f 618 647 617
f 617 614 615 616
f 620 618 619
f 650 618 620
f 647 618 646
f 648 649 621
g object_23
v 283.75 8 -16.25
v 283.75 8 -15.75
v 284.25 8 -15.75
v 284.25 8 -14.5
v 283.75 8 -14.5
v 283.75 8 -14
v 284.25 8 -14
v 284.25 8 -5.25
v 280.75 8 -5.25
v 280.75 8 -14
v 281.25 8 -14
v 281.25 8 -14.5
v 280.75 8 -14.5
v 280.75 8 -15.75
v 281.25 8 -15.75
v 281.25 8 -16.25
v 280.75 8 -16.25
v 280.75 8 -17.75
v 281.25 8 -17.75
v 281.25 8 -18.25
v 280.75 8 -18.25
v 280.75 8 -24.75
v 284.25 8 -24.75
v 284.25 8 -18.25
v 282.75 8 -18.25
v 282.75 8 -20
v 282.25 8 -20
v 282.25 8 -18.25
v 282.25 8 -17.75
v 284.25 8 -17.75
v 284.25 8 -16.25
v 282.25 8 -16.25
v 282.25 8 -11.25
v 282.75 8 -11.25
v 282.75 8 -16.25
v 282.25 8 -7.25
v 282.75 8 -7.25
v 282.75 8 -9
v 282.25 8 -9
f 669 670 668
f 673 671 672
f 671 678 679
f 670 671 679 680
f 667 668 670
f 667 680 683
f 673 678 671
f 678 673 677
f 680 667 670
f 664 665 666 663
f 661 662 660
f 663 666 683
f 667 683 666
f 690 662 684
f 662 683 684
f 690 684 685 689
f 660 662 690
f 662 663 683
f 687 660 690
f 676 677 675
f 686 683 680
f 686 680 681
f 686 652 653
f 677 674 675
f 652 681 682
f 681 652 686
f 674 677 673
f 657 689 685
f 653 656 686
f 689 659 688
f 660 688 659
f 657 686 656
f 656 653 654 655
f 659 657 658
f 689 657 659
f 686 657 685
f 687 688 660
g object_24
v 275.75 8 -16.25
v 275.75 8 -15.75
v 276.25 8 -15.75
v 276.25 8 -14.5
v 275.75 8 -14.5
v 275.75 8 -14
v 276.25 8 -14
v 276.25 8 -5.25
v 272.75 8 -5.25
v 272.75 8 -14
v 273.25 8 -14
v 273.25 8 -14.5
v 272.75 8 -14.5
v 272.75 8 -15.75
v 273.25 8 -15.75
v 273.25 8 -16.25
v 272.75 8 -16.25
v 272.75 8 -17.75
v 273.25 8 -17.75
v 273.25 8 -18.25
v 272.75 8 -18.25
v 272.75 8 -24.75
v 276.25 8 -24.75
v 276.25 8 -18.25
v 274.75 8 -18.25
v 274.75 8 -20
v 274.25 8 -20
v 274.25 8 -18.25
v 274.25 8 -17.75
v 276.25 8 -17.75
v 276.25 8 -16.25
v 274.25 8 -16.25
v 274.25 8 -11.25
v 274.75 8 -11.25
v 274.75 8 -16.25
v 274.25 8 -7.25
v 274.75 8 -7.25
v 274.75 8 -9
v 274.25 8 -9
f 708 709 707
f 712 710 711
f 710 717 718
f 709 710 718 719
f 706 707 709
f 706 719 722
f 712 717 710
f 717 712 716
f 719 706 709
f 703 704 705 702
f 700 701 699
f 702 705 722
f 706 722 705
f 729 701 723
f 701 722 723
f 729 723 724 728
f 699 701 729
f 701 702 722
f 726 699 729
f 715 716 714
f 725 722 719
f 725 719 720
f 725 691 692
f 716 713 714
f 691 720 721
f 720 691 725
f 713 716 712
f 696 728 724
f 692 695 725
f 728 698 727
f 699 727 698
f 696 725 695
f 695 692 693 694
f 698 696 697
f 728 696 698
f 725 696 724
f 726 727 699
g object_25
v 267.75 8 -16.25
v 267.75 8 -15.75
v 268.25 8 -15.75
v 268.25 8 -14.5
v 267.75 8 -14.5
v 267.75 8 -14
v 268.25 8 -14
v 268.25 8 -5.25
v 264.75 8 -5.25
v 264.75 8 -14
v 265.25 8 -14
v 265.25 8 -14.5
v 264.75 8 -14.5
v 264.75 8 -15.75
v 265.25 8 -15.75
v 265.25 8 -16.25
v 264.75 8 -16.25
v 264.75 8 -17.75
v 265.25 8 -17.75
v 265.25 8 -18.25
v 264.75 8 -18.25
v 264.75 8 -24.75
v 268.25 8 -24.75
v 268.25 8 -18.25
v 266.75 8 -18.25
v 266.75 8 -20
v 266.25 8 -20
v 266.25 8 -18.25
v 266.25 8 -17.75
v 268.25 8 -17.75
v 268.25 8 -16.25
v 266.25 8 -16.25
v 266.25 8 -11.25
v 266.75 8 -11.25
v 266.75 8 -16.25
v 266.25 8 -7.25
v 266.75 8 -7.25
v 266.75 8 -9
v 266.25 8 -9
f 747 748 746
f 751 749 750
f 749 756 757
f 748 749 757 758
f 745 746 748
f 745 758 761
f 751 756 749
f 756 751 755
f 758 745 748
f 742 743 744 741
f 739 740 738
f 741 744 761
f 745 761 744
f 768 740 762
f 740 761 762
f 768 762 763 767
f 738 740 768
f 740 741 761
f 765 738 768
f 754 755 753
f 764 761 758
f 764 758 759
f 764 730 731
f 755 752 753
f 759 760 730
f 730 764 759
f 752 755 751
f 735 767 763
f 731 734 764
f 767 737 766
f 738 766 737
f 735 764 734
f 734 731 732 733
f 737 735 736
f 767 735 737
f 764 735 763
f 765 766 738
g object_26
v 315.75 8 -16.25
v 315.75 8 -15.75
v 316.25 8 -15.75
v 316.25 8 -14.5
v 315.75 8 -14.5
v 315.75 8 -14
v 316.25 8 -14
v 316.25 8 -5.25
v 312.75 8 -5.25
v 312.75 8 -14
v 313.25 8 -14
v 313.25 8 -14.5
v 312.75 8 -14.5
v 312.75 8 -15.75
v 313.25 8 -15.75
v 313.25 8 -16.25
v 312.75 8 -16.25
v 312.75 8 -17.75
v 313.25 8 -17.75
v 313.25 8 -18.25
v 312.75 8 -18.25
v 312.75 8 -24.75
v 316.25 8 -24.75
v 316.25 8 -18.25
v 314.75 8 -18.25
v 314.75 8 -20
v 314.25 8 -20
v 314.25 8 -18.25
v 314.25 8 -17.75
v 316.25 8 -17.75
v 316.25 8 -16.25
v 314.25 8 -16.25
v 314.25 8 -11.25
v 314.75 8 -11.25
v 314.75 8 -16.25
v 314.25 8 -7.25
v 314.75 8 -7.25
v 314.75 8 -9
v 314.25 8 -9
f 786 787 785
f 790 788 789
f 788 795 796
f 787 788 796 797
f 784 785 787
f 784 797 800
f 790 795 788
f 795 790 794
f 797 784 787
f 781 782 783 780
f 778 779 777
f 780 783 800
f 784 800 783
f 807 779 801
f 779 800 801
f 807 801 802 806
f 777 779 807
f 779 780 800
f 804 777 807
f 793 794 792
f 803 800 797
f 803 797 798
f 803 769 770
f 794 791 792
f 769 798 799
f 798 769 803
f 791 794 790
f 774 806 802
f 770 773 803
f 806 776 805
f 777 805 776
f 774 803 773
f 773 770 771 772
f 776 774 775
f 806 774 776
f 803 774 802
f 804 805 777
g object_27
v 323.75 8 -16.25
v 323.75 8 -15.75
v 324.25 8 -15.75
v 324.25 8 -14.5
v 323.75 8 -14.5
v 323.75 8 -14
v 324.25 8 -14
v 324.25 8 -5.25
v 320.75 8 -5.25
v 320.75 8 -14
v 321.25 8 -14
v 321.25 8 -14.5
v 320.75 8 -14.5
v 320.75 8 -15.75
v 321.25 8 -15.75
v 321.25 8 -16.25
v 320.75 8 -16.25
v 320.75 8 -17.75
v 321.25 8 -17.75
v 321.25 8 -18.25
v 320.75 8 -18.25
v 320.75 8 -24.75
v 324.25 8 -24.75
v 324.25 8 -18.25
v 322.75 8 -18.25
v 322.75 8 -20
v 322.25 8 -20
v 322.25 8 -18.25
v 322.25 8 -17.75
v 324.25 8 -17.75
v 324.25 8 -16.25
v 322.25 8 -16.25
v 322.25 8 -11.25
v 322.75 8 -11.25
v 322.75 8 -16.25
v 322.25 8 -7.25
v 322.75 8 -7.25
v 322.75 8 -9
v 322.25 8 -9
f 825 826 824
f 829 827 828
f 827 834 835
f 826 827 835 836
f 823 824 826
f 823 836 839
f 829 834 827
f 834 829 833
f 836 823 826
f 820 821 822 819
f 817 818 816
f 819 822 839
f 823 839 822
f 846 818 840
f 818 839 840
f 846 840 841 845
f 816 818 846
f 818 819 839
f 843 816 846
f 832 833 831
f 842 839 836
f 842 836 837
f 842 808 809
f 833 830 831
f 808 837 838
f 837 808 842
f 830 833 829
f 813 845 841
f 809 812 842
f 845 815 844
f 816 844 815
f 813 842 812
f 812 809 810 811
f 815 813 814
f 845 813 815
f 842 813 841
f 843 844 816
g object_28
v 331.75 8 -16.25
v 331.75 8 -15.75
v 332.25 8 -15.75
v 332.25 8 -14.5
v 331.75 8 -14.5
v 331.75 8 -14
v 332.25 8 -14
v 332.25 8 -5.25
v 328.75 8 -5.25
v 328.75 8 -14
v 329.25 8 -14
v 329.25 8 -14.5
v 328.75 8 -14.5
v 328.75 8 -15.75
v 329.25 8 -15.75
v 329.25 8 -16.25
v 328.75 8 -16.25
v 328.75 8 -17.75
v 329.25 8 -17.75
v 329.25 8 -18.25
v 328.75 8 -18.25
v 328.75 8 -24.75
v 332.25 8 -24.75
v 332.25 8 -18.25
v 330.75 8 -18.25
v 330.75 8 -20
v 330.25 8 -20
v 330.25 8 -18.25
v 330.25 8 -17.75
v 332.25 8 -17.75
v 332.25 8 -16.25
v 330.25 8 -16.25
v 330.25 8 -11.25
v 330.75 8 -11.25
v 330.75 8 -16.25
v 330.25 8 -7.25
v 330.75 8 -7.25
v 330.75 8 -9
v 330.25 8 -9
f 864 865 863
f 868 866 867
f 866 873 874
f 865 866 874 875
f 862 863 865
f 862 875 878
f 868 873 866
f 873 868 872
f 875 862 865
f 859 860 861 858
f 856 857 855
f 858 861 878
f 862 878 861
f 885 857 879
f 857 878 879
f 885 879 880 884
f 855 857 885
f 857 858 878
f 882 855 885
f 871 872 870
f 881 878 875
f 881 875 876
f 881 847 848
f 872 869 870
f 847 876 877
f 876 847 881
f 869 872 868
f 852 884 880
f 848 851 881
f 884 854 883
f 855 883 854
f 852 881 851
f 851 848 849 850
f 854 852 853
f 884 852 854
f 881 852 880
f 882 883 855
g object_29
v 339.75 8 -16.25
v 339.75 8 -15.75
v 340.25 8 -15.75
v 340.25 8 -14.5
v 339.75 8 -14.5
v 339.75 8 -14
v 340.25 8 -14
v 340.25 8 -5.25
v 336.75 8 -5.25
v 336.75 8 -14
v 337.25 8 -14
v 337.25 8 -14.5
v 336.75 8 -14.5
v 336.75 8 -15.75
v 337.25 8 -15.75
v 337.25 8 -16.25
v 336.75 8 -16.25
v 336.75 8 -17.75
v 337.25 8 -17.75
v 337.25 8 -18.25
v 336.75 8 -18.25
v 336.75 8 -24.75
v 340.25 8 -24.75
v 340.25 8 -18.25
v 338.75 8 -18.25
v 338.75 8 -20
v 338.25 8 -20
v 338.25 8 -18.25
v 338.25 8 -17.75
v 340.25 8 -17.75
v 340.25 8 -16.25
v 338.25 8 -16.25
v 338.25 8 -11.25
v 338.75 8 -11.25
v 338.75 8 -16.25
v 338.25 8 -7.25
v 338.75 8 -7.25
v 338.75 8 -9
v 338.25 8 -9
f 903 904 902
f 907 905 906
f 905 912 913
f 904 905 913 914
f 901 902 904
f 901 914 917
f 907 912 905
f 912 907 911
f 914 901 904
f 898 899 900 897
f 895 896 894
f 897 900 917
f 901 917 900
f 924 896 918
f 896 917 918
f 924 918 919 923
f 894 896 924
f 896 897 917
f 921 894 924
f 910 911 909
f 920 917 914
f 920 914 915
f 920 886 887
f 911 908 909
f 915 916 886
f 886 920 915
f 908 911 907
f 891 923 919
f 887 890 920
f 923 893 922
f 894 922 893
f 891 920 890
f 890 887 888 889
f 893 891 892
f 923 891 893
f 920 891 919
f 921 922 894
g object_30
v 340.75 8 -24.75
v 340.75 8 -18.25
v 344.25 8 -24.75
v 344.25 8 -18.25
f 928 926 925 927
g object_31
v 343.5 8 -15.75
v 344.75 8 -15.75
v 344.75 8 -26.75
v 348.25 8 -26.75
v 348.25 8 -7.25
v 344.75 8 -7.25
v 344.75 8 -14.25
v 344.25 8 -14.25
v 344.25 8 -5.25
v 340.75 8 -5.25
v 340.75 8 -15.75
v 341.5 8 -15.75
v 341.5 8 -16.25
v 340.75 8 -16.25
v 340.75 8 -17.75
v 344.25 8 -17.75
v 344.25 8 -16.25
v 343.5 8 -16.25
f 941 942 943 944 945 946 929 930 931 932 933 934 935 936 937 938 939 940
g object_32
v 348.75 8 -18.75
v 348.75 8 -15.25
v 361.25 8 -18.75
v 361.25 8 -15.25
f 950 948 947 949
g object_33
v 348.75 8 -26.75
v 348.75 8 -19.25
v 361.25 8 -26.75
v 361.25 8 -19.25
v 350.75 8 -23.25
v 350.75 8 -22.75
v 355.5 8 -22.75
v 355.5 8 -23.25
f 952 951 955 956
f 958 955 951
f 957 952 956
f 953 954 957 958
f 951 953 958
f 952 957 954
g object_34
v 348.75 8 -14.75
v 348.75 8 -7.25
v 361.25 8 -14.75
v 361.25 8 -7.25
v 350.75 8 -11.25
v 350.75 8 -10.75
v 355.5 8 -10.75
v 355.5 8 -11.25
f 960 959 963 964
f 966 963 959
f 965 960 964
f 961 962 965 966
f 959 961 966
f 960 965 962
g object_35
v 306.75 8 -24.25
v 306.75 8 -21.5
v 308.25 8 -24.25
v 308.25 8 -21.5
f 970 968 967 969
g object_36
v 306.75 8 -21
v 306.75 8 -18.25
v 308.25 8 -21
v 308.25 8 -18.25
f 974 972 971 973
g object_37
v 300.75 8 -15.75
v 300.75 8 -5.25
v 308.25 8 -15.75
v 308.25 8 -5.25
v 304.75 8 -14.25
v 304.25 8 -14.25
v 304.25 8 -9.5
v 304.75 8 -9.5
f 981 975 980
f 979 980 975
f 982 976 981
f 975 981 976
f 982 979 977
f 975 977 979
f 976 982 978
f 977 978 982
g object_38
v 348.75 1 -18.75
v 348.75 1 -15.25
v 361.25 1 -18.75
v 361.25 1 -15.25
f 986 984 983 985
g object_39
v 344.75 1 -20
v 344.75 1 -26.75
v 348.25 1 -26.75
v 348.25 1 -7.25
v 344.75 1 -7.25
v 344.75 1 -18.25
v 343.5 1 -18.25
v 343.5 1 -17.75
v 344.25 1 -17.75
v 344.25 1 -16.25
v 340.75 1 -16.25
v 340.75 1 -17.75
v 341.5 1 -17.75
v 341.5 1 -18.25
v 340.75 1 -18.25
v 340.75 1 -28.75
v 344.25 1 -28.75
v 344.25 1 -20
f 1000 1001 1002 1003 1004 987 988 989 990 991 992 993 994 995 996 997 998 999
g object_40
v 296.75 1 -15.75
v 296.75 1 -5.25
v 300.25 1 -15.75
v 300.25 1 -5.25
f 1008 1006 1005 1007
g object_41
v 300.75 1 -15.75
v 300.75 1 -5.25
v 308.25 1 -15.75
v 308.25 1 -5.25
v 304.75 1 -14.25
v 304.25 1 -14.25
v 304.25 1 -9.5
v 304.75 1 -9.5
f 1015 1009 1014
f 1013 1014 1009
f 1016 1010 1015
f 1009 1015 1010
f 1016 1013 1011
f 1009 1011 1013
f 1010 1016 1012
f 1011 1012 1016
g object_42
v 306.75 1 -21
v 306.75 1 -18.25
v 308.25 1 -21
v 308.25 1 -18.25
f 1020 1018 1017 1019
g object_43
v 306.75 1 -24.25
v 306.75 1 -21.5
v 308.25 1 -24.25
v 308.25 1 -21.5
f 1024 1022 1021 1023
g object_44
v 244.75 1 -15.75
v 244.75 1 -5.25
v 248.25 1 -15.75
v 248.25 1 -5.25
f 1028 1026 1025 1027
g object_45
v 245.5 1 -20.25
v 244.75 1 -20.25
v 244.75 1 -28.75
v 248.25 1 -28.75
v 248.25 1 -20.25
v 246.5 1 -20.25
v 246.5 1 -17.75
v 248.25 1 -17.75
v 248.25 1 -16.25
v 244.75 1 -16.25
v 244.75 1 -19.75
v 245.5 1 -19.75
f 1030 1031 1032 1033 1034 1035 1036 1037 1038 1039 1040 1029
g object_46
v 348.75 1 -14.75
v 348.75 1 -7.25
v 361.25 1 -14.75
v 361.25 1 -7.25
v 350.75 1 -11.25
v 350.75 1 -10.75
v 355.5 1 -10.75
v 355.5 1 -11.25
f 1042 1041 1045 1046
f 1048 1045 1041
f 1047 1042 1046
f 1043 1044 1047 1048
f 1041 1043 1048
f 1042 1047 1044
g object_47
v 348.75 1 -26.75
v 348.75 1 -19.25
v 361.25 1 -26.75
v 361.25 1 -19.25
v 350.75 1 -23.25
v 350.75 1 -22.75
v 355.5 1 -22.75
v 355.5 1 -23.25
f 1050 1049 1053 1054
f 1056 1053 1049
f 1055 1050 1054
f 1055 1056 1051
f 1049 1051 1056
f 1050 1055 1052
f 1051 1052 1055
g object_48
v 334.25 1 -15.75
v 334.25 1 -14
v 334.75 1 -14
v 334.75 1 -15.75
v 334.75 1 -16.25
v 332.75 1 -16.25
v 332.75 1 -17.75
v 333.5 1 -17.75
v 333.5 1 -18.25
v 332.75 1 -18.25
v 332.75 1 -28.75
v 336.25 1 -28.75
v 336.25 1 -18.25
v 335.5 1 -18.25
v 335.5 1 -17.75
v 336.25 1 -17.75
v 336.25 1 -5.25
v 332.75 1 -5.25
v 332.75 1 -15.75
v 333.75 1 -11.75
v 335.25 1 -11.75
v 335.25 1 -12.25
v 333.75 1 -12.25
v 334.25 1 -26.75
v 334.25 1 -25
v 334.75 1 -25
v 334.75 1 -26.75
v 334.25 1 -18
v 334.75 1 -18
v 334.75 1 -22.75
v 334.25 1 -22.75
f 1066 1067 1065
f 1081 1065 1067
f 1067 1080 1081
f 1065 1087 1084
f 1087 1081 1082 1086
f 1065 1081 1087
f 1067 1068 1083 1080
f 1084 1064 1065
f 1064 1062 1063
f 1076 1074 1075
f 1062 1064 1061
f 1057 1079 1075
f 1061 1064 1084
f 1079 1076 1075
f 1059 1079 1058
f 1058 1079 1057
f 1073 1074 1076 1077
f 1068 1082 1083
f 1085 1061 1084
f 1070 1085 1086
f 1086 1082 1070
f 1069 1070 1068
f 1082 1068 1070
f 1085 1070 1071
f 1061 1085 1071
f 1060 1061 1071
f 1059 1060 1078
f 1077 1078 1072
f 1078 1060 1071
f 1072 1073 1077
f 1078 1071 1072
f 1079 1059 1078
g object_49
v 326.25 1 -15.75
v 326.25 1 -14
v 326.75 1 -14
v 326.75 1 -15.75
v 326.75 1 -16.25
v 324.75 1 -16.25
v 324.75 1 -17.75
v 325.5 1 -17.75
v 325.5 1 -18.25
v 324.75 1 -18.25
v 324.75 1 -28.75
v 328.25 1 -28.75
v 328.25 1 -18.25
v 327.5 1 -18.25
v 327.5 1 -17.75
v 328.25 1 -17.75
v 328.25 1 -5.25
v 324.75 1 -5.25
v 324.75 1 -15.75
v 325.75 1 -11.75
v 327.25 1 -11.75
v 327.25 1 -12.25
v 325.75 1 -12.25
v 326.25 1 -26.75
v 326.25 1 -25
v 326.75 1 -25
v 326.75 1 -26.75
v 326.25 1 -18
v 326.75 1 -18
v 326.75 1 -22.75
v 326.25 1 -22.75
f 1097 1098 1096
f 1112 1096 1098
f 1098 1111 1112
f 1096 1118 1115
f 1118 1112 1113 1117
f 1096 1112 1118
f 1098 1099 1114 1111
f 1115 1095 1096
f 1095 1093 1094
f 1107 1105 1106
f 1093 1095 1092
f 1088 1110 1106
f 1092 1095 1115
f 1110 1107 1106
f 1109 1110 1089 1090
f 1089 1110 1088
f 1108 1105 1107
f 1099 1113 1114
f 1116 1092 1115
f 1101 1116 1117
f 1117 1113 1101
f 1100 1101 1099
f 1113 1099 1101
f 1116 1101 1102
f 1092 1116 1102
f 1091 1092 1102
f 1090 1091 1109
f 1108 1109 1103
f 1109 1091 1102
f 1108 1104 1105
f 1103 1104 1108
f 1109 1102 1103
g object_50
v 318.25 1 -15.75
v 318.25 1 -14
v 318.75 1 -14
v 318.75 1 -15.75
v 318.75 1 -16.25
v 316.75 1 -16.25
v 316.75 1 -17.75
v 317.5 1 -17.75
v 317.5 1 -18.25
v 316.75 1 -18.25
v 316.75 1 -28.75
v 320.25 1 -28.75
v 320.25 1 -18.25
v 319.5 1 -18.25
v 319.5 1 -17.75
v 320.25 1 -17.75
v 320.25 1 -5.25
v 316.75 1 -5.25
v 316.75 1 -15.75
v 317.75 1 -11.75
v 319.25 1 -11.75
v 319.25 1 -12.25
v 317.75 1 -12.25
v 318.25 1 -26.75
v 318.25 1 -25
v 318.75 1 -25
v 318.75 1 -26.75
v 318.25 1 -18
v 318.75 1 -18
v 318.75 1 -22.75
v 318.25 1 -22.75
f 1128 1129 1127
f 1143 1127 1129
f 1129 1142 1143
f 1127 1149 1146
f 1149 1143 1144 1148
f 1127 1143 1149
f 1142 1129 1145
f 1146 1126 1127
f 1126 1124 1125
f 1138 1136 1137
f 1124 1126 1123
f 1119 1141 1137
f 1123 1126 1146
f 1141 1138 1137
f 1121 1141 1120
f 1120 1141 1119
f 1139 1136 1138
f 1130 1144 1145
f 1147 1123 1146
f 1132 1147 1148
f 1148 1144 1132
f 1131 1132 1130
f 1144 1130 1132
f 1147 1132 1133
f 1130 1145 1129
f 1123 1147 1133
f 1122 1123 1133
f 1121 1122 1140
f 1139 1140 1134
f 1140 1122 1133
f 1139 1135 1136
f 1134 1135 1139
f 1140 1133 1134
f 1141 1121 1140
g object_51
v 310.25 1 -15.75
v 310.25 1 -14
v 310.75 1 -14
v 310.75 1 -15.75
v 310.75 1 -16.25
v 308.75 1 -16.25
v 308.75 1 -17.75
v 309.5 1 -17.75
v 309.5 1 -18.25
v 308.75 1 -18.25
v 308.75 1 -28.75
v 312.25 1 -28.75
v 312.25 1 -18.25
v 311.5 1 -18.25
v 311.5 1 -17.75
v 312.25 1 -17.75
v 312.25 1 -5.25
v 308.75 1 -5.25
v 308.75 1 -15.75
v 309.75 1 -11.75
v 311.25 1 -11.75
v 311.25 1 -12.25
v 309.75 1 -12.25
v 310.25 1 -26.75
v 310.25 1 -25
v 310.75 1 -25
v 310.75 1 -26.75
v 310.25 1 -18
v 310.75 1 -18
v 310.75 1 -22.75
v 310.25 1 -22.75
f 1159 1160 1158
f 1174 1158 1160
f 1160 1173 1174
f 1158 1180 1177
f 1180 1174 1175 1179
f 1158 1174 1180
f 1160 1161 1176 1173
f 1177 1157 1158
f 1157 1155 1156
f 1169 1167 1168
f 1155 1157 1154
f 1150 1172 1168
f 1154 1157 1177
f 1172 1169 1168
f 1171 1172 1151 1152
f 1151 1172 1150
f 1170 1167 1169
f 1161 1175 1176
f 1178 1154 1177
f 1163 1178 1179
f 1179 1175 1163
f 1162 1163 1161
f 1175 1161 1163
f 1178 1163 1164
f 1154 1178 1164
f 1153 1154 1164
f 1152 1153 1171
f 1170 1171 1165
f 1171 1153 1164
f 1170 1166 1167
f 1165 1166 1170
f 1171 1164 1165
g object_52
v 266.25 1 -15.75
v 266.25 1 -14
v 266.75 1 -14
v 266.75 1 -15.75
v 266.75 1 -16.25
v 264.75 1 -16.25
v 264.75 1 -17.75
v 265.5 1 -17.75
v 265.5 1 -18.25
v 264.75 1 -18.25
v 264.75 1 -28.75
v 268.25 1 -28.75
v 268.25 1 -18.25
v 267.5 1 -18.25
v 267.5 1 -17.75
v 268.25 1 -17.75
v 268.25 1 -5.25
v 264.75 1 -5.25
v 264.75 1 -15.75
v 265.75 1 -11.75
v 267.25 1 -11.75
v 267.25 1 -12.25
v 265.75 1 -12.25
v 266.25 1 -26.75
v 266.25 1 -25
v 266.75 1 -25
v 266.75 1 -26.75
v 266.25 1 -18
v 266.75 1 -18
v 266.75 1 -22.75
v 266.25 1 -22.75
f 1190 1191 1189
f 1205 1189 1191
f 1191 1204 1205
f 1189 1211 1208
f 1211 1205 1206 1210
f 1189 1205 1211
f 1191 1192 1207 1204
f 1208 1188 1189
f 1188 1186 1187
f 1200 1198 1199
f 1186 1188 1185
f 1181 1203 1199
f 1185 1188 1208
f 1203 1200 1199
f 1202 1203 1182 1183
f 1182 1203 1181
f 1201 1198 1200
f 1192 1206 1207
f 1209 1185 1208
f 1194 1209 1210
f 1210 1206 1194
f 1193 1194 1192
f 1206 1192 1194
f 1209 1194 1195
f 1185 1209 1195
f 1184 1185 1195
f 1183 1184 1202
f 1201 1202 1196
f 1202 1184 1195
f 1201 1197 1198
f 1196 1197 1201
f 1202 1195 1196
g object_53
v 274.25 1 -15.75
v 274.25 1 -14
v 274.75 1 -14
v 274.75 1 -15.75
v 274.75 1 -16.25
v 272.75 1 -16.25
v 272.75 1 -17.75
v 273.5 1 -17.75
v 273.5 1 -18.25
v 272.75 1 -18.25
v 272.75 1 -28.75
v 276.25 1 -28.75
v 276.25 1 -18.25
v 275.5 1 -18.25
v 275.5 1 -17.75
v 276.25 1 -17.75
v 276.25 1 -5.25
v 272.75 1 -5.25
v 272.75 1 -15.75
v 273.75 1 -11.75
v 275.25 1 -11.75
v 275.25 1 -12.25
v 273.75 1 -12.25
v 274.25 1 -26.75
v 274.25 1 -25
v 274.75 1 -25
v 274.75 1 -26.75
v 274.25 1 -18
v 274.75 1 -18
v 274.75 1 -22.75
v 274.25 1 -22.75
f 1221 1222 1220
f 1236 1220 1222
f 1222 1235 1236
f 1220 1242 1239
f 1242 1236 1237 1241
f 1220 1236 1242
f 1222 1223 1238 1235
f 1239 1219 1220
f 1219 1217 1218
f 1231 1229 1230
f 1217 1219 1216
f 1212 1234 1230
f 1216 1219 1239
f 1234 1231 1230
f 1233 1234 1213 1214
f 1213 1234 1212
f 1232 1229 1231
f 1223 1237 1238
f 1240 1216 1239
f 1225 1240 1241
f 1241 1237 1225
f 1224 1225 1223
f 1237 1223 1225
f 1240 1225 1226
f 1216 1240 1226
f 1215 1216 1226
f 1214 1215 1233
f 1232 1233 1227
f 1233 1215 1226
f 1232 1228 1229
f 1227 1228 1232
f 1233 1226 1227
g object_54
v 282.25 1 -15.75
v 282.25 1 -14
v 282.75 1 -14
v 282.75 1 -15.75
v 282.75 1 -16.25
v 280.75 1 -16.25
v 280.75 1 -17.75
v 281.5 1 -17.75
v 281.5 1 -18.25
v 280.75 1 -18.25
v 280.75 1 -28.75
v 284.25 1 -28.75
v 284.25 1 -18.25
v 283.5 1 -18.25
v 283.5 1 -17.75
v 284.25 1 -17.75
v 284.25 1 -5.25
v 280.75 1 -5.25
v 280.75 1 -15.75
v 281.75 1 -11.75
v 283.25 1 -11.75
v 283.25 1 -12.25
v 281.75 1 -12.25
v 282.25 1 -26.75
v 282.25 1 -25
v 282.75 1 -25
v 282.75 1 -26.75
v 282.25 1 -18
v 282.75 1 -18
v 282.75 1 -22.75
v 282.25 1 -22.75
f 1252 1253 1251
f 1267 1251 1253
f 1253 1266 1267
f 1251 1273 1270
f 1273 1267 1268 1272
f 1251 1267 1273
f 1266 1253 1269
f 1270 1250 1251
f 1250 1248 1249
f 1262 1260 1261
f 1248 1250 1247
f 1243 1265 1261
f 1247 1250 1270
f 1265 1262 1261
f 1264 1265 1244 1245
f 1244 1265 1243
f 1263 1260 1262
f 1254 1268 1269
f 1271 1247 1270
f 1256 1271 1272
f 1272 1268 1256
f 1255 1256 1254
f 1268 1254 1256
f 1271 1256 1257
f 1254 1269 1253
f 1247 1271 1257
f 1246 1247 1257
f 1245 1246 1264
f 1263 1264 1258
f 1264 1246 1257
f 1263 1259 1260
f 1258 1259 1263
f 1264 1257 1258
g object_55
v 290.25 1 -15.75
v 290.25 1 -14
v 290.75 1 -14
v 290.75 1 -15.75
v 290.75 1 -16.25
v 288.75 1 -16.25
v 288.75 1 -17.75
v 289.5 1 -17.75
v 289.5 1 -18.25
v 288.75 1 -18.25
v 288.75 1 -28.75
v 292.25 1 -28.75
v 292.25 1 -18.25
v 291.5 1 -18.25
v 291.5 1 -17.75
v 292.25 1 -17.75
v 292.25 1 -5.25
v 288.75 1 -5.25
v 288.75 1 -15.75
v 289.75 1 -11.75
v 291.25 1 -11.75
v 291.25 1 -12.25
v 289.75 1 -12.25
v 290.25 1 -26.75
v 290.25 1 -25
v 290.75 1 -25
v 290.75 1 -26.75
v 290.25 1 -18
v 290.75 1 -18
v 290.75 1 -22.75
v 290.25 1 -22.75
f 1283 1284 1282
f 1298 1282 1284
f 1284 1297 1298
f 1282 1304 1301
f 1304 1298 1299 1303
f 1282 1298 1304
f 1284 1285 1300 1297
f 1301 1281 1282
f 1281 1279 1280
f 1293 1291 1292
f 1279 1281 1278
f 1274 1296 1292
f 1278 1281 1301
f 1296 1293 1292
f 1295 1296 1275 1276
f 1275 1296 1274
f 1294 1291 1293
f 1285 1299 1300
f 1302 1278 1301
f 1287 1302 1303
f 1303 1299 1287
f 1286 1287 1285
f 1299 1285 1287
f 1302 1287 1288
f 1278 1302 1288
f 1277 1278 1288
f 1276 1277 1295
f 1294 1295 1289
f 1295 1277 1288
f 1294 1290 1291
f 1289 1290 1294
f 1295 1288 1289
g object_56
v 258.25 1 -15.75
v 258.25 1 -14
v 258.75 1 -14
v 258.75 1 -15.75
v 258.75 1 -16.25
v 256.75 1 -16.25
v 256.75 1 -17.75
v 257.5 1 -17.75
v 257.5 1 -18.25
v 256.75 1 -18.25
v 256.75 1 -28.75
v 260.25 1 -28.75
v 260.25 1 -18.25
v 259.5 1 -18.25
v 259.5 1 -17.75
v 260.25 1 -17.75
v 260.25 1 -5.25
v 256.75 1 -5.25
v 256.75 1 -15.75
v 257.75 1 -11.75
v 259.25 1 -11.75
v 259.25 1 -12.25
v 257.75 1 -12.25
v 258.25 1 -26.75
v 258.25 1 -25
v 258.75 1 -25
v 258.75 1 -26.75
v 258.25 1 -18
v 258.75 1 -18
v 258.75 1 -22.75
v 258.25 1 -22.75
f 1314 1315 1313
f 1329 1313 1315
f 1315 1328 1329
f 1313 1335 1332
f 1335 1329 1330 1334
f 1313 1329 1335
f 1315 1316 1331 1328
f 1332 1312 1313
f 1312 1310 1311
f 1324 1322 1323
f 1310 1312 1309
f 1305 1327 1323
f 1309 1312 1332
f 1327 1324 1323
f 1307 1327 1306
f 1306 1327 1305
f 1321 1322 1324 1325
f 1316 1330 1331
f 1333 1309 1332
f 1318 1333 1334
f 1334 1330 1318
f 1317 1318 1316
f 1330 1316 1318
f 1333 1318 1319
f 1309 1333 1319
f 1308 1309 1319
f 1307 1308 1326
f 1325 1326 1320
f 1326 1308 1319
f 1320 1321 1325
f 1326 1319 1320
f 1327 1307 1326
g object_57
v 250.25 1 -15.75
v 250.25 1 -14
v 250.75 1 -14
v 250.75 1 -15.75
v 250.75 1 -16.25
v 248.75 1 -16.25
v 248.75 1 -17.75
v 249.5 1 -17.75
v 249.5 1 -18.25
v 248.75 1 -18.25
v 248.75 1 -28.75
v 252.25 1 -28.75
v 252.25 1 -18.25
v 251.5 1 -18.25
v 251.5 1 -17.75
v 252.25 1 -17.75
v 252.25 1 -5.25
v 248.75 1 -5.25
v 248.75 1 -15.75
v 249.75 1 -11.75
v 251.25 1 -11.75
v 251.25 1 -12.25
v 249.75 1 -12.25
v 250.25 1 -26.75
v 250.25 1 -25
v 250.75 1 -25
v 250.75 1 -26.75
v 250.25 1 -18
v 250.75 1 -18
v 250.75 1 -22.75
v 250.25 1 -22.75
f 1345 1346 1344
f 1360 1344 1346
f 1346 1359 1360
f 1344 1366 1363
f 1366 1360 1361 1365
f 1344 1360 1366
f 1346 1347 1362 1359
f 1363 1343 1344
f 1343 1341 1342
f 1355 1353 1354
f 1341 1343 1340
f 1336 1358 1354
f 1340 1343 1363
f 1358 1355 1354
f 1357 1358 1337 1338
f 1337 1358 1336
f 1356 1353 1355
f 1347 1361 1362
f 1364 1340 1363
f 1349 1364 1365
f 1365 1361 1349
f 1348 1349 1347
f 1361 1347 1349
f 1364 1349 1350
f 1340 1364 1350
f 1339 1340 1350
f 1338 1339 1357
f 1356 1357 1351
f 1357 1339 1350
f 1356 1352 1353
f 1351 1352 1356
f 1357 1350 1351
g object_58
v 238.25 1 -15.75
v 238.25 1 -14
v 238.75 1 -14
v 238.75 1 -15.75
v 238.75 1 -16.25
v 236.75 1 -16.25
v 236.75 1 -17.75
v 237.5 1 -17.75
v 237.5 1 -18.25
v 236.75 1 -18.25
v 236.75 1 -28.75
v 240.25 1 -28.75
v 240.25 1 -18.25
v 239.5 1 -18.25
v 239.5 1 -17.75
v 240.25 1 -17.75
v 240.25 1 -5.25
v 236.75 1 -5.25
v 236.75 1 -15.75
v 237.75 1 -11.75
v 239.25 1 -11.75
v 239.25 1 -12.25
v 237.75 1 -12.25
v 238.25 1 -26.75
v 238.25 1 -25
v 238.75 1 -25
v 238.75 1 -26.75
v 238.25 1 -18
v 238.75 1 -18
v 238.75 1 -22.75
v 238.25 1 -22.75
f 1376 1377 1375
f 1391 1375 1377
f 1377 1390 1391
f 1375 1397 1394
f 1397 1391 1392 1396
f 1375 1391 1397
f 1377 1378 1393 1390
f 1394 1374 1375
f 1374 1372 1373
f 1386 1384 1385
f 1372 1374 1371
f 1367 1389 1385
f 1371 1374 1394
f 1389 1386 1385
f 1369 1389 1368
f 1368 1389 1367
f 1383 1384 1386 1387
f 1378 1392 1393
f 1395 1371 1394
f 1380 1395 1396
f 1396 1392 1380
f 1379 1380 1378
f 1392 1378 1380
f 1395 1380 1381
f 1371 1395 1381
f 1370 1371 1381
f 1369 1370 1388
f 1387 1388 1382
f 1388 1370 1381
f 1382 1383 1387
f 1388 1381 1382
f 1389 1369 1388
g object_59
v 230.25 1 -15.75
v 230.25 1 -14
v 230.75 1 -14
v 230.75 1 -15.75
v 230.75 1 -16.25
v 228.75 1 -16.25
v 228.75 1 -17.75
v 229.5 1 -17.75
v 229.5 1 -18.25
v 228.75 1 -18.25
v 228.75 1 -28.75
v 232.25 1 -28.75
v 232.25 1 -18.25
v 231.5 1 -18.25
v 231.5 1 -17.75
v 232.25 1 -17.75
v 232.25 1 -5.25
v 228.75 1 -5.25
v 228.75 1 -15.75
v 229.75 1 -11.75
v 231.25 1 -11.75
v 231.25 1 -12.25
v 229.75 1 -12.25
v 230.25 1 -26.75
v 230.25 1 -25
v 230.75 1 -25
v 230.75 1 -26.75
v 230.25 1 -18
v 230.75 1 -18
v 230.75 1 -22.75
v 230.25 1 -22.75
f 1407 1408 1406
f 1422 1406 1408
f 1408 1421 1422
f 1406 1428 1425
f 1428 1422 1423 1427
f 1406 1422 1428
f 1408 1409 1424 1421
f 1425 1405 1406
f 1405 1403 1404
f 1417 1415 1416
f 1403 1405 1402
f 1398 1420 1416
f 1402 1405 1425
f 1420 1417 1416
f 1400 1420 1399
f 1399 1420 1398
f 1414 1415 1417 1418
f 1409 1423 1424
f 1426 1402 1425
f 1411 1426 1427
f 1427 1423 1411
f 1410 1411 1409
f 1423 1409 1411
f 1426 1411 1412
f 1402 1426 1412
f 1401 1402 1412
f 1400 1401 1419
f 1418 1419 1413
f 1419 1401 1412
f 1413 1414 1418
f 1419 1412 1413
f 1420 1400 1419
g object_60
v 340.75 1 -5.25
v 340.75 1 -15.75
v 344.25 1 -5.25
v 344.25 1 -15.75
f 1432 1430 1429 1431
g object_61
v 300.75 1 -18.25
v 300.75 1 -21
v 302.25 1 -18.25
v 302.25 1 -21
f 1436 1434 1433 1435
g object_62
v 300.75 1 -21.5
v 300.75 1 -24.25
v 302.25 1 -21.5
v 302.25 1 -24.25
f 1440 1438 1437 1439
g object_63
v 306.25 1 -24.75
v 308.25 1 -24.75
v 308.25 1 -26.75
v 296.75 1 -26.75
v 296.75 1 -18.25
v 297.5 1 -18.25
v 297.5 1 -17.75
v 296.75 1 -17.75
v 296.75 1 -16.25
v 300.25 1 -16.25
v 300.25 1 -17.75
v 299.5 1 -17.75
v 299.5 1 -18.25
v 300.25 1 -18.25
v 300.25 1 -24.75
v 302.75 1 -24.75
v 302.75 1 -17.75
v 300.75 1 -17.75
v 300.75 1 -16.25
v 308.25 1 -16.25
v 308.25 1 -17.75
v 306.25 1 -17.75
f 1447 1448 1449 1450 1451 1452 1453 1454 1455 1456 1457 1458 1459 1460 1461 1462 1441 1442 1443 1444 1445 1446
g object_64
v 338.75 1 -15.75
v 338.75 1 -14
v 338.25 1 -14
v 338.25 1 -15.75
v 338.25 1 -16.25
v 340.25 1 -16.25
v 340.25 1 -17.75
v 339.5 1 -17.75
v 339.5 1 -18.25
v 340.25 1 -18.25
v 340.25 1 -28.75
v 336.75 1 -28.75
v 336.75 1 -18.25
v 337.5 1 -18.25
v 337.5 1 -17.75
v 336.75 1 -17.75
v 336.75 1 -5.25
v 340.25 1 -5.25
v 340.25 1 -15.75
v 339.25 1 -11.75
v 337.75 1 -11.75
v 337.75 1 -12.25
v 339.25 1 -12.25
v 338.75 1 -26.75
v 338.75 1 -25
v 338.25 1 -25
v 338.25 1 -26.75
v 338.75 1 -18
v 338.25 1 -18
v 338.25 1 -22.75
v 338.75 1 -22.75
f 1478 1479 1483
f 1484 1478 1483
f 1466 1484 1465
f 1477 1484 1466
f 1477 1478 1484
f 1479 1480 1482 1483
f 1466 1467 1477
f 1488 1474 1476
f 1475 1476 1474
f 1476 1477 1491
f 1476 1491 1492
f 1474 1488 1489
f 1488 1492 1493 1487
f 1476 1492 1488
f 1491 1477 1467
f 1486 1474 1489
f 1491 1467 1490
f 1484 1485 1464 1465
f 1481 1485 1482
f 1485 1463 1464
f 1481 1463 1485
f 1469 1470 1468
f 1468 1470 1467
f 1480 1481 1482
f 1467 1470 1490
f 1471 1493 1490
f 1473 1486 1487
f 1487 1493 1471
f 1470 1471 1490
f 1471 1472 1473
f 1487 1471 1473
f 1474 1486 1473
g object_65
v 330.75 1 -15.75
v 330.75 1 -14
v 330.25 1 -14
v 330.25 1 -15.75
v 330.25 1 -16.25
v 332.25 1 -16.25
v 332.25 1 -17.75
v 331.5 1 -17.75
v 331.5 1 -18.25
v 332.25 1 -18.25
v 332.25 1 -28.75
v 328.75 1 -28.75
v 328.75 1 -18.25
v 329.5 1 -18.25
v 329.5 1 -17.75
v 328.75 1 -17.75
v 328.75 1 -5.25
v 332.25 1 -5.25
v 332.25 1 -15.75
v 331.25 1 -11.75
v 329.75 1 -11.75
v 329.75 1 -12.25
v 331.25 1 -12.25
v 330.75 1 -26.75
v 330.75 1 -25
v 330.25 1 -25
v 330.25 1 -26.75
v 330.75 1 -18
v 330.25 1 -18
v 330.25 1 -22.75
v 330.75 1 -22.75
f 1509 1510 1514
f 1515 1509 1514
f 1497 1515 1496
f 1508 1515 1497
f 1508 1509 1515
f 1510 1511 1513 1514
f 1497 1498 1508
f 1519 1505 1507
f 1506 1507 1505
f 1507 1508 1522
f 1507 1522 1523
f 1505 1519 1520
f 1519 1523 1524 1518
f 1507 1523 1519
f 1522 1508 1498
f 1517 1505 1520
f 1522 1498 1521
f 1515 1516 1495 1496
f 1512 1516 1513
f 1516 1494 1495
f 1512 1494 1516
f 1500 1501 1499
f 1499 1501 1498
f 1511 1512 1513
f 1498 1501 1521
f 1502 1524 1521
f 1504 1517 1518
f 1518 1524 1502
f 1501 1502 1521
f 1502 1503 1504
f 1518 1502 1504
f 1505 1517 1504
g object_66
v 322.75 1 -15.75
v 322.75 1 -14
v 322.25 1 -14
v 322.25 1 -15.75
v 322.25 1 -16.25
v 324.25 1 -16.25
v 324.25 1 -17.75
v 323.5 1 -17.75
v 323.5 1 -18.25
v 324.25 1 -18.25
v 324.25 1 -28.75
v 320.75 1 -28.75
v 320.75 1 -18.25
v 321.5 1 -18.25
v 321.5 1 -17.75
v 320.75 1 -17.75
v 320.75 1 -5.25
v 324.25 1 -5.25
v 324.25 1 -15.75
v 323.25 1 -11.75
v 321.75 1 -11.75
v 321.75 1 -12.25
v 323.25 1 -12.25
v 322.75 1 -26.75
v 322.75 1 -25
v 322.25 1 -25
v 322.25 1 -26.75
v 322.75 1 -18
v 322.25 1 -18
v 322.25 1 -22.75
v 322.75 1 -22.75
f 1540 1541 1545
f 1546 1540 1545
f 1528 1546 1527
f 1539 1546 1528
f 1539 1540 1546
f 1541 1542 1544 1545
f 1528 1529 1539
f 1550 1536 1538
f 1537 1538 1536
f 1538 1539 1553
f 1538 1553 1554
f 1536 1550 1551
f 1550 1554 1555 1549
f 1538 1554 1550
f 1553 1539 1529
f 1548 1536 1551
f 1553 1529 1552
f 1546 1547 1526 1527
f 1543 1547 1544
f 1547 1525 1526
f 1543 1525 1547
f 1531 1532 1530
f 1530 1532 1529
f 1542 1543 1544
f 1529 1532 1552
f 1533 1555 1552
f 1535 1548 1549
f 1549 1555 1533
f 1532 1533 1552
f 1533 1534 1535
f 1549 1533 1535
f 1536 1548 1535
g object_67
v 314.75 1 -15.75
v 314.75 1 -14
v 314.25 1 -14
v 314.25 1 -15.75
v 314.25 1 -16.25
v 316.25 1 -16.25
v 316.25 1 -17.75
v 315.5 1 -17.75
v 315.5 1 -18.25
v 316.25 1 -18.25
v 316.25 1 -28.75
v 312.75 1 -28.75
v 312.75 1 -18.25
v 313.5 1 -18.25
v 313.5 1 -17.75
v 312.75 1 -17.75
v 312.75 1 -5.25
v 316.25 1 -5.25
v 316.25 1 -15.75
v 315.25 1 -11.75
v 313.75 1 -11.75
v 313.75 1 -12.25
v 315.25 1 -12.25
v 314.75 1 -26.75
v 314.75 1 -25
v 314.25 1 -25
v 314.25 1 -26.75
v 314.75 1 -18
v 314.25 1 -18
v 314.25 1 -22.75
v 314.75 1 -22.75
f 1571 1572 1576
f 1577 1571 1576
f 1559 1577 1558
f 1570 1577 1559
f 1570 1571 1577
f 1572 1573 1575 1576
f 1559 1560 1570
f 1581 1567 1569
f 1568 1569 1567
f 1569 1570 1584
f 1569 1584 1585
f 1567 1581 1582
f 1581 1585 1586 1580
f 1569 1585 1581
f 1584 1570 1560
f 1579 1567 1582
f 1584 1560 1583
f 1577 1578 1557 1558
f 1574 1578 1575
f 1578 1556 1557
f 1574 1556 1578
f 1562 1563 1561
f 1561 1563 1560
f 1573 1574 1575
f 1560 1563 1583
f 1564 1586 1583
f 1566 1579 1580
f 1580 1586 1564
f 1563 1564 1583
f 1564 1565 1566
f 1580 1564 1566
f 1567 1579 1566
g object_68
v 270.75 1 -15.75
v 270.75 1 -14
v 270.25 1 -14
v 270.25 1 -15.75
v 270.25 1 -16.25
v 272.25 1 -16.25
v 272.25 1 -17.75
v 271.5 1 -17.75
v 271.5 1 -18.25
v 272.25 1 -18.25
v 272.25 1 -28.75
v 268.75 1 -28.75
v 268.75 1 -18.25
v 269.5 1 -18.25
v 269.5 1 -17.75
v 268.75 1 -17.75
v 268.75 1 -5.25
v 272.25 1 -5.25
v 272.25 1 -15.75
v 271.25 1 -11.75
v 269.75 1 -11.75
v 269.75 1 -12.25
v 271.25 1 -12.25
v 270.75 1 -26.75
v 270.75 1 -25
v 270.25 1 -25
v 270.25 1 -26.75
v 270.75 1 -18
v 270.25 1 -18
v 270.25 1 -22.75
v 270.75 1 -22.75
f 1602 1603 1607
f 1608 1602 1607
f 1590 1608 1589
f 1601 1608 1590
f 1601 1602 1608
f 1603 1604 1606 1607
f 1590 1591 1601
f 1612 1598 1600
f 1599 1600 1598
f 1600 1601 1615
f 1600 1615 1616
f 1598 1612 1613
f 1612 1616 1617 1611
f 1600 1616 1612
f 1615 1601 1591
f 1597 1598 1613 1610
f 1615 1591 1614
f 1608 1609 1588 1589
f 1605 1609 1606
f 1609 1587 1588
f 1605 1587 1609
f 1593 1594 1592
f 1592 1594 1591
f 1604 1605 1606
f 1591 1594 1614
f 1595 1617 1614
f 1597 1610 1611
f 1611 1617 1595
f 1594 1595 1614
f 1595 1596 1597
f 1611 1595 1597
g object_69
v 278.75 1 -15.75
v 278.75 1 -14
v 278.25 1 -14
v 278.25 1 -15.75
v 278.25 1 -16.25
v 280.25 1 -16.25
v 280.25 1 -17.75
v 279.5 1 -17.75
v 279.5 1 -18.25
v 280.25 1 -18.25
v 280.25 1 -28.75
v 276.75 1 -28.75
v 276.75 1 -18.25
v 277.5 1 -18.25
v 277.5 1 -17.75
v 276.75 1 -17.75
v 276.75 1 -5.25
v 280.25 1 -5.25
v 280.25 1 -15.75
v 279.25 1 -11.75
v 277.75 1 -11.75
v 277.75 1 -12.25
v 279.25 1 -12.25
v 278.75 1 -26.75
v 278.75 1 -25
v 278.25 1 -25
v 278.25 1 -26.75
v 278.75 1 -18
v 278.25 1 -18
v 278.25 1 -22.75
v 278.75 1 -22.75
f 1633 1634 1638
f 1639 1633 1638
f 1621 1639 1620
f 1632 1639 1621
f 1632 1633 1639
f 1634 1635 1637 1638
f 1621 1622 1632
f 1643 1629 1631
f 1630 1631 1629
f 1631 1632 1646
f 1631 1646 1647
f 1629 1643 1644
f 1643 1647 1648 1642
f 1631 1647 1643
f 1646 1632 1622
f 1641 1629 1644
f 1646 1622 1645
f 1639 1640 1619 1620
f 1636 1640 1637
f 1640 1618 1619
f 1636 1618 1640
f 1624 1625 1623
f 1623 1625 1622
f 1635 1636 1637
f 1622 1625 1645
f 1626 1648 1645
f 1628 1641 1642
f 1642 1648 1626
f 1625 1626 1645
f 1626 1627 1628
f 1642 1626 1628
f 1629 1641 1628
g object_70
v 286.75 1 -15.75
v 286.75 1 -14
v 286.25 1 -14
v 286.25 1 -15.75
v 286.25 1 -16.25
v 288.25 1 -16.25
v 288.25 1 -17.75
v 287.5 1 -17.75
v 287.5 1 -18.25
v 288.25 1 -18.25
v 288.25 1 -28.75
v 284.75 1 -28.75
v 284.75 1 -18.25
v 285.5 1 -18.25
v 285.5 1 -17.75
v 284.75 1 -17.75
v 284.75 1 -5.25
v 288.25 1 -5.25
v 288.25 1 -15.75
v 287.25 1 -11.75
v 285.75 1 -11.75
v 285.75 1 -12.25
v 287.25 1 -12.25
v 286.75 1 -26.75
v 286.75 1 -25
v 286.25 1 -25
v 286.25 1 -26.75
v 286.75 1 -18
v 286.25 1 -18
v 286.25 1 -22.75
v 286.75 1 -22.75
f 1664 1665 1669
f 1670 1664 1669
f 1652 1670 1651
f 1663 1670 1652
f 1663 1664 1670
f 1665 1666 1668 1669
f 1652 1653 1663
f 1674 1660 1662
f 1661 1662 1660
f 1662 1663 1677
f 1662 1677 1678
f 1660 1674 1675
f 1674 1678 1679 1673
f 1662 1678 1674
f 1677 1663 1653
f 1659 1660 1675 1672
f 1677 1653 1676
f 1671 1650 1651
f 1667 1671 1668
f 1671 1649 1650
f 1667 1649 1671
f 1651 1670 1671
f 1655 1656 1654
f 1654 1656 1653
f 1666 1667 1668
f 1653 1656 1676
f 1657 1679 1676
f 1659 1672 1673
f 1673 1679 1657
f 1656 1657 1676
f 1657 1658 1659
f 1673 1657 1659
g object_71
v 294.75 1 -15.75
v 294.75 1 -14
v 294.25 1 -14
v 294.25 1 -15.75
v 294.25 1 -16.25
v 296.25 1 -16.25
v 296.25 1 -17.75
v 295.5 1 -17.75
v 295.5 1 -18.25
v 296.25 1 -18.25
v 296.25 1 -28.75
v 292.75 1 -28.75
v 292.75 1 -18.25
v 293.5 1 -18.25
v 293.5 1 -17.75
v 292.75 1 -17.75
v 292.75 1 -5.25
v 296.25 1 -5.25
v 296.25 1 -15.75
v 295.25 1 -11.75
v 293.75 1 -11.75
v 293.75 1 -12.25
v 295.25 1 -12.25
v 294.75 1 -26.75
v 294.75 1 -25
v 294.25 1 -25
v 294.25 1 -26.75
v 294.75 1 -18
v 294.25 1 -18
v 294.25 1 -22.75
v 294.75 1 -22.75
f 1695 1696 1700
f 1701 1695 1700
f 1683 1701 1682
f 1694 1701 1683
f 1694 1695 1701
f 1696 1697 1699 1700
f 1683 1684 1694
f 1705 1691 1693
f 1692 1693 1691
f 1693 1694 1708
f 1693 1708 1709
f 1691 1705 1706
f 1705 1709 1710 1704
f 1693 1709 1705
f 1708 1694 1684
f 1703 1691 1706
f 1708 1684 1707
f 1701 1702 1681 1682
f 1698 1702 1699
f 1702 1680 1681
f 1698 1680 1702
f 1686 1687 1685
f 1685 1687 1684
f 1697 1698 1699
f 1684 1687 1707
f 1688 1710 1707
f 1690 1703 1704
f 1704 1710 1688
f 1687 1688 1707
f 1688 1689 1690
f 1704 1688 1690
f 1691 1703 1690
g object_72
v 262.75 1 -15.75
v 262.75 1 -14
v 262.25 1 -14
v 262.25 1 -15.75
v 262.25 1 -16.25
v 264.25 1 -16.25
v 264.25 1 -17.75
v 263.5 1 -17.75
v 263.5 1 -18.25
v 264.25 1 -18.25
v 264.25 1 -28.75
v 260.75 1 -28.75
v 260.75 1 -18.25
v 261.5 1 -18.25
v 261.5 1 -17.75
v 260.75 1 -17.75
v 260.75 1 -5.25
v 264.25 1 -5.25
v 264.25 1 -15.75
v 263.25 1 -11.75
v 261.75 1 -11.75
v 261.75 1 -12.25
v 263.25 1 -12.25
v 262.75 1 -26.75
v 262.75 1 -25
v 262.25 1 -25
v 262.25 1 -26.75
v 262.75 1 -18
v 262.25 1 -18
v 262.25 1 -22.75
v 262.75 1 -22.75
f 1726 1727 1731
f 1732 1726 1731
f 1714 1732 1713
f 1725 1732 1714
f 1725 1726 1732
f 1727 1728 1730 1731
f 1714 1715 1725
f 1736 1722 1724
f 1723 1724 1722
f 1724 1725 1739
f 1724 1739 1740
f 1722 1736 1737
f 1736 1740 1741 1735
f 1724 1740 1736
f 1739 1725 1715
f 1734 1722 1737
f 1739 1715 1738
f 1732 1733 1712 1713
f 1729 1733 1730
f 1733 1711 1712
f 1729 1711 1733
f 1717 1718 1716
f 1716 1718 1715
f 1728 1729 1730
f 1715 1718 1738
f 1719 1741 1738
f 1721 1734 1735
f 1735 1741 1719
f 1718 1719 1738
f 1719 1720 1721
f 1735 1719 1721
f 1722 1734 1721
g object_73
v 254.75 1 -15.75
v 254.75 1 -14
v 254.25 1 -14
v 254.25 1 -15.75
v 254.25 1 -16.25
v 256.25 1 -16.25
v 256.25 1 -17.75
v 255.5 1 -17.75
v 255.5 1 -18.25
v 256.25 1 -18.25
v 256.25 1 -28.75
v 252.75 1 -28.75
v 252.75 1 -18.25
v 253.5 1 -18.25
v 253.5 1 -17.75
v 252.75 1 -17.75
v 252.75 1 -5.25
v 256.25 1 -5.25
v 256.25 1 -15.75
v 255.25 1 -11.75
v 253.75 1 -11.75
v 253.75 1 -12.25
v 255.25 1 -12.25
v 254.75 1 -26.75
v 254.75 1 -25
v 254.25 1 -25
v 254.25 1 -26.75
v 254.75 1 -18
v 254.25 1 -18
v 254.25 1 -22.75
v 254.75 1 -22.75
f 1757 1758 1762
f 1763 1757 1762
f 1745 1763 1744
f 1756 1763 1745
f 1756 1757 1763
f 1761 1762 1758
f 1745 1746 1756
f 1767 1753 1755
f 1754 1755 1753
f 1755 1756 1770
f 1755 1770 1771
f 1753 1767 1768
f 1767 1771 1772 1766
f 1755 1771 1767
f 1770 1756 1746
f 1765 1753 1768
f 1770 1746 1769
f 1763 1764 1743 1744
f 1760 1764 1761
f 1764 1742 1743
f 1760 1742 1764
f 1748 1749 1747
f 1747 1749 1746
f 1759 1760 1761
f 1761 1758 1759
f 1746 1749 1769
f 1750 1772 1769
f 1752 1765 1766
f 1766 1772 1750
f 1749 1750 1769
f 1750 1751 1752
f 1766 1750 1752
f 1753 1765 1752
g object_74
v 242.75 1 -15.75
v 242.75 1 -14
v 242.25 1 -14
v 242.25 1 -15.75
v 242.25 1 -16.25
v 244.25 1 -16.25
v 244.25 1 -17.75
v 243.5 1 -17.75
v 243.5 1 -18.25
v 244.25 1 -18.25
v 244.25 1 -28.75
v 240.75 1 -28.75
v 240.75 1 -18.25
v 241.5 1 -18.25
v 241.5 1 -17.75
v 240.75 1 -17.75
v 240.75 1 -5.25
v 244.25 1 -5.25
v 244.25 1 -15.75
v 243.25 1 -11.75
v 241.75 1 -11.75
v 241.75 1 -12.25
v 243.25 1 -12.25
v 242.75 1 -26.75
v 242.75 1 -25
v 242.25 1 -25
v 242.25 1 -26.75
v 242.75 1 -18
v 242.25 1 -18
v 242.25 1 -22.75
v 242.75 1 -22.75
f 1788 1789 1793
f 1794 1788 1793
f 1776 1794 1775
f 1787 1794 1776
f 1787 1788 1794
f 1789 1790 1792 1793
f 1776 1777 1787
f 1798 1784 1786
f 1785 1786 1784
f 1786 1787 1801
f 1786 1801 1802
f 1784 1798 1799
f 1798 1802 1803 1797
f 1786 1802 1798
f 1801 1787 1777
f 1783 1784 1799 1796
f 1801 1777 1800
f 1795 1774 1775
f 1791 1795 1792
f 1795 1773 1774
f 1791 1773 1795
f 1775 1794 1795
f 1779 1780 1778
f 1778 1780 1777
f 1790 1791 1792
f 1777 1780 1800
f 1781 1803 1800
f 1783 1796 1797
f 1797 1803 1781
f 1780 1781 1800
f 1781 1782 1783
f 1797 1781 1783
g object_75
v 234.75 1 -15.75
v 234.75 1 -14
v 234.25 1 -14
v 234.25 1 -15.75
v 234.25 1 -16.25
v 236.25 1 -16.25
v 236.25 1 -17.75
v 235.5 1 -17.75
v 235.5 1 -18.25
v 236.25 1 -18.25
v 236.25 1 -28.75
v 232.75 1 -28.75
v 232.75 1 -18.25
v 233.5 1 -18.25
v 233.5 1 -17.75
v 232.75 1 -17.75
v 232.75 1 -5.25
v 236.25 1 -5.25
v 236.25 1 -15.75
v 235.25 1 -11.75
v 233.75 1 -11.75
v 233.75 1 -12.25
v 235.25 1 -12.25
v 234.75 1 -26.75
v 234.75 1 -25
v 234.25 1 -25
v 234.25 1 -26.75
v 234.75 1 -18
v 234.25 1 -18
v 234.25 1 -22.75
v 234.75 1 -22.75
f 1819 1820 1824
f 1825 1819 1824
f 1807 1825 1806
f 1818 1825 1807
f 1818 1819 1825
f 1823 1824 1820
f 1807 1808 1818
f 1829 1815 1817
f 1816 1817 1815
f 1817 1818 1832
f 1817 1832 1833
f 1815 1829 1830
f 1829 1833 1834 1828
f 1817 1833 1829
f 1832 1818 1808
f 1827 1815 1830
f 1832 1808 1831
f 1825 1826 1805 1806
f 1822 1826 1823
f 1826 1804 1805
f 1822 1804 1826
f 1810 1811 1809
f 1809 1811 1808
f 1821 1822 1823
f 1823 1820 1821
f 1808 1811 1831
f 1812 1834 1831
f 1814 1827 1828
f 1828 1834 1812
f 1811 1812 1831
f 1812 1813 1814
f 1828 1812 1814
f 1815 1827 1814
g object_76
v 348.75 4 -19.25
v 348.75 4 -20.5
v 348.25 4 -20.5
v 348.25 4 -17.5
v 348.75 4 -17.5
v 348.75 4 -18.75
v 361.25 4 -18.75
v 361.25 4 -15.25
v 348.75 4 -15.25
v 348.75 4 -16.5
v 348.25 4 -16.5
v 348.25 4 -13.5
v 348.75 4 -13.5
v 348.75 4 -14.75
v 361.25 4 -14.75
v 361.25 4 -11.25
v 348.75 4 -11.25
v 348.75 4 -12.5
v 348.25 4 -12.5
v 348.25 4 -9.5
v 348.75 4 -9.5
v 348.75 4 -10.75
v 357.25 4 -10.75
v 357.25 4 -7.25
v 348.75 4 -7.25
v 348.75 4 -8.5
v 348.25 4 -8.5
v 348.25 4 -7.25
v 344.75 4 -7.25
v 344.75 4 -16.25
v 344.5 4 -16.25
v 342.25 4 -16.25
v 342.25 4 -15.75
v 344.25 4 -15.75
v 344.25 4 -9.25
v 340.75 4 -9.25
v 340.75 4 -15.75
v 341.25 4 -15.75
v 341.25 4 -16.25
v 340.5 4 -16.25
v 339.75 4 -16.25
v 339.75 4 -15.75
v 340.25 4 -15.75
v 340.25 4 -9.25
v 336.75 4 -9.25
v 336.75 4 -15.75
v 338.25 4 -15.75
v 338.25 4 -14
v 338.75 4 -14
v 338.75 4 -15.75
v 338.75 4 -16.25
v 334.25 4 -16.25
v 334.25 4 -15.75
v 334.25 4 -14
v 334.75 4 -14
v 334.75 4 -15.75
v 336.25 4 -15.75
v 336.25 4 -9.25
v 332.75 4 -9.25
v 332.75 4 -15.75
v 333.25 4 -15.75
v 333.25 4 -16.25
v 332.5 4 -16.25
v 331.75 4 -16.25
v 331.75 4 -15.75
v 332.25 4 -15.75
v 332.25 4 -9.25
v 328.75 4 -9.25
v 328.75 4 -15.75
v 330.25 4 -15.75
v 330.25 4 -14
v 330.75 4 -14
v 330.75 4 -15.75
v 330.75 4 -16.25
v 326.25 4 -16.25
v 326.25 4 -15.75
v 326.25 4 -14
v 326.75 4 -14
v 326.75 4 -15.75
v 328.25 4 -15.75
v 328.25 4 -9.25
v 324.75 4 -9.25
v 324.75 4 -15.75
v 325.25 4 -15.75
v 325.25 4 -16.25
v 324.5 4 -16.25
v 323.75 4 -16.25
v 323.75 4 -15.75
v 324.25 4 -15.75
v 324.25 4 -9.25
v 320.75 4 -9.25
v 320.75 4 -15.75
v 322.25 4 -15.75
v 322.25 4 -14
v 322.75 4 -14
v 322.75 4 -15.75
v 322.75 4 -16.25
v 318.25 4 -16.25
v 318.25 4 -15.75
v 318.25 4 -14
v 318.75 4 -14
v 318.75 4 -15.75
v 320.25 4 -15.75
v 320.25 4 -9.25
v 316.75 4 -9.25
v 316.75 4 -15.75
v 317.25 4 -15.75
v 317.25 4 -16.25
v 316.5 4 -16.25
v 315.75 4 -16.25
v 315.75 4 -15.75
v 316.25 4 -15.75
v 316.25 4 -9.25
v 312.75 4 -9.25
v 312.75 4 -15.75
v 314.25 4 -15.75
v 314.25 4 -14
v 314.75 4 -14
v 314.75 4 -15.75
v 314.75 4 -16.25
v 310.25 4 -16.25
v 310.25 4 -15.75
v 310.25 4 -14
v 310.75 4 -14
v 310.75 4 -15.75
v 312.25 4 -15.75
v 312.25 4 -9.25
v 308.75 4 -9.25
v 308.75 4 -15.75
v 309.25 4 -15.75
v 309.25 4 -16.25
v 306.25 4 -16.25
v 306.25 4 -15.75
v 308.25 4 -15.75
v 308.25 4 -9.25
v 304.75 4 -9.25
v 304.75 4 -15.75
v 305.25 4 -15.75
v 305.25 4 -16.25
v 304.5 4 -16.25
v 303.75 4 -16.25
v 303.75 4 -15.75
v 304.25 4 -15.75
v 304.25 4 -7.25
v 300.75 4 -7.25
v 300.75 4 -15.75
v 302.75 4 -15.75
v 302.75 4 -16.25
v 298.25 4 -16.25
v 298.25 4 -15.75
v 298.25 4 -14
v 298.75 4 -14
v 298.75 4 -15.75
v 300.25 4 -15.75
v 300.25 4 -9.25
v 296.75 4 -9.25
v 296.75 4 -15.75
v 297.25 4 -15.75
v 297.25 4 -16.25
v 296.5 4 -16.25
v 295.75 4 -16.25
v 295.75 4 -15.75
v 296.25 4 -15.75
v 296.25 4 -9.25
v 292.75 4 -9.25
v 292.75 4 -15.75
v 294.25 4 -15.75
v 294.25 4 -14
v 294.75 4 -14
v 294.75 4 -15.75
v 294.75 4 -16.25
v 290.25 4 -16.25
v 290.25 4 -15.75
v 290.25 4 -14
v 290.75 4 -14
v 290.75 4 -15.75
v 292.25 4 -15.75
v 292.25 4 -9.25
v 288.75 4 -9.25
v 288.75 4 -15.75
v 289.25 4 -15.75
v 289.25 4 -16.25
v 288.5 4 -16.25
v 287.75 4 -16.25
v 287.75 4 -15.75
v 288.25 4 -15.75
v 288.25 4 -9.25
v 284.75 4 -9.25
v 284.75 4 -15.75
v 286.25 4 -15.75
v 286.25 4 -14
v 286.75 4 -14
v 286.75 4 -15.75
v 286.75 4 -16.25
v 284.5 4 -16.25
v 282.25 4 -16.25
v 282.25 4 -15.75
v 282.25 4 -14
v 282.75 4 -14
v 282.75 4 -15.75
v 284.25 4 -15.75
v 284.25 4 -9.25
v 280.75 4 -9.25
v 280.75 4 -15.75
v 281.25 4 -15.75
v 281.25 4 -16.25
v 280.5 4 -16.25
v 279.75 4 -16.25
v 279.75 4 -15.75
v 280.25 4 -15.75
v 280.25 4 -9.25
v 276.75 4 -9.25
v 276.75 4 -15.75
v 278.25 4 -15.75
v 278.25 4 -14
v 278.75 4 -14
v 278.75 4 -15.75
v 278.75 4 -16.25
v 274.25 4 -16.25
v 274.25 4 -15.75
v 274.25 4 -14
v 274.75 4 -14
v 274.75 4 -15.75
v 276.25 4 -15.75
v 276.25 4 -9.25
v 272.75 4 -9.25
v 272.75 4 -15.75
v 273.25 4 -15.75
v 273.25 4 -16.25
v 272.5 4 -16.25
v 271.75 4 -16.25
v 271.75 4 -15.75
v 272.25 4 -15.75
v 272.25 4 -9.25
v 268.75 4 -9.25
v 268.75 4 -15.75
v 270.25 4 -15.75
v 270.25 4 -14
v 270.75 4 -14
v 270.75 4 -15.75
v 270.75 4 -16.25
v 266.25 4 -16.25
v 266.25 4 -15.75
v 266.25 4 -14
v 266.75 4 -14
v 266.75 4 -15.75
v 268.25 4 -15.75
v 268.25 4 -9.25
v 264.75 4 -9.25
v 264.75 4 -15.75
v 265.25 4 -15.75
v 265.25 4 -16.25
v 264.5 4 -16.25
v 263.75 4 -16.25
v 263.75 4 -15.75
v 264.25 4 -15.75
v 264.25 4 -9.25
v 260.75 4 -9.25
v 260.75 4 -15.75
v 262.25 4 -15.75
v 262.25 4 -14
v 262.75 4 -14
v 262.75 4 -15.75
v 262.75 4 -16.25
v 258.25 4 -16.25
v 258.25 4 -15.75
v 258.25 4 -14
v 258.75 4 -14
v 258.75 4 -15.75
v 260.25 4 -15.75
v 260.25 4 -9.25
v 256.75 4 -9.25
v 256.75 4 -15.75
v 257.25 4 -15.75
v 257.25 4 -16.25
v 256.5 4 -16.25
v 255.75 4 -16.25
v 255.75 4 -15.75
v 256.25 4 -15.75
v 256.25 4 -9.25
v 252.75 4 -9.25
v 252.75 4 -15.75
v 254.25 4 -15.75
v 254.25 4 -14
v 254.75 4 -14
v 254.75 4 -15.75
v 254.75 4 -16.25
v 250.25 4 -16.25
v 250.25 4 -15.75
v 250.25 4 -14
v 250.75 4 -14
v 250.75 4 -15.75
v 252.25 4 -15.75
v 252.25 4 -9.25
v 248.75 4 -9.25
v 248.75 4 -15.75
v 249.25 4 -15.75
v 249.25 4 -16.25
v 248.5 4 -16.25
v 247.75 4 -16.25
v 247.75 4 -15.75
v 248.25 4 -15.75
v 248.25 4 -9.25
v 244.75 4 -9.25
v 244.75 4 -15.75
v 246.25 4 -15.75
v 246.25 4 -14
v 246.75 4 -14
v 246.75 4 -15.75
v 246.75 4 -16.25
v 242.25 4 -16.25
v 242.25 4 -15.75
v 242.25 4 -14
v 242.75 4 -14
v 242.75 4 -15.75
v 244.25 4 -15.75
v 244.25 4 -9.25
v 240.75 4 -9.25
v 240.75 4 -15.75
v 241.25 4 -15.75
v 241.25 4 -16.25
v 240.5 4 -16.25
v 239.75 4 -16.25
v 239.75 4 -15.75
v 240.25 4 -15.75
v 240.25 4 -9.25
v 236.75 4 -9.25
v 236.75 4 -15.75
v 238.25 4 -15.75
v 238.25 4 -14
v 238.75 4 -14
v 238.75 4 -15.75
v 238.75 4 -16.25
v 234.25 4 -16.25
v 234.25 4 -15.75
v 234.25 4 -14
v 234.75 4 -14
v 234.75 4 -15.75
v 236.25 4 -15.75
v 236.25 4 -9.25
v 232.75 4 -9.25
v 232.75 4 -15.75
v 233.25 4 -15.75
v 233.25 4 -16.25
v 231.75 4 -16.25
v 231.75 4 -15.75
v 232.25 4 -15.75
v 232.25 4 -9.25
v 228.75 4 -9.25
v 228.75 4 -15.75
v 230.25 4 -15.75
v 230.25 4 -14
v 230.75 4 -14
v 230.75 4 -15.75
v 230.75 4 -16.25
v 228.75 4 -16.25
v 228.75 4 -17.75
v 230.75 4 -17.75
v 230.75 4 -18.25
v 230.75 4 -20
v 230.25 4 -20
v 230.25 4 -18.25
v 228.75 4 -18.25
v 228.75 4 -28.75
v 232.25 4 -28.75
v 232.25 4 -20
v 231.75 4 -20
v 231.75 4 -19.5
v 232.25 4 -19.5
v 232.25 4 -18.25
v 231.75 4 -18.25
v 231.75 4 -17.75
v 233.25 4 -17.75
v 233.25 4 -18.25
v 232.75 4 -18.25
v 232.75 4 -19.5
v 233.25 4 -19.5
v 233.25 4 -20
v 232.75 4 -20
v 232.75 4 -28.75
v 236.25 4 -28.75
v 236.25 4 -18.25
v 234.75 4 -18.25
v 234.75 4 -20
v 234.25 4 -20
v 234.25 4 -18.25
v 234.25 4 -17.75
v 238.75 4 -17.75
v 238.75 4 -18.25
v 238.75 4 -20
v 238.25 4 -20
v 238.25 4 -18.25
v 236.75 4 -18.25
v 236.75 4 -28.75
v 240.25 4 -28.75
v 240.25 4 -20
v 239.75 4 -20
v 239.75 4 -19.5
v 240.25 4 -19.5
v 240.25 4 -18.25
v 239.75 4 -18.25
v 239.75 4 -17.75
v 240.5 4 -17.75
v 241.25 4 -17.75
v 241.25 4 -18.25
v 240.75 4 -18.25
v 240.75 4 -19.5
v 241.25 4 -19.5
v 241.25 4 -20
v 240.75 4 -20
v 240.75 4 -28.75
v 244.25 4 -28.75
v 244.25 4 -18.25
v 242.75 4 -18.25
v 242.75 4 -20
v 242.25 4 -20
v 242.25 4 -18.25
v 242.25 4 -17.75
v 246.75 4 -17.75
v 246.75 4 -18.25
v 244.75 4 -18.25
v 244.75 4 -28.75
v 248.25 4 -28.75
v 248.25 4 -20
v 247.75 4 -20
v 247.75 4 -19.5
v 248.25 4 -19.5
v 248.25 4 -18.25
v 247.75 4 -18.25
v 247.75 4 -17.75
v 248.5 4 -17.75
v 249.25 4 -17.75
v 249.25 4 -18.25
v 248.75 4 -18.25
v 248.75 4 -19.5
v 249.25 4 -19.5
v 249.25 4 -20
v 248.75 4 -20
v 248.75 4 -28.75
v 252.25 4 -28.75
v 252.25 4 -18.25
v 250.75 4 -18.25
v 250.75 4 -20
v 250.25 4 -20
v 250.25 4 -18.25
v 250.25 4 -17.75
v 254.75 4 -17.75
v 254.75 4 -18.25
v 254.75 4 -20
v 254.25 4 -20
v 254.25 4 -18.25
v 252.75 4 -18.25
v 252.75 4 -28.75
v 256.25 4 -28.75
v 256.25 4 -20
v 255.75 4 -20
v 255.75 4 -19.5
v 256.25 4 -19.5
v 256.25 4 -18.25
v 255.75 4 -18.25
v 255.75 4 -17.75
v 256.5 4 -17.75
v 257.25 4 -17.75
v 257.25 4 -18.25
v 256.75 4 -18.25
v 256.75 4 -19.5
v 257.25 4 -19.5
v 257.25 4 -20
v 256.75 4 -20
v 256.75 4 -28.75
v 260.25 4 -28.75
v 260.25 4 -18.25
v 258.75 4 -18.25
v 258.75 4 -20
v 258.25 4 -20
v 258.25 4 -18.25
v 258.25 4 -17.75
v 262.75 4 -17.75
v 262.75 4 -18.25
v 262.75 4 -20
v 262.25 4 -20
v 262.25 4 -18.25
v 260.75 4 -18.25
v 260.75 4 -28.75
v 264.25 4 -28.75
v 264.25 4 -20
v 263.75 4 -20
v 263.75 4 -19.5
v 264.25 4 -19.5
v 264.25 4 -18.25
v 263.75 4 -18.25
v 263.75 4 -17.75
v 264.5 4 -17.75
v 265.25 4 -17.75
v 265.25 4 -18.25
v 264.75 4 -18.25
v 264.75 4 -19.5
v 265.25 4 -19.5
v 265.25 4 -20
v 264.75 4 -20
v 264.75 4 -28.75
v 268.25 4 -28.75
v 268.25 4 -18.25
v 266.75 4 -18.25
v 266.75 4 -20
v 266.25 4 -20
v 266.25 4 -18.25
v 266.25 4 -17.75
v 270.75 4 -17.75
v 270.75 4 -18.25
v 270.75 4 -20
v 270.25 4 -20
v 270.25 4 -18.25
v 268.75 4 -18.25
v 268.75 4 -28.75
v 272.25 4 -28.75
v 272.25 4 -20
v 271.75 4 -20
v 271.75 4 -19.5
v 272.25 4 -19.5
v 272.25 4 -18.25
v 271.75 4 -18.25
v 271.75 4 -17.75
v 272.5 4 -17.75
v 273.25 4 -17.75
v 273.25 4 -18.25
v 272.75 4 -18.25
v 272.75 4 -19.5
v 273.25 4 -19.5
v 273.25 4 -20
v 272.75 4 -20
v 272.75 4 -28.75
v 276.25 4 -28.75
v 276.25 4 -18.25
v 274.75 4 -18.25
v 274.75 4 -20
v 274.25 4 -20
v 274.25 4 -18.25
v 274.25 4 -17.75
v 278.75 4 -17.75
v 278.75 4 -18.25
v 278.75 4 -20
v 278.25 4 -20
v 278.25 4 -18.25
v 276.75 4 -18.25
v 276.75 4 -28.75
v 280.25 4 -28.75
v 280.25 4 -20
v 279.75 4 -20
v 279.75 4 -19.5
v 280.25 4 -19.5
v 280.25 4 -18.25
v 279.75 4 -18.25
v 279.75 4 -17.75
v 280.5 4 -17.75
v 281.25 4 -17.75
v 281.25 4 -18.25
v 280.75 4 -18.25
v 280.75 4 -19.5
v 281.25 4 -19.5
v 281.25 4 -20
v 280.75 4 -20
v 280.75 4 -28.75
v 284.25 4 -28.75
v 284.25 4 -18.25
v 282.75 4 -18.25
v 282.75 4 -20
v 282.25 4 -20
v 282.25 4 -18.25
v 282.25 4 -17.75
v 284.5 4 -17.75
v 286.75 4 -17.75
v 286.75 4 -18.25
v 286.75 4 -20
v 286.25 4 -20
v 286.25 4 -18.25
v 284.75 4 -18.25
v 284.75 4 -28.75
v 288.25 4 -28.75
v 288.25 4 -20
v 287.75 4 -20
v 287.75 4 -19.5
v 288.25 4 -19.5
v 288.25 4 -18.25
v 287.75 4 -18.25
v 287.75 4 -17.75
v 288.5 4 -17.75
v 289.25 4 -17.75
v 289.25 4 -18.25
v 288.75 4 -18.25
v 288.75 4 -19.5
v 289.25 4 -19.5
v 289.25 4 -20
v 288.75 4 -20
v 288.75 4 -28.75
v 292.25 4 -28.75
v 292.25 4 -18.25
v 290.75 4 -18.25
v 290.75 4 -20
v 290.25 4 -20
v 290.25 4 -18.25
v 290.25 4 -17.75
v 294.75 4 -17.75
v 294.75 4 -18.25
v 294.75 4 -20
v 294.25 4 -20
v 294.25 4 -18.25
v 292.75 4 -18.25
v 292.75 4 -28.75
v 296.25 4 -28.75
v 296.25 4 -20
v 295.75 4 -20
v 295.75 4 -19.5
v 296.25 4 -19.5
v 296.25 4 -18.25
v 295.75 4 -18.25
v 295.75 4 -17.75
v 296.5 4 -17.75
v 296.75 4 -17.75
v 296.75 4 -26.75
v 308.25 4 -26.75
v 308.25 4 -24.75
v 306.25 4 -24.75
v 306.25 4 -23.5
v 306.75 4 -23.5
v 306.75 4 -24.25
v 308.25 4 -24.25
v 308.25 4 -21.5
v 306.75 4 -21.5
v 306.75 4 -22.5
v 306.25 4 -22.5
v 306.25 4 -20
v 306.75 4 -20
v 306.75 4 -21
v 308.25 4 -21
v 308.25 4 -18.25
v 306.75 4 -18.25
v 306.75 4 -19
v 306.25 4 -19
v 306.25 4 -17.75
v 309.25 4 -17.75
v 309.25 4 -18.25
v 308.75 4 -18.25
v 308.75 4 -19.5
v 309.25 4 -19.5
v 309.25 4 -20
v 308.75 4 -20
v 308.75 4 -28.75
v 312.25 4 -28.75
v 312.25 4 -18.25
v 310.75 4 -18.25
v 310.75 4 -20
v 310.25 4 -20
v 310.25 4 -18.25
v 310.25 4 -17.75
v 314.75 4 -17.75
v 314.75 4 -18.25
v 314.75 4 -20
v 314.25 4 -20
v 314.25 4 -18.25
v 312.75 4 -18.25
v 312.75 4 -28.75
v 316.25 4 -28.75
v 316.25 4 -20
v 315.75 4 -20
v 315.75 4 -19.5
v 316.25 4 -19.5
v 316.25 4 -18.25
v 315.75 4 -18.25
v 315.75 4 -17.75
v 316.5 4 -17.75
v 317.25 4 -17.75
v 317.25 4 -18.25
v 316.75 4 -18.25
v 316.75 4 -19.5
v 317.25 4 -19.5
v 317.25 4 -20
v 316.75 4 -20
v 316.75 4 -28.75
v 320.25 4 -28.75
v 320.25 4 -18.25
v 318.75 4 -18.25
v 318.75 4 -20
v 318.25 4 -20
v 318.25 4 -18.25
v 318.25 4 -17.75
v 322.75 4 -17.75
v 322.75 4 -18.25
v 322.75 4 -20
v 322.25 4 -20
v 322.25 4 -18.25
v 320.75 4 -18.25
v 320.75 4 -28.75
v 324.25 4 -28.75
v 324.25 4 -20
v 323.75 4 -20
v 323.75 4 -19.5
v 324.25 4 -19.5
v 324.25 4 -18.25
v 323.75 4 -18.25
v 323.75 4 -17.75
v 324.5 4 -17.75
v 325.25 4 -17.75
v 325.25 4 -18.25
v 324.75 4 -18.25
v 324.75 4 -19.5
v 325.25 4 -19.5
v 325.25 4 -20
v 324.75 4 -20
v 324.75 4 -28.75
v 328.25 4 -28.75
v 328.25 4 -18.25
v 326.75 4 -18.25
v 326.75 4 -20
v 326.25 4 -20
v 326.25 4 -18.25
v 326.25 4 -17.75
v 330.75 4 -17.75
v 330.75 4 -18.25
v 330.75 4 -20
v 330.25 4 -20
v 330.25 4 -18.25
v 328.75 4 -18.25
v 328.75 4 -28.75
v 332.25 4 -28.75
v 332.25 4 -20
v 331.75 4 -20
v 331.75 4 -19.5
v 332.25 4 -19.5
v 332.25 4 -18.25
v 331.75 4 -18.25
v 331.75 4 -17.75
v 332.5 4 -17.75
v 333.25 4 -17.75
v 333.25 4 -18.25
v 332.75 4 -18.25
v 332.75 4 -19.5
v 333.25 4 -19.5
v 333.25 4 -20
v 332.75 4 -20
v 332.75 4 -28.75
v 336.25 4 -28.75
v 336.25 4 -18.25
v 334.75 4 -18.25
v 334.75 4 -20
v 334.25 4 -20
v 334.25 4 -18.25
v 334.25 4 -17.75
v 338.75 4 -17.75
v 338.75 4 -18.25
v 338.75 4 -20
v 338.25 4 -20
v 338.25 4 -18.25
v 336.75 4 -18.25
v 336.75 4 -28.75
v 340.25 4 -28.75
v 340.25 4 -20
v 339.75 4 -20
v 339.75 4 -19.5
v 340.25 4 -19.5
v 340.25 4 -18.25
v 339.75 4 -18.25
v 339.75 4 -17.75
v 340.5 4 -17.75
v 341.25 4 -17.75
v 341.25 4 -18.25
v 340.75 4 -18.25
v 340.75 4 -28.75
v 344.25 4 -28.75
v 344.25 4 -18.25
v 342.25 4 -18.25
v 342.25 4 -17.75
v 344.75 4 -17.75
v 344.75 4 -26.75
v 348.25 4 -26.75
v 348.25 4 -25.5
v 348.75 4 -25.5
v 348.75 4 -26.75
v 361.25 4 -26.75
v 361.25 4 -23.25
v 348.75 4 -23.25
v 348.75 4 -24.5
v 348.25 4 -24.5
v 348.25 4 -21.5
v 348.75 4 -21.5
v 348.75 4 -22.75
v 357.25 4 -22.75
v 357.25 4 -19.25
v 302.75 4 -24.75
v 300.25 4 -24.75
v 300.25 4 -18.25
v 298.25 4 -18.25
v 298.25 4 -17.75
v 302.75 4 -17.75
v 302.75 4 -19
v 302.25 4 -19
v 302.25 4 -18.25
v 300.75 4 -18.25
v 300.75 4 -21
v 302.25 4 -21
v 302.25 4 -20
v 302.75 4 -20
v 302.75 4 -22.5
v 302.25 4 -22.5
v 302.25 4 -21.5
v 300.75 4 -21.5
v 300.75 4 -24.25
v 302.25 4 -24.25
v 302.25 4 -23.5
v 302.75 4 -23.5
f 2199 2194 2198
f 2199 2200 2201
f 2193 2194 2202 2205
f 2198 2194 2195
f 2199 2201 2194
f 2202 2194 2201
f 2197 2198 2195
f 2228 2229 2224
f 2214 2219 2212
f 2215 2218 2219
f 2228 2225 2227
f 2211 2212 2219
f 2215 2219 2214
f 2212 2213 2214
f 2205 2202 2203 2204
f 2215 2216 2218
f 2223 2224 2232 2235
f 2228 2224 2225
f 2229 2231 2224
f 2232 2224 2231
f 2230 2231 2229
f 2245 2243 2244
f 2243 2245 2250
f 2259 2256 2257
f 2256 2259 2255
f 2246 2249 2250
f 2260 2255 2259
f 2258 2259 2257
f 2243 2250 2242
f 2288 2283 2287
f 2273 2274 2278
f 2271 2273 2278
f 2287 2284 2286
f 2271 2272 2273
f 2270 2271 2278
f 2249 2246 2247
f 2287 2283 2284
f 2282 2283 2291 2294
f 2283 2290 2291
f 2288 2289 2290
f 2290 2283 2288
f 2274 2275 2277
f 2277 2278 2274
f 2303 2304 2302
f 2246 2250 2245
f 2195 2196 2197
f 2209 2210 2211 2208
f 2221 2208 2220
f 2208 2211 2219 2220
f 2192 2193 2205
f 2217 2218 2216
f 2233 2234 2235 2232
f 2235 2222 2223
f 2225 2226 2227
f 2192 2190 2191
f 2206 2192 2205
f 2206 2189 2192
f 2240 2241 2242 2239
f 2208 2221 2207
f 2239 2242 2250 2251
f 2261 2262 2263 2260
f 2255 2260 2254
f 2263 2254 2260
f 2254 2263 2264 2253
f 2252 2238 2251
f 2270 2267 2268 2269
f 2278 2279 2267 2270
f 2280 2266 2279
f 2277 2275 2276
f 2284 2285 2286
f 2266 2267 2279
f 2294 2291 2292 2293
f 2247 2248 2249
f 2264 2134 2144 2253
f 2266 2132 2133 2265
f 2294 2295 2281 2282
f 2265 2133 2134 2264
f 2239 2251 2238
f 2237 2238 2155 2156
f 2309 2302 2304
f 2305 2309 2304
f 2315 2317 2318
f 2305 2308 2309
f 2315 2318 2314
f 2301 2302 2309
f 2321 2314 2319
f 2335 2336 2340
f 2349 2346 2348
f 2345 2349 2350
f 2318 2319 2314
f 2313 2314 2322 2325
f 2321 2319 2320
f 2334 2335 2333
f 2306 2308 2305
f 2321 2322 2314
f 2336 2339 2340
f 2336 2337 2339
f 2344 2345 2353 2356
f 2345 2352 2353
f 2352 2345 2350
f 2345 2346 2349
f 2333 2340 2332
f 2340 2333 2335
f 2351 2352 2350
f 2301 2298 2299 2300
f 2379 2380 2377
f 2371 2366 2367
f 2371 2364 2366
f 2367 2370 2371
f 2363 2364 2371
f 2365 2366 2364
f 2440 2442 2443
f 2402 2397 2398
f 2413 2408 2412
f 2630 2632 2635
f 2380 2376 2377
f 2375 2376 2384 2387
f 2381 2383 2376
f 2376 2383 2384
f 2381 2382 2383
f 2395 2402 2394
f 2402 2395 2397
f 2398 2401 2402
f 2407 2408 2416 2419
f 2408 2409 2412
f 2416 2408 2415
f 2413 2414 2415
f 2415 2408 2413
f 2397 2395 2396
f 2298 2301 2309 2310
f 2297 2298 2310
f 2325 2326 2312 2313
f 2315 2316 2317
f 2356 2353 2354 2355
f 2329 2332 2340 2341
f 2332 2329 2330 2331
f 2339 2337 2338
f 2323 2324 2325 2322
f 2341 2328 2329
f 2307 2308 2306
f 2356 2357 2343 2344
f 2348 2346 2347
f 2361 2362 2363 2360
f 2360 2363 2371 2372
f 2360 2372 2359
f 2378 2379 2377
f 2399 2401 2398
f 2394 2391 2392 2393
f 2385 2386 2387 2384
f 2419 2416 2417 2418
f 2370 2367 2368
f 2387 2388 2374 2375
f 2370 2368 2369
f 2391 2394 2402 2403
f 2390 2391 2403
f 2400 2401 2399
f 2411 2409 2410
f 2419 2420 2406 2407
f 2189 2190 2192
f 2179 2206 2207
f 2178 2179 2207
f 2189 2206 2179
f 2179 2180 2188 2189
f 2221 2178 2207
f 2168 2177 2178
f 2221 2168 2178
f 2236 2167 2222
f 2236 2222 2235
f 2156 2236 2237
f 2236 2157 2167
f 2156 2157 2236
f 2155 2252 2145
f 2168 2222 2167
f 2221 2222 2168
f 2154 2155 2145
f 2187 2188 2180
f 2181 2187 2180
f 2175 2176 2170
f 2176 2177 2170
f 2157 2158 2166
f 2147 2152 2153
f 2159 2165 2158
f 2153 2154 2147
f 2168 2169 2177
f 2166 2167 2157
f 2177 2169 2170
f 2146 2154 2145
f 2266 2280 2132
f 2155 2238 2252
f 2280 2122 2132
f 2144 2252 2253
f 2281 2121 2280
f 2296 2110 2111 2295
f 2110 2296 2297 2109
f 2311 2109 2297
f 2297 2310 2311
f 2295 2111 2121 2281
f 2134 2135 2143 2144
f 2132 2122 2131
f 2136 2142 2135
f 2124 2129 2130
f 2123 2131 2122
f 2280 2121 2122
f 2311 2099 2109
f 2099 2108 2109
f 2120 2121 2111 2112
f 2101 2106 2107
f 2113 2119 2112
f 2108 2099 2100
f 2131 2124 2130
f 2252 2144 2145
f 2108 2101 2107
f 2172 2173 2171
f 2182 2186 2187
f 2185 2186 2184
f 2164 2161 2162
f 2183 2184 2186
f 2146 2147 2154
f 2150 2148 2149
f 2164 2162 2163
f 2187 2181 2182
f 2186 2182 2183
f 2174 2175 2171
f 2173 2174 2171
f 2175 2170 2171
f 2160 2164 2165
f 2158 2165 2166
f 2160 2165 2159
f 2152 2148 2151
f 2152 2147 2148
f 2161 2164 2160
f 2138 2139 2141
f 2123 2124 2131
f 2137 2141 2142
f 2135 2142 2143
f 2150 2151 2148
f 2118 2116 2117
f 2127 2125 2126
f 2118 2115 2116
f 2101 2108 2100
f 2142 2136 2137
f 2141 2137 2138
f 2128 2129 2125
f 2127 2128 2125
f 2129 2124 2125
f 2114 2118 2119
f 2112 2119 2120
f 2114 2119 2113
f 2106 2102 2105
f 2106 2101 2102
f 2115 2118 2114
f 2104 2102 2103
f 2140 2141 2139
f 2098 2099 2311
f 2326 2088 2098 2312
f 2327 2087 2088 2326
f 2087 2327 2328 2086
f 2343 2075 2342
f 2357 2065 2075 2343
f 2076 2086 2342
f 2328 2342 2086
f 2358 2064 2065 2357
f 2064 2358 2359 2063
f 2341 2342 2328
f 2088 2089 2097 2098
f 2086 2076 2085
f 2083 2084 2078
f 2078 2084 2085
f 2077 2085 2076
f 2096 2089 2090
f 2065 2066 2074 2075
f 2342 2075 2076
f 2073 2066 2067
f 2055 2061 2062
f 2060 2061 2055
f 2388 2042 2052 2374
f 2042 2388 2389 2041
f 2373 2053 2063
f 2359 2373 2063
f 2373 2374 2052
f 2372 2373 2359
f 2406 2028 2029 2405
f 2390 2404 2040
f 2390 2040 2041 2389
f 2404 2405 2029 2030
f 2403 2404 2390
f 2420 2018 2028 2406
f 2421 2017 2018 2420
f 2052 2053 2373
f 2042 2043 2051 2052
f 2062 2053 2054
f 2037 2038 2032
f 2032 2038 2039
f 2050 2043 2044
f 2404 2030 2040
f 2018 2019 2027 2028
f 2030 2031 2039
f 2040 2030 2039
f 2017 2421 2422 2016
f 2063 2053 2062
f 2078 2085 2077
f 2092 2093 2095
f 2094 2095 2093
f 2104 2105 2102
f 2072 2070 2071
f 2070 2072 2069
f 2081 2079 2080
f 2062 2054 2055
f 2089 2096 2097
f 2083 2078 2079
f 2091 2092 2095
f 2090 2091 2096
f 2083 2079 2082
f 2096 2091 2095
f 2068 2072 2073
f 2066 2073 2074
f 2079 2081 2082
f 2067 2068 2073
f 2069 2072 2068
f 2060 2055 2056
f 2048 2049 2047
f 2057 2058 2056
f 2049 2046 2047
f 2031 2032 2039
f 2035 2033 2034
f 2025 2023 2024
f 2022 2023 2025
f 2026 2027 2019
f 2045 2049 2050
f 2045 2050 2044
f 2046 2049 2045
f 2058 2059 2056
f 2037 2033 2036
f 2036 2033 2035
f 2025 2021 2022
f 2025 2026 2021
f 2032 2033 2037
f 2050 2051 2043
f 2060 2056 2059
f 2019 2020 2026
f 2312 2098 2311
f 2640 2641 2643 2638
f 2381 2376 2380
f 2454 2624 2453
f 2454 2623 2624
f 2444 2439 2443
f 2455 2623 2454
f 2457 2458 2644 2623
f 2643 2641 2642
f 2638 2643 2644 2637
f 2409 2411 2412
f 2426 2427 2434
f 2427 2429 2434
f 2433 2434 2430
f 2438 2439 2447 2450
f 2440 2443 2439
f 2446 2439 2444
f 2447 2439 2446
f 2640 2638 2639
f 2466 2636 2637 2465
f 2635 2633 2634
f 2632 2633 2635
f 2446 2444 2445
f 2636 2629 2630 2635
f 2637 2644 2458 2465
f 2428 2429 2427
f 2456 2457 2455
f 2455 2457 2623
f 2460 2461 2459
f 2459 2464 2465 2458
f 2492 2496 2497
f 2496 2493 2495
f 2461 2462 2464 2459
f 2482 2483 2487
f 2462 2463 2464
f 2469 2467 2468
f 2469 2470 2472 2467
f 2482 2480 2481
f 2496 2492 2493
f 2480 2482 2487
f 2491 2492 2500 2503
f 2487 2483 2486
f 2479 2480 2487
f 2466 2473 2629 2636
f 2530 2528 2529
f 2430 2431 2433
f 2426 2423 2424 2425
f 2450 2447 2448 2449
f 2624 2625 2626
f 2630 2631 2632
f 2473 2474 2629
f 2624 2626 2453
f 2423 2426 2434 2435
f 2423 2435 2422
f 2432 2433 2431
f 2450 2437 2438
f 1994 2452 2453
f 2453 2626 2627
f 2453 2627 1993
f 2440 2441 2442
f 2473 2466 2467 2472
f 2471 2472 2470
f 2476 2479 2487 2488
f 2628 2629 2474
f 2497 2499 2492
f 2497 2498 2499
f 2486 2483 2484
f 2503 2500 2501 2502
f 2479 2476 2477 2478
f 2476 2488 2489 2475
f 2503 2490 2491
f 2485 2486 2484
f 2494 2495 2493
f 2508 2509 2510 2507
f 2500 2492 2499
f 2514 2518 2513
f 2513 2511 2512
f 2524 2526 2527
f 2511 2513 2518
f 2517 2518 2514
f 2518 2510 2511
f 2544 2545 2549
f 2558 2559 2554
f 2557 2558 2555
f 2580 2575 2576
f 2530 2531 2523
f 2530 2523 2528
f 2527 2523 2524
f 2542 2549 2541
f 2542 2543 2544
f 2522 2523 2531 2534
f 2554 2555 2558
f 2553 2554 2562 2565
f 2562 2554 2561
f 2560 2561 2559
f 2575 2573 2574
f 2580 2573 2575
f 2573 2580 2572
f 2561 2554 2559
f 2544 2549 2542
f 2608 2618 2607
f 2603 2605 2602
f 2617 2618 2608
f 2589 2590 2585
f 2528 2523 2527
f 2613 2611 2612
f 2617 2610 2611 2616
f 2608 2610 2617
f 2613 2614 2616 2611
f 2608 2609 2610
f 2545 2548 2549
f 2586 2588 2589
f 1837 2618 2619 1836
f 2591 2592 2590
f 2586 2589 2585
f 2592 2585 2590
f 2584 2585 2593 2596
f 2615 2616 2614
f 2621 2619 2620
f 2621 2622 1836 2619
f 2576 2579 2580
f 2618 1837 2607
f 2592 2593 2585
f 2507 2510 2518 2519
f 2506 2507 2519
f 2525 2526 2524
f 2548 2545 2546
f 2541 2538 2539 2540
f 2532 2533 2534 2531
f 2514 2515 2517
f 2534 2521 2522
f 2515 2516 2517
f 2549 2550 2538 2541
f 2557 2555 2556
f 2547 2548 2546
f 2537 2538 2550
f 2553 2565 2552
f 2565 2562 2563 2564
f 2572 2569 2570 2571
f 2569 2572 2580 2581
f 2577 2579 2576
f 2596 2593 2594 2595
f 2605 2603 2604
f 1835 1836 2622
f 2607 1837 1838
f 2581 2568 2569
f 2588 2586 2587
f 2577 2578 2579
f 2596 2583 2584
f 2599 2600 2605
f 2605 2600 2602
f 2600 2601 2602
f 1839 1840 1841
f 2422 2435 2436
f 2005 2436 2437
f 2016 2422 2436
f 2016 2436 2006
f 2005 2006 2436
f 2015 2016 2006
f 2005 2437 1995
f 2451 1994 1995
f 2437 2451 1995
f 1983 2627 2628
f 1993 1994 2453
f 2452 1994 2451
f 2627 1983 1993
f 1995 1996 2004 2005
f 2437 2450 2451
f 2628 1975 1982
f 2015 2008 2014
f 2007 2015 2006
f 2007 2008 2015
f 2628 1982 1983
f 1985 1990 1991
f 1981 1982 1976
f 1975 1976 1982
f 1983 1984 1992
f 1992 1985 1991
f 1997 2003 1996
f 1993 1983 1992
f 1978 1976 1977
f 1974 1975 2628
f 2474 2475 1966
f 2490 1954 2489
f 2474 1973 1974
f 1974 2628 2474
f 2475 2489 1955 1965
f 2490 1944 1954
f 1944 2490 2504
f 2474 1966 1973
f 1943 2504 2505
f 2503 2504 2490
f 2520 2506 2519
f 2506 1942 1943 2505
f 2520 1942 2506
f 2520 1932 1942
f 1931 1932 2520
f 1944 2504 1943
f 1966 1972 1973
f 2475 1965 1966
f 1969 1967 1968
f 1972 1966 1967
f 1964 1965 1955
f 1955 2489 1954
f 1942 1932 1941
f 1953 1954 1944 1945
f 1934 1939 1940
f 1946 1952 1945
f 1933 1941 1932
f 1964 1955 1956
f 1964 1957 1963
f 1941 1934 1940
f 1984 1985 1992
f 2001 2002 2000
f 2002 1999 2000
f 2013 2008 2009
f 2011 2009 2010
f 1976 1978 1981
f 1988 1986 1987
f 1979 1980 1981
f 1970 1972 1967
f 2012 2013 2009
f 2003 1998 2002
f 2011 2012 2009
f 1998 1999 2002
f 1986 1990 1985
f 1997 1998 2003
f 1989 1990 1986
f 1988 1989 1986
f 1981 1978 1979
f 1972 1970 1971
f 2003 2004 1996
f 2021 2026 2020
f 1960 1958 1959
f 1951 1948 1949
f 1962 1957 1958
f 1969 1970 1967
f 1933 1934 1941
f 1928 1925 1926
f 1937 1935 1936
f 1951 1949 1950
f 1927 1928 1926
f 1961 1962 1958
f 1951 1947 1948
f 1961 1958 1960
f 1947 1951 1952
f 1939 1934 1935
f 1947 1952 1946
f 1935 1938 1939
f 1935 1937 1938
f 1925 1928 1924
f 1952 1953 1945
f 1962 1963 1957
f 1964 1956 1957
f 2520 2521 1931
f 2008 2013 2014
f 2535 1920 1921
f 2521 1921 1931
f 2534 2535 2521
f 1920 2535 2536
f 2537 1919 1920 2536
f 1919 2551 1909
f 2551 1919 2537
f 1919 1909 1918
f 2537 2550 2551
f 2552 2565 2566
f 2552 1908 2551
f 1897 1898 2566
f 2552 2566 1898
f 2567 1897 2566
f 1898 1908 2552
f 1909 2551 1908
f 1921 1922 1930 1931
f 1929 1930 1922
f 1916 1917 1911
f 1929 1922 1923
f 1917 1918 1911
f 1898 1899 1907 1908
f 1909 1910 1918
f 1894 1888 1893
f 1906 1899 1900
f 1918 1910 1911
f 1897 2567 2568 1896
f 2535 1921 2521
f 2583 2596 2597
f 2568 2581 2582
f 1886 1896 2582
f 2568 2582 1896
f 2582 2583 1885
f 2583 2597 1875
f 2598 1874 2597
f 2599 2605 2606
f 2606 2607 1865 1866
f 2606 1873 2599
f 2607 1838 1845
f 1845 1838 1839 1844
f 1842 1844 1839
f 1845 1864 2607
f 1874 2598 2599
f 1864 1845 1846
f 1886 2582 1885
f 1875 1885 2583
f 1875 1876 1884 1885
f 1887 1895 1886
f 1895 1888 1894
f 1896 1886 1895
f 2599 1873 1874
f 1866 1873 2606
f 1866 1872 1873
f 1867 1872 1866
f 1865 2607 1864
f 1874 1875 2597
f 1877 1883 1876
f 1870 1871 1872
f 1902 1903 1905
f 1916 1911 1912
f 1905 1903 1904
f 1912 1913 1914
f 1881 1882 1880
f 1879 1880 1882
f 1891 1889 1890
f 1888 1895 1887
f 1924 1929 1923
f 1905 1901 1902
f 1912 1915 1916
f 1912 1914 1915
f 1901 1905 1906
f 1888 1889 1893
f 1901 1906 1900
f 1892 1893 1889
f 1877 1878 1883
f 1870 1867 1869
f 1906 1907 1899
f 1928 1929 1924
f 1868 1869 1867
f 1846 1853 1864
f 1863 1864 1853 1854
f 1853 1846 1847 1852
f 1876 1883 1884
f 1847 1848 1849
f 1852 1847 1849
f 1852 1850 1851
f 1852 1849 1850
f 1843 1844 1842
f 1889 1891 1892
f 1882 1878 1879
f 1861 1863 1854
f 1862 1863 1861
f 1883 1878 1882
f 1861 1854 1855 1860
f 1855 1856 1857
f 1857 1858 1860 1855
f 1860 1858 1859
f 1872 1867 1870
f 1842 1839 1841
f 2434 2429 2430
